<svg width="113" height="77" viewBox="0 0 113 77" fill="none" xmlns="http://www.w3.org/2000/svg">
<g opacity="0.9">
<path d="M3.85339 3.70891C16.5778 0.18808 31.6369 3.47001 42.9122 9.86363C53.7038 15.9835 65.6845 27.8097 63.002 41.4701C62.0253 46.4445 58.087 50.8042 52.6868 48.7885C47.6712 46.9164 45.8698 41.371 47.9356 36.6194C53.5144 23.788 72.4666 28.3675 81.7095 33.8074C87.5532 37.2463 92.5707 42.073 96.2186 47.7911C99.6031 53.0967 102.63 59.9804 102.144 66.3911C102.073 67.3119 100.538 67.3993 100.323 66.5182C99.1743 61.8082 98.4531 57.2489 96.2853 52.8401C94.037 48.2685 90.8581 44.1428 87.0876 40.7269C79.6084 33.9511 67.7002 28.4725 57.4645 31.3938C52.0393 32.9421 45.6888 40.3369 51.2951 45.4241C53.5679 47.4865 57.0028 47.8348 59.0824 45.325C60.9809 43.0331 61.3508 39.5579 61.1791 36.7047C60.482 25.0978 50.1574 15.8912 40.603 10.7143C35.1994 7.78652 29.3209 5.77717 23.2614 4.75874C16.777 3.66918 10.5624 4.12492 4.08347 4.82153C3.45014 4.88972 3.22448 3.88306 3.85339 3.70891Z" fill="#6498CA"/>
<path d="M0.344333 4.53556C13.1713 -2.57674 29.1036 -0.935776 41.2967 6.74951C47.1649 10.4479 52.2168 15.3075 56.421 20.8073C60.7135 26.4219 65.1208 33.256 66.0505 40.4032C66.698 45.3879 64.6469 53.6849 58.0747 53.0555C52.2934 52.5016 46.7592 46.0963 46.4114 40.4596C46.0209 34.1469 51.5609 29.4418 57.2962 28.265C64.1392 26.86 71.6474 29.2275 77.7903 32.1856C91.2344 38.6597 101.592 51.2242 105.052 65.7613C105.381 67.1471 103.287 67.907 102.94 66.505C100.332 55.9783 94.2652 46.6344 85.7822 39.8832C81.4583 36.4428 76.5182 33.7186 71.2662 31.985C65.2508 29.9996 57.7225 28.6216 52.2978 32.791C46.3118 37.3925 48.3291 44.8786 53.7675 48.9396C56.943 51.3105 60.7278 52.0155 62.9476 48.0006C64.75 44.7408 64.2854 40.5901 63.2027 37.1786C59.7348 26.2472 50.9674 15.7431 41.5832 9.34806C29.8164 1.32821 14.0514 -1.1384 1.17487 5.75364C0.349726 6.19515 -0.489147 4.99768 0.344333 4.53556Z" fill="#6498CA"/>
<path d="M92.4412 57.3132C94.8867 59.0091 97.1051 61.0891 99.3867 62.9984C100.466 63.9015 101.546 64.8047 102.626 65.7078C103.125 66.1253 105.478 68.6198 106.102 68.4246C106.424 68.324 106.841 64.789 106.934 64.3293C107.211 62.9645 107.489 61.5993 107.766 60.2345C108.307 57.5717 108.443 54.2231 109.863 51.8747C110.372 51.0348 111.589 51.2458 111.725 52.2421C111.977 54.0857 111.361 55.8817 110.979 57.6865C110.546 59.7307 110.114 61.7749 109.681 63.8186C109.282 65.7113 109.262 70.2937 106.965 71.0958C104.77 71.862 102.198 68.2357 100.795 67.0073C97.6447 64.2474 94.2176 61.6214 91.3296 58.5891C90.5726 57.7934 91.5469 56.6926 92.4412 57.3132Z" fill="#6498CA"/>
<path d="M93.1177 56.877C95.3434 59.1734 96.9922 62.1256 98.9423 64.6673C101.203 67.6141 103.573 70.5183 106.238 73.1095C105.539 73.3465 104.841 73.5844 104.143 73.8213C104.907 70.4384 105.532 67.023 105.966 63.5812C106.389 60.2345 106.038 56.4792 106.965 53.2576C107.234 52.3201 108.824 51.9389 109.101 53.1085C109.838 56.2187 109.119 59.9902 108.739 63.1338C108.282 66.9126 107.571 70.6356 106.653 74.3286C106.375 75.4451 105.033 75.6536 104.341 74.7961C102.042 71.9503 99.6653 69.181 97.498 66.2302C95.5485 63.5758 93.2134 60.6961 92.0703 57.5893C91.8545 57.0031 92.6512 56.3958 93.1177 56.877Z" fill="#6498CA"/>
<path d="M92.5772 54.1696C97.4726 60.8335 102.334 67.5234 107.305 74.1319C106.533 74.2874 105.763 74.4434 104.993 74.5994C106.197 70.9005 107.37 67.206 108.305 63.4281C109.165 59.9519 109.424 56.0808 110.785 52.7763C111.214 51.7324 112.817 52.1386 112.888 53.1914C113.135 56.881 111.772 60.9154 110.849 64.4588C109.884 68.1651 108.761 71.8414 107.394 75.4201C107.043 76.3395 105.691 76.314 105.19 75.5737C100.563 68.7273 95.8233 61.9574 91.1187 55.164C90.4692 54.226 91.9065 53.2566 92.5772 54.1696Z" fill="#6498CA"/>
</g>
</svg>
