<svg width="161" height="123" viewBox="0 0 161 123" fill="none" xmlns="http://www.w3.org/2000/svg">
<path opacity="0.09" d="M158.799 82.3285C155.699 93.8994 149.362 104.603 140.623 112.709C132.628 120.124 123.876 123.668 115.976 122.694C104.669 121.286 97.4656 111.46 94.1767 105.727C91.7865 101.551 89.8871 97.0809 88.0695 92.7524C86.4374 88.8724 84.736 84.8541 82.7083 81.1606C79.8711 75.974 73.6963 67.022 64.2484 65.2747C59.0292 64.3149 53.6658 65.6292 47.9897 67.0194C41.4441 68.6284 34.6702 70.2959 28.0281 68.1972C20.8561 65.9431 15.8621 59.9261 11.515 53.7767C5.91791 45.8435 -1.29713 33.9277 0.568864 22.0526C2.15566 11.9636 13.7189 3.48438 22.9987 2.63452C30.7127 1.92339 38.0605 4.46381 45.167 6.91296L46.5418 7.3877C53.6268 9.81781 61.1511 12.0466 68.3561 10.3085C71.796 9.47564 74.973 7.78813 78.3388 5.99166C80.8687 4.63583 83.5021 3.24126 86.2757 2.21655C97.8264 -1.99919 112.176 0.503283 126.698 9.25934C135.713 14.7055 143.033 21.1199 148.44 28.3242C157.639 40.5723 162.087 56.4654 160.65 71.8982C160.345 75.4186 159.713 78.918 158.799 82.3285ZM4.66363 21.3553C4.55064 21.777 4.45912 22.2177 4.38335 22.6493C2.73982 33.1485 9.46218 44.1746 14.6729 51.5656C18.6212 57.1695 23.1171 62.6144 29.1954 64.5355C34.8089 66.3055 40.7696 64.8455 47.0869 63.2949C52.907 61.8636 58.9396 60.3829 64.9659 61.5059C73.1221 63.0134 80.6275 69.3312 86.0998 79.3178C88.2273 83.1844 89.9584 87.2903 91.6326 91.2613C93.4115 95.4864 95.2597 99.8497 97.5318 103.821C102.512 112.52 109.418 117.999 116.467 118.878C125.573 120.015 133.888 113.736 138.026 109.9C148.641 100.05 155.51 86.0728 156.856 71.5728C158.203 57.0728 154.025 42.1559 145.395 30.6586C140.281 23.8516 133.338 17.7645 124.745 12.5776C116.93 7.8648 101.699 0.713221 87.6285 5.84894C85.0933 6.778 82.7049 8.05209 80.1783 9.39551C76.7529 11.2159 73.2141 13.1122 69.2928 14.0554C61.081 16.0288 52.6174 13.535 45.325 11.036L43.9377 10.558C37.2215 8.24 30.2606 5.8431 23.3795 6.47169C16.0527 7.12705 6.73058 13.6414 4.66363 21.3553Z" fill="white"/>
</svg>
