<svg width="90" height="90" viewBox="0 0 90 90" fill="none" xmlns="http://www.w3.org/2000/svg">
<path fill-rule="evenodd" clip-rule="evenodd" d="M85.0687 89.9915C84.3655 89.9915 83.6622 89.9915 82.959 89.9915C81.171 89.3319 79.7999 88.1135 78.4971 86.767C76.3383 84.5347 74.1114 82.3732 71.9254 80.1681C71.7292 79.9719 71.6201 79.6911 71.4702 79.4485C71.3748 79.5167 71.2767 79.5821 71.1813 79.6502C71.1813 81.2475 71.1786 82.842 71.1813 84.4393C71.184 85.8021 70.797 87.0178 69.9357 88.0971C69.1152 89.1274 67.9595 89.5663 66.7902 89.9942C45.9387 89.9942 25.0872 89.9942 4.23562 89.9942C4.18656 89.9288 4.15113 89.8252 4.08844 89.8061C1.1883 88.8331 0.17162 86.7098 0.179797 83.7851C0.215231 67.7471 0.196151 51.7064 0.196151 35.6657C0.196151 25.6843 0.201603 15.7055 0.1907 5.72404C0.187975 3.74791 0.877574 2.14248 2.49118 0.954078C3.07721 0.523419 3.81859 0.433472 4.41279 0.0273438C20.4617 0.0273438 36.5105 0.0273438 52.5594 0.0273438C53.0636 0.286284 53.5216 0.597013 53.9304 1.00859C59.3464 6.44089 64.7705 11.8705 70.211 17.2782C70.906 17.9678 71.2004 18.7201 71.1977 19.6987C71.1704 25.6134 71.2004 31.5282 71.1677 37.4456C71.1622 38.3478 71.4048 39.0129 72.0017 39.7025C78.1236 46.7838 79.2439 56.9398 74.8283 65.185C74.5421 65.7165 74.5612 66 75 66.4333C79.2221 70.6173 83.4088 74.8367 87.6281 79.026C88.6366 80.0264 89.5061 81.0921 89.9886 82.4413C89.9886 83.4962 89.9886 84.551 89.9886 85.6031C89.6615 86.3118 89.3862 87.0368 88.901 87.6747C87.9225 88.9585 86.5597 89.569 85.0687 89.9915ZM67.6706 35.7094C67.6706 35.3605 67.6706 35.137 67.6706 34.9107C67.6706 30.4597 67.657 26.0086 67.687 21.5603C67.6924 20.9116 67.548 20.7371 66.8802 20.7453C63.3095 20.7835 59.7361 20.7671 56.1627 20.7617C52.6657 20.7562 50.4606 18.5566 50.4524 15.0677C50.4442 11.4943 50.4361 7.92367 50.4661 4.35029C50.4715 3.72338 50.3598 3.5244 49.6729 3.5244C35.1204 3.54894 20.568 3.54076 6.0155 3.54348C4.33648 3.54348 3.71229 4.15404 3.71229 5.80308C3.70957 31.9506 3.70957 58.0982 3.71229 84.2457C3.71229 85.843 4.3501 86.4808 5.95281 86.4808C25.7768 86.4835 45.598 86.4835 65.4219 86.4808C67.0301 86.4808 67.6624 85.8484 67.6679 84.2512C67.6733 81.9671 67.6134 79.6829 67.6951 77.4015C67.7306 76.3494 67.4635 75.5889 66.6703 74.8803C66.1633 74.4278 65.858 74.3896 65.2693 74.7031C60.9245 77.0117 56.28 77.8622 51.431 77.1044C44.0443 75.9515 38.4676 72.0592 34.7197 65.5802C34.4826 65.1713 34.2537 65.0432 33.7739 65.046C26.5127 65.0678 19.2515 65.0623 11.9902 65.0596C10.5701 65.0596 9.71699 64.3945 9.71971 63.3097C9.72244 62.2194 10.581 61.5544 11.9957 61.5462C12.2301 61.5462 12.4645 61.5462 12.6989 61.5462C19.1697 61.5462 25.6405 61.5353 32.1113 61.5598C32.7818 61.5625 32.9317 61.4808 32.7354 60.7639C30.9583 54.3095 31.8114 48.2039 35.2921 42.48C40.8089 33.4089 52.3086 29.3749 62.2983 32.9809C64.1681 33.6487 65.9071 34.57 67.6706 35.7094ZM73.9997 54.4648C73.967 43.8265 65.2502 35.1397 54.6391 35.1724C44.0007 35.2051 35.3139 43.9219 35.3439 54.533C35.3766 65.1713 44.0934 73.8554 54.7045 73.8254C65.3429 73.7954 74.0297 65.076 73.9997 54.4648ZM86.6551 84.044C86.6169 83.3217 86.3689 82.7439 85.8946 82.2696C81.5526 77.9249 77.2051 73.5856 72.8712 69.2326C72.5442 68.9028 72.3588 68.881 72.0563 69.2517C71.3176 70.1594 70.5135 71.0207 69.584 71.7321C69.0253 72.16 69.107 72.4026 69.565 72.8578C73.7816 77.039 77.971 81.2475 82.1713 85.445C82.3566 85.6304 82.542 85.8239 82.7546 85.9765C83.5614 86.5489 84.42 86.6525 85.3113 86.1946C86.1999 85.7367 86.6005 84.9708 86.6551 84.044ZM53.9849 6.31824C53.9849 9.36283 53.9495 12.4783 54.004 15.591C54.0231 16.6268 54.789 17.221 55.9093 17.2401C57.4302 17.2646 58.9484 17.2455 60.4693 17.2455C61.9739 17.2455 63.4758 17.2455 64.9122 17.2455C61.2571 13.5904 57.6183 9.95431 53.9849 6.31824Z" fill="#020101"/>
<path fill-rule="evenodd" clip-rule="evenodd" d="M67.6706 35.709C65.9071 34.5723 64.1681 33.6511 62.2983 32.9751C52.3087 29.369 40.809 33.403 35.2922 42.4741C31.8115 48.1981 30.9556 54.3036 32.7355 60.7581C32.9317 61.4749 32.7818 61.554 32.1113 61.554C25.6405 61.5294 19.1697 61.5403 12.6989 61.5403C12.4645 61.5403 12.2301 61.5403 11.9957 61.5403C10.5811 61.5485 9.72246 62.2136 9.71973 63.3039C9.71701 64.3887 10.5701 65.0537 11.9902 65.0537C19.2515 65.0565 26.5127 65.0619 33.774 65.0401C34.2537 65.0401 34.4854 65.1682 34.7198 65.5744C38.4676 72.0533 44.0444 75.9456 51.431 77.0986C56.28 77.8536 60.9246 77.0032 65.2693 74.6972C65.8553 74.3865 66.1633 74.4219 66.6703 74.8744C67.4635 75.5831 67.7306 76.3463 67.6952 77.3957C67.6161 79.6771 67.6734 81.9612 67.6679 84.2453C67.6625 85.8453 67.0301 86.4749 65.4219 86.4749C45.598 86.4777 25.7768 86.4777 5.95283 86.4749C4.35012 86.4749 3.71231 85.8399 3.71231 84.2399C3.70958 58.0923 3.70958 31.9448 3.71231 5.79723C3.71231 4.14819 4.33649 3.53763 6.01552 3.53763C20.568 3.53763 35.1204 3.54309 49.6729 3.51855C50.3598 3.51855 50.4715 3.71753 50.4661 4.34444C50.4361 7.91509 50.4443 11.4885 50.4525 15.0619C50.4606 18.5507 52.6657 20.7504 56.1628 20.7558C59.7362 20.764 63.3068 20.7776 66.8802 20.7395C67.5453 20.7313 67.6897 20.9057 67.687 21.5544C67.6543 26.0055 67.6706 30.4566 67.6706 34.9049C67.6706 35.1338 67.6706 35.3573 67.6706 35.709ZM28.3362 12.8295C23.2419 12.8295 18.1476 12.8295 13.0533 12.8322C12.44 12.8322 11.8185 12.8077 11.2107 12.8786C10.3903 12.974 9.78242 13.6745 9.72246 14.4813C9.66522 15.2581 10.2158 16.0213 11.0281 16.223C11.3633 16.3075 11.7204 16.3429 12.0666 16.3429C22.8984 16.3484 33.7303 16.3484 44.5622 16.3429C44.9084 16.3429 45.2655 16.3102 45.6007 16.2284C46.4239 16.0267 46.9663 15.2935 46.9254 14.5004C46.8818 13.6963 46.274 13.0012 45.459 12.8731C45.1428 12.8241 44.8185 12.8322 44.4968 12.8322C39.1109 12.8268 33.7249 12.8295 28.3362 12.8295ZM32.0949 28.505C36.2489 28.505 40.4028 28.505 44.5541 28.505C44.8457 28.505 45.1428 28.5131 45.429 28.4695C46.2494 28.3441 46.8627 27.6736 46.9227 26.8668C46.9799 26.0791 46.4402 25.3513 45.6389 25.0978C45.2355 24.9697 44.8294 24.9915 44.4232 24.9915C36.1753 24.9915 27.9273 24.9915 19.6794 24.9915C19.2706 24.9915 18.8644 24.9725 18.4637 25.0978C17.597 25.3731 17.1282 26.0491 17.2154 26.9486C17.3108 27.9435 18.0358 28.4995 19.2842 28.5022C23.5553 28.5104 27.8265 28.505 32.0949 28.505ZM19.8893 40.6997C22.4623 40.6997 25.0354 40.7024 27.6084 40.6997C29.233 40.6997 30.0479 40.1246 30.0697 38.9716C30.0915 37.7914 29.2466 37.1781 27.5812 37.1781C22.4651 37.1781 17.3489 37.1754 12.2328 37.1808C11.8539 37.1808 11.4751 37.2135 11.1017 37.2708C10.4666 37.3689 10.0632 37.7723 9.85057 38.3583C9.39538 39.6176 10.2703 40.6806 11.8212 40.6942C14.5088 40.7133 17.199 40.6997 19.8893 40.6997ZM19.3469 49.3783C16.8311 49.3783 14.318 49.3701 11.8022 49.381C10.5374 49.3865 9.70883 50.1006 9.71973 51.1364C9.73064 52.1421 10.532 52.8835 11.734 52.8863C16.8229 52.9026 21.9117 52.8944 26.9979 52.8917C27.5321 52.8917 28.05 52.7854 28.4534 52.3984C28.9876 51.8859 29.1703 51.259 28.9168 50.5585C28.6224 49.749 27.9955 49.381 27.1505 49.381C24.5529 49.3756 21.9499 49.3783 19.3469 49.3783ZM18.8917 77.2458C21.1458 77.2458 23.3972 77.2458 25.6514 77.2458C27.2677 77.2458 28.0991 76.6625 28.1236 75.5177C28.1481 74.3511 27.2786 73.7242 25.6214 73.7242C21.1431 73.7242 16.6675 73.7214 12.1892 73.7269C11.8403 73.7269 11.4887 73.7596 11.1425 73.8087C10.4693 73.9068 10.0468 74.3156 9.83694 74.9453C9.42263 76.1909 10.2676 77.2185 11.7776 77.2376C14.149 77.2676 16.5203 77.2458 18.8917 77.2458ZM13.2086 26.7414C13.2004 25.8147 12.3909 25.0024 11.4778 25.0024C10.5729 24.9997 9.73881 25.8202 9.71973 26.7305C9.69793 27.6791 10.5483 28.5186 11.5078 28.4968C12.44 28.4777 13.2168 27.6763 13.2086 26.7414ZM35.3358 75.4468C35.3085 74.5146 34.5099 73.7487 33.5695 73.7596C32.6319 73.7705 31.8387 74.561 31.836 75.485C31.8333 76.4417 32.6782 77.2458 33.6513 77.2131C34.5808 77.1831 35.3603 76.3681 35.3358 75.4468Z" fill="#BFD6ED"/>
<path fill-rule="evenodd" clip-rule="evenodd" d="M73.9997 54.4644C74.0324 65.0755 65.3429 73.795 54.7072 73.825C44.0934 73.855 35.3766 65.1682 35.3466 54.5325C35.3139 43.9214 44.0007 35.2047 54.6418 35.172C65.2502 35.1393 73.967 43.826 73.9997 54.4644ZM54.6691 39.037C46.1622 39.0424 39.1899 46.0257 39.2117 54.5244C39.2335 63.0013 46.1513 69.9245 54.6336 69.96C63.1269 69.9927 70.121 63.0258 70.1346 54.5162C70.1455 46.0148 63.1705 39.0343 54.6691 39.037Z" fill="#BFD6ED"/>
<path fill-rule="evenodd" clip-rule="evenodd" d="M86.655 84.044C86.6032 84.9707 86.1998 85.7367 85.3085 86.1946C84.4172 86.6525 83.5559 86.5489 82.7518 85.9765C82.5392 85.8266 82.3539 85.6304 82.1685 85.445C77.9682 81.2474 73.7788 77.039 69.5622 72.8578C69.1043 72.4026 69.0225 72.16 69.5813 71.7321C70.5107 71.0207 71.3148 70.1593 72.0535 69.2517C72.356 68.881 72.5414 68.9055 72.8685 69.2326C77.2023 73.5855 81.5498 77.9248 85.8918 82.2696C86.3661 82.7438 86.6168 83.3217 86.655 84.044Z" fill="#6498CA"/>
<path fill-rule="evenodd" clip-rule="evenodd" d="M53.9849 6.31836C57.6183 9.9517 61.2571 13.5905 64.9122 17.2457C63.4758 17.2457 61.9712 17.2457 60.4693 17.2457C58.9484 17.2457 57.4302 17.2647 55.9093 17.2402C54.789 17.2211 54.0231 16.6269 54.004 15.5912C53.9522 12.4784 53.9849 9.36296 53.9849 6.31836Z" fill="#6498CA"/>
<path fill-rule="evenodd" clip-rule="evenodd" d="M28.3363 12.8298C33.7222 12.8298 39.1109 12.8298 44.4969 12.8325C44.8185 12.8325 45.1456 12.8243 45.4591 12.8734C46.274 13.0015 46.8846 13.6938 46.9255 14.5006C46.9664 15.2938 46.4239 16.027 45.6008 16.2287C45.2655 16.3105 44.9085 16.3432 44.5623 16.3432C33.7304 16.3486 22.8985 16.3486 12.0666 16.3432C11.7205 16.3432 11.3634 16.3078 11.0281 16.2233C10.2186 16.0188 9.66801 15.2584 9.72253 14.4816C9.78249 13.672 10.3903 12.9715 11.2108 12.8788C11.8186 12.808 12.4373 12.8352 13.0533 12.8325C18.1504 12.8271 23.2447 12.8298 28.3363 12.8298Z" fill="#030303"/>
<path fill-rule="evenodd" clip-rule="evenodd" d="M32.0948 28.5051C27.8237 28.5051 23.5553 28.5078 19.2841 28.5023C18.0357 28.4996 17.3107 27.9436 17.2153 26.9487C17.1281 26.0492 17.5969 25.3705 18.4637 25.0979C18.8671 24.9698 19.2732 24.9916 19.6793 24.9916C27.9273 24.9916 36.1752 24.9916 44.4231 24.9916C44.832 24.9916 45.2381 24.9698 45.6388 25.0979C46.4401 25.3514 46.9826 26.0792 46.9226 26.8669C46.8626 27.6737 46.2494 28.3442 45.4289 28.4696C45.1427 28.5132 44.8456 28.5051 44.554 28.5051C40.4027 28.5078 36.2488 28.5051 32.0948 28.5051Z" fill="#020202"/>
<path fill-rule="evenodd" clip-rule="evenodd" d="M19.8893 40.7001C17.199 40.7001 14.5088 40.7165 11.8212 40.6947C10.2703 40.6811 9.39537 39.618 9.85056 38.3588C10.0632 37.7727 10.4666 37.3693 11.1016 37.2712C11.4751 37.214 11.8567 37.1813 12.2328 37.1813C17.3489 37.1758 22.4651 37.1758 27.5812 37.1785C29.2466 37.1785 30.0943 37.7918 30.0697 38.9721C30.0479 40.1223 29.2302 40.6974 27.6084 40.7001C25.0354 40.7001 22.4623 40.7001 19.8893 40.7001Z" fill="#060606"/>
<path fill-rule="evenodd" clip-rule="evenodd" d="M19.3468 49.3789C21.9499 49.3789 24.5529 49.3762 27.1559 49.3816C28.0009 49.3816 28.6278 49.7496 28.9222 50.5591C29.1757 51.2569 28.993 51.8866 28.4588 52.399C28.0527 52.786 27.5375 52.8923 27.0033 52.8923C21.9144 52.8978 16.8256 52.906 11.7394 52.8869C10.5374 52.8814 9.73332 52.14 9.72514 51.137C9.71424 50.1012 10.5429 49.3871 11.8076 49.3816C14.3152 49.3707 16.831 49.3789 19.3468 49.3789Z" fill="#030303"/>
<path fill-rule="evenodd" clip-rule="evenodd" d="M18.8916 77.246C16.5203 77.246 14.1517 77.2651 11.7803 77.2379C10.2676 77.2215 9.42531 76.1939 9.83962 74.9456C10.0495 74.3132 10.472 73.9043 11.1452 73.8089C11.4914 73.7599 11.843 73.7272 12.1919 73.7272C16.6702 73.7217 21.1458 73.7217 25.6241 73.7244C27.2813 73.7244 28.1508 74.3514 28.1263 75.518C28.1017 76.6627 27.2704 77.246 25.6541 77.246C23.3972 77.2488 21.1458 77.246 18.8916 77.246Z" fill="#060606"/>
<path fill-rule="evenodd" clip-rule="evenodd" d="M13.2086 26.7419C13.2168 27.6768 12.4399 28.4782 11.5078 28.4973C10.5456 28.5163 9.69791 27.6768 9.71971 26.731C9.74152 25.8206 10.5729 25.0029 11.4778 25.0029C12.3936 25.0057 13.2004 25.8179 13.2086 26.7419Z" fill="#070707"/>
<path fill-rule="evenodd" clip-rule="evenodd" d="M35.3357 75.447C35.363 76.3656 34.5834 77.1833 33.6513 77.2133C32.6782 77.246 31.8332 76.4419 31.8359 75.4852C31.8387 74.5612 32.6318 73.768 33.5695 73.7598C34.5071 73.7517 35.3085 74.5148 35.3357 75.447Z" fill="#060606"/>
<path fill-rule="evenodd" clip-rule="evenodd" d="M54.669 39.0371C63.1704 39.0317 70.1455 46.0149 70.1319 54.5163C70.1182 63.0259 63.1268 69.9928 54.6309 69.9601C46.1485 69.9274 39.2307 63.0041 39.2089 54.5245C39.1898 46.0258 46.1594 39.0426 54.669 39.0371ZM54.6309 42.5533C48.0647 42.5778 42.7005 47.9774 42.725 54.5381C42.7496 61.1043 48.1492 66.4685 54.7099 66.4439C61.2761 66.4194 66.6403 61.0198 66.6157 54.4591C66.5939 47.8929 61.1943 42.5287 54.6309 42.5533Z" fill="#020303"/>
<path fill-rule="evenodd" clip-rule="evenodd" d="M54.6308 42.5538C61.1943 42.532 66.5939 47.8961 66.6157 54.4596C66.6402 61.0231 61.276 66.4226 54.7098 66.4445C48.1491 66.469 42.7468 61.1021 42.725 54.5386C42.7032 47.9752 48.0673 42.5756 54.6308 42.5538ZM54.9034 46.6042C53.8485 46.5714 53.0335 47.2338 52.9354 48.2014C52.84 49.1445 53.5432 50.0494 54.609 50.074C57.0785 50.1339 59.0437 52.1373 59.0982 54.5713C59.12 55.6344 60.0331 56.3321 60.9789 56.234C61.9466 56.1332 62.6007 55.3182 62.568 54.2606C62.429 50.1176 59.041 46.7295 54.9034 46.6042Z" fill="#69CFB2"/>
<path fill-rule="evenodd" clip-rule="evenodd" d="M54.9035 46.6035C59.0411 46.7289 62.4319 50.1142 62.5654 54.26C62.6009 55.3176 61.944 56.1325 60.9763 56.2334C60.0305 56.3342 59.1202 55.6337 59.0956 54.5707C59.0438 52.1367 57.0786 50.136 54.6064 50.0733C53.5407 50.0461 52.8374 49.1411 52.9328 48.2008C53.0337 47.2332 53.8459 46.5735 54.9035 46.6035Z" fill="#010303"/>
</svg>
