<svg width="36" height="36" viewBox="0 0 36 36" fill="none" xmlns="http://www.w3.org/2000/svg">
<path fill-rule="evenodd" clip-rule="evenodd" d="M35.9911 13.7127C35.9911 21.0309 35.9897 28.3492 35.9967 35.6661C35.9967 35.9122 35.9699 35.9999 35.6855 35.9999C23.8953 35.99 12.1038 35.99 0.313627 35.9999C0.0292711 35.9999 0.000976562 35.9136 0.000976562 35.6661C0.00805009 28.8161 0.00663551 21.9675 0.00663551 15.1175C0.268356 15.4938 0.640423 15.556 1.07474 15.5532C3.62828 15.5391 6.18182 15.5362 8.73395 15.5546C9.25173 15.5589 9.54882 15.3792 9.7582 14.9024C10.9465 12.1876 12.159 9.4813 13.3629 6.77214C13.5836 6.27557 13.8071 5.77901 14.0377 5.26123C14.1551 5.41402 14.1197 5.55973 14.1325 5.69413C14.3079 7.6535 14.4791 9.61145 14.6531 11.5708C14.854 13.8329 15.0577 16.095 15.2586 18.3557C15.4552 20.5712 15.6504 22.7866 15.8471 25.002C16.0494 27.2755 16.2503 29.5489 16.4568 31.8223C16.5148 32.4618 16.5714 33.104 16.6605 33.7392C16.7044 34.0505 16.9407 34.2188 17.2519 34.2429C17.5773 34.2683 17.8178 34.1269 17.9394 33.8156C17.9861 33.6968 18.0187 33.5723 18.047 33.4464C19.299 27.7168 20.5496 21.9859 21.8016 16.2549C21.9133 15.7414 22.0322 15.2292 22.1482 14.7157C22.4651 15.8616 22.7268 17.0005 22.9899 18.1379C23.1738 18.9344 23.3578 19.7322 23.5459 20.5273C23.6237 20.8541 23.8175 21.0706 24.1684 21.0974C24.5178 21.1243 24.7399 20.9376 24.8786 20.6348C24.9125 20.5613 24.938 20.482 24.9677 20.4071C25.7571 18.435 26.5507 16.4657 27.3274 14.4879C27.425 14.2404 27.5382 14.1569 27.8028 14.1583C30.1922 14.1696 32.5816 14.1597 34.9711 14.1696C35.3955 14.1739 35.7562 14.0989 35.9911 13.7127Z" fill="white"/>
<path fill-rule="evenodd" clip-rule="evenodd" d="M0.00565895 14.6266C0.00565895 9.85059 0.00707353 5.07313 0 0.297088C0 0.0735644 0.0212207 0 0.278697 0C12.0915 0.00848823 23.9043 0.00848823 35.7171 0C35.9731 0 35.9972 0.0707347 35.9958 0.295673C35.9887 4.6275 35.9901 8.95933 35.9901 13.2912C35.7949 12.9106 35.4907 12.779 35.0606 12.7819C32.4491 12.796 29.8375 12.7889 27.226 12.7889C26.6304 12.7889 26.4904 12.8865 26.2626 13.4567C25.6854 14.8983 25.111 16.3384 24.5338 17.78C24.5041 17.855 24.4617 17.9243 24.4022 18.0403C24.3655 17.9045 24.3414 17.8281 24.323 17.7489C23.8321 15.6325 23.3426 13.5147 22.8503 11.3983C22.7456 10.9512 22.5207 10.7461 22.1515 10.7447C21.7865 10.7433 21.5417 10.9626 21.4469 11.3954C20.3901 16.2238 19.3348 21.0522 18.2794 25.8806C18.063 26.8695 17.8451 27.8598 17.6286 28.8487C17.3485 26.2201 17.1109 23.5987 16.8788 20.9772C16.6567 18.4817 16.4417 15.9862 16.221 13.4906C15.9466 10.3896 15.6693 7.28856 15.392 4.18611C15.3411 3.61457 15.3014 3.04303 15.2392 2.4729C15.1798 1.9339 14.7865 1.64106 14.3267 1.77404C14.0197 1.86317 13.9066 2.12489 13.792 2.38236C12.1 6.18933 10.4037 9.99489 8.72166 13.8075C8.59858 14.0862 8.45569 14.1739 8.15295 14.1725C5.77483 14.1584 3.39812 14.1683 1.02 14.1612C0.59842 14.1584 0.237671 14.239 0.00565895 14.6266Z" fill="white"/>
<path fill-rule="evenodd" clip-rule="evenodd" d="M0.00585938 14.6266C0.237871 14.239 0.598621 14.1584 1.0202 14.1612C3.39832 14.1697 5.77503 14.1584 8.15315 14.1725C8.45589 14.1739 8.59878 14.0862 8.72186 13.8075C10.4039 9.99632 12.1002 6.18935 13.7922 2.38238C13.9068 2.12349 14.0199 1.86177 14.3269 1.77405C14.7867 1.64107 15.18 1.93392 15.2394 2.47292C15.3017 3.04304 15.3413 3.616 15.3922 4.18613C15.6681 7.28716 15.9468 10.3882 16.2212 13.4906C16.4419 15.9862 16.6569 18.4817 16.879 20.9773C17.1125 23.5987 17.3487 26.2216 17.6288 28.8487C17.8453 27.8598 18.0632 26.8695 18.2796 25.8806C19.335 21.0522 20.3903 16.2239 21.4471 11.3955C21.5419 10.9626 21.7867 10.7433 22.1517 10.7447C22.5209 10.7461 22.7472 10.9512 22.8505 11.3983C23.3428 13.5147 23.8323 15.6325 24.3232 17.7489C24.3416 17.8267 24.3657 17.9045 24.4024 18.0403C24.4619 17.9243 24.5043 17.855 24.534 17.78C25.1112 16.3399 25.687 14.8983 26.2628 13.4567C26.4906 12.8866 26.6306 12.7889 27.2262 12.7889C29.8377 12.7889 32.4493 12.796 35.0608 12.7819C35.4909 12.779 35.7951 12.912 35.9903 13.2912C35.9903 13.4312 35.9903 13.5727 35.9903 13.7127C35.7555 14.099 35.3947 14.1739 34.9717 14.1711C32.5823 14.1612 30.1928 14.1711 27.8034 14.1598C27.5388 14.1584 27.4243 14.2418 27.3281 14.4894C26.5514 16.4672 25.7577 18.4365 24.9683 20.4085C24.9386 20.4849 24.9132 20.5628 24.8792 20.6363C24.7391 20.9391 24.5185 21.1258 24.169 21.0989C23.8182 21.072 23.6229 20.857 23.5466 20.5288C23.3584 19.7337 23.1745 18.9358 22.9906 18.1394C22.7274 17.0019 22.4657 15.8645 22.1488 14.7172C22.0328 15.2307 21.914 15.7429 21.8022 16.2564C20.5502 21.9874 19.2996 27.7169 18.0476 33.4479C18.0207 33.5724 17.9868 33.6983 17.9401 33.8171C17.8184 34.1284 17.5779 34.2698 17.2525 34.2444C16.9413 34.2203 16.7036 34.052 16.6612 33.7407C16.5721 33.1041 16.5155 32.4633 16.4575 31.8238C16.2523 29.5504 16.05 27.2769 15.8477 25.0035C15.6511 22.7881 15.4559 20.5727 15.2592 18.3572C15.0583 16.0951 14.8546 13.833 14.6537 11.5723C14.4797 9.61294 14.3085 7.65498 14.1331 5.69562C14.1218 5.56122 14.1557 5.41551 14.0383 5.26272C13.8063 5.7805 13.5842 6.27706 13.3635 6.77362C12.1596 9.48278 10.9486 12.1877 9.75884 14.9039C9.54946 15.3807 9.25379 15.5604 8.73459 15.5561C6.18105 15.5363 3.6275 15.5405 1.07538 15.5547C0.641062 15.5575 0.268994 15.4967 0.00727384 15.119C0.00585914 14.9549 0.00585938 14.7908 0.00585938 14.6266Z" fill="#363636"/>
</svg>
