<svg width="36" height="36" viewBox="0 0 36 36" fill="none" xmlns="http://www.w3.org/2000/svg">
<path fill-rule="evenodd" clip-rule="evenodd" d="M18.0005 35.9924C12.0976 35.9924 6.19568 35.9902 0.292709 35.9989C0.059626 35.9989 0.00108413 35.9631 0.00108413 35.7149C0.00867289 23.91 0.00975698 12.1041 0 0.299214C0 0.0314392 0.0726353 0 0.312223 0C12.1062 0.00650465 23.8992 0.00650465 35.6932 0C35.9371 0 36.0033 0.0379439 36.0033 0.301382C35.9946 12.0954 35.9946 23.8883 36.0033 35.6824C36.0033 35.9577 35.9285 36 35.6748 36C29.7826 35.9902 23.8916 35.9924 18.0005 35.9924ZM17.9897 33.4534C17.9897 33.4502 17.9897 33.448 17.9897 33.4448C22.9668 33.4448 27.944 33.4448 32.9211 33.4448C33.5868 33.4448 33.7451 33.2843 33.7451 32.6132C33.7451 29.5799 33.7364 26.5466 33.7516 23.5132C33.7548 22.7977 33.5304 22.1841 33.1141 21.6269C32.4062 20.6794 31.4034 20.2078 30.2998 19.8988C29.5062 19.6766 28.6768 19.6831 27.8768 19.5172C25.8343 19.0944 24.348 17.1864 24.3166 14.9574C24.2981 13.6338 24.3166 12.3111 24.309 10.9874C24.3079 10.8021 24.3686 10.6958 24.5193 10.5896C25.1351 10.1581 25.6977 9.66483 26.1769 9.08158C26.8989 8.20562 27.3369 7.23534 27.2827 6.06342C27.2415 5.15168 27.2751 4.2367 27.2751 3.32388C27.2751 2.72979 27.0919 2.54549 26.501 2.54549C20.8095 2.54549 15.1179 2.5444 9.42633 2.54549C8.855 2.54549 8.66528 2.73412 8.6642 3.3022C8.66311 4.32126 8.67179 5.34032 8.66311 6.3583C8.65878 6.93288 8.79212 7.46951 9.0458 7.98012C9.58677 9.06857 10.4335 9.88274 11.4102 10.5711C11.6119 10.7132 11.6986 10.8563 11.6965 11.111C11.6824 12.2938 11.6845 13.4766 11.6932 14.6593C11.6965 15.1201 11.6466 15.5711 11.5273 16.0134C11.124 17.5073 10.35 18.7052 8.855 19.3167C8.22839 19.5725 7.55841 19.6039 6.8971 19.6874C5.65037 19.8446 4.46111 20.1709 3.48324 21.0111C2.68317 21.6974 2.23868 22.5451 2.24736 23.6433C2.27338 26.629 2.25603 29.6157 2.25603 32.6024C2.25603 33.3092 2.40564 33.4567 3.12765 33.4567C8.08203 33.4534 13.0364 33.4534 17.9897 33.4534Z" fill="white"/>
<path fill-rule="evenodd" clip-rule="evenodd" d="M17.9896 33.4534C13.0352 33.4534 8.0819 33.4534 3.12752 33.4534C2.40551 33.4534 2.2559 33.306 2.2559 32.5991C2.2559 29.6124 2.27325 26.6268 2.24723 23.6401C2.23747 22.5419 2.68304 21.6941 3.48311 21.0079C4.46098 20.1688 5.65024 19.8424 6.89697 19.6842C7.55719 19.6007 8.22717 19.5703 8.85487 19.3134C10.3499 18.702 11.1239 17.504 11.5272 16.0101C11.6465 15.5678 11.6963 15.1168 11.6931 14.6561C11.6833 13.4733 11.6811 12.2905 11.6963 11.1078C11.6996 10.8541 11.6128 10.711 11.4101 10.5679C10.4333 9.87948 9.58773 9.06531 9.04567 7.97687C8.79199 7.46625 8.65865 6.9307 8.66298 6.35504C8.67166 5.33598 8.66298 4.31692 8.66407 3.29894C8.66515 2.73087 8.85487 2.54223 9.4262 2.54223C15.1178 2.54115 20.8093 2.54223 26.5009 2.54223C27.0917 2.54223 27.2739 2.72653 27.275 3.32062C27.276 4.23452 27.2414 5.14951 27.2826 6.06016C27.3357 7.23317 26.8988 8.20236 26.1768 9.07832C25.6976 9.66049 25.1349 10.1548 24.5192 10.5863C24.3674 10.6926 24.3067 10.7988 24.3088 10.9842C24.3164 12.3079 24.298 13.6316 24.3164 14.9542C24.3479 17.1831 25.8342 19.0912 27.8766 19.514C28.6767 19.6798 29.5061 19.6733 30.2996 19.8956C31.4022 20.2045 32.406 20.6761 33.114 21.6236C33.5303 22.1809 33.7558 22.7955 33.7514 23.51C33.7362 26.5433 33.7449 29.5767 33.7449 32.61C33.7449 33.281 33.5866 33.4415 32.921 33.4415C27.9439 33.4415 22.9667 33.4415 17.9896 33.4415C17.9896 33.448 17.9896 33.4513 17.9896 33.4534ZM19.8662 32.3238C20.0407 32.3238 20.1459 32.3238 20.251 32.3238C24.2568 32.3227 28.2615 32.3173 32.2673 32.3259C32.5632 32.327 32.6294 32.249 32.6283 31.9606C32.6164 29.1148 32.6185 26.269 32.6261 23.4233C32.6272 23.0796 32.5329 22.7804 32.3573 22.4963C32.1123 22.0996 31.774 21.7993 31.3805 21.5564C30.4991 21.0154 29.5158 20.8246 28.5076 20.7412C27.0234 20.6197 25.7344 20.0864 24.7512 18.9415C23.7484 17.774 23.2226 16.408 23.1944 14.8675C23.1738 13.7487 23.19 12.6299 23.19 11.4796C22.5255 11.8298 21.9075 12.1778 21.269 12.4846C20.9752 12.6255 20.8104 12.8239 20.74 13.1253C20.5286 14.0414 20.4668 14.9759 20.3898 15.9082C20.3779 16.0502 20.406 16.1099 20.5665 16.1261C21.6148 16.2378 22.2284 16.885 22.4236 17.8585C22.7195 19.3362 22.7542 20.8387 22.4171 22.3175C22.1623 23.4352 21.5075 24.0032 20.4678 24.0661C20.1762 24.0835 20.1654 24.1984 20.1665 24.4239C20.1719 26.1801 20.1914 27.9375 20.1578 29.6937C20.1394 30.5599 20.354 31.4554 19.8662 32.3238ZM12.8151 11.4872C12.8151 12.4087 12.813 13.2521 12.8162 14.0956C12.8195 14.7862 12.8325 15.4767 12.6579 16.1543C12.1961 17.9452 11.2811 19.3925 9.56605 20.2316C8.7508 20.6306 7.86399 20.7076 6.98045 20.8116C6.00583 20.9255 5.07133 21.1824 4.28644 21.8068C3.7021 22.2719 3.36494 22.8454 3.37253 23.6422C3.39855 26.4176 3.38771 29.194 3.37687 31.9704C3.37578 32.2576 3.43758 32.3368 3.73571 32.3357C7.75342 32.3227 11.7711 32.3259 15.7888 32.3238C15.8875 32.3238 15.9861 32.3238 16.1477 32.3238C15.7791 31.7091 15.842 31.0868 15.843 30.4678C15.8474 28.4297 15.8365 26.3915 15.8387 24.3534C15.8387 24.1594 15.817 24.0715 15.5828 24.0553C14.3611 23.974 13.754 23.4785 13.5057 22.2633C13.2195 20.8637 13.2423 19.4381 13.4743 18.0374C13.6542 16.9511 14.2798 16.2053 15.4723 16.1174C15.6414 16.1055 15.6219 16.0112 15.6132 15.906C15.5384 14.9726 15.4755 14.0381 15.2652 13.122C15.2218 12.9356 15.1622 12.735 14.992 12.6505C14.2732 12.2938 13.5599 11.9284 12.8151 11.4872ZM17.9646 3.6697C16.1975 3.6697 14.4294 3.6697 12.6623 3.6697C11.7961 3.6697 10.9299 3.66753 10.0637 3.67187C9.9509 3.67187 9.7872 3.60791 9.78937 3.83015C9.79804 4.80151 9.73191 5.77938 9.83274 6.74098C9.94115 7.77414 10.6404 8.51567 11.4079 9.1477C12.7783 10.2763 14.322 11.1284 15.9493 11.8255C17.2827 12.3957 18.6324 12.3805 19.9735 11.8341C21.3872 11.2595 22.6914 10.4866 23.9435 9.62254C24.388 9.31683 24.7902 8.95799 25.1512 8.55578C25.8071 7.82726 26.2331 7.02068 26.1583 5.99295C26.1106 5.3414 26.1334 4.68226 26.1572 4.02746C26.1681 3.73692 26.0922 3.66103 25.7962 3.66211C23.1857 3.67512 20.5752 3.6697 17.9646 3.6697ZM21.4793 20.0842C21.4793 19.8034 21.4891 19.5226 21.4771 19.2418C21.4598 18.8104 21.449 18.3746 21.2928 17.9626C21.1389 17.5539 20.8896 17.272 20.4071 17.2341C19.9084 17.195 19.5735 17.3793 19.3686 17.8292C19.2526 18.084 19.1268 18.3344 18.9392 18.548C18.3593 19.2115 17.5397 19.1996 16.9759 18.5209C16.7786 18.2835 16.6637 18.0027 16.5228 17.7338C16.3493 17.4021 16.0805 17.2384 15.7032 17.2319C15.0668 17.2211 14.6798 17.5376 14.5649 18.2705C14.386 19.4088 14.4348 20.5558 14.5323 21.6995C14.554 21.9564 14.6245 22.2036 14.7437 22.4356C14.9313 22.7999 15.2392 22.9278 15.636 22.9387C16.0219 22.9484 16.3211 22.8508 16.5 22.4812C16.6117 22.2502 16.7309 22.0204 16.874 21.809C17.4746 20.9222 18.4579 20.92 19.0607 21.8047C19.2179 22.0356 19.3393 22.2904 19.4726 22.5364C19.6125 22.7966 19.8239 22.9224 20.122 22.9365C20.8375 22.9701 21.2094 22.6828 21.3655 21.938C21.4945 21.3255 21.4761 20.7032 21.4793 20.0842ZM19.5485 13.1665C18.5674 13.4104 17.6166 13.4516 16.6637 13.2218C16.4436 13.1687 16.4317 13.2662 16.4631 13.4332C16.5781 14.0555 16.6648 14.6832 16.693 15.313C16.719 15.9104 16.7331 16.4958 17.299 16.8763C17.3174 16.8882 17.3283 16.9121 17.3402 16.9327C17.5006 17.2048 17.66 17.4758 17.8204 17.7479C17.9343 17.9409 18.0351 17.9116 18.1413 17.7382C18.3181 17.4498 18.3842 17.0639 18.6552 16.8709C19.2114 16.4763 19.3274 15.9418 19.297 15.3271C19.297 15.3152 19.3013 15.3044 19.3024 15.2924C19.3826 14.5975 19.464 13.9015 19.5485 13.1665ZM19.0422 24.9139C19.0433 24.9139 19.0433 24.9139 19.0444 24.9139C19.0444 24.5865 19.0466 24.2591 19.0433 23.9328C19.0422 23.8439 19.0769 23.742 18.988 23.6715C18.5869 23.3593 18.3842 22.9083 18.1554 22.4757C18.0069 22.196 17.8942 22.2979 17.776 22.4953C17.5429 22.8834 17.3868 23.3224 17.0193 23.6195C16.9456 23.6791 16.9575 23.7658 16.9575 23.8471C16.9575 24.5486 16.9629 25.25 16.9564 25.9503C16.9553 26.1108 16.9944 26.1812 17.17 26.178C17.7185 26.1693 18.2682 26.1671 18.8178 26.1791C19.013 26.1834 19.052 26.1032 19.0466 25.9308C19.0347 25.5926 19.0422 25.2532 19.0422 24.9139ZM17.9505 29.2449C18.279 29.2449 18.549 29.2384 18.8178 29.2471C18.9739 29.2525 19.0509 29.2221 19.0466 29.0389C19.0347 28.5359 19.0347 28.0318 19.0466 27.5288C19.0509 27.3347 18.975 27.2892 18.7994 27.2957C18.4839 27.3065 18.1674 27.2881 17.8508 27.3011C17.5624 27.313 17.1808 27.1688 17.0128 27.3661C16.8719 27.5309 16.9618 27.9006 16.9608 28.1792C16.9597 28.5175 16.8404 28.9609 17.0085 29.1669C17.2036 29.4064 17.6665 29.2015 17.9505 29.2449ZM18.0134 30.3691C17.943 30.3691 17.8725 30.3691 17.8031 30.3691C16.8599 30.3691 16.8599 30.3691 16.9597 31.3297C17.0258 31.9714 17.5646 32.3812 18.1956 32.2717C18.8471 32.159 19.194 31.5356 19.0195 30.548C18.949 30.1523 18.4904 30.4602 18.2237 30.3724C18.1598 30.3518 18.0828 30.3691 18.0134 30.3691Z" fill="#363636"/>
<path fill-rule="evenodd" clip-rule="evenodd" d="M19.8662 32.3238C20.3541 31.4554 20.1394 30.5599 20.1568 29.6948C20.1914 27.9386 20.1719 26.1812 20.1654 24.425C20.1643 24.1995 20.1752 24.0846 20.4668 24.0672C21.5065 24.0043 22.1613 23.4373 22.416 22.3185C22.7532 20.8387 22.7185 19.3372 22.4225 17.8596C22.2274 16.885 21.6138 16.2389 20.5655 16.1272C20.4039 16.1099 20.3768 16.0502 20.3888 15.9093C20.4657 14.977 20.5264 14.0425 20.7389 13.1264C20.8083 12.825 20.9742 12.6255 21.268 12.4857C21.9065 12.18 22.5244 11.832 23.189 11.4807C23.189 12.631 23.1727 13.7508 23.1933 14.8686C23.2215 16.4091 23.7473 17.7761 24.7501 18.9426C25.7334 20.0875 27.0224 20.6208 28.5066 20.7423C29.5159 20.8246 30.4981 21.0165 31.3794 21.5575C31.7741 21.7993 32.1112 22.1006 32.3562 22.4974C32.5319 22.7815 32.6262 23.0807 32.6251 23.4243C32.6175 26.2701 32.6164 29.1159 32.6273 31.9617C32.6283 32.2501 32.5633 32.3281 32.2662 32.327C28.2605 32.3173 24.2558 32.3227 20.25 32.3249C20.1448 32.3238 20.0397 32.3238 19.8662 32.3238Z" fill="white"/>
<path fill-rule="evenodd" clip-rule="evenodd" d="M12.8149 11.4873C13.5608 11.9285 14.2741 12.2939 14.9907 12.6516C15.1609 12.7362 15.2205 12.9368 15.2639 13.1232C15.4742 14.0393 15.5371 14.9738 15.6119 15.9072C15.6206 16.0124 15.6401 16.1067 15.471 16.1186C14.2784 16.2064 13.6529 16.9523 13.4729 18.0386C13.2409 19.4392 13.2171 20.8648 13.5044 22.2644C13.7526 23.4797 14.3597 23.9741 15.5815 24.0565C15.8157 24.0716 15.8374 24.1605 15.8374 24.3546C15.8352 26.3927 15.8471 28.4308 15.8417 30.469C15.8406 31.088 15.7767 31.7103 16.1464 32.325C15.9848 32.325 15.8862 32.325 15.7875 32.325C11.7698 32.326 7.7521 32.3239 3.7344 32.3369C3.43627 32.338 3.37447 32.2599 3.37556 31.9715C3.38748 29.1951 3.39832 26.4198 3.37122 23.6434C3.36363 22.8466 3.70079 22.272 4.28512 21.808C5.07002 21.1825 6.00452 20.9266 6.97913 20.8128C7.86268 20.7087 8.74948 20.6318 9.56473 20.2328C11.2809 19.3937 12.1948 17.9464 12.6566 16.1555C12.8312 15.4779 12.8181 14.7873 12.8149 14.0968C12.8116 13.2522 12.8149 12.4088 12.8149 11.4873Z" fill="white"/>
<path fill-rule="evenodd" clip-rule="evenodd" d="M17.9646 3.66971C20.5752 3.66971 23.1857 3.67513 25.7962 3.66212C26.0922 3.66104 26.1681 3.73692 26.1572 4.02747C26.1334 4.68227 26.1106 5.34141 26.1583 5.99295C26.2331 7.02177 25.8071 7.82835 25.1512 8.55579C24.7891 8.95799 24.3869 9.31575 23.9435 9.62255C22.6903 10.4855 21.3861 11.2585 19.9735 11.8341C18.6314 12.3805 17.2827 12.3957 15.9493 11.8255C14.322 11.1295 12.7783 10.2774 11.4079 9.14771C10.6404 8.51568 9.94114 7.77415 9.83273 6.74099C9.73191 5.77939 9.79912 4.80152 9.78936 3.83016C9.7872 3.60792 9.9509 3.67296 10.0636 3.67188C10.9298 3.66754 11.796 3.66971 12.6623 3.66971C14.4293 3.66971 16.1975 3.66971 17.9646 3.66971Z" fill="white"/>
<path fill-rule="evenodd" clip-rule="evenodd" d="M21.4794 20.0843C21.4761 20.7044 21.4957 21.3256 21.3677 21.9371C21.2116 22.6818 20.8398 22.9691 20.1243 22.9355C19.8261 22.9214 19.6147 22.7957 19.4749 22.5355C19.3415 22.2894 19.2201 22.0346 19.0629 21.8037C18.4602 20.9191 17.4758 20.9223 16.8763 21.8081C16.7332 22.0195 16.6139 22.2493 16.5023 22.4802C16.3234 22.851 16.0242 22.9485 15.6382 22.9377C15.2414 22.9269 14.9335 22.8 14.746 22.4347C14.6267 22.2027 14.5563 21.9555 14.5346 21.6986C14.4359 20.5548 14.3872 19.4078 14.5671 18.2695C14.682 17.5367 15.0691 17.2212 15.7054 17.2309C16.0816 17.2375 16.3516 17.4012 16.525 17.7329C16.6649 18.0017 16.7809 18.2825 16.9782 18.52C17.5419 19.1975 18.3615 19.2094 18.9415 18.5471C19.1291 18.3324 19.2548 18.0831 19.3708 17.8283C19.5757 17.3784 19.9107 17.1941 20.4094 17.2331C20.8918 17.2711 21.1412 17.5529 21.2951 17.9616C21.4501 18.3725 21.4621 18.8083 21.4794 19.2409C21.4881 19.5217 21.4794 19.8035 21.4794 20.0843Z" fill="white"/>
<path fill-rule="evenodd" clip-rule="evenodd" d="M19.5484 13.1665C19.4628 13.9026 19.3826 14.5975 19.3024 15.2924C19.3013 15.3044 19.2969 15.3152 19.2969 15.3271C19.3273 15.9429 19.2113 16.4763 18.6551 16.8709C18.3841 17.0639 18.318 17.4498 18.1413 17.7382C18.035 17.9116 17.9342 17.942 17.8204 17.7479C17.661 17.4758 17.5006 17.2037 17.3401 16.9327C17.3282 16.9121 17.3173 16.8882 17.2989 16.8763C16.733 16.4958 16.7189 15.9104 16.6929 15.313C16.6647 14.6821 16.5791 14.0544 16.4631 13.4332C16.4316 13.2662 16.4436 13.1687 16.6636 13.2218C17.6166 13.4505 18.5684 13.4093 19.5484 13.1665Z" fill="white"/>
<path fill-rule="evenodd" clip-rule="evenodd" d="M19.042 24.9139C19.042 25.2532 19.0344 25.5914 19.0453 25.9308C19.0507 26.1031 19.0117 26.1834 18.8165 26.179C18.268 26.1682 17.7183 26.1693 17.1687 26.1779C16.993 26.1812 16.954 26.1107 16.9551 25.9503C16.9616 25.2488 16.9562 24.5474 16.9562 23.8471C16.9562 23.7658 16.9443 23.6791 17.018 23.6194C17.3855 23.3224 17.5427 22.8833 17.7747 22.4952C17.8929 22.2979 18.0056 22.1971 18.1541 22.4757C18.3829 22.9072 18.5867 23.3582 18.9867 23.6715C19.0767 23.7419 19.042 23.8438 19.042 23.9327C19.0453 24.2601 19.0431 24.5875 19.0431 24.9139C19.0442 24.9139 19.0431 24.9139 19.042 24.9139Z" fill="white"/>
<path fill-rule="evenodd" clip-rule="evenodd" d="M17.9508 29.245C17.6668 29.2006 17.2038 29.4065 17.0087 29.167C16.8407 28.9621 16.9599 28.5176 16.961 28.1793C16.9621 27.9007 16.8721 27.531 17.013 27.3662C17.1811 27.1689 17.5627 27.3131 17.851 27.3012C18.1665 27.2882 18.4831 27.3055 18.7996 27.2958C18.9753 27.2904 19.0512 27.3359 19.0468 27.5289C19.0349 28.0319 19.0349 28.536 19.0468 29.039C19.0512 29.2222 18.9742 29.2526 18.8181 29.2472C18.5492 29.2385 18.2793 29.245 17.9508 29.245Z" fill="white"/>
<path fill-rule="evenodd" clip-rule="evenodd" d="M18.0137 30.3691C18.0842 30.3691 18.16 30.3518 18.224 30.3724C18.4907 30.4602 18.9504 30.1523 19.0197 30.548C19.1943 31.5356 18.8485 32.1579 18.1958 32.2718C17.5649 32.3813 17.0261 31.9715 16.9599 31.3297C16.8602 30.3691 16.8602 30.3691 17.8034 30.3691C17.8728 30.3691 17.9432 30.3691 18.0137 30.3691Z" fill="white"/>
</svg>
