<svg width="36" height="36" viewBox="0 0 36 36" fill="none" xmlns="http://www.w3.org/2000/svg">
<path fill-rule="evenodd" clip-rule="evenodd" d="M0.00620295 23.6931C0.00620295 15.8922 0.00744366 8.08999 0 0.289043C0 0.0483643 0.0471431 0.0012207 0.287821 0.0012207C8.20663 0.00990497 16.1242 0.00742413 24.043 0.00742413C24.0207 0.102951 23.9363 0.0793791 23.873 0.0942664C23.2118 0.24314 22.7491 0.632691 22.4513 1.23811C22.1771 1.79514 21.9551 2.37078 21.7925 2.97C21.233 5.02941 21.2702 7.11363 21.5494 9.20282C21.5866 9.4832 21.5345 9.50181 21.2789 9.46583C19.5197 9.22391 17.7606 9.19786 16.0014 9.49312C12.5525 10.0725 10.1742 12.3614 9.48942 15.7756C9.1284 17.5757 9.16066 19.3808 9.40382 21.1883C9.42987 21.3794 9.4919 21.5518 9.1619 21.4985C8.07389 21.3199 6.97471 21.264 5.87304 21.3074C4.22303 21.372 2.62265 21.661 1.13392 22.424C0.748087 22.6213 0.439176 22.8905 0.225791 23.2713C0.147632 23.4115 0.145151 23.5877 0.00620295 23.6931Z" fill="white"/>
<path fill-rule="evenodd" clip-rule="evenodd" d="M35.99 12.519C35.99 20.2505 35.9887 27.9808 35.9962 35.7122C35.9962 35.9529 35.949 36.0001 35.7083 36.0001C27.8603 35.9914 20.0122 35.9939 12.1641 35.9939C12.633 35.8202 13.0908 35.6316 13.3823 35.1862C13.6069 34.8426 13.7781 34.4716 13.9245 34.0895C14.8202 31.7609 14.8264 29.3578 14.515 26.93C14.4654 26.5429 14.4542 26.5516 14.8537 26.6037C16.7097 26.8481 18.5644 26.8878 20.4067 26.5019C22.1534 26.136 23.7154 25.4189 24.8815 24.0108C26.1333 22.4997 26.6147 20.7021 26.7809 18.7928C26.8951 17.4802 26.833 16.1726 26.6445 14.8725C26.5998 14.5611 26.709 14.5226 26.9695 14.5698C27.2226 14.6169 27.4794 14.6442 27.7349 14.6678C29.612 14.8489 31.4803 14.8117 33.3003 14.2671C34.3548 13.9495 35.4478 13.6443 35.99 12.519Z" fill="white"/>
<path fill-rule="evenodd" clip-rule="evenodd" d="M35.9905 12.5191C35.4471 13.6455 34.3554 13.9507 33.2996 14.2671C31.4797 14.8117 29.6126 14.8489 27.7343 14.6678C27.4787 14.643 27.2219 14.6157 26.9688 14.5698C26.7095 14.5214 26.5991 14.5599 26.6438 14.8725C26.8323 16.1739 26.8944 17.4815 26.7802 18.7928C26.614 20.7021 26.1326 22.4998 24.8809 24.0108C23.7147 25.4177 22.1528 26.136 20.406 26.502C18.5637 26.8878 16.709 26.8481 14.853 26.6037C14.4535 26.5516 14.4647 26.5417 14.5143 26.93C14.8257 29.3578 14.8195 31.7609 13.9238 34.0895C13.7774 34.4704 13.6062 34.8413 13.3817 35.1862C13.0901 35.6316 12.6323 35.8202 12.1634 35.9939C11.8818 35.9939 11.6014 35.9939 11.3198 35.9939C11.2974 35.9703 11.2788 35.9368 11.2503 35.9256C9.91912 35.3897 9.48739 34.252 10.1362 32.9767C10.2739 32.705 10.3968 32.4283 10.4774 32.1343C11.053 30.0278 10.7838 27.9349 10.367 25.8457C10.3384 25.7042 10.2677 25.6596 10.1362 25.6397C9.70822 25.574 9.28517 25.4797 8.85592 25.4264C6.7506 25.1621 4.67258 25.048 2.6628 26.0045C1.64922 26.4871 0.555001 25.9474 0.133194 24.9103C0.100938 24.8309 0.110863 24.7192 0.00292969 24.6795C0.00292969 24.352 0.00292969 24.0232 0.00292969 23.6957C0.141878 23.5903 0.144359 23.4141 0.222518 23.2751C0.435902 22.8943 0.744814 22.6251 1.13064 22.4278C2.61813 21.6648 4.21852 21.3758 5.86977 21.3113C6.97143 21.2678 8.07061 21.3237 9.15863 21.5023C9.48863 21.5569 9.4266 21.3832 9.40055 21.1922C9.15739 19.3833 9.12513 17.5795 9.48615 15.7794C10.171 12.3652 12.5492 10.0751 15.9981 9.49693C17.7573 9.20166 19.5165 9.22772 21.2757 9.46964C21.5312 9.50437 21.5846 9.487 21.5461 9.20662C21.267 7.1162 21.2298 5.03198 21.7893 2.97381C21.9518 2.37459 22.1739 1.80019 22.448 1.24191C22.7458 0.636497 23.2085 0.246946 23.8698 0.0980732C23.9318 0.0844265 24.0162 0.106757 24.0397 0.0112305C24.1328 0.0112305 24.2271 0.0112305 24.3214 0.0112305C24.3437 0.0323208 24.3648 0.0695389 24.3908 0.0745013C25.9528 0.317661 26.645 1.65752 25.9242 3.05941C25.7034 3.48866 25.5421 3.93652 25.4441 4.40795C25.0806 6.16093 25.2493 7.90026 25.5682 9.63588C25.7059 10.3877 25.7096 10.41 26.4354 10.5204C28.7962 10.8777 31.1385 11.1258 33.4225 10.044C34.4174 9.57261 35.498 10.1309 35.9111 11.1593C35.9285 11.2028 35.9285 11.2499 35.9868 11.2574C35.9905 11.6754 35.9905 12.0972 35.9905 12.5191ZM16.611 25.6397C17.9918 25.6832 18.9607 25.6211 19.9209 25.4512C22.8401 24.9338 24.7332 23.3124 25.4019 20.3659C25.8721 18.2953 25.753 16.2272 25.4056 14.1579C25.2915 13.4818 25.5694 13.2014 26.2369 13.3205C27.9985 13.6356 29.7689 13.7535 31.5491 13.4991C32.5615 13.354 33.5403 13.0935 34.4484 12.6059C34.8355 12.3975 34.9968 12.0613 34.905 11.6792C34.7636 11.0911 34.2326 10.8604 33.6358 11.1569C32.9473 11.498 32.224 11.7114 31.4673 11.8206C29.3607 12.1258 27.2901 11.8516 25.2282 11.4323C24.9119 11.3678 24.7444 11.1879 24.6786 10.8777C24.5323 10.1917 24.3834 9.50561 24.2978 8.80839C24.0298 6.61499 23.9368 4.44393 24.9987 2.39196C25.227 1.9503 25.0459 1.47267 24.6514 1.27665C24.2147 1.06079 23.7395 1.22455 23.4963 1.68481C23.1614 2.31876 22.9319 2.99117 22.7768 3.69088C22.3128 5.78627 22.4518 7.87917 22.8053 9.9696C22.8996 10.5279 22.6143 10.8095 22.0461 10.7152C20.071 10.3877 18.0947 10.2636 16.1085 10.6234C13.0541 11.1767 11.0667 13.1939 10.5456 16.2508C10.2193 18.17 10.3372 20.0756 10.6635 21.9787C10.7615 22.5506 10.4588 22.8533 9.88686 22.7479C8.5346 22.4973 7.17241 22.3757 5.79782 22.439C4.3736 22.5047 2.98659 22.7491 1.69884 23.4054C1.17034 23.6746 0.995417 24.1125 1.21997 24.5827C1.42963 25.0219 1.90727 25.1633 2.42212 24.9016C3.45679 24.3756 4.56837 24.1808 5.70849 24.1262C7.43914 24.0431 9.14126 24.2763 10.8322 24.6237C11.1635 24.6919 11.321 24.8991 11.3905 25.2179C11.5964 26.1558 11.7763 27.0987 11.8557 28.0552C12.0133 29.9732 11.9996 31.8676 11.0729 33.6392C10.8347 34.0945 11.0059 34.5895 11.4103 34.7867C11.8433 34.9977 12.3234 34.8289 12.5653 34.3724C12.8172 33.896 13.0095 33.3948 13.1534 32.875C13.77 30.6444 13.6409 28.4013 13.2638 26.1558C13.1583 25.5256 13.4338 25.239 14.0541 25.3482C15.0329 25.5206 16.0229 25.6149 16.611 25.6397Z" fill="#363636"/>
<path fill-rule="evenodd" clip-rule="evenodd" d="M35.9897 11.2536C35.9314 11.2461 35.9314 11.199 35.914 11.1556C35.5009 10.1271 34.4203 9.56882 33.4253 10.0403C31.1414 11.1221 28.7991 10.8739 26.4382 10.5166C25.7125 10.4062 25.7087 10.3839 25.571 9.63209C25.2522 7.89648 25.0835 6.1559 25.447 4.40416C25.545 3.93273 25.7063 3.48611 25.9271 3.05562C26.6479 1.65373 25.9556 0.313874 24.3937 0.0707147C24.3676 0.0669929 24.3478 0.0297748 24.3242 0.00744383C28.1192 0.00744383 31.9143 0.00992487 35.7105 0C35.9512 0 35.9996 0.0471431 35.9984 0.287821C35.9872 3.9439 35.9897 7.59873 35.9897 11.2536ZM31.2108 9.60728C31.2071 9.38769 31.0707 9.24626 30.9267 9.10359C30.031 8.21035 29.1378 7.31463 28.2433 6.42015C27.7458 5.92391 27.2545 5.42146 26.7496 4.93266C26.4084 4.60266 25.9258 4.70315 25.7894 5.11875C25.6951 5.40782 25.834 5.60879 26.0276 5.80109C27.396 7.16576 28.7606 8.53415 30.1278 9.89882C30.2097 9.9807 30.2965 10.0663 30.397 10.1196C30.7717 10.3169 31.2208 10.0291 31.2108 9.60728Z" fill="white"/>
<path fill-rule="evenodd" clip-rule="evenodd" d="M0.0059621 24.677C0.113895 24.7167 0.10397 24.8271 0.136226 24.9078C0.558033 25.9449 1.65101 26.4846 2.66583 26.002C4.67437 25.0467 6.75364 25.1608 8.85895 25.4238C9.2882 25.4772 9.71125 25.5715 10.1393 25.6372C10.2708 25.6571 10.3415 25.703 10.37 25.8432C10.7881 27.9336 11.0573 30.0253 10.4804 32.1318C10.3998 32.4258 10.2782 32.7025 10.1393 32.9742C9.48918 34.2495 9.92091 35.3872 11.2533 35.9231C11.2806 35.9343 11.2992 35.9678 11.3228 35.9914C7.64439 35.9914 3.96723 35.9889 0.288821 35.9988C0.0481427 35.9988 -0.000241057 35.9517 0.000999553 35.711C0.00844321 32.0338 0.0059621 28.3554 0.0059621 24.677ZM5.28227 25.7576C5.06145 25.7787 4.87535 25.8754 4.7761 26.1062C4.66197 26.3717 4.7575 26.5813 4.94359 26.7699C6.34796 28.1929 7.74985 29.6171 9.1567 31.0376C9.45072 31.3354 9.77328 31.349 10.0189 31.0972C10.2559 30.8552 10.246 30.5426 9.96681 30.2585C8.55748 28.8244 7.14195 27.3964 5.73013 25.9648C5.61103 25.8432 5.46961 25.7725 5.28227 25.7576Z" fill="white"/>
<path fill-rule="evenodd" clip-rule="evenodd" d="M16.6105 25.6398C16.0225 25.615 15.0324 25.5207 14.0511 25.347C13.4308 25.2366 13.1554 25.5244 13.2609 26.1546C13.6368 28.4001 13.767 30.6444 13.1504 32.8738C13.0065 33.3924 12.8142 33.8948 12.5624 34.3712C12.3205 34.8277 11.8404 34.9965 11.4074 34.7856C11.0029 34.5883 10.8317 34.0933 11.0699 33.638C11.9967 31.8664 12.0116 29.972 11.8528 28.054C11.7734 27.0975 11.5935 26.1546 11.3875 25.2167C11.3181 24.8979 11.1617 24.6907 10.8293 24.6225C9.13831 24.2751 7.4362 24.0419 5.70555 24.125C4.56543 24.1796 3.45384 24.3744 2.41917 24.9004C1.90308 25.1622 1.42669 25.0207 1.21702 24.5816C0.992472 24.1101 1.16616 23.6734 1.6959 23.4042C2.98241 22.7479 4.37065 22.5035 5.79487 22.4378C7.16823 22.3745 8.53165 22.4961 9.88392 22.7467C10.4558 22.8521 10.7585 22.5507 10.6605 21.9775C10.3343 20.0744 10.2152 18.1688 10.5427 16.2496C11.0637 13.1928 13.0512 11.1743 16.1056 10.6222C18.0918 10.2624 20.0693 10.3865 22.0431 10.714C22.6113 10.8083 22.8967 10.5279 22.8024 9.96841C22.4488 7.87674 22.3099 5.78384 22.7738 3.68969C22.9289 2.99123 23.1584 2.31757 23.4934 1.68362C23.7366 1.22336 24.213 1.0596 24.6484 1.27546C25.0442 1.47148 25.2253 1.94787 24.9958 2.39077C23.9351 4.44274 24.0269 6.6138 24.2948 8.8072C24.3804 9.50442 24.5281 10.1905 24.6757 10.8765C24.7427 11.1867 24.9089 11.3666 25.2253 11.4311C27.2872 11.8517 29.3578 12.1246 31.4643 11.8194C32.2211 11.7102 32.9444 11.4968 33.6329 11.1557C34.2309 10.8604 34.7606 11.0899 34.902 11.678C34.9939 12.0601 34.8326 12.3963 34.4455 12.6047C33.5386 13.0923 32.5585 13.354 31.5462 13.4979C29.7659 13.7523 27.9956 13.6344 26.2339 13.3193C25.5665 13.2002 25.2898 13.4806 25.4027 14.1567C25.7501 16.226 25.8692 18.2941 25.399 20.3647C24.7303 23.3112 22.8371 24.9326 19.918 25.45C18.959 25.6212 17.9913 25.6832 16.6105 25.6398ZM23.9921 17.1143C23.9946 15.968 23.7763 14.5252 23.4686 13.0935C23.4016 12.7846 23.2267 12.601 22.919 12.5328C20.9204 12.0874 18.9056 11.8504 16.8599 12.1047C15.7929 12.2375 14.7744 12.534 13.906 13.2039C12.6443 14.1778 12.2051 15.566 12.0277 17.0647C11.7932 19.0397 12.0475 20.9838 12.4582 22.9154C12.5376 23.2876 12.7448 23.4811 13.1095 23.5432C13.7199 23.6474 14.3253 23.7826 14.9382 23.8682C16.5559 24.0928 18.1762 24.1684 19.7914 23.8347C21.8657 23.4067 23.2056 22.2058 23.7142 20.1178C23.9289 19.2345 23.9958 18.3413 23.9921 17.1143Z" fill="white"/>
<path fill-rule="evenodd" clip-rule="evenodd" d="M31.2105 9.60858C31.2217 10.0292 30.7726 10.317 30.3991 10.121C30.2986 10.0676 30.2118 9.98201 30.1299 9.90013C28.7628 8.53422 27.3981 7.16707 26.0297 5.8024C25.8362 5.60886 25.696 5.40788 25.7915 5.12006C25.928 4.7057 26.4106 4.60397 26.7517 4.93397C27.2567 5.42277 27.7479 5.92522 28.2454 6.42146C29.1399 7.31594 30.0332 8.21166 30.9289 9.1049C31.0703 9.24633 31.2068 9.389 31.2105 9.60858Z" fill="#363636"/>
<path fill-rule="evenodd" clip-rule="evenodd" d="M5.28206 25.7576C5.46816 25.7725 5.60959 25.8432 5.72992 25.9647C7.14174 27.3964 8.55727 28.8244 9.9666 30.2585C10.2457 30.5426 10.2544 30.8552 10.0187 31.0972C9.77307 31.349 9.45051 31.3353 9.15649 31.0376C7.74964 29.6171 6.34775 28.1929 4.94338 26.7699C4.75729 26.5813 4.66176 26.3717 4.7759 26.1062C4.87514 25.8754 5.06124 25.7787 5.28206 25.7576Z" fill="#363636"/>
<path fill-rule="evenodd" clip-rule="evenodd" d="M23.9923 17.1141C23.996 18.3411 23.9278 19.2343 23.7131 20.1164C23.2057 22.2044 21.8646 23.4053 19.7903 23.8333C18.175 24.167 16.5548 24.0913 14.9371 23.8668C14.3242 23.7812 13.7188 23.6459 13.1084 23.5417C12.7424 23.4797 12.5352 23.2862 12.4571 22.914C12.0464 20.9824 11.7934 19.0383 12.0266 17.0633C12.204 15.5646 12.6432 14.1764 13.9049 13.2025C14.7733 12.5326 15.7918 12.2361 16.8588 12.1033C18.9045 11.849 20.9193 12.086 22.9179 12.5313C23.2268 12.6008 23.4017 12.7832 23.4675 13.0921C23.7776 14.5262 23.996 15.9678 23.9923 17.1141ZM18.5907 13.1293C18.0398 13.1268 17.4915 13.1578 16.9444 13.2236C14.7237 13.4903 13.5724 14.5709 13.2126 16.7544C12.9049 18.619 13.1171 20.4613 13.4806 22.2962C13.524 22.5145 13.6654 22.5083 13.8031 22.5356C15.4866 22.8693 17.1826 23.0629 18.8946 22.8445C21.1078 22.5629 22.3261 21.6635 22.7182 19.3758C23.0407 17.4888 22.8236 15.6229 22.4651 13.7633C22.4291 13.5759 22.315 13.5486 22.1785 13.5213C20.9925 13.2893 19.8002 13.1243 18.5907 13.1293Z" fill="#363636"/>
<path fill-rule="evenodd" clip-rule="evenodd" d="M18.5908 13.1293C19.8016 13.1243 20.9939 13.2893 22.1774 13.5226C22.3139 13.5499 22.428 13.5759 22.464 13.7645C22.8238 15.6242 23.0396 17.4888 22.7171 19.377C22.3263 21.6647 21.108 22.5641 18.8935 22.8457C17.1802 23.0641 15.4843 22.8706 13.8021 22.5368C13.6644 22.5095 13.5229 22.5145 13.4795 22.2974C13.116 20.4625 12.9039 18.6202 13.2115 16.7556C13.5713 14.5721 14.7238 13.4915 16.9433 13.2248C17.4916 13.1578 18.04 13.1268 18.5908 13.1293ZM21.4852 20.9352C21.479 20.7119 21.3586 20.5593 21.2135 20.4154C19.3315 18.5371 17.4519 16.6563 15.5712 14.7768C15.5141 14.7197 15.4546 14.659 15.3863 14.6155C15.137 14.458 14.8888 14.4766 14.6817 14.6825C14.4745 14.8885 14.4546 15.1378 14.6122 15.386C14.668 15.4728 14.7474 15.546 14.8218 15.6204C16.6679 17.4677 18.5151 19.315 20.3624 21.161C20.4455 21.2429 20.5286 21.3272 20.6242 21.393C20.8041 21.5146 21.0001 21.5133 21.1899 21.4141C21.3847 21.3123 21.4665 21.1374 21.4852 20.9352ZM22.33 16.4851C22.3126 16.3574 22.294 16.2246 22.1997 16.1303C21.4256 15.3525 20.6552 14.5696 19.8686 13.8042C19.6515 13.592 19.3042 13.6305 19.1119 13.8488C18.9084 14.0808 18.8774 14.3637 19.0871 14.5808C19.8488 15.3711 20.6291 16.144 21.4132 16.9119C21.5856 17.0819 21.8152 17.0794 22.0335 16.9702C22.232 16.871 22.3064 16.6936 22.33 16.4851ZM17.0338 21.7366C17.0363 21.6151 16.9892 21.4836 16.8862 21.3806C16.127 20.6201 15.3727 19.8546 14.6035 19.1053C14.3851 18.8919 14.0465 18.918 13.8418 19.1165C13.6222 19.3299 13.6098 19.6574 13.8269 19.9043C13.9819 20.0792 14.1544 20.2367 14.3194 20.4017C14.8975 20.9799 15.4756 21.558 16.0538 22.1361C16.2473 22.3296 16.4756 22.3867 16.7249 22.2689C16.9334 22.1721 17.0351 21.9947 17.0338 21.7366Z" fill="white"/>
<path fill-rule="evenodd" clip-rule="evenodd" d="M21.4846 20.9353C21.466 21.1375 21.3841 21.3125 21.1906 21.4154C21.0008 21.5147 20.8048 21.5159 20.6249 21.3943C20.5293 21.3298 20.445 21.2442 20.3631 21.1623C18.5158 19.3163 16.6686 17.4691 14.8225 15.6218C14.7481 15.5473 14.6687 15.4742 14.6129 15.3873C14.4553 15.1392 14.4752 14.8898 14.6824 14.6839C14.8895 14.4779 15.1377 14.4606 15.387 14.6169C15.4553 14.6603 15.5136 14.7199 15.5719 14.7782C17.4526 16.6577 19.3322 18.5385 21.2142 20.4167C21.3581 20.5594 21.4772 20.712 21.4846 20.9353Z" fill="#363636"/>
<path fill-rule="evenodd" clip-rule="evenodd" d="M22.3295 16.4851C22.306 16.6923 22.2315 16.871 22.033 16.9702C21.8147 17.0794 21.5852 17.0819 21.4127 16.9119C20.6287 16.144 19.8483 15.3711 19.0866 14.5808C18.8769 14.3637 18.9079 14.0808 19.1114 13.8488C19.3024 13.6305 19.6511 13.592 19.8682 13.8042C20.6547 14.5696 21.4251 15.3512 22.1993 16.1303C22.2936 16.2246 22.3134 16.3573 22.3295 16.4851Z" fill="#363636"/>
<path fill-rule="evenodd" clip-rule="evenodd" d="M17.0333 21.7368C17.0346 21.9949 16.9328 22.171 16.7244 22.269C16.4751 22.3857 16.2468 22.3298 16.0532 22.1363C15.4751 21.5582 14.897 20.98 14.3189 20.4019C14.1539 20.2369 13.9802 20.0781 13.8264 19.9044C13.608 19.6576 13.6204 19.33 13.8412 19.1167C14.0459 18.9182 14.3846 18.8921 14.603 19.1055C15.3722 19.8561 16.1277 20.6203 16.8857 21.3808C16.9887 21.485 17.0358 21.6152 17.0333 21.7368Z" fill="#363636"/>
</svg>
