<svg width="36" height="36" viewBox="0 0 36 36" fill="none" xmlns="http://www.w3.org/2000/svg">
<path fill-rule="evenodd" clip-rule="evenodd" d="M15.9635 0.00683594C17.2986 0.00683594 18.6337 0.00683594 19.9699 0.00683594C19.9824 0.0249389 19.9903 0.0566192 20.0061 0.0600135C20.8592 0.255752 21.3842 0.890486 21.3752 1.71756C21.3661 2.52654 20.7891 3.22011 19.9609 3.35022C19.7029 3.39096 19.6825 3.486 19.6848 3.69871C19.6938 4.83467 19.7006 5.97063 19.6814 7.10659C19.6769 7.38718 19.7595 7.48109 20.0287 7.52635C21.2032 7.72661 22.2984 8.15429 23.3303 8.74717C23.6516 8.93159 23.999 9.31628 24.2762 9.26876C24.5896 9.21445 24.8272 8.76753 25.1145 8.5107C25.2809 8.36248 25.2729 8.26631 25.1428 8.08754C24.6269 7.37926 24.7344 6.45149 25.3759 5.86427C26.0106 5.28271 26.9803 5.25103 27.6105 5.8507C28.484 6.68117 29.3359 7.53653 30.1675 8.41C30.7185 8.98816 30.7265 9.86616 30.2513 10.5099C29.7885 11.1368 28.9716 11.3438 28.2407 11.0655C28.0223 10.9817 27.8809 10.6548 27.6263 10.7837C27.4181 10.889 27.2711 11.1175 27.0968 11.2906C27.0052 11.3811 26.9214 11.4818 26.8219 11.561C26.6737 11.6787 26.6725 11.7771 26.7834 11.9367C27.6501 13.1813 28.2294 14.548 28.4907 16.0438C28.5269 16.2486 28.605 16.321 28.8268 16.3187C29.9978 16.3052 31.1689 16.3063 32.3399 16.3176C32.5628 16.3199 32.6103 16.252 32.6488 16.0381C32.8637 14.8411 34.166 14.2527 35.1877 14.8705C35.6086 15.1251 35.8168 15.5301 35.9956 15.9612C35.9956 17.3438 35.9956 18.7253 35.9956 20.1079C35.9401 20.1181 35.9333 20.1645 35.9152 20.2075C35.5577 21.0334 34.8969 21.4577 34.114 21.3649C33.3401 21.2733 32.7834 20.7234 32.6375 19.859C32.6035 19.6553 32.5017 19.687 32.3795 19.687C31.2085 19.687 30.0374 19.6983 28.8675 19.678C28.588 19.6734 28.5213 19.7809 28.4783 20.0185C28.2656 21.2144 27.8368 22.3323 27.2213 23.3777C27.0448 23.6776 26.6861 24.0034 26.7291 24.2637C26.7778 24.5567 27.2009 24.7785 27.4362 25.0534C27.6116 25.2593 27.7304 25.2786 27.9692 25.1122C28.6627 24.6302 29.6143 24.7739 30.1641 25.4019C30.7027 26.0151 30.7513 26.9576 30.1924 27.555C29.3371 28.4692 28.4477 29.354 27.5358 30.2105C26.9712 30.74 26.0853 30.7185 25.463 30.2467C24.8577 29.7885 24.6484 28.9693 24.9199 28.2599C25.0071 28.0325 25.3329 27.8729 25.213 27.6184C25.1089 27.3989 24.8656 27.2461 24.6835 27.064C24.593 26.9734 24.4934 26.8886 24.4119 26.789C24.3078 26.6612 24.2252 26.6736 24.0929 26.7653C22.8268 27.641 21.4408 28.2305 19.9213 28.4964C19.7402 28.528 19.6837 28.6038 19.6859 28.7905C19.695 29.9616 19.6961 31.1315 19.6859 32.3025C19.6837 32.522 19.7165 32.6046 19.9665 32.6465C20.9701 32.8162 21.5709 33.7711 21.3163 34.7317C21.1308 35.4332 20.6284 35.7941 19.971 35.9898C18.6122 35.9898 17.2533 35.9898 15.8945 35.9898C15.8843 35.9344 15.8379 35.9276 15.7949 35.9095C14.9701 35.5542 14.5458 34.8912 14.6375 34.1071C14.728 33.3355 15.2801 32.7777 16.1457 32.6317C16.3516 32.5967 16.3154 32.4926 16.3165 32.3715C16.3176 31.2118 16.3063 30.0521 16.3244 28.8935C16.329 28.6163 16.2531 28.5179 15.9805 28.4703C14.806 28.2689 13.7108 27.8424 12.6789 27.2506C12.3576 27.0662 12.0103 26.6804 11.7331 26.7279C11.4208 26.7811 11.1821 27.228 10.8935 27.4849C10.7284 27.6319 10.7306 27.727 10.863 27.908C11.3869 28.6253 11.2669 29.5757 10.605 30.1562C9.95785 30.7241 8.99839 30.7298 8.36818 30.1245C7.52413 29.3133 6.69705 28.4828 5.88355 27.641C5.32123 27.0583 5.27597 26.1916 5.72742 25.541C6.16868 24.9063 7.08514 24.5612 7.73911 24.9833C8.34216 25.3725 8.58542 25.0704 8.91127 24.706C8.99726 24.6099 9.08551 24.5137 9.18621 24.4345C9.33443 24.3168 9.33443 24.2184 9.22468 24.06C8.35913 22.8154 7.77757 21.4487 7.51621 19.9529C7.48001 19.747 7.40081 19.6757 7.18018 19.6791C6.02046 19.6927 4.86074 19.6904 3.70215 19.6802C3.48491 19.678 3.3944 19.7051 3.35593 19.9585C3.23826 20.72 2.63407 21.2744 1.89638 21.3627C1.14737 21.452 0.454931 21.0345 0.132472 20.3036C0.101924 20.2358 0.115501 20.1339 0.0136719 20.1056C0.0136719 18.7004 0.0136719 17.294 0.0136719 15.8888C0.0691122 15.8775 0.0759007 15.8311 0.0940036 15.7892C0.449274 14.9655 1.11343 14.5401 1.89638 14.6329C2.66802 14.7234 3.22355 15.2733 3.37177 16.1411C3.40684 16.347 3.51094 16.3108 3.632 16.3108C4.79172 16.3119 5.95144 16.3006 7.11116 16.3187C7.38836 16.3233 7.48793 16.2486 7.53432 15.9748C7.73684 14.789 8.16792 13.6825 8.77211 12.6438C8.95313 12.3327 9.32538 11.9966 9.27899 11.7274C9.22694 11.4241 8.79134 11.1956 8.54582 10.9127C8.38063 10.7238 8.27767 10.7238 8.06835 10.8765C7.37139 11.3834 6.41985 11.2499 5.84961 10.6005C5.29068 9.96346 5.26919 9.00966 5.85753 8.3919C6.68914 7.51843 7.5445 6.66646 8.41683 5.83372C8.99273 5.28385 9.87525 5.27366 10.5168 5.74773C11.1436 6.21049 11.3518 7.02626 11.0734 7.75829C10.9897 7.97779 10.665 8.12035 10.7906 8.37266C10.8947 8.58198 11.1244 8.72793 11.2986 8.90104C11.3982 9.00061 11.5034 9.09452 11.5939 9.202C11.6946 9.32194 11.7749 9.33438 11.913 9.23708C13.1756 8.35569 14.5651 7.76848 16.0834 7.50033C16.2599 7.46978 16.3267 7.40529 16.3256 7.21068C16.3142 6.01588 16.3154 4.82109 16.3244 3.62629C16.3256 3.43508 16.269 3.38869 16.0823 3.35701C15.0403 3.18164 14.4248 2.21879 14.6997 1.22992C14.8785 0.574816 15.3672 0.235386 15.9635 0.00683594ZM17.44 5.38681C17.44 6.2071 17.4423 7.02626 17.4389 7.84655C17.4366 8.25952 17.2647 8.46205 16.872 8.5107C15.1149 8.7302 13.5354 9.37738 12.1347 10.4624C11.7749 10.7408 11.5294 10.7238 11.2103 10.4081C10.7691 9.97138 10.3425 9.51881 9.88996 9.09565C9.23373 8.48128 9.09683 8.21426 9.85036 7.54785C10.1366 7.29441 10.1287 6.94366 9.8911 6.71285C9.6501 6.47864 9.33782 6.49561 9.05157 6.76942C8.79813 7.01268 8.55261 7.26499 8.30482 7.51277C7.79907 8.01739 7.29219 8.52088 6.78983 9.02889C6.49453 9.32759 6.46964 9.64892 6.70724 9.89444C6.94371 10.1377 7.27861 10.1151 7.57278 9.83448C7.65764 9.75414 7.73798 9.66815 7.8217 9.58669C8.17018 9.24839 8.44399 9.245 8.78908 9.58669C9.3299 10.1219 9.86847 10.6616 10.4036 11.2012C10.7318 11.5316 10.7431 11.7738 10.45 12.1539C9.37403 13.5467 8.73364 15.116 8.51414 16.8607C8.46322 17.2601 8.26862 17.4332 7.8613 17.4377C7.39289 17.4422 6.92447 17.4388 6.45606 17.4388C5.27258 17.4388 4.09023 17.4411 2.90675 17.4377C2.47115 17.4366 2.26749 17.2261 2.25844 16.7905C2.25504 16.6265 2.26636 16.4624 2.25391 16.2984C2.22902 15.9702 1.98802 15.7462 1.68141 15.7541C1.38836 15.7621 1.14284 15.9793 1.14058 16.2916C1.12927 17.4275 1.12927 18.5635 1.13945 19.6995C1.14284 20.0287 1.39855 20.2539 1.70517 20.2482C2.01065 20.2425 2.23581 20.0151 2.25504 19.6802C2.26409 19.5173 2.25391 19.3521 2.25844 19.188C2.27088 18.7773 2.47794 18.5658 2.89544 18.5646C4.55864 18.5601 6.22185 18.5601 7.88506 18.5646C8.26635 18.5658 8.46549 18.7513 8.51301 19.1315C8.73251 20.8886 9.38082 22.4669 10.4659 23.8677C10.7419 24.2241 10.725 24.4752 10.4093 24.7932C9.87412 25.334 9.33556 25.8726 8.79473 26.4089C8.44738 26.7528 8.17358 26.7528 7.82736 26.419C7.7425 26.3376 7.6633 26.2516 7.57844 26.1713C7.28314 25.8918 6.9471 25.8714 6.7095 26.1158C6.47869 26.3546 6.49679 26.6702 6.77399 26.9553C7.14171 27.3332 7.51735 27.7021 7.89072 28.0755C8.2969 28.4805 8.69517 28.8946 9.11154 29.2884C9.35932 29.5226 9.67952 29.509 9.89901 29.2906C10.1163 29.0734 10.1219 28.7543 9.90241 28.5009C9.79492 28.3776 9.6716 28.2689 9.55845 28.149C9.25636 27.8299 9.25523 27.5505 9.5675 27.2337C10.1185 26.6747 10.674 26.1203 11.2318 25.5682C11.5215 25.282 11.7772 25.2616 12.1019 25.5139C13.5207 26.6159 15.1195 27.2744 16.9026 27.4928C17.2432 27.5346 17.4344 27.7383 17.4355 28.0777C17.4412 29.776 17.4423 31.4743 17.4344 33.1726C17.4332 33.5199 17.2058 33.7258 16.8528 33.7428C16.6661 33.7519 16.4772 33.736 16.2905 33.7496C15.9782 33.7722 15.761 33.9997 15.7542 34.2927C15.7463 34.5993 15.9703 34.8595 16.2984 34.8629C17.4344 34.8743 18.5703 34.8743 19.7063 34.8629C20.0321 34.8595 20.2573 34.5948 20.2471 34.2893C20.2381 33.9974 20.0186 33.7711 19.7063 33.7485C19.532 33.736 19.3544 33.7496 19.179 33.7439C18.7853 33.7315 18.5658 33.5256 18.5647 33.1341C18.559 31.4596 18.5601 29.7839 18.5647 28.1094C18.5658 27.7315 18.7548 27.5459 19.1383 27.4871C19.4732 27.4351 19.8092 27.3853 20.1396 27.3106C21.5053 27.0017 22.7385 26.41 23.8462 25.5546C24.1992 25.2819 24.4538 25.265 24.7219 25.5263C25.3171 26.1068 25.9054 26.6951 26.4858 27.2902C26.7314 27.5426 26.7234 27.8424 26.4881 28.106C26.3636 28.2452 26.2177 28.3662 26.0955 28.5077C25.8873 28.7498 25.8918 29.0553 26.0921 29.2714C26.3059 29.5011 26.6352 29.5339 26.8773 29.2985C27.6908 28.5054 28.4941 27.7021 29.2884 26.8897C29.5181 26.6555 29.5023 26.3466 29.2997 26.1283C29.0904 25.9031 28.7646 25.8839 28.5088 26.0954C28.3742 26.2075 28.2599 26.3432 28.1321 26.4632C27.839 26.7347 27.5483 26.7449 27.2654 26.4688C26.6884 25.9031 26.1181 25.3306 25.5501 24.7547C25.2877 24.4888 25.2605 24.2286 25.4868 23.9389C26.6058 22.5031 27.2778 20.8852 27.4951 19.0772C27.5336 18.757 27.7383 18.5805 28.0653 18.5669C28.2169 18.5601 28.3697 18.5646 28.5224 18.5646C30.0329 18.5646 31.5445 18.5635 33.055 18.5658C33.5381 18.5669 33.7361 18.766 33.7429 19.2446C33.7451 19.3974 33.7361 19.5501 33.7463 19.7017C33.77 20.031 34.0088 20.2561 34.3154 20.2493C34.6073 20.2437 34.8573 20.0253 34.8607 19.7153C34.872 18.568 34.8732 17.4196 34.8596 16.2723C34.8562 15.9657 34.5914 15.7519 34.2995 15.7553C34.0065 15.7587 33.7745 15.9748 33.7485 16.2848C33.7338 16.459 33.7474 16.6355 33.7429 16.812C33.7315 17.2239 33.5234 17.4377 33.1093 17.4388C31.4461 17.4434 29.7828 17.4434 28.1196 17.4388C27.7372 17.4377 27.5369 17.2544 27.4894 16.8754C27.2699 15.1183 26.6227 13.5388 25.5388 12.1369C25.2537 11.7681 25.2763 11.5271 25.6146 11.1865C26.0435 10.7543 26.4881 10.3368 26.9033 9.89218C27.5177 9.23595 27.7802 9.09565 28.4511 9.85032C28.7057 10.1366 29.0542 10.1309 29.2861 9.89331C29.5215 9.65345 29.5056 9.33891 29.233 9.05379C28.9739 8.78337 28.7046 8.52201 28.4398 8.25726C27.9511 7.76848 27.4657 7.27743 26.9735 6.79205C26.6737 6.49674 26.3546 6.47072 26.1079 6.70832C25.8568 6.95045 25.8873 7.28875 26.1905 7.59989C26.272 7.68362 26.358 7.76395 26.4383 7.84881C26.7449 8.17127 26.7506 8.44847 26.4406 8.76414C25.8907 9.3242 25.3352 9.8786 24.7774 10.4296C24.4843 10.7193 24.2264 10.743 23.9073 10.4941C22.4896 9.39095 20.892 8.72906 19.1089 8.51183C18.7525 8.46883 18.576 8.26178 18.5658 7.89859C18.559 7.66438 18.5647 7.43018 18.5647 7.19597C18.5647 5.77828 18.5635 4.36173 18.5658 2.94404C18.5669 2.46092 18.7661 2.26518 19.2469 2.25839C19.3997 2.25613 19.5524 2.26631 19.704 2.255C20.0321 2.2301 20.2573 1.98911 20.2505 1.68362C20.2437 1.39058 20.0254 1.14393 19.7142 1.14053C18.5782 1.12922 17.4423 1.12922 16.3063 1.1394C15.9759 1.1428 15.7519 1.39624 15.7565 1.70399C15.761 2.01061 15.9873 2.23576 16.3222 2.25613C16.4738 2.26518 16.6265 2.25613 16.7793 2.25839C17.2341 2.26631 17.4378 2.46884 17.44 2.92933C17.4423 3.74736 17.44 4.56765 17.44 5.38681Z" fill="#363636"/>
<path fill-rule="evenodd" clip-rule="evenodd" d="M0.00907098 20.1078C0.1109 20.1349 0.0984544 20.2379 0.127872 20.3058C0.451462 21.0355 1.14277 21.4542 1.89178 21.3648C2.62947 21.2765 3.23366 20.7221 3.35133 19.9607C3.39093 19.7061 3.48144 19.6801 3.69755 19.6823C4.85727 19.6925 6.01699 19.6948 7.17558 19.6812C7.39621 19.6789 7.47654 19.7491 7.51161 19.955C7.77297 21.4519 8.35453 22.8175 9.22008 24.0621C9.33096 24.2205 9.33096 24.319 9.18161 24.4366C9.08091 24.5158 8.99266 24.612 8.90667 24.7082C8.58195 25.0725 8.33756 25.3746 7.7345 24.9854C7.08054 24.5633 6.16407 24.9084 5.72281 25.5432C5.27024 26.1937 5.31663 27.0604 5.87895 27.6431C6.69245 28.486 7.51953 29.3165 8.36358 30.1266C8.99379 30.7319 9.95325 30.7263 10.6004 30.1583C11.2623 29.5779 11.3822 28.6286 10.8584 27.9101C10.726 27.7291 10.7238 27.6341 10.8889 27.487C11.1763 27.2301 11.4151 26.7832 11.7285 26.73C12.0057 26.6825 12.3519 27.0683 12.6743 27.2528C13.7062 27.8445 14.8014 28.2711 15.9759 28.4724C16.2485 28.5188 16.3244 28.6184 16.3198 28.8956C16.3006 30.0553 16.3119 31.215 16.3119 32.3736C16.3119 32.4947 16.3481 32.5988 16.1411 32.6339C15.2755 32.7798 14.7234 33.3376 14.6329 34.1093C14.5412 34.8933 14.9655 35.5564 15.7903 35.9116C15.8333 35.9297 15.8797 35.9365 15.8899 35.992C10.6887 35.992 5.48748 35.9897 0.287404 35.9988C0.0464084 35.9988 -0.00111192 35.9512 1.95123e-05 35.7114C0.0113339 30.5102 0.00907098 25.309 0.00907098 20.1078Z" fill="white"/>
<path fill-rule="evenodd" clip-rule="evenodd" d="M35.994 15.9611C35.8152 15.5301 35.6082 15.1261 35.1862 14.8704C34.1645 14.2527 32.8622 14.841 32.6472 16.0381C32.6088 16.2508 32.5612 16.3198 32.3384 16.3175C31.1673 16.3051 29.9963 16.3051 28.8252 16.3187C28.6035 16.3209 28.5254 16.2485 28.4892 16.0437C28.2267 14.548 27.6474 13.1812 26.7819 11.9366C26.671 11.7771 26.6721 11.6787 26.8203 11.561C26.921 11.4818 27.0048 11.3811 27.0953 11.2906C27.2695 11.1175 27.4155 10.8889 27.6248 10.7837C27.8794 10.6558 28.0197 10.9828 28.2392 11.0654C28.9712 11.3438 29.787 11.1367 30.2497 10.5099C30.7249 9.86611 30.717 8.98811 30.166 8.40995C29.3344 7.53648 28.4824 6.68112 27.609 5.85065C26.9787 5.25099 26.0091 5.28267 25.3744 5.86422C24.7328 6.45144 24.6242 7.37921 25.1413 8.08749C25.2714 8.26626 25.2793 8.36243 25.113 8.51065C24.8256 8.76748 24.588 9.21553 24.2746 9.26871C23.9974 9.31623 23.6512 8.93154 23.3287 8.74712C22.2969 8.15538 21.2028 7.72656 20.0272 7.5263C19.7579 7.47991 19.6753 7.38713 19.6799 7.10654C19.6991 5.97058 19.6934 4.83462 19.6833 3.69866C19.681 3.48482 19.7014 3.38978 19.9593 3.35018C20.7875 3.22006 21.3646 2.52649 21.3736 1.71752C21.3827 0.890439 20.8577 0.255704 20.0046 0.0599661C19.9887 0.0565718 19.9808 0.0248915 19.9684 0.00678855C25.216 0.00678855 30.4636 0.00905147 35.7123 0C35.9533 0 36.0008 0.0475201 35.9997 0.287384C35.9918 5.51235 35.994 10.7373 35.994 15.9611Z" fill="white"/>
<path fill-rule="evenodd" clip-rule="evenodd" d="M19.9698 35.992C20.6272 35.7963 21.1295 35.4354 21.3151 34.7339C21.5685 33.7722 20.9689 32.8184 19.9653 32.6486C19.7152 32.6068 19.6824 32.5242 19.6847 32.3047C19.6949 31.1337 19.6949 29.9637 19.6847 28.7927C19.6835 28.6049 19.739 28.5302 19.92 28.4985C21.4384 28.2327 22.8255 27.6432 24.0916 26.7674C24.224 26.6758 24.3066 26.6634 24.4107 26.7912C24.491 26.8908 24.5906 26.9745 24.6822 27.0661C24.8644 27.2483 25.1076 27.4011 25.2117 27.6206C25.3317 27.8751 25.0058 28.0347 24.9187 28.2621C24.6483 28.9715 24.8565 29.7906 25.4618 30.2489C26.0841 30.7207 26.97 30.7422 27.5346 30.2127C28.4476 29.3562 29.3358 28.4714 30.1912 27.5572C30.7501 26.9598 30.7003 26.0173 30.1629 25.4041C29.613 24.7773 28.6615 24.6324 27.9679 25.1144C27.728 25.2807 27.6104 25.2615 27.435 25.0556C27.2008 24.7807 26.7776 24.56 26.7279 24.2658C26.6849 24.0056 27.0435 23.6798 27.22 23.3799C27.8355 22.3334 28.2643 21.2166 28.4771 20.0207C28.52 19.782 28.5857 19.6745 28.8663 19.6801C30.0362 19.7005 31.2072 19.6881 32.3782 19.6892C32.5004 19.6892 32.6023 19.6575 32.6362 19.8612C32.7822 20.7245 33.3388 21.2743 34.1127 21.3671C34.8957 21.4599 35.5564 21.0367 35.914 20.2097C35.9321 20.1667 35.94 20.1203 35.9943 20.1101C35.9943 25.3113 35.992 30.5125 36.0011 35.7126C36.0011 35.9536 35.9536 36.0011 35.7137 36C30.465 35.9898 25.2174 35.992 19.9698 35.992Z" fill="white"/>
<path fill-rule="evenodd" clip-rule="evenodd" d="M15.9631 0.00678855C15.3668 0.235338 14.8781 0.574769 14.6948 1.23213C14.4187 2.22101 15.0342 3.18386 16.0774 3.35923C16.2652 3.39091 16.3206 3.4373 16.3195 3.62851C16.3104 4.8233 16.3093 6.0181 16.3206 7.21289C16.3229 7.4075 16.255 7.47199 16.0785 7.50254C14.559 7.76956 13.1707 8.35677 11.908 9.23929C11.7689 9.3366 11.6897 9.32415 11.589 9.20422C11.4985 9.09673 11.3932 9.00282 11.2937 8.90326C11.1194 8.72902 10.8897 8.58306 10.7857 8.37488C10.6612 8.12257 10.9859 7.98001 11.0685 7.76051C11.3468 7.02847 11.1387 6.21271 10.5118 5.74995C9.86919 5.27588 8.98667 5.28606 8.4119 5.83594C7.53957 6.66867 6.68421 7.52064 5.8526 8.39411C5.26312 9.01187 5.28575 9.96681 5.84468 10.6027C6.41605 11.2521 7.36759 11.3868 8.06342 10.8787C8.27274 10.726 8.3757 10.7249 8.54089 10.9149C8.78641 11.1967 9.22314 11.4264 9.27406 11.7296C9.32045 11.9977 8.94707 12.3349 8.76718 12.646C8.16299 13.6847 7.73191 14.7912 7.52939 15.977C7.483 16.2508 7.38343 16.3255 7.10623 16.3209C5.94651 16.3028 4.78679 16.313 3.62707 16.313C3.50601 16.313 3.40191 16.3492 3.36684 16.1433C3.21862 15.2766 2.66309 14.7268 1.89145 14.6351C1.1085 14.5423 0.444344 14.9689 0.0890736 15.7914C0.0709707 15.8344 0.064182 15.8808 0.00874167 15.891C0.00874167 10.6955 0.0110046 5.50103 0.00195312 0.305487C0.00195312 0.0520459 0.053999 0 0.30744 0C5.52562 0.00905147 10.7449 0.00678855 15.9631 0.00678855Z" fill="white"/>
<path fill-rule="evenodd" clip-rule="evenodd" d="M17.4401 5.38681C17.4401 4.56652 17.4423 3.74736 17.4389 2.92707C17.4367 2.46658 17.233 2.26405 16.7782 2.25613C16.6266 2.25387 16.4727 2.26292 16.3211 2.25387C15.9862 2.2335 15.7599 2.00834 15.7554 1.70173C15.7508 1.39398 15.9749 1.1394 16.3052 1.13714C17.4412 1.12696 18.5772 1.12696 19.7131 1.13827C20.0243 1.14167 20.2415 1.38832 20.2494 1.68136C20.2562 1.98685 20.0311 2.22784 19.7029 2.25273C19.5513 2.26405 19.3986 2.255 19.2458 2.25613C18.765 2.26179 18.5658 2.45866 18.5647 2.94178C18.5625 4.35947 18.5636 5.77602 18.5636 7.19371C18.5636 7.42792 18.5591 7.66212 18.5647 7.89633C18.5749 8.25952 18.7514 8.46544 19.1078 8.50957C20.8909 8.7268 22.4885 9.38869 23.9062 10.4918C24.2253 10.7408 24.4832 10.717 24.7763 10.4273C25.3341 9.87521 25.8896 9.32081 26.4395 8.76188C26.7495 8.44621 26.7439 8.169 26.4372 7.84655C26.3569 7.76169 26.2709 7.68136 26.1894 7.59763C25.8874 7.28762 25.8568 6.94819 26.1069 6.70606C26.3535 6.46846 26.6726 6.49448 26.9724 6.78979C27.4646 7.27517 27.9511 7.76621 28.4387 8.25499C28.7035 8.51975 28.9728 8.78111 29.2319 9.05152C29.5057 9.33778 29.5204 9.65232 29.2851 9.89105C29.052 10.1286 28.7046 10.1343 28.4501 9.84805C27.7802 9.09339 27.5166 9.23368 26.9023 9.88992C26.4859 10.3346 26.0424 10.7521 25.6135 11.1843C25.2752 11.5248 25.2526 11.7658 25.5377 12.1347C26.6217 13.5365 27.2688 15.116 27.4883 16.8731C27.5359 17.2522 27.7361 17.4355 28.1185 17.4366C29.7818 17.4411 31.445 17.4411 33.1082 17.4366C33.5223 17.4355 33.7305 17.2216 33.7418 16.8098C33.7463 16.6344 33.7327 16.4579 33.7474 16.2825C33.7723 15.9725 34.0054 15.7564 34.2984 15.753C34.5904 15.7496 34.8551 15.9635 34.8585 16.2701C34.8721 17.4174 34.8709 18.5658 34.8596 19.713C34.8562 20.023 34.6062 20.2414 34.3143 20.2471C34.0077 20.2527 33.7689 20.0276 33.7452 19.6995C33.7339 19.5478 33.744 19.3951 33.7418 19.2424C33.735 18.7638 33.537 18.5635 33.0539 18.5635C31.5434 18.5612 30.0318 18.5624 28.5213 18.5624C28.3686 18.5624 28.217 18.5578 28.0642 18.5646C27.7373 18.5782 27.5325 18.7547 27.494 19.0749C27.2768 20.8841 26.6047 22.5009 25.4857 23.9367C25.2605 24.2263 25.2877 24.4854 25.5491 24.7524C26.1159 25.3283 26.6861 25.9008 27.2643 26.4666C27.5472 26.7426 27.8379 26.7336 28.131 26.4609C28.26 26.341 28.3743 26.2052 28.5078 26.0932C28.7635 25.8816 29.0893 25.8997 29.2986 26.126C29.5012 26.3444 29.517 26.6532 29.2873 26.8875C28.493 27.6987 27.6897 28.5031 26.8762 29.2963C26.6341 29.5328 26.3049 29.4988 26.091 29.2691C25.8907 29.0542 25.8862 28.7487 26.0944 28.5054C26.2166 28.364 26.3626 28.2429 26.487 28.1037C26.7224 27.8401 26.7314 27.5403 26.4848 27.288C25.9043 26.6929 25.316 26.1045 24.7208 25.5241C24.4527 25.2627 24.1993 25.2786 23.8451 25.5524C22.7374 26.4077 21.5042 26.9995 20.1385 27.3083C19.8082 27.383 19.4721 27.4339 19.1372 27.4849C18.7537 27.5437 18.5647 27.7304 18.5636 28.1071C18.5591 29.7817 18.5591 31.4573 18.5636 33.1318C18.5647 33.5222 18.7842 33.7281 19.1779 33.7417C19.3533 33.7473 19.5298 33.7338 19.7052 33.7462C20.0175 33.7688 20.2358 33.9951 20.246 34.287C20.2562 34.5914 20.0299 34.8573 19.7052 34.8607C18.5692 34.872 17.4333 34.872 16.2973 34.8607C15.9692 34.8573 15.7452 34.597 15.7531 34.2904C15.761 33.9974 15.9771 33.77 16.2894 33.7473C16.4761 33.7338 16.6639 33.7496 16.8517 33.7406C17.2047 33.7247 17.4321 33.5188 17.4333 33.1703C17.4412 31.472 17.4401 29.7737 17.4344 28.0755C17.4333 27.736 17.2421 27.5324 16.9015 27.4905C15.1184 27.2721 13.5196 26.6136 12.1008 25.5116C11.7761 25.2593 11.5204 25.2797 11.2308 25.5659C10.673 26.1181 10.1174 26.6725 9.56641 27.2314C9.25414 27.5482 9.25527 27.8277 9.55736 28.1467C9.67051 28.2655 9.79383 28.3742 9.90132 28.4986C10.1208 28.7521 10.1163 29.0711 9.89793 29.2884C9.67843 29.5079 9.3571 29.5214 9.11045 29.2861C8.69408 28.8912 8.29468 28.4783 7.88963 28.0732C7.51626 27.701 7.14062 27.331 6.7729 26.9531C6.4957 26.668 6.4776 26.3523 6.70841 26.1136C6.94488 25.868 7.28205 25.8895 7.57735 26.169C7.66221 26.2493 7.74254 26.3353 7.82627 26.4168C8.17249 26.7506 8.44629 26.7506 8.79365 26.4066C9.33447 25.8703 9.8719 25.3317 10.4082 24.7909C10.7227 24.473 10.7408 24.2218 10.4648 23.8654C9.37973 22.4647 8.73142 20.8863 8.51192 19.1292C8.4644 18.749 8.26527 18.5635 7.88397 18.5624C6.22076 18.5578 4.55756 18.5578 2.89435 18.5624C2.47685 18.5635 2.2698 18.7739 2.25735 19.1858C2.25282 19.3498 2.26301 19.5139 2.25396 19.678C2.23472 20.0129 2.00957 20.2403 1.70408 20.2459C1.39746 20.2516 1.14062 20.0264 1.13836 19.6972C1.12818 18.5612 1.12818 17.4253 1.13949 16.2893C1.14289 15.977 1.38728 15.7598 1.68032 15.7519C1.98694 15.744 2.22906 15.968 2.25282 16.2961C2.26527 16.459 2.25395 16.6242 2.25735 16.7883C2.2664 17.2239 2.47006 17.4343 2.90566 17.4355C4.08914 17.44 5.27149 17.4366 6.45497 17.4366C6.92338 17.4366 7.3918 17.44 7.86021 17.4355C8.26753 17.4309 8.46327 17.2567 8.51305 16.8584C8.73368 15.1149 9.37407 13.5445 10.4489 12.1517C10.742 11.7715 10.7307 11.5305 10.4025 11.199C9.86625 10.6582 9.32881 10.1196 8.78799 9.58443C8.4429 9.24274 8.16909 9.24726 7.82061 9.58443C7.73689 9.66589 7.65655 9.75188 7.5717 9.83221C7.27752 10.1128 6.94149 10.1354 6.70615 9.89218C6.46742 9.64666 6.49344 9.32533 6.78874 9.02663C7.2911 8.51862 7.79798 8.01513 8.30373 7.51051C8.55265 7.26159 8.79704 7.01042 9.05048 6.76716C9.33673 6.49335 9.64901 6.47638 9.89001 6.71059C10.1276 6.9414 10.1355 7.29327 9.84927 7.54558C9.09574 8.212 9.23264 8.47902 9.88887 9.09339C10.3414 9.51767 10.768 9.97025 11.2093 10.4059C11.5283 10.7215 11.7738 10.7396 12.1336 10.4602C13.5344 9.37511 15.1127 8.72793 16.871 8.50844C17.2636 8.45978 17.4355 8.25726 17.4378 7.84428C17.4423 7.02739 17.4401 6.2071 17.4401 5.38681ZM21.9862 19.041C20.1317 19.0398 18.5885 20.7709 18.7582 22.6615C18.8849 24.0713 20.1261 25.0941 21.5245 24.9437C23.1425 24.7694 24.4312 23.4128 24.5262 21.7847C24.6168 20.2493 23.4978 19.041 21.9862 19.041ZM15.8493 16.3832C17.3643 16.3934 18.5998 15.1669 18.5998 13.6519C18.5998 12.1528 17.3801 10.9297 15.8787 10.924C14.3976 10.9184 13.1632 12.1302 13.1485 13.6055C13.1338 15.1375 14.3343 16.373 15.8493 16.3832ZM12.3305 18.1132C12.1868 18.1222 12.0465 18.1256 11.9074 18.1426C10.63 18.2953 9.87416 19.5478 10.3697 20.6895C10.9106 21.9374 12.4991 22.5846 13.7606 22.0698C14.7574 21.6625 15.1953 20.4756 14.6714 19.5286C14.1657 18.6167 13.3669 18.1596 12.3305 18.1132ZM21.0177 14.6759C21.0505 15.4747 21.4804 16.2633 22.3505 16.7815C23.4106 17.414 24.6496 16.9365 25.041 15.7666C25.3771 14.7619 24.9924 13.5456 24.128 12.8814C23.7082 12.559 23.2432 12.3519 22.7024 12.4141C21.6535 12.5318 21.0143 13.3182 21.0177 14.6759Z" fill="white"/>
<path fill-rule="evenodd" clip-rule="evenodd" d="M21.9859 19.0408C23.4975 19.0419 24.6165 20.2491 24.5271 21.7834C24.4321 23.4115 23.1422 24.7681 21.5254 24.9423C20.1258 25.0928 18.8846 24.07 18.759 22.6602C18.5882 20.7707 20.1315 19.0396 21.9859 19.0408ZM22.0221 20.162C20.9529 20.1586 19.9991 21.0423 19.8848 22.1443C19.7626 23.3176 20.6565 24.079 21.7822 23.7611C22.6659 23.5111 23.3776 22.6037 23.4058 21.6883C23.433 20.8228 22.8356 20.1643 22.0221 20.162Z" fill="#363636"/>
<path fill-rule="evenodd" clip-rule="evenodd" d="M15.8493 16.3833C14.3343 16.3731 13.1339 15.1376 13.1486 13.6056C13.1633 12.1302 14.3977 10.9184 15.8787 10.9241C17.3801 10.9297 18.5998 12.1528 18.5998 13.652C18.5998 15.167 17.3643 16.3934 15.8493 16.3833ZM17.439 13.6305C17.439 12.7525 16.7137 12.0272 15.8323 12.025C14.934 12.0227 14.2053 12.7514 14.2087 13.6497C14.2121 14.5288 14.9362 15.2541 15.8154 15.2564C16.7126 15.2597 17.439 14.5322 17.439 13.6305Z" fill="#363636"/>
<path fill-rule="evenodd" clip-rule="evenodd" d="M12.3302 18.113C13.3666 18.1606 14.1654 18.6177 14.67 19.5296C15.1938 20.4766 14.7571 21.6635 13.7592 22.0708C12.4987 22.5856 10.9102 21.9384 10.3683 20.6904C9.87269 19.5488 10.6285 18.2963 11.9059 18.1436C12.0462 18.1255 12.1865 18.1221 12.3302 18.113ZM12.7624 21.1113C13.207 21.1034 13.5589 21.0401 13.7196 20.6327C13.8814 20.222 13.6551 19.9324 13.3847 19.6755C12.9841 19.2931 12.4965 19.1687 11.9579 19.275C11.3979 19.3848 11.1738 19.9324 11.494 20.4008C11.812 20.8669 12.2589 21.1057 12.7624 21.1113Z" fill="#363636"/>
<path fill-rule="evenodd" clip-rule="evenodd" d="M21.0176 14.6757C21.0142 13.318 21.6535 12.5317 22.7 12.414C23.242 12.3529 23.7059 12.56 24.1256 12.8813C24.9912 13.5443 25.3747 14.7617 25.0387 15.7664C24.6472 16.9363 23.4094 17.4138 22.3482 16.7813C21.4803 16.2631 21.0504 15.4734 21.0176 14.6757ZM22.1422 14.4404C22.1513 15.0367 22.407 15.5017 22.9161 15.8094C23.3619 16.0787 23.8303 15.8977 23.9752 15.401C24.1539 14.7889 23.9548 14.2718 23.5124 13.8419C23.2556 13.5918 22.9433 13.4379 22.588 13.5941C22.235 13.748 22.1388 14.0761 22.1422 14.4404Z" fill="#363636"/>
<path fill-rule="evenodd" clip-rule="evenodd" d="M22.0224 20.1621C22.837 20.1644 23.4344 20.8229 23.4072 21.6884C23.3789 22.6038 22.6673 23.5112 21.7836 23.7612C20.6567 24.0791 19.764 23.3177 19.8862 22.1444C19.9994 21.0424 20.952 20.1587 22.0224 20.1621Z" fill="white"/>
<path fill-rule="evenodd" clip-rule="evenodd" d="M17.4392 13.6304C17.4392 14.531 16.7129 15.2585 15.8156 15.2563C14.9365 15.254 14.2124 14.5299 14.209 13.6496C14.2056 12.7524 14.9331 12.0238 15.8326 12.0249C16.714 12.0272 17.4392 12.7524 17.4392 13.6304Z" fill="white"/>
<path fill-rule="evenodd" clip-rule="evenodd" d="M12.7624 21.1116C12.2589 21.1059 11.812 20.8672 11.494 20.3999C11.175 19.9315 11.399 19.3839 11.9579 19.2741C12.4965 19.1689 12.9841 19.2933 13.3847 19.6746C13.6551 19.9315 13.8802 20.2211 13.7196 20.6318C13.5578 21.0403 13.2059 21.1036 12.7624 21.1116Z" fill="white"/>
<path fill-rule="evenodd" clip-rule="evenodd" d="M22.1427 14.4405C22.1393 14.0761 22.2354 13.7492 22.5884 13.593C22.9437 13.4369 23.256 13.5919 23.5128 13.8408C23.9552 14.2707 24.1555 14.7878 23.9756 15.3999C23.8296 15.8966 23.3623 16.0777 22.9166 15.8084C22.4074 15.5018 22.1528 15.0367 22.1427 14.4405Z" fill="white"/>
</svg>
