<svg width="42" height="42" viewBox="0 0 42 42" fill="none" xmlns="http://www.w3.org/2000/svg">
<path fill-rule="evenodd" clip-rule="evenodd" d="M20.9575 41.9919C14.0841 41.9919 7.21207 41.9892 0.338677 42C0.0593695 42 0.00269843 41.9474 0.00269843 41.6654C0.0121436 27.893 0.0121438 14.1192 0 0.346773C0 0.0242875 0.0984996 0.00269868 0.368362 0.00269868C14.1273 0.00944524 27.8876 0.00944518 41.6465 0C41.9406 0 42.0041 0.0580205 42.0041 0.354869C41.9946 14.1138 41.9946 27.8741 42.0054 41.633C42.0054 41.9622 41.9069 42 41.6181 41.9987C34.7313 41.9892 27.8444 41.9919 20.9575 41.9919ZM24.1257 19.5218C24.1243 19.5218 24.1243 19.5218 24.123 19.5218C24.123 17.0755 24.1365 14.6292 24.1176 12.1843C24.1054 10.5476 22.9315 9.16182 21.3272 8.85148C20.4623 8.68417 19.5825 8.79886 18.7109 8.77997C18.4856 8.77457 18.3628 8.75703 18.3668 8.48042C18.3709 8.20921 18.2737 7.94609 18.1658 7.69377C17.6868 6.58464 16.5466 5.91403 15.366 6.04896C14.1124 6.19199 13.145 7.06904 12.9615 8.30906C12.9008 8.71655 12.7577 8.80965 12.3813 8.78401C11.878 8.75028 11.3706 8.77457 10.8647 8.77592C8.62614 8.78266 7.1554 10.2588 7.15405 12.5054C7.1527 14.9517 7.15405 17.398 7.15405 19.843C7.15405 22.1247 7.14325 24.4077 7.15674 26.6894C7.16754 28.5905 8.50605 30.0478 10.3964 30.2111C11.0212 30.265 11.6526 30.2569 12.2801 30.2327C12.6026 30.2205 12.6714 30.3271 12.6511 30.6213C12.6255 30.9883 12.6336 31.3593 12.6498 31.7277C12.6754 32.3187 13.0829 32.7113 13.6766 32.7275C13.991 32.7356 14.3054 32.7289 14.6198 32.7289C15.146 32.7289 15.146 32.7289 15.1487 33.27C15.1568 34.9499 16.1782 35.9794 17.8554 35.9807C21.4486 35.9848 25.0432 35.9848 28.6364 35.9807C30.342 35.9794 31.3593 34.9566 31.362 33.2497C31.3647 31.2136 31.3688 29.1775 31.3566 27.1414C31.3553 26.8391 31.4093 26.7258 31.7466 26.7325C32.9488 26.7555 34.1511 26.742 35.3533 26.742C35.8822 26.742 36.0927 26.603 36.1008 26.2535C36.1089 25.9027 35.889 25.7476 35.3762 25.7462C34.8837 25.7449 34.3899 25.7192 33.9014 25.7543C33.4912 25.784 33.355 25.6841 33.3604 25.2375C33.3873 23.1191 33.3766 21.002 33.3712 18.8836C33.3685 17.6638 32.7653 16.7962 31.6265 16.3901C31.3985 16.3091 31.3566 16.1917 31.3593 15.9745C31.3715 15.1001 31.3701 14.2258 31.3607 13.3514C31.3566 12.9156 31.0692 12.6781 30.7103 12.7996C30.4364 12.8927 30.3608 13.1153 30.3622 13.3838C30.3649 14.2582 30.3622 15.1325 30.3635 16.0069C30.3635 16.1688 30.3797 16.2902 30.1571 16.3739C28.9103 16.8381 28.3787 17.6287 28.3774 18.9578C28.376 21.0897 28.3693 23.2216 28.3855 25.3536C28.3882 25.6828 28.295 25.7664 27.978 25.7529C27.364 25.7287 26.7487 25.7435 26.1335 25.7489C25.8218 25.7516 25.641 25.9365 25.6356 26.232C25.6302 26.5288 25.811 26.7096 26.1173 26.7379C26.2117 26.7474 26.3089 26.7406 26.4047 26.7406C27.6204 26.7406 28.8375 26.7487 30.0532 26.7339C30.3042 26.7312 30.3716 26.7906 30.3703 27.0469C30.3581 29.1789 30.3689 31.3108 30.3608 33.4427C30.3581 34.3251 29.7537 34.9579 28.878 34.9606C25.1336 34.9714 21.3893 34.966 17.6449 34.9647C17.4102 34.9647 17.1862 34.9202 16.973 34.8122C16.3199 34.4803 15.9273 33.525 16.1526 32.8341C16.2066 32.6695 16.324 32.7316 16.4157 32.7289C16.8259 32.7208 17.2361 32.7356 17.6449 32.7221C18.217 32.7046 18.6124 32.3065 18.6313 31.7331C18.6434 31.3512 18.6556 30.9667 18.6286 30.5862C18.607 30.2839 18.723 30.2219 18.9983 30.234C19.476 30.2556 19.955 30.2421 20.4326 30.2394C22.6495 30.2273 24.123 28.7498 24.1257 26.5328C24.127 24.1945 24.1257 21.8588 24.1257 19.5218Z" fill="white"/>
<path fill-rule="evenodd" clip-rule="evenodd" d="M24.1261 19.5217C24.1261 21.8587 24.1275 24.1943 24.1261 26.5313C24.1234 28.7496 22.65 30.2271 20.433 30.2379C19.9554 30.2406 19.4764 30.2541 18.9987 30.2325C18.7235 30.2204 18.6074 30.2838 18.629 30.5847C18.656 30.9652 18.6439 31.3497 18.6317 31.7316C18.6128 32.305 18.2175 32.7031 17.6454 32.7206C17.2352 32.7341 16.825 32.7193 16.4161 32.7274C16.3244 32.7287 16.207 32.6667 16.153 32.8326C15.9277 33.5221 16.3203 34.4774 16.9734 34.8107C17.1853 34.9187 17.4106 34.9632 17.6454 34.9632C21.3897 34.9632 25.134 34.9699 28.8784 34.9591C29.7541 34.9564 30.3572 34.3236 30.3613 33.4412C30.3694 31.3092 30.3586 29.1773 30.3707 27.0454C30.3721 26.7891 30.3046 26.7297 30.0536 26.7324C28.8379 26.7459 27.6208 26.7391 26.4051 26.7391C26.3093 26.7391 26.2135 26.7445 26.1177 26.7364C25.8127 26.7081 25.6306 26.5273 25.636 26.2304C25.6414 25.9336 25.8222 25.7501 26.1339 25.7474C26.7492 25.742 27.3645 25.7271 27.9784 25.7514C28.2955 25.7636 28.3886 25.6813 28.3859 25.352C28.3697 23.2201 28.3764 21.0882 28.3778 18.9563C28.3791 17.6272 28.9108 16.8352 30.1575 16.3724C30.3788 16.2901 30.364 16.1673 30.364 16.0054C30.364 15.131 30.3653 14.2567 30.3626 13.3823C30.3613 13.1138 30.4368 12.8912 30.7107 12.798C31.0697 12.6766 31.3571 12.9141 31.3611 13.3499C31.3692 14.2243 31.3706 15.0986 31.3598 15.973C31.3571 16.1902 31.3989 16.3063 31.6269 16.3886C32.7657 16.7947 33.3689 17.6623 33.3716 18.8821C33.377 21.0005 33.3878 23.1189 33.3608 25.236C33.3554 25.6813 33.4917 25.7825 33.9019 25.7528C34.3917 25.7177 34.8855 25.7433 35.3767 25.7447C35.8894 25.746 36.1093 25.9012 36.1012 26.252C36.0931 26.6015 35.8827 26.7405 35.3537 26.7405C34.1515 26.7405 32.9479 26.7553 31.747 26.731C31.4097 26.7243 31.3557 26.8376 31.3571 27.1399C31.3692 29.176 31.3652 31.2121 31.3625 33.2482C31.3598 34.9551 30.3424 35.9779 28.6369 35.9792C25.0436 35.9833 21.4491 35.9833 17.8559 35.9792C16.1787 35.9765 15.1586 34.947 15.1491 33.2684C15.1464 32.7274 15.1464 32.7274 14.6202 32.7274C14.3058 32.7274 13.9914 32.7341 13.677 32.726C13.0847 32.7098 12.6759 32.3172 12.6502 31.7262C12.634 31.3578 12.6273 30.9868 12.6516 30.6197C12.6718 30.3256 12.603 30.219 12.2805 30.2311C11.6531 30.2554 11.0216 30.2635 10.3969 30.2096C8.50649 30.0463 7.16932 28.589 7.15718 26.6879C7.14368 24.4062 7.15448 22.1231 7.15448 19.8415C7.15448 17.3952 7.15313 14.9489 7.15448 12.5039C7.15583 10.2573 8.62658 8.78115 10.8651 8.7744C11.3711 8.77305 11.8784 8.74877 12.3817 8.7825C12.7582 8.80814 12.9025 8.71503 12.9619 8.30754C13.1454 7.06753 14.1129 6.19047 15.3664 6.04745C16.5457 5.91252 17.6872 6.58312 18.1662 7.69226C18.2755 7.94458 18.3727 8.20904 18.3673 8.4789C18.3619 8.75551 18.486 8.7744 18.7113 8.77845C19.5843 8.79734 20.4627 8.68265 21.3276 8.84996C22.932 9.16031 24.1059 10.5474 24.118 12.1828C24.1369 14.6291 24.1234 17.0754 24.1234 19.5203C24.1234 19.5217 24.1248 19.5217 24.1261 19.5217ZM8.15297 20.6578C8.15297 22.6521 8.14352 24.6477 8.15567 26.642C8.16511 28.1168 9.18384 29.207 10.6128 29.2165C13.9739 29.2367 17.335 29.2381 20.6962 29.2151C22.0711 29.2057 23.1033 28.1208 23.129 26.7432C23.1398 26.1427 23.1114 25.5396 23.1398 24.9405C23.156 24.5964 23.0844 24.4817 22.7053 24.4871C21.0389 24.5128 19.3711 24.4979 17.7047 24.4966C17.5685 24.4966 17.4295 24.5006 17.2972 24.4723C17.0382 24.4183 16.8938 24.2496 16.8992 23.9798C16.9032 23.7302 17.0409 23.5669 17.2811 23.517C17.4254 23.4859 17.5793 23.4859 17.729 23.4859C19.4103 23.4846 21.0902 23.4778 22.7714 23.4913C23.0453 23.494 23.1452 23.4414 23.1398 23.1419C23.1209 22.0489 23.1222 20.956 23.1398 19.863C23.1438 19.5797 23.075 19.4987 22.7835 19.5028C21.2534 19.519 19.7233 19.5095 18.1932 19.5095C17.9476 19.5095 17.7007 19.5163 17.4551 19.5068C17.1259 19.4947 16.8938 19.3449 16.9032 18.9873C16.9113 18.6527 17.1299 18.5137 17.4484 18.511C17.5442 18.511 17.64 18.511 17.7358 18.511C19.417 18.511 21.0969 18.5043 22.7781 18.5178C23.0615 18.5205 23.1438 18.4503 23.1398 18.1616C23.1236 16.9863 23.1195 15.8111 23.1411 14.6372C23.1465 14.3214 23.0561 14.2621 22.7579 14.2634C18.0164 14.2728 13.275 14.2742 8.53482 14.2621C8.1921 14.2607 8.14622 14.3794 8.14757 14.6749C8.15837 16.6679 8.15297 18.6635 8.15297 20.6578ZM15.6551 13.2703C17.8127 13.2703 19.9702 13.2703 22.1291 13.2703C23.156 13.2703 23.156 13.2703 23.133 12.2543C23.102 10.8712 22.0347 9.77829 20.6557 9.77289C17.3094 9.7594 13.9631 9.7648 10.6182 9.77289C9.91787 9.77424 9.32417 10.0549 8.83572 10.5636C8.21639 11.2086 8.13678 12.006 8.14352 12.8453C8.14622 13.1772 8.21908 13.2811 8.56856 13.2784C10.9299 13.2622 13.2925 13.2703 15.6551 13.2703ZM29.3682 22.0651C29.3682 23.1837 29.3736 24.3036 29.3628 25.4222C29.3601 25.6556 29.3952 25.7582 29.6677 25.7514C30.4584 25.7312 31.2505 25.7352 32.0425 25.7501C32.2867 25.7541 32.3717 25.6961 32.3704 25.4357C32.361 23.2377 32.3717 21.041 32.361 18.843C32.3569 17.9092 31.7025 17.24 30.8511 17.2521C29.9943 17.2643 29.3709 17.9403 29.3682 18.8713C29.3655 19.9359 29.3682 21.0005 29.3682 22.0651ZM15.6268 31.7343C15.9129 31.7343 16.1989 31.7437 16.485 31.7316C16.8614 31.7167 17.3769 31.8975 17.5752 31.6587C17.7655 31.4307 17.613 30.9328 17.6481 30.5563C17.6737 30.2662 17.5496 30.2298 17.3026 30.2325C16.4715 30.246 15.6416 30.2298 14.8105 30.2406C14.434 30.246 13.9402 30.0746 13.7121 30.3135C13.4854 30.5496 13.6743 31.0407 13.6406 31.4172C13.6177 31.6655 13.6959 31.7491 13.955 31.741C14.5096 31.7208 15.0682 31.7343 15.6268 31.7343ZM15.6282 8.7744C16.1314 8.7744 16.6347 8.76766 17.1394 8.7771C17.3229 8.78115 17.4106 8.75551 17.3836 8.53558C17.2797 7.69361 16.5039 7.023 15.6214 7.03244C14.7511 7.04324 14.0076 7.70845 13.9132 8.54097C13.8916 8.72853 13.9361 8.7798 14.1183 8.7771C14.6202 8.76901 15.1249 8.7744 15.6282 8.7744Z" fill="#363636"/>
<path fill-rule="evenodd" clip-rule="evenodd" d="M8.15289 20.6583C8.15289 18.664 8.15828 16.6684 8.14749 14.6741C8.14614 14.3773 8.19067 14.2599 8.53474 14.2612C13.2762 14.2747 18.0177 14.2734 22.7578 14.2626C23.056 14.2626 23.1478 14.3206 23.141 14.6364C23.1194 15.8116 23.1221 16.9869 23.1397 18.1608C23.1437 18.4482 23.0614 18.5183 22.7781 18.517C21.0968 18.5035 19.4169 18.5102 17.7357 18.5102C17.6399 18.5102 17.5441 18.5102 17.4483 18.5102C17.1298 18.5116 16.9113 18.6519 16.9032 18.9865C16.8937 19.3441 17.1245 19.4939 17.455 19.506C17.7006 19.5155 17.9475 19.5087 18.1931 19.5087C19.7232 19.5087 21.2533 19.5168 22.7835 19.502C23.0749 19.4993 23.1437 19.5789 23.1397 19.8622C23.1221 20.9552 23.1208 22.0481 23.1397 23.1411C23.1451 23.4406 23.0466 23.4932 22.7713 23.4905C21.0914 23.4784 19.4102 23.4838 17.7289 23.4851C17.5792 23.4851 17.4267 23.4851 17.281 23.5162C17.0394 23.5674 16.9032 23.7294 16.8991 23.979C16.8937 24.2488 17.0381 24.4175 17.2972 24.4715C17.4294 24.4985 17.5684 24.4958 17.7047 24.4958C19.3711 24.4971 21.0388 24.5106 22.7052 24.4863C23.0844 24.4809 23.1559 24.5956 23.1397 24.9397C23.1113 25.5401 23.1397 26.1419 23.1289 26.7424C23.1032 28.12 22.071 29.2049 20.6961 29.2143C17.3349 29.2372 13.9738 29.2359 10.6127 29.2157C9.18376 29.2076 8.16503 28.1173 8.15559 26.6412C8.14344 24.6482 8.15289 22.654 8.15289 20.6583Z" fill="white"/>
<path fill-rule="evenodd" clip-rule="evenodd" d="M15.6548 13.27C13.2922 13.27 10.9295 13.2619 8.56688 13.2781C8.21741 13.2808 8.14455 13.1782 8.14185 12.8449C8.13645 12.0057 8.21471 11.2082 8.83405 10.5633C9.32115 10.0546 9.91484 9.77391 10.6165 9.77256C13.9628 9.76446 17.3091 9.76041 20.654 9.77256C22.0317 9.77795 23.099 10.8695 23.1313 12.2539C23.1543 13.27 23.1543 13.27 22.1275 13.27C19.9699 13.27 17.8124 13.27 15.6548 13.27Z" fill="white"/>
<path fill-rule="evenodd" clip-rule="evenodd" d="M29.3675 22.0646C29.3675 21 29.3648 19.9354 29.3688 18.8708C29.3715 17.9411 29.9949 17.2638 30.8517 17.2516C31.7031 17.2395 32.3575 17.9087 32.3616 18.8425C32.3724 21.0405 32.3616 23.2372 32.371 25.4352C32.3724 25.6956 32.2874 25.7536 32.0431 25.7496C31.2511 25.7347 30.4591 25.7307 29.6684 25.7509C29.3958 25.7577 29.3607 25.6551 29.3634 25.4217C29.3729 24.3031 29.3675 23.1832 29.3675 22.0646Z" fill="white"/>
<path fill-rule="evenodd" clip-rule="evenodd" d="M15.6259 31.7348C15.0673 31.7348 14.5087 31.7213 13.9514 31.7402C13.6924 31.7497 13.6155 31.666 13.637 31.4164C13.6708 31.0399 13.4832 30.5488 13.7086 30.3127C13.9379 30.0738 14.4304 30.2452 14.8069 30.2398C15.6381 30.229 16.4679 30.2452 17.2991 30.2317C17.546 30.2277 17.6715 30.2641 17.6445 30.5555C17.6108 30.932 17.7619 31.4312 17.5716 31.6579C17.3733 31.8968 16.8579 31.7159 16.4814 31.7308C16.198 31.7443 15.912 31.7348 15.6259 31.7348Z" fill="white"/>
<path fill-rule="evenodd" clip-rule="evenodd" d="M15.6281 8.7748C15.1248 8.7748 14.6215 8.76941 14.1169 8.7775C13.9347 8.7802 13.8916 8.72893 13.9118 8.54137C14.0063 7.70885 14.7497 7.04364 15.62 7.03284C16.5011 7.02205 17.2783 7.69401 17.3822 8.53598C17.4092 8.75591 17.3215 8.78155 17.138 8.7775C16.6347 8.76806 16.1314 8.7748 15.6281 8.7748Z" fill="white"/>
</svg>
