<svg width="36" height="36" viewBox="0 0 36 36" fill="none" xmlns="http://www.w3.org/2000/svg">
<path fill-rule="evenodd" clip-rule="evenodd" d="M13.7135 35.9938C13.222 35.9938 12.7292 35.9938 12.2378 35.9938C12.2063 35.8841 12.1042 35.9131 12.0336 35.8993C10.4483 35.5842 9.21455 34.755 8.33872 33.3965C8.26563 33.2831 8.16985 33.2201 8.04257 33.1697C5.63812 32.2296 4.25947 30.1187 4.38423 27.5605C4.39431 27.3425 4.32878 27.2291 4.15109 27.1132C1.88022 25.6211 1.22492 22.792 2.60231 20.4291C2.70943 20.2464 2.71825 20.1178 2.60735 19.9288C1.4568 17.9579 1.66977 15.7714 3.17822 14.05C3.30298 13.9089 3.33827 13.7841 3.28408 13.6102C3.15302 13.1931 3.11269 12.7583 3.11899 12.3273C3.1505 10.1258 4.65139 8.20774 6.7849 7.64947C7.08356 7.57134 7.09113 7.47178 7.01804 7.20966C6.62486 5.80454 6.96259 4.57963 7.98082 3.53997C8.51137 2.99809 9.2196 2.71077 9.81945 2.26214C11.033 1.35354 12.3701 0.664209 13.8395 0.248345C14.1709 0.15509 14.5263 0.166432 14.8401 0.00512695C15.2143 0.00512695 15.5899 0.00512695 15.9642 0.00512695C16.7316 0.202978 17.4222 0.529368 17.9212 1.17585C18.0296 1.31573 18.0775 1.18089 18.1292 1.1204C18.3043 0.914988 18.5047 0.73856 18.7164 0.572215C19.0894 0.28111 19.5482 0.186595 19.9703 0.00512695C20.3446 0.00512695 20.7201 0.00512695 21.0944 0.00512695C21.451 0.0882998 21.8102 0.158871 22.1643 0.255906C23.7194 0.679331 25.0981 1.45435 26.3923 2.39572C26.638 2.57466 26.8699 2.76873 27.1446 2.90862C28.643 3.66473 29.539 5.45799 28.9782 7.24243C28.9076 7.46548 28.9026 7.56378 29.1861 7.63687C31.801 8.31611 33.3637 10.9172 32.7361 13.5396C32.6756 13.7942 32.7336 13.9441 32.8961 14.1269C34.2987 15.7021 34.5306 18.0297 33.4481 19.8343C33.2792 20.1166 33.3233 20.2968 33.472 20.5476C34.7612 22.7327 34.0719 25.6766 31.9422 27.0502C31.6914 27.2115 31.6095 27.3677 31.6246 27.6626C31.7456 30.0847 30.2938 32.2913 28.0293 33.1382C27.8251 33.2138 27.7004 33.3385 27.5882 33.5087C26.8787 34.5823 25.9084 35.3158 24.6847 35.7102C24.3382 35.8211 23.9803 35.8993 23.6274 35.9925C23.1359 35.9925 22.6432 35.9925 22.1517 35.9925C22.1026 35.8677 21.9753 35.8892 21.8846 35.8715C20.7214 35.6447 19.7523 35.0776 18.9357 34.2308C18.5715 33.8527 18.2917 33.4129 18.0372 32.9693C17.9225 32.9907 17.9112 33.0726 17.8784 33.1281C16.9559 34.7084 15.6012 35.656 13.784 35.9295C13.755 35.9333 13.7349 35.9711 13.7135 35.9938ZM24.5902 2.59231C23.4762 1.94583 22.3849 1.43041 21.1662 1.22374C19.4499 0.932631 18.5224 1.9975 18.5677 3.41521C18.6093 4.70187 18.5765 5.99231 18.5765 7.28023C18.5765 7.54361 18.5765 7.80573 18.5765 8.05903C18.6963 8.08676 18.7441 8.02249 18.7971 7.98594C19.2633 7.66585 19.7851 7.51715 20.3433 7.4743C20.7365 7.44406 21.0125 7.64191 21.0566 7.98594C21.0995 8.31737 20.8714 8.57571 20.4757 8.63746C20.337 8.65888 20.1946 8.65762 20.0598 8.69039C19.1096 8.92605 18.5778 9.66704 18.5778 10.7596C18.5765 16.9913 18.5778 23.2242 18.5753 29.4559C18.5753 29.96 18.5665 30.4615 18.6219 30.9643C18.821 32.7626 20.1896 34.2925 21.9866 34.7147C23.7648 35.1318 25.7042 34.3505 26.6443 32.8055C26.8774 32.4224 27.1698 32.1918 27.592 32.0443C29.5289 31.3714 30.7387 29.3185 30.4236 27.2871C30.3342 26.7087 30.3896 26.5839 30.9151 26.3117C31.6473 25.9336 32.2018 25.3792 32.5584 24.6407C33.1343 23.446 33.0877 22.2677 32.45 21.0857C31.5263 21.8493 30.5118 22.2753 29.3411 22.3005C28.9013 22.3093 28.6379 22.1152 28.6153 21.7649C28.5938 21.4184 28.8446 21.1827 29.2718 21.1487C29.3184 21.1449 29.3651 21.1449 29.4117 21.1399C31.0046 20.9861 32.1388 20.1745 32.7071 18.6875C33.2629 17.2332 32.9654 15.8811 31.8804 14.7721C31.4696 14.3512 31.3713 14.0034 31.5414 13.4451C31.9649 12.0526 31.6334 10.7937 30.6164 9.76155C29.6297 8.7597 28.4073 8.42575 27.0388 8.75214C25.4043 9.1428 24.2764 10.5618 24.1844 12.2832C24.1605 12.7318 23.9198 13.0028 23.5657 12.9814C23.2292 12.9612 23.0074 12.6877 23.0112 12.2958C23.0326 9.9027 24.9443 7.78053 27.3248 7.52345C27.5706 7.49698 27.6915 7.38987 27.7835 7.17311C28.2989 5.95577 27.7898 4.55191 26.6027 3.94072C25.4333 3.33834 24.0042 3.73908 23.3174 4.8594C23.2443 4.97912 23.1775 5.1064 23.0855 5.20847C22.8889 5.42648 22.6407 5.47563 22.3874 5.32819C22.129 5.17697 22.0068 4.94131 22.1265 4.6439C22.2009 4.46244 22.2992 4.28727 22.4088 4.12344C22.928 3.35347 23.6551 2.87081 24.5902 2.59231ZM17.4247 27.0401C17.4247 26.9002 17.4247 26.8586 17.4247 26.8183C17.4247 22.2627 17.426 17.7071 17.4235 13.1515C17.4235 12.81 17.3693 12.4748 17.2067 12.1673C16.8438 11.4855 16.2553 11.1717 15.5004 11.1112C15.1488 11.0835 14.9207 10.8214 14.9358 10.5152C14.9522 10.1862 15.2131 9.96193 15.5823 9.96697C16.1444 9.97579 16.6623 10.1358 17.1412 10.4295C17.2231 10.4799 17.2874 10.592 17.4247 10.529C17.4247 8.04895 17.4461 5.56763 17.4146 3.0863C17.4008 1.99245 16.627 1.24894 15.5962 1.18467C14.3814 1.10906 12.3877 1.92314 11.4716 2.60869C11.5447 2.63389 11.6102 2.65658 11.6757 2.67926C12.6259 3.00313 13.3442 3.60298 13.8155 4.49142C13.9957 4.83041 13.9189 5.15176 13.6391 5.32189C13.343 5.50084 13.0254 5.4038 12.8048 5.06355C12.7544 4.98542 12.7116 4.90098 12.6624 4.82159C11.958 3.70758 10.5012 3.3396 9.32923 3.97726C8.18372 4.60106 7.70232 6.0339 8.23412 7.21344C8.31982 7.40373 8.43449 7.49446 8.64873 7.51967C10.1836 7.70492 11.3632 8.47364 12.2113 9.75147C12.7141 10.5089 12.9523 11.3595 12.9888 12.2656C13.0052 12.6776 12.7796 12.965 12.4318 12.9814C12.0891 12.999 11.8471 12.7344 11.8194 12.3122C11.8156 12.2542 11.8169 12.195 11.8143 12.137C11.6997 9.97327 9.56111 8.29343 7.42886 8.69165C5.12396 9.12264 3.79572 11.304 4.49387 13.5459C4.64131 14.0198 4.55687 14.3411 4.19268 14.694C3.15176 15.7059 2.80394 16.9573 3.18326 18.3561C3.54998 19.7095 4.45984 20.5828 5.79439 21.0038C6.1422 21.1134 6.50766 21.1247 6.86807 21.1625C7.1869 21.1953 7.40492 21.4625 7.38601 21.7611C7.36837 22.056 7.15162 22.2829 6.83783 22.2942C6.59335 22.303 6.34509 22.2904 6.10313 22.2564C5.14287 22.1215 4.2998 21.7158 3.54242 21.0756C3.44664 21.2936 3.35087 21.4814 3.2803 21.678C2.63508 23.4649 3.37733 25.3943 5.05213 26.2941C5.62804 26.6028 5.65955 26.6772 5.57637 27.3173C5.51462 27.7949 5.51084 28.2763 5.61292 28.7489C5.97207 30.4161 6.95755 31.5428 8.56681 32.1061C8.8869 32.2182 9.10114 32.4022 9.2763 32.6832C10.1219 34.0493 11.3544 34.7613 12.9611 34.8155C16.0801 34.9213 18.3232 31.602 17.0681 28.7451C16.5136 27.4812 15.5685 26.6608 14.2642 26.2285C13.8143 26.0786 13.6555 25.7925 13.7815 25.4422C13.9 25.112 14.2037 24.991 14.6296 25.1221C15.3643 25.3476 16.0372 25.6942 16.6132 26.2071C16.8765 26.444 17.1109 26.7175 17.4247 27.0401Z" fill="#363636"/>
<path fill-rule="evenodd" clip-rule="evenodd" d="M23.6238 35.9936C23.9767 35.9004 24.3346 35.8223 24.6811 35.7114C25.9048 35.3182 26.8751 34.5847 27.5846 33.5098C27.6968 33.3397 27.8228 33.2149 28.0257 33.1393C30.2915 32.2912 31.742 30.0858 31.621 27.6638C31.6059 27.3689 31.6878 27.2126 31.9386 27.0513C34.0683 25.6777 34.7589 22.7339 33.4685 20.5487C33.321 20.2979 33.2756 20.1164 33.4445 19.8354C34.527 18.0308 34.2951 15.702 32.8925 14.128C32.73 13.9453 32.672 13.7953 32.7325 13.5408C33.3601 10.9183 31.7974 8.31598 29.1825 7.638C28.9002 7.56491 28.9053 7.46661 28.9746 7.24356C29.5354 5.45912 28.6394 3.66587 27.141 2.90975C26.8663 2.77113 26.6344 2.5758 26.3887 2.39685C25.0945 1.45549 23.7158 0.680465 22.1607 0.25704C21.8079 0.161265 21.4475 0.0894344 21.0908 0.0062616C25.9615 0.0062616 30.8321 0.00752168 35.7028 0.0012207C35.9258 0.0012207 36.0002 0.0226439 36.0002 0.279724C35.9914 12.0928 35.9914 23.9071 36.0002 35.7202C36.0002 35.9747 35.9309 35.9999 35.7053 35.9999C31.679 35.9911 27.6514 35.9936 23.6238 35.9936Z" fill="white"/>
<path fill-rule="evenodd" clip-rule="evenodd" d="M14.8375 0.0063205C14.5237 0.167625 14.1684 0.155023 13.8369 0.249538C12.3675 0.665402 11.0317 1.35473 9.81692 2.26333C9.21706 2.71196 8.50883 2.99928 7.97829 3.54117C6.96131 4.57831 6.62358 5.80448 7.01676 7.20959C7.08986 7.47171 7.08229 7.57127 6.78363 7.6494C4.65012 8.20767 3.14923 10.1257 3.11772 12.3272C3.11142 12.7582 3.15175 13.193 3.28281 13.6101C3.337 13.784 3.30171 13.9088 3.17695 14.0499C1.6685 15.7714 1.45552 17.9578 2.60608 19.9287C2.71698 20.1178 2.7069 20.2463 2.60104 20.429C1.22239 22.7919 1.87769 25.6223 4.14982 27.1131C4.32751 27.2303 4.3943 27.3425 4.38296 27.5605C4.25694 30.1174 5.63685 32.2295 8.0413 33.1696C8.16858 33.22 8.26436 33.283 8.33745 33.3964C9.21328 34.7562 10.4483 35.5854 12.0323 35.8992C12.1029 35.913 12.205 35.8841 12.2365 35.9937C8.15976 35.9937 4.08303 35.9937 0.00630088 35.9937C0.00630088 24.1038 0.00756117 12.2126 0 0.322629C0 0.0592485 0.0592293 -0.00124105 0.32261 1.91412e-05C5.16176 0.00884051 9.99964 0.0063205 14.8375 0.0063205Z" fill="white"/>
<path fill-rule="evenodd" clip-rule="evenodd" d="M13.7139 35.9937C13.7366 35.9723 13.7555 35.9332 13.7807 35.9294C15.5979 35.656 16.9526 34.7083 17.875 33.128C17.9078 33.0726 17.9191 32.9919 18.0338 32.9692C18.2884 33.4128 18.5694 33.8539 18.9323 34.2307C19.7477 35.0775 20.718 35.6459 21.8812 35.8715C21.9719 35.8891 22.0992 35.8677 22.1483 35.9924C19.3369 35.9937 16.5254 35.9937 13.7139 35.9937Z" fill="white"/>
<path fill-rule="evenodd" clip-rule="evenodd" d="M19.969 0.00634766C19.5481 0.187816 19.0882 0.28233 18.7152 0.573435C18.5022 0.739781 18.3031 0.916208 18.1279 1.12162C18.0762 1.18211 18.0283 1.31569 17.92 1.17707C17.4197 0.530588 16.7303 0.204198 15.9629 0.00634766C17.2974 0.00634766 18.6332 0.00634766 19.969 0.00634766Z" fill="white"/>
<path fill-rule="evenodd" clip-rule="evenodd" d="M24.5899 2.59217C23.6536 2.87067 22.9264 3.35333 22.411 4.12331C22.3014 4.28713 22.2018 4.4623 22.1287 4.64377C22.0078 4.94117 22.1313 5.17683 22.3896 5.32805C22.6429 5.4755 22.8912 5.42635 23.0877 5.20833C23.1797 5.105 23.2465 4.97772 23.3196 4.85926C24.0077 3.73895 25.4355 3.33947 26.605 3.94058C27.7933 4.55177 28.3012 5.95563 27.7858 7.17298C27.6938 7.38973 27.5728 7.49559 27.327 7.52331C24.9453 7.78165 23.0336 9.90256 23.0134 12.2957C23.0096 12.6876 23.2314 12.9611 23.5679 12.9812C23.922 13.0026 24.1614 12.7317 24.1866 12.2831C24.2799 10.5629 25.4065 9.14266 27.041 8.752C28.4083 8.42561 29.6319 8.7583 30.6187 9.76142C31.6356 10.7948 31.9671 12.0525 31.5437 13.445C31.3735 14.0032 31.4718 14.351 31.8826 14.772C32.9677 15.8822 33.2651 17.2344 32.7093 18.6874C32.141 20.1744 31.0068 20.986 29.4139 21.1397C29.3673 21.1448 29.3207 21.1448 29.274 21.1485C28.8481 21.1813 28.5961 21.4182 28.6175 21.7648C28.6402 22.1151 28.9035 22.3104 29.3434 22.3004C30.5128 22.2752 31.5285 21.8492 32.4523 21.0855C33.0899 22.2688 33.1365 23.4471 32.5606 24.6405C32.204 25.379 31.6495 25.9322 30.9173 26.3116C30.3918 26.5838 30.3364 26.7085 30.4259 27.2869C30.7409 29.3184 29.5311 31.3712 27.5942 32.0442C27.172 32.1916 26.8797 32.4222 26.6465 32.8053C25.7064 34.3503 23.7657 35.1329 21.9889 34.7145C20.1906 34.2924 18.8233 32.7612 18.6241 30.9642C18.5687 30.4614 18.5775 29.9598 18.5775 29.4557C18.58 23.2241 18.5788 16.9912 18.58 10.7595C18.58 9.66816 19.1118 8.92591 20.062 8.69025C20.1969 8.65623 20.3405 8.65875 20.4779 8.63732C20.8736 8.57557 21.1029 8.31723 21.0588 7.9858C21.0147 7.64177 20.7387 7.44266 20.3456 7.47416C19.7886 7.51701 19.2656 7.66571 18.7993 7.9858C18.7451 8.02235 18.6985 8.08788 18.5788 8.05889C18.5788 7.80559 18.5788 7.54221 18.5788 7.28009C18.5788 5.99091 18.6115 4.70174 18.57 3.41508C18.5246 1.99862 19.4508 0.933754 21.1685 1.2236C22.3858 1.43027 23.4771 1.94569 24.5899 2.59217ZM29.7592 12.0348C29.7832 11.6089 29.7189 11.4299 29.4908 11.2938C29.0649 11.0393 28.6376 11.3291 28.6087 11.8949C28.5394 13.2307 27.9319 14.2641 26.8154 14.9774C25.375 15.8986 23.5981 15.7032 22.2522 14.5136C21.8893 14.1935 21.544 14.1696 21.3008 14.4493C21.0664 14.719 21.1193 15.0479 21.4571 15.3668C22.1918 16.0611 23.0588 16.4946 24.0568 16.6446C24.2623 16.6761 24.329 16.7568 24.3656 16.9382C24.6756 18.4643 26.0391 19.6691 27.6396 19.8039C28.1651 19.848 28.4789 19.688 28.5267 19.2998C28.5734 18.923 28.2911 18.6811 27.758 18.637C27.7467 18.6357 27.7341 18.6357 27.7227 18.6344C26.6856 18.5173 25.9887 17.9602 25.5855 17.005C25.4783 16.7517 25.5262 16.6597 25.8072 16.603C28.0529 16.1493 29.6269 14.3195 29.7592 12.0348ZM21.1647 30.1904C21.1622 30.2484 21.1571 30.3076 21.1571 30.3656C21.1584 30.7336 21.3512 30.973 21.6713 31.0033C22.0115 31.036 22.251 30.8281 22.3026 30.4488C22.3203 30.3215 22.3253 30.1917 22.3405 30.0644C22.4942 28.687 23.2213 27.7066 24.4261 27.0588C24.9541 26.7753 25.53 26.6972 26.1173 26.6493C26.4739 26.6203 26.6743 26.3708 26.6528 26.0381C26.6327 25.7281 26.4046 25.5202 26.0643 25.5101C25.9244 25.5063 25.782 25.5063 25.6434 25.5277C25.4708 25.5529 25.409 25.4874 25.4128 25.321C25.4153 25.2164 25.4002 25.1106 25.3926 25.006C25.2238 22.6482 23.1671 20.6445 20.8018 20.5348C20.2258 20.5084 19.9272 20.6898 19.9058 21.0805C19.8843 21.4648 20.1641 21.674 20.7476 21.7106C22.7009 21.8328 24.2484 23.4912 24.2597 25.4546C24.261 25.7508 24.169 25.8944 23.8981 26.0331C22.2107 26.9001 21.3273 28.3127 21.1647 30.1904Z" fill="white"/>
<path fill-rule="evenodd" clip-rule="evenodd" d="M17.4242 27.04C17.1105 26.7161 16.8761 26.4439 16.6102 26.207C16.0355 25.6929 15.3613 25.3476 14.6266 25.122C14.2019 24.9909 13.897 25.1119 13.7785 25.4421C13.6537 25.7924 13.8113 26.0785 14.2612 26.2284C15.5655 26.6607 16.5093 27.4823 17.0651 28.745C18.3202 31.6032 16.0771 34.9213 12.9581 34.8154C11.3514 34.7612 10.1189 34.0492 9.27331 32.6832C9.0994 32.4009 8.88391 32.2181 8.56382 32.106C6.95455 31.5427 5.96908 30.4161 5.60992 28.7488C5.50785 28.2763 5.51037 27.7949 5.57338 27.3172C5.65655 26.6771 5.62505 26.604 5.04914 26.294C3.37434 25.3942 2.63208 23.4661 3.2773 21.6779C3.34787 21.4813 3.44365 21.2935 3.53942 21.0755C4.29806 21.7169 5.13987 22.1215 6.10014 22.2563C6.3421 22.2903 6.59035 22.3029 6.83483 22.2941C7.14862 22.2828 7.36537 22.0572 7.38302 21.761C7.40066 21.4611 7.18391 21.1952 6.86508 21.1625C6.50466 21.1246 6.13794 21.1133 5.79139 21.0037C4.45558 20.5828 3.54698 19.7082 3.18027 18.356C2.80095 16.9572 3.14876 15.7058 4.18968 14.6939C4.55262 14.341 4.63831 14.0184 4.49087 13.5458C3.79272 11.304 5.12097 9.12255 7.42586 8.69157C9.55685 8.29335 11.6954 9.97319 11.8113 12.1369C11.8139 12.1949 11.8126 12.2541 11.8164 12.3121C11.8441 12.7343 12.0861 12.9989 12.4288 12.9813C12.7766 12.9636 13.0022 12.6776 12.9858 12.2655C12.9493 11.3594 12.7111 10.5088 12.2083 9.75139C11.3602 8.47355 10.1806 7.70483 8.64573 7.51959C8.4315 7.49438 8.31682 7.40365 8.23113 7.21336C7.69933 6.03256 8.18072 4.60098 9.32624 3.97718C10.497 3.33952 11.955 3.7075 12.6595 4.82151C12.7099 4.9009 12.7514 4.98408 12.8019 5.06347C13.0224 5.40372 13.34 5.50075 13.6361 5.32181C13.9159 5.15294 13.9927 4.83033 13.8125 4.49134C13.3425 3.6029 12.6229 3.00305 11.6727 2.67918C11.6072 2.6565 11.5417 2.63381 11.4686 2.60861C12.3835 1.92306 14.3784 1.10898 15.5932 1.18459C16.624 1.24886 17.3978 1.99237 17.4116 3.08622C17.4432 5.56754 17.4217 8.04887 17.4217 10.5289C17.2844 10.5919 17.2201 10.4798 17.1382 10.4294C16.6593 10.1358 16.1426 9.97445 15.5793 9.96688C15.2101 9.96184 14.9492 10.1862 14.9328 10.5151C14.9177 10.8213 15.1458 11.0834 15.4974 11.1111C16.2523 11.1716 16.8395 11.4854 17.2037 12.1672C17.3675 12.4734 17.4205 12.8099 17.4205 13.1514C17.423 17.707 17.4217 22.2626 17.4217 26.8182C17.4242 26.8585 17.4242 26.9001 17.4242 27.04ZM9.34892 20.4492C11.0325 20.3837 12.4402 19.2999 12.8523 17.6768C12.9191 17.4159 13.0022 17.2949 13.282 17.2495C14.2675 17.092 15.1156 16.6409 15.8326 15.949C16.1389 15.6529 16.1767 15.3492 15.9536 15.0808C15.7167 14.796 15.3537 14.8149 15.0022 15.1299C13.81 16.1985 12.4402 16.4909 10.9721 15.8722C9.52913 15.2635 8.73521 14.1217 8.64573 12.5301C8.62053 12.0777 8.37983 11.808 8.0295 11.8257C7.67034 11.8433 7.45107 12.1306 7.47249 12.5767C7.51408 13.4828 7.76486 14.3259 8.26893 15.0833C9.04395 16.249 10.1164 16.9811 11.4976 17.2432C11.6866 17.2798 11.7773 17.3151 11.6904 17.5507C11.5064 18.0498 11.2203 18.4606 10.7969 18.7782C10.3621 19.1033 9.87064 19.2482 9.33002 19.2835C8.92802 19.3087 8.69866 19.5759 8.72512 19.9136C8.74655 20.2198 9.00993 20.4467 9.34892 20.4492ZM8.36975 26.7754C8.02698 26.7313 7.7636 26.7413 7.58213 27.0009C7.44981 27.1912 7.43469 27.3941 7.54432 27.5957C7.6842 27.8553 7.92742 27.9058 8.19962 27.9171C9.7484 27.9864 11.0905 28.9782 11.6009 30.4249C11.742 30.8244 11.8025 31.2364 11.8239 31.6611C11.8416 32.0279 12.1138 32.2761 12.4288 32.2597C12.7502 32.2433 13.0022 31.9661 12.9833 31.612C12.9543 31.0751 12.8863 30.5433 12.696 30.033C12.2209 28.7576 11.3753 27.8175 10.1479 27.2303C9.96516 27.1433 9.88828 27.0387 9.8845 26.8384C9.8719 26.2436 9.95885 25.6676 10.2273 25.1371C10.9242 23.7597 12.0432 23.0137 13.5945 22.9305C14.0066 22.9078 14.2322 22.6772 14.2183 22.3256C14.2057 21.9917 13.96 21.7825 13.5769 21.7787C11.0842 21.7497 8.81586 23.8983 8.73269 26.3885C8.72134 26.7187 8.65707 26.8774 8.36975 26.7754Z" fill="white"/>
<path fill-rule="evenodd" clip-rule="evenodd" d="M29.7598 12.0349C29.6287 14.3196 28.0535 16.1494 25.8053 16.6056C25.5243 16.6623 25.4764 16.7531 25.5835 17.0076C25.9868 17.9628 26.6837 18.5198 27.7208 18.637C27.7322 18.6383 27.7448 18.6383 27.7561 18.6396C28.2904 18.6837 28.5714 18.9256 28.5248 19.3024C28.4769 19.6906 28.1631 19.8506 27.6376 19.8065C26.0372 19.6717 24.6737 18.4669 24.3637 16.9408C24.3271 16.7594 24.2603 16.6787 24.0549 16.6472C23.0568 16.496 22.1898 16.0625 21.4551 15.3694C21.1174 15.0505 21.0645 14.7204 21.2989 14.4519C21.5421 14.1722 21.8874 14.1961 22.2503 14.5162C23.5975 15.7058 25.3731 15.9012 26.8135 14.98C27.93 14.2667 28.5374 13.2333 28.6067 11.8975C28.6357 11.3317 29.0642 11.0418 29.4889 11.2964C29.7195 11.43 29.7837 11.6089 29.7598 12.0349Z" fill="#363636"/>
<path fill-rule="evenodd" clip-rule="evenodd" d="M21.1649 30.1906C21.3275 28.3116 22.2109 26.9002 23.8996 26.0344C24.1705 25.8958 24.2638 25.7522 24.2612 25.456C24.2499 23.4926 22.7024 21.8342 20.7491 21.712C20.1656 21.6754 19.8871 21.4662 19.9073 21.0819C19.9287 20.6912 20.2274 20.5098 20.8033 20.5362C23.1687 20.6471 25.2253 22.6496 25.3942 25.0074C25.4017 25.112 25.4168 25.2178 25.4143 25.3224C25.4093 25.4888 25.4723 25.5543 25.6449 25.5291C25.7836 25.5089 25.926 25.5077 26.0658 25.5115C26.4048 25.5215 26.6329 25.7295 26.6544 26.0395C26.6758 26.3722 26.4741 26.6217 26.1188 26.6507C25.5315 26.6986 24.9556 26.7767 24.4276 27.0602C23.2228 27.708 22.4957 28.6884 22.342 30.0658C22.3281 30.1931 22.3218 30.3229 22.3042 30.4502C22.2525 30.8295 22.0131 31.0374 21.6728 31.0047C21.3527 30.9744 21.1599 30.735 21.1586 30.367C21.1586 30.3078 21.1624 30.2498 21.1649 30.1906Z" fill="#363636"/>
<path fill-rule="evenodd" clip-rule="evenodd" d="M9.34899 20.4491C9.01 20.4466 8.74662 20.2198 8.72267 19.911C8.69621 19.5733 8.92556 19.3074 9.32756 19.2809C9.86819 19.2469 10.3597 19.1007 10.7944 18.7756C11.2179 18.458 11.5039 18.0472 11.6879 17.5481C11.7749 17.3125 11.6854 17.2772 11.4951 17.2407C10.1139 16.9785 9.0415 16.2476 8.26648 15.0807C7.7624 14.3233 7.51162 13.4802 7.47004 12.5742C7.44987 12.128 7.66789 11.8407 8.02704 11.8231C8.37738 11.8054 8.61807 12.0764 8.64328 12.5275C8.73275 14.1204 9.52542 15.2621 10.9696 15.8696C12.4377 16.4883 13.8076 16.196 14.9997 15.1273C15.3513 14.8123 15.7142 14.7934 15.9511 15.0782C16.1742 15.3466 16.1364 15.6515 15.8302 15.9464C15.1131 16.6395 14.265 17.0894 13.2795 17.247C12.9998 17.2911 12.9166 17.4133 12.8498 17.6742C12.4402 19.2998 11.0326 20.3836 9.34899 20.4491Z" fill="#363636"/>
<path fill-rule="evenodd" clip-rule="evenodd" d="M8.37002 26.7753C8.65735 26.8774 8.72162 26.7199 8.73296 26.3884C8.81613 23.8983 11.0845 21.7484 13.5771 21.7786C13.9602 21.7837 14.2047 21.9916 14.2186 22.3256C14.2324 22.6772 14.0069 22.9078 13.5948 22.9305C12.0435 23.0149 10.9244 23.7597 10.2275 25.1371C9.95913 25.6676 9.87217 26.2448 9.88478 26.8383C9.88856 27.0387 9.96543 27.1433 10.1482 27.2302C11.3756 27.8175 12.2212 28.7576 12.6963 30.0329C12.8866 30.5433 12.9559 31.0751 12.9836 31.6119C13.0025 31.9661 12.7505 32.2433 12.4291 32.2597C12.1141 32.2761 11.8419 32.0278 11.8242 31.6611C11.8041 31.2377 11.7423 30.8243 11.6012 30.4248C11.0908 28.9781 9.74868 27.9864 8.1999 27.917C7.92769 27.9044 7.68448 27.854 7.5446 27.5957C7.43496 27.3941 7.45008 27.1912 7.5824 27.0009C7.76387 26.74 8.02725 26.7299 8.37002 26.7753Z" fill="#363636"/>
</svg>
