<svg width="36" height="36" viewBox="0 0 36 36" fill="none" xmlns="http://www.w3.org/2000/svg">
<path fill-rule="evenodd" clip-rule="evenodd" d="M17.2264 35.993C17.1559 35.993 17.0865 35.993 17.0159 35.993C16.9759 35.8824 16.8794 35.9271 16.8065 35.9224C12.6651 35.619 9.0283 34.1052 5.95489 31.3106C2.72151 28.37 0.79842 24.7203 0.197381 20.3813C0.13269 19.9155 0.169152 19.4368 0.00683594 18.9851C0.00683594 18.891 0.00683594 18.7981 0.00683594 18.704C0.120927 18.2594 0.117399 17.8136 0.00683594 17.369C0.00683594 17.2279 0.00683594 17.0879 0.00683594 16.9468C0.120927 16.9103 0.0738795 16.8115 0.0797605 16.7398C0.399687 12.6254 1.90875 9.00977 4.68812 5.95635C7.62156 2.73356 11.2584 0.811646 15.5844 0.20355C16.0608 0.136507 16.5513 0.165912 17.0159 0.00830078C17.0865 0.00830078 17.1559 0.00830078 17.2264 0.00830078C17.5017 0.172969 17.8004 0.056525 18.0862 0.0647584C18.3121 0.0706394 18.5567 0.168264 18.7731 0.00830078C18.7967 0.00830078 18.8202 0.00830078 18.8437 0.00830078C18.8743 0.103573 18.9554 0.0706394 19.019 0.074168C22.8075 0.29647 26.2103 1.55971 29.1637 3.94152C33.0816 7.10197 35.3258 11.1987 35.8704 16.2152C35.8998 16.4822 35.8504 16.7656 35.9927 17.0162C35.9927 17.1338 35.9927 17.2502 35.9927 17.3679C35.881 17.7889 35.881 18.2112 35.9927 18.6334C35.9927 18.7511 35.9927 18.8675 35.9927 18.9851C35.8974 19.0145 35.9269 19.0957 35.9221 19.1592C35.8445 20.3284 35.6563 21.4799 35.3623 22.6149C33.5098 29.7803 27.1594 35.1826 19.7882 35.873C19.4741 35.9024 19.1448 35.8519 18.8437 35.9942C18.7967 35.9942 18.7496 35.9942 18.7026 35.9942C18.4156 35.8307 18.1062 35.953 17.8086 35.9377C17.6193 35.9271 17.404 35.8272 17.2264 35.993ZM12.6875 17.115C12.6392 16.8327 12.5322 16.5963 12.5204 16.3387C12.4828 15.4448 13.0662 14.6438 13.9401 14.3979C14.814 14.1521 15.7385 14.5473 16.1596 15.3836C16.6277 16.3116 17.0735 17.2502 17.5087 18.1936C17.6193 18.4347 17.7416 18.5076 18.0086 18.4794C19.58 18.3159 21.1538 18.1677 22.7275 18.0242C23.6132 17.9442 24.453 18.6099 24.5953 19.485C24.653 19.8367 24.493 20.1025 24.1931 20.1543C23.9284 20.199 23.7061 20.0225 23.6261 19.7026C23.4944 19.1757 23.1886 18.9675 22.6593 19.0181C20.9585 19.1792 19.2554 19.3298 17.5546 19.4956C17.2158 19.5285 17.0088 19.4192 16.8618 19.1039C16.3866 18.0889 15.8914 17.0832 15.4045 16.074C15.3633 15.9905 15.3269 15.9047 15.2798 15.8235C15.0152 15.3613 14.5035 15.1872 14.0483 15.4024C13.5826 15.6224 13.3744 16.1552 13.6014 16.648C13.9801 17.4761 14.3894 18.29 14.7776 19.1145C14.9211 19.4203 14.8411 19.6826 14.5929 19.8132C14.3377 19.9461 14.0554 19.8426 13.9001 19.5368C13.7096 19.1627 13.5237 18.7852 13.3555 18.3994C13.265 18.1912 13.1509 18.1136 12.9121 18.1089C11.543 18.083 10.2174 17.8607 8.9742 17.2408C6.98053 16.2481 5.6032 13.6746 7.45101 11.1893C7.82858 10.6812 8.24377 10.2048 8.6578 9.72725C9.12475 9.18855 9.60346 8.65691 9.91986 8.0053C10.4209 6.97259 10.1504 6.43977 9.02124 6.25864C7.94502 6.08691 6.8735 6.18924 5.80433 6.34332C5.66437 6.36332 5.57733 6.44448 5.48793 6.54328C3.04261 9.24148 1.55707 12.3937 1.1501 16.0117C0.626694 20.6706 1.83583 24.865 4.72693 28.5606C9.22002 34.3052 17.2664 36.5776 24.0072 33.85C30.501 31.2235 34.1955 26.3282 34.8977 19.3533C35.3435 14.9178 34.0449 10.8929 31.2444 7.41367C28.1863 3.61453 24.1837 1.48914 19.3236 1.081C15.7115 0.777536 12.3323 1.60558 9.22002 3.4781C8.40256 3.96975 7.6298 4.52491 6.86056 5.21417C7.66626 5.19064 8.39903 5.16594 9.12828 5.27651C10.9573 5.55527 11.6101 6.7844 10.7997 8.44637C10.515 9.02859 10.1163 9.53436 9.69991 10.026C9.13181 10.6941 8.50724 11.3187 8.045 12.0714C7.22048 13.4099 7.50277 14.9519 8.75072 15.9164C9.90339 16.8092 11.2596 17.0444 12.6875 17.115Z" fill="#363636"/>
<path fill-rule="evenodd" clip-rule="evenodd" d="M0.00705715 18.9839C0.169373 19.4355 0.132911 19.9154 0.197602 20.38C0.799817 24.719 2.72173 28.3688 5.95511 31.3093C9.02852 34.104 12.6642 35.6177 16.8067 35.9212C16.8797 35.9259 16.9761 35.8812 17.0161 35.9918C11.4456 35.9918 5.8763 35.9894 0.305812 35.9988C0.0529291 35.9988 0 35.9471 0 35.693C0.00940961 30.1237 0.00705715 24.5544 0.00705715 18.9839Z" fill="white"/>
<path fill-rule="evenodd" clip-rule="evenodd" d="M18.8428 35.9929C19.1439 35.8506 19.4732 35.9012 19.7873 35.8718C27.1585 35.1814 33.5088 29.7791 35.3613 22.6136C35.6554 21.4786 35.8436 20.3283 35.9212 19.158C35.9259 19.0944 35.8965 19.0121 35.9918 18.9839C35.9918 24.5603 35.9894 30.1355 35.9988 35.7118C35.9988 35.9529 35.9518 36 35.7107 36C30.0884 35.9906 24.4662 35.9929 18.8428 35.9929Z" fill="white"/>
<path fill-rule="evenodd" clip-rule="evenodd" d="M35.9928 17.0161C35.8504 16.7656 35.8998 16.4822 35.8704 16.2152C35.3259 11.1975 33.0805 7.10195 29.1637 3.9415C26.2103 1.55969 22.8075 0.296447 19.019 0.0741451C18.9555 0.0706165 18.8743 0.10355 18.8438 0.00827785C24.466 0.00827785 30.0894 0.0106303 35.7117 0.0012207C35.9528 0.0012207 35.9998 0.0482686 35.9998 0.28939C35.9904 5.86458 35.9928 11.4398 35.9928 17.0161Z" fill="white"/>
<path fill-rule="evenodd" clip-rule="evenodd" d="M17.0161 0.00705715C16.5515 0.164668 16.061 0.135263 15.5847 0.202307C11.2586 0.810403 7.62179 2.73232 4.68834 5.95511C1.90897 9.00853 0.399909 12.6242 0.0799817 16.7385C0.0741007 16.8103 0.121149 16.9091 0.00705715 16.9455C0.00705715 11.3927 0.00940961 5.84102 0 0.288169C0 0.0470482 0.0470482 0 0.288169 0C5.86454 0.00940961 11.4397 0.00705715 17.0161 0.00705715Z" fill="white"/>
<path fill-rule="evenodd" clip-rule="evenodd" d="M18.7733 0.00708008C18.558 0.167043 18.3122 0.0694187 18.0864 0.0635377C17.8005 0.0564805 17.5018 0.172924 17.2266 0.00708008C17.7417 0.00708008 18.2581 0.00708008 18.7733 0.00708008Z" fill="#363636"/>
<path fill-rule="evenodd" clip-rule="evenodd" d="M17.2266 35.9928C17.4042 35.8282 17.6182 35.927 17.8088 35.9364C18.1064 35.9517 18.4157 35.8294 18.7027 35.9928C18.211 35.9928 17.7182 35.9928 17.2266 35.9928Z" fill="#363636"/>
<path fill-rule="evenodd" clip-rule="evenodd" d="M0.00683594 17.3679C0.117399 17.8125 0.120927 18.2583 0.00683594 18.7029C0.00683594 18.2583 0.00683594 17.8125 0.00683594 17.3679Z" fill="#363636"/>
<path fill-rule="evenodd" clip-rule="evenodd" d="M35.993 18.6323C35.8812 18.2112 35.8812 17.789 35.993 17.3667C35.993 17.789 35.993 18.2112 35.993 18.6323Z" fill="#363636"/>
<path fill-rule="evenodd" clip-rule="evenodd" d="M12.6878 17.1148C11.2599 17.0442 9.90377 16.809 8.74874 15.9174C7.50079 14.9529 7.2185 13.4109 8.04302 12.0724C8.50644 11.3208 9.12983 10.6963 9.69794 10.027C10.1155 9.53536 10.5142 9.03077 10.7977 8.44738C11.6081 6.7854 10.9565 5.55627 9.1263 5.27751C8.39706 5.16577 7.66546 5.19165 6.85859 5.21517C7.62782 4.52592 8.40059 3.97075 9.21805 3.4791C12.3303 1.60659 15.7095 0.778542 19.3216 1.082C24.1817 1.49014 28.1843 3.61554 31.2424 7.41467C34.043 10.8927 35.3415 14.9188 34.8957 19.3543C34.1935 26.3292 30.4991 31.2245 24.0053 33.851C17.2644 36.5774 9.21805 34.3062 4.72496 28.5616C1.83503 24.866 0.625894 20.6728 1.15048 16.0139C1.55745 12.3959 3.04299 9.24366 5.48831 6.54546C5.5777 6.44783 5.66474 6.3655 5.80471 6.3455C6.87388 6.19142 7.94422 6.08909 9.02162 6.26082C10.1508 6.44078 10.4213 6.97477 9.92024 8.00748C9.60384 8.65792 9.1263 9.18956 8.65817 9.72944C8.24415 10.207 7.82895 10.6833 7.45139 11.1915C5.60358 13.6756 6.97973 16.2491 8.97457 17.243C10.2178 17.8629 11.5446 18.0852 12.9125 18.111C13.1513 18.1158 13.2654 18.1946 13.3559 18.4016C13.5241 18.7862 13.71 19.1637 13.9005 19.539C14.0558 19.8436 14.3381 19.9483 14.5933 19.8154C14.8426 19.6848 14.9226 19.4225 14.7779 19.1167C14.3898 18.2934 13.9817 17.4783 13.6017 16.6502C13.3759 16.1562 13.5829 15.6246 14.0487 15.4046C14.5039 15.1894 15.0155 15.3646 15.2802 15.8257C15.3261 15.9068 15.3637 15.9927 15.4049 16.0762C15.8918 17.0854 16.387 18.0911 16.8622 19.1061C17.0092 19.4202 17.2162 19.5307 17.555 19.4978C19.2557 19.3319 20.9589 19.1814 22.6597 19.0203C23.189 18.9697 23.4936 19.1779 23.6265 19.7048C23.7065 20.0247 23.9288 20.2023 24.1934 20.1565C24.4934 20.1047 24.6533 19.8389 24.5957 19.4872C24.4534 18.6121 23.6124 17.9464 22.7279 18.0264C21.1541 18.1699 19.5804 18.3169 18.009 18.4816C17.7432 18.5098 17.6208 18.4357 17.5091 18.1957C17.0739 17.2524 16.6281 16.3126 16.16 15.3858C15.7389 14.5495 14.8144 14.1543 13.9405 14.4001C13.0666 14.646 12.4832 15.447 12.5208 16.3409C12.5326 16.5973 12.6396 16.8337 12.6878 17.1148ZM16.7316 32.883C18.3995 32.8747 19.9756 32.496 21.4423 31.6973C23.7782 30.4259 25.4285 28.4922 26.7364 26.2186C28.1514 23.7603 28.4372 21.2315 27.2927 18.5956C27.1951 18.371 27.281 18.3051 27.4609 18.2098C30.1733 16.7902 31.5659 13.8979 30.9989 10.8833C30.3215 7.28411 26.6388 4.82585 23.0608 5.58332C19.905 6.25141 17.722 8.86493 17.6408 12.083C17.6349 12.3277 17.5691 12.4618 17.3138 12.5335C16.9128 12.6464 16.6446 12.9334 16.5834 13.351C16.4446 14.2978 16.5705 15.2282 16.9904 16.0797C17.2833 16.6726 17.7032 17.2042 18.076 17.7558C18.2724 18.0464 18.5559 18.1134 18.797 17.9534C19.0382 17.7935 19.0817 17.5006 18.8923 17.2113C18.6488 16.8396 18.4148 16.4597 18.1431 16.1092C17.6079 15.4175 17.5608 14.6024 17.5056 13.7838C17.4914 13.5838 17.562 13.478 17.7784 13.4109C18.3101 13.2451 18.6182 12.7805 18.6171 12.2112C18.6159 11.776 18.6653 11.3491 18.7617 10.9245C19.4569 7.84163 22.5738 5.86561 25.6202 6.57957C28.7947 7.3241 30.759 10.4387 29.9862 13.545C29.5111 15.4528 28.336 16.7866 26.5306 17.5629C26.0718 17.7605 25.9836 17.957 26.1624 18.4074C26.2612 18.6568 26.3612 18.9062 26.4623 19.1543C27.301 21.2092 27.1728 23.2169 26.1706 25.1835C25.6802 26.1457 25.1015 27.0502 24.4169 27.8841C22.1904 30.5929 19.4357 32.1443 15.8154 31.8526C13.9581 31.7032 12.5032 30.6223 11.9445 28.8439C11.427 27.196 11.5975 25.5858 12.3397 24.0356C12.622 23.4475 12.5232 23.224 11.8904 23.0558C10.513 22.6912 9.13689 22.323 7.76308 21.9443C7.03149 21.7432 6.65393 21.1139 6.82683 20.4199C6.99032 19.7648 7.65605 19.3637 8.3606 19.5495C10.7777 20.1859 13.1901 20.8351 15.6013 21.495C16.3047 21.6879 16.6446 22.316 16.4682 23.0229C16.3376 23.5439 16.1906 24.0615 16.0565 24.5813C15.9647 24.9365 16.0953 25.2024 16.3917 25.2812C16.6669 25.3553 16.9081 25.1894 17.0057 24.8519C17.0798 24.5943 17.1668 24.3367 17.2092 24.0732C17.2468 23.8391 17.3597 23.7745 17.582 23.7627C18.3771 23.718 19.1711 23.6592 19.9638 23.5921C20.3696 23.558 20.5672 23.3428 20.5272 23.0264C20.4896 22.7288 20.2673 22.5888 19.8685 22.6171C19.1558 22.6677 18.4442 22.7194 17.7326 22.7759C17.5855 22.7876 17.5138 22.7794 17.4962 22.5888C17.3974 21.4844 16.821 20.7998 15.7283 20.5034C13.3618 19.8612 10.9906 19.2331 8.62171 18.5992C8.22886 18.4933 7.83601 18.4874 7.44316 18.5968C6.45868 18.872 5.79883 19.7413 5.80471 20.7504C5.81177 21.7714 6.46926 22.6194 7.49726 22.9017C8.66876 23.2228 9.84379 23.5286 11.0176 23.8403C11.1764 23.8827 11.3152 23.8909 11.2105 24.1461C10.6824 25.4317 10.5413 26.7738 10.7648 28.1405C11.0694 30.0036 11.9668 31.468 13.7205 32.3066C14.6733 32.763 15.6966 32.8653 16.7316 32.883ZM28.4842 13.4486C28.4925 11.8501 27.2269 10.7645 25.8754 11.0244C25.5108 11.095 25.3238 11.3185 25.3826 11.6161C25.4367 11.8948 25.6849 12.0383 26.0318 11.9924C26.6317 11.9136 27.1739 12.2077 27.4056 12.737C27.6303 13.251 27.4762 13.8732 27.0363 14.2272C26.5741 14.5989 25.9625 14.6013 25.4485 14.2343C25.1156 13.9955 24.8356 14.0073 24.6533 14.2672C24.4793 14.5142 24.5451 14.7906 24.8533 15.0188C25.5837 15.5599 26.3753 15.6563 27.1975 15.2705C28.0384 14.8753 28.4454 14.1802 28.4842 13.4486ZM21.0977 13.3345C21.547 13.3274 22.0739 13.0522 22.3174 12.7041C22.4809 12.47 22.4774 12.2371 22.2668 12.0418C22.0575 11.8478 21.8258 11.8584 21.6034 12.0395C21.0812 12.4641 21.0495 12.4618 20.6037 11.956C20.4155 11.7431 20.1908 11.6855 19.9497 11.8442C19.7074 12.003 19.6592 12.2465 19.7933 12.49C20.0779 13.0052 20.5108 13.3098 21.0977 13.3345Z" fill="white"/>
<path fill-rule="evenodd" clip-rule="evenodd" d="M16.7322 32.8831C15.696 32.8655 14.6739 32.7632 13.7235 32.3092C11.9686 31.4705 11.0712 30.0062 10.7677 28.143C10.5442 26.7763 10.6866 25.4343 11.2135 24.1487C11.3182 23.8923 11.1794 23.8852 11.0206 23.8429C9.84675 23.5312 8.67172 23.2254 7.50023 22.9042C6.47223 22.622 5.81473 21.7739 5.80767 20.753C5.80062 19.7438 6.46047 18.8758 7.44612 18.5994C7.83897 18.49 8.23182 18.4958 8.62468 18.6017C10.9935 19.2357 13.3636 19.8649 15.7313 20.506C16.824 20.8024 17.4003 21.4869 17.4991 22.5914C17.5168 22.7819 17.5885 22.7902 17.7355 22.7784C18.4471 22.7219 19.1599 22.6702 19.8715 22.6196C20.2702 22.5914 20.4925 22.7313 20.5302 23.0289C20.5702 23.3453 20.3726 23.5594 19.9668 23.5947C19.174 23.6617 18.3789 23.7205 17.585 23.7652C17.3627 23.7782 17.2498 23.8417 17.2121 24.0757C17.1698 24.3392 17.0827 24.5968 17.0086 24.8544C16.911 25.192 16.6699 25.3578 16.3947 25.2837C16.0994 25.2037 15.9689 24.9379 16.0594 24.5839C16.1935 24.064 16.3406 23.5465 16.4711 23.0254C16.6475 22.3185 16.3088 21.6904 15.6043 21.4975C13.1942 20.8377 10.7807 20.1884 8.36356 19.5521C7.65901 19.3662 6.99211 19.7673 6.82979 20.4225C6.65689 21.1152 7.03328 21.7445 7.76605 21.9468C9.13985 22.3244 10.516 22.6925 11.8933 23.0583C12.5261 23.2265 12.6249 23.4488 12.3426 24.0381C11.5993 25.5883 11.4299 27.1974 11.9474 28.8464C12.5061 30.6248 13.9611 31.7046 15.8183 31.8551C19.4387 32.1468 22.1945 30.5954 24.4199 27.8866C25.1056 27.0527 25.6831 26.1482 26.1736 25.1861C27.1757 23.2195 27.3039 21.2117 26.4653 19.1569C26.3641 18.9087 26.2642 18.6593 26.1654 18.41C25.9866 17.9595 26.0748 17.7631 26.5335 17.5655C28.339 16.788 29.514 15.4542 29.9892 13.5476C30.762 10.4412 28.7977 7.32664 25.6231 6.5821C22.5768 5.86697 19.4598 7.84416 18.7647 10.927C18.6683 11.3516 18.62 11.7786 18.62 12.2138C18.6212 12.783 18.313 13.2476 17.7814 13.4135C17.5662 13.4805 17.4956 13.5864 17.5085 13.7863C17.5638 14.6038 17.6109 15.4189 18.146 16.1117C18.4177 16.4622 18.6518 16.8421 18.8953 17.2138C19.0846 17.5031 19.0411 17.796 18.8 17.956C18.5589 18.1159 18.2754 18.0489 18.079 17.7584C17.7061 17.2067 17.2862 16.6751 16.9934 16.0823C16.5734 15.2307 16.4476 14.3003 16.5864 13.3535C16.6475 12.9359 16.9157 12.6501 17.3168 12.536C17.5732 12.4643 17.6379 12.3302 17.6438 12.0855C17.7249 8.86746 19.9068 6.25394 23.0637 5.58586C26.6417 4.82838 30.3244 7.28782 31.0019 10.8858C31.5688 13.9016 30.1762 16.7927 27.4639 18.2124C27.2828 18.3065 27.1969 18.3723 27.2957 18.5982C28.4413 21.234 28.1555 23.7629 26.7394 26.2211C25.4302 28.4947 23.7812 30.4284 21.4453 31.6999C19.9762 32.4962 18.3989 32.8749 16.7322 32.8831Z" fill="#363636"/>
<path fill-rule="evenodd" clip-rule="evenodd" d="M28.4843 13.4486C28.4455 14.1814 28.0386 14.8765 27.1988 15.2717C26.3766 15.6575 25.5838 15.5611 24.8546 15.02C24.5464 14.7919 24.4817 14.5154 24.6546 14.2684C24.8369 14.0085 25.1157 13.9967 25.4497 14.2355C25.9637 14.6037 26.5765 14.6001 27.0376 14.2285C27.4775 13.8744 27.6316 13.251 27.4069 12.7382C27.1752 12.2089 26.633 11.9149 26.0331 11.9937C25.6862 12.0395 25.4392 11.896 25.3839 11.6173C25.3251 11.3197 25.5121 11.0951 25.8767 11.0257C27.227 10.7634 28.4926 11.849 28.4843 13.4486Z" fill="#363636"/>
<path fill-rule="evenodd" clip-rule="evenodd" d="M21.0973 13.3346C20.5104 13.3099 20.0776 13.0052 19.7941 12.4901C19.66 12.2466 19.7082 12.0043 19.9505 11.8443C20.1916 11.6855 20.4163 11.7432 20.6045 11.9561C21.0491 12.4618 21.0809 12.4642 21.6043 12.0396C21.8266 11.8584 22.0571 11.8478 22.2676 12.0419C22.4782 12.2372 22.4829 12.4701 22.3182 12.7041C22.0736 13.0523 21.5466 13.3287 21.0973 13.3346Z" fill="#363636"/>
</svg>
