<svg width="36" height="36" viewBox="0 0 36 36" fill="none" xmlns="http://www.w3.org/2000/svg">
<path fill-rule="evenodd" clip-rule="evenodd" d="M35.9901 18.0006C35.9901 23.9032 35.9888 29.8058 35.9963 35.7071C35.9963 35.9367 35.964 36 35.7146 36C23.9094 35.9913 12.1055 35.9913 0.300341 36C0.0359911 36 0 35.933 0 35.6897C0.0062054 23.897 0.0062054 12.1042 0 0.311511C0 0.0707418 0.032268 0 0.2991 0C12.1043 0.00868756 23.9082 0.00868782 35.7133 0.00124134C35.9615 0.00124134 35.9963 0.060813 35.9963 0.292895C35.9876 6.19547 35.9901 12.098 35.9901 18.0006ZM1.77847 13.2187C1.7946 12.4679 1.84673 11.7208 2.00434 10.986C3.29507 4.97797 8.64784 1.1058 14.7192 1.91375C19.0022 2.4834 21.9981 4.87868 23.7592 8.81415C24.1762 9.7462 24.4232 10.7329 24.5498 11.7481C24.6032 12.1762 24.8402 12.3798 25.1865 12.3301C25.5278 12.2817 25.6829 12.0062 25.6233 11.5867C25.5551 11.1002 25.4707 10.6162 25.3466 10.1409C23.228 2.09494 14.3183 -1.70524 7.04189 2.33323C1.16165 5.59479 -1.0363 13.2597 2.19423 19.1685C5.48681 25.1914 12.942 27.5147 19.0394 24.2792C19.2144 24.1862 19.3062 24.1886 19.4403 24.3549C20.4058 25.5464 21.385 26.7279 22.3593 27.9119C23.9144 29.8008 25.462 31.6972 27.0245 33.5787C28.4964 35.3509 30.9711 35.8114 32.9234 34.6969C35.8051 33.0512 36.1142 29.1219 33.5265 26.9873C30.5008 24.4927 27.4738 21.9994 24.4369 19.5172C24.2048 19.3273 24.1924 19.2032 24.3264 18.9538C25.0413 17.6208 25.4583 16.1911 25.6469 14.6944C25.6928 14.3295 25.5129 14.0652 25.2001 14.0093C24.8961 13.9559 24.6478 14.1582 24.5796 14.5293C24.5275 14.8172 24.5002 15.1089 24.4455 15.3956C23.2578 21.5774 17.1952 25.663 11.0084 24.4518C5.66429 23.4055 1.77474 18.672 1.77847 13.2187ZM14.3643 9.66677C14.3345 9.47937 14.3208 9.34037 14.2898 9.20385C14.0205 8.02979 12.6181 7.04437 11.4279 7.18833C10.6969 7.27645 10.2339 7.79398 10.2191 8.54111C10.1967 9.62085 11.0804 10.8508 12.1092 11.166C12.4033 11.2566 12.7173 11.3211 13.0078 11.228C13.3379 11.1226 13.3602 11.2467 13.3714 11.5234C13.4161 12.6826 14.1173 13.3528 15.2702 13.3664C16.0769 13.3764 16.2222 13.5116 16.2892 14.3183C16.3897 15.5284 17.0276 16.134 18.2339 16.1539C18.5306 16.1589 18.7999 16.1874 19.0506 16.3897C19.2765 16.5721 19.5396 16.5237 19.7431 16.3065C19.9442 16.0943 19.9417 15.8002 19.7282 15.5793C19.4874 15.3298 19.1945 15.1585 18.8458 15.1139C18.5802 15.0804 18.3096 15.0754 18.0416 15.0568C17.6544 15.0295 17.4173 14.8086 17.3739 14.4238C17.3565 14.2724 17.3652 14.1198 17.3503 13.9684C17.2634 13.0363 16.587 12.314 15.7108 12.3103C14.6497 12.3065 14.4958 12.1787 14.4002 11.0692C14.3568 10.5852 14.1433 10.1148 14.3643 9.66677ZM9.68539 13.9497C9.71517 14.2203 9.73255 14.466 9.76978 14.708C9.87651 15.3993 10.4338 15.9702 11.1164 16.1129C11.3944 16.1713 11.6761 16.1551 11.9553 16.17C12.3165 16.1899 12.5399 16.386 12.6019 16.7397C12.6267 16.8774 12.6379 17.0177 12.6466 17.1579C12.7074 18.2377 13.3875 18.9041 14.466 18.9302C14.8073 18.9389 15.1288 18.9488 15.4217 19.1871C15.6475 19.3708 15.9181 19.3087 16.1092 19.0816C16.3003 18.8532 16.2929 18.6025 16.0931 18.3816C15.8858 18.152 15.6215 18.0068 15.3199 17.9224C15.0431 17.8442 14.7626 17.8666 14.4834 17.8567C14.0043 17.8393 13.7574 17.6022 13.7201 17.1232C13.7127 17.0301 13.7139 16.9358 13.709 16.8427C13.6618 15.8449 13.004 15.1623 12.0099 15.0828C11.8114 15.0667 11.6115 15.0766 11.4142 15.0568C11.0816 15.022 10.8396 14.8235 10.8408 14.4995C10.8421 13.8132 10.4474 13.1616 10.6857 12.4542C10.7353 12.3078 10.6857 12.1316 10.6447 11.9702C10.363 10.8433 9.16537 9.96091 7.93298 9.97952C7.13497 9.99193 6.60999 10.4946 6.58269 11.2864C6.53801 12.5411 7.79522 14.4611 9.68539 13.9497Z" fill="white"/>
<path fill-rule="evenodd" clip-rule="evenodd" d="M1.77834 13.2187C1.77461 18.672 5.66416 23.4067 11.007 24.4517C17.195 25.663 23.2577 21.5773 24.4442 15.3955C24.4988 15.1088 24.5261 14.8159 24.5782 14.5293C24.6465 14.1582 24.8947 13.9559 25.1988 14.0092C25.5115 14.0651 25.6915 14.3294 25.6455 14.6943C25.4569 16.1923 25.0399 17.622 24.325 18.9537C24.191 19.2032 24.2034 19.3273 24.4355 19.5172C27.4724 21.9993 30.4994 24.4926 33.5252 26.9872C36.114 29.1219 35.805 33.0511 32.922 34.6968C30.9685 35.8125 28.4951 35.3508 27.0231 33.5786C25.4594 31.6959 23.9118 29.8007 22.3579 27.9118C21.3837 26.7278 20.4045 25.5463 19.4389 24.3549C19.3049 24.1886 19.213 24.1861 19.038 24.2792C12.9406 27.5134 5.48544 25.1914 2.19286 19.1684C-1.03643 13.2596 1.16152 5.59472 7.04175 2.33192C14.3194 -1.70655 23.2279 2.09364 25.3464 10.1396C25.4718 10.6149 25.5549 11.0989 25.6232 11.5854C25.6828 12.0061 25.5276 12.2804 25.1863 12.3288C24.8401 12.3785 24.6018 12.1749 24.5497 11.7468C24.4231 10.7316 24.1761 9.74489 23.7591 8.81284C21.998 4.87738 19.002 2.48209 14.7191 1.91244C8.64771 1.1045 3.29369 4.97666 2.00421 10.9847C1.84659 11.7194 1.79323 12.4678 1.77834 13.2187ZM30.5205 34.2115C32.1227 34.2153 33.4656 33.2857 33.9856 31.887C34.5106 30.4734 34.1246 28.9022 32.9356 27.9131C29.895 25.385 26.832 22.883 23.7839 20.3636C23.6176 20.2258 23.5531 20.263 23.4426 20.4182C22.6123 21.596 21.6108 22.605 20.4318 23.4315C20.2295 23.573 20.2518 23.6549 20.3933 23.8237C21.1888 24.7744 21.9732 25.7362 22.7613 26.6931C24.433 28.726 26.1085 30.7576 27.7765 32.7942C28.5162 33.7002 29.4581 34.1818 30.5205 34.2115Z" fill="#363636"/>
<path fill-rule="evenodd" clip-rule="evenodd" d="M14.3646 9.66675C14.1437 10.1148 14.3572 10.5851 14.3994 11.0704C14.4949 12.1799 14.6488 12.3078 15.71 12.3115C16.5874 12.314 17.2638 13.0363 17.3494 13.9696C17.3631 14.121 17.3556 14.2749 17.373 14.425C17.4164 14.8098 17.6535 15.0319 18.0407 15.058C18.3088 15.0766 18.5781 15.0816 18.8449 15.1151C19.1937 15.1585 19.4866 15.3298 19.7273 15.5805C19.9408 15.8026 19.9433 16.0955 19.7422 16.3078C19.5387 16.5237 19.2756 16.5734 19.0497 16.3909C18.799 16.1886 18.5297 16.1601 18.2331 16.1551C17.0268 16.1353 16.3888 15.5296 16.2883 14.3196C16.2213 13.5129 16.0773 13.3776 15.2694 13.3676C14.1164 13.3528 13.4152 12.6826 13.3705 11.5246C13.3594 11.2479 13.337 11.1225 13.0069 11.2293C12.7165 11.3223 12.4025 11.2578 12.1084 11.1672C11.0807 10.852 10.1958 9.62207 10.2182 8.54233C10.2331 7.79644 10.696 7.27767 11.427 7.18955C12.6184 7.04559 14.0196 8.03101 14.2889 9.20507C14.3212 9.34035 14.3348 9.48059 14.3646 9.66675ZM13.265 9.62207C13.2501 8.96182 12.2052 8.12657 11.5486 8.25192C11.391 8.2817 11.3091 8.3723 11.2954 8.53861C11.2446 9.17652 11.9768 10.0862 12.6097 10.1644C12.9982 10.2128 13.2737 9.98447 13.265 9.62207Z" fill="#363636"/>
<path fill-rule="evenodd" clip-rule="evenodd" d="M9.68491 13.9498C7.79474 14.4611 6.53753 12.5411 6.58221 11.2852C6.60951 10.4934 7.13449 9.99073 7.9325 9.97832C9.16365 9.9597 10.3625 10.8421 10.6443 11.969C10.6852 12.1316 10.7336 12.3066 10.6852 12.453C10.4469 13.1592 10.8416 13.8108 10.8404 14.4983C10.8404 14.821 11.0811 15.0208 11.4137 15.0556C11.6111 15.0754 11.8121 15.0667 12.0094 15.0816C13.0023 15.1611 13.6601 15.8437 13.7085 16.8415C13.7135 16.9346 13.7122 17.0289 13.7197 17.122C13.7569 17.601 14.0039 17.8381 14.4829 17.8554C14.7622 17.8654 15.0439 17.843 15.3194 17.9212C15.621 18.0056 15.8853 18.1508 16.0926 18.3804C16.2924 18.6013 16.2999 18.852 16.1087 19.0804C15.9176 19.3075 15.6471 19.3696 15.4212 19.1859C15.1283 18.9476 14.8068 18.9364 14.4655 18.929C13.387 18.9029 12.7069 18.2365 12.6461 17.1567C12.6387 17.0165 12.6263 16.8762 12.6014 16.7385C12.5394 16.3848 12.316 16.1887 11.9548 16.1688C11.6744 16.1539 11.3939 16.1701 11.1159 16.1117C10.4333 15.969 9.87727 15.3981 9.7693 14.7068C9.73083 14.4661 9.71345 14.2203 9.68491 13.9498ZM8.97873 12.9532C9.4491 12.9581 9.68367 12.6826 9.603 12.2904C9.49006 11.7456 9.11525 11.4229 8.63123 11.2206C8.34826 11.1027 7.99704 10.8769 7.75006 11.1325C7.4944 11.3981 7.72028 11.7531 7.85928 12.041C8.10005 12.5399 8.4612 12.9011 8.97873 12.9532Z" fill="#363636"/>
<path fill-rule="evenodd" clip-rule="evenodd" d="M30.5204 34.2116C29.4581 34.1818 28.5161 33.7003 27.7752 32.7955C26.1072 30.7589 24.4317 28.7273 22.76 26.6944C21.9719 25.7363 21.1875 24.7757 20.392 23.825C20.2505 23.6562 20.2282 23.5743 20.4305 23.4328C21.6107 22.6063 22.6123 21.596 23.4413 20.4195C23.5518 20.2631 23.6163 20.2271 23.7826 20.3649C26.8307 22.883 29.8937 25.3863 32.9343 27.9144C34.1233 28.9023 34.5093 30.4747 33.9843 31.8883C33.4655 33.2858 32.1227 34.2153 30.5204 34.2116ZM30.3628 29.7735C30.3591 29.4657 30.0861 29.1939 29.7783 29.1939C29.4705 29.1927 29.1937 29.4632 29.1888 29.771C29.1838 30.0912 29.473 30.3779 29.7919 30.368C30.0985 30.3581 30.3653 30.0801 30.3628 29.7735Z" fill="white"/>
<path fill-rule="evenodd" clip-rule="evenodd" d="M13.2651 9.62203C13.2738 9.98442 12.997 10.2128 12.6098 10.1644C11.9768 10.0862 11.2446 9.17648 11.2955 8.53857C11.3091 8.37226 11.391 8.28166 11.5487 8.25188C12.2052 8.12653 13.2502 8.96053 13.2651 9.62203Z" fill="white"/>
<path fill-rule="evenodd" clip-rule="evenodd" d="M8.97965 12.9531C8.46212 12.9009 8.10096 12.5398 7.8602 12.0421C7.72119 11.7542 7.49532 11.3992 7.75098 11.1336C7.99671 10.8767 8.34918 11.1039 8.63215 11.2218C9.11617 11.4241 9.49097 11.7467 9.60391 12.2916C9.68582 12.6825 9.45002 12.958 8.97965 12.9531Z" fill="white"/>
<path fill-rule="evenodd" clip-rule="evenodd" d="M30.3626 29.7735C30.3651 30.08 30.0983 30.358 29.7917 30.3667C29.4715 30.3766 29.1836 30.0899 29.1885 29.7697C29.1935 29.4619 29.469 29.1926 29.7781 29.1926C30.0858 29.1951 30.3589 29.4657 30.3626 29.7735Z" fill="#363636"/>
</svg>
