<svg width="56" height="42" viewBox="0 0 56 42" fill="none" xmlns="http://www.w3.org/2000/svg">
<path fill-rule="evenodd" clip-rule="evenodd" d="M55.9662 24.0586C55.6936 24.6383 55.7172 25.2781 55.6027 25.8888C55.2629 27.6989 54.3923 29.3038 53.7035 30.9795C52.4876 33.9328 51.2481 36.8771 49.9923 39.8123C49.3998 41.1972 48.3075 41.9442 46.8026 41.9769C44.927 42.0169 43.0514 41.9951 41.1758 41.9842C39.9381 41.9769 39.1675 41.0046 39.4038 39.7887C40.2544 35.4359 41.0959 31.0831 41.9591 26.7321C42.0464 26.2959 41.921 26.2323 41.5175 26.2359C39.4056 26.2559 37.2919 26.2486 35.1801 26.245C32.0086 26.2377 29.735 23.9786 29.7314 20.8199C29.7259 15.6837 29.7241 10.5494 29.7314 5.41323C29.735 2.2872 32.0141 0.0153769 35.1455 0.0117419C40.2635 0.00628956 45.3796 0.00810702 50.4975 0.0117419C53.2255 0.0135594 55.1883 1.56204 55.8535 4.22643C55.8717 4.29913 55.8753 4.3682 55.9644 4.38455C55.9662 10.9401 55.9662 17.4994 55.9662 24.0586Z" fill="#E6EDF2"/>
<path fill-rule="evenodd" clip-rule="evenodd" d="M0 4.27403C0.190832 4.17225 0.159935 3.96506 0.207189 3.80331C0.834208 1.63326 2.82613 0.035711 5.08158 0.0229888C10.4358 -0.00427309 15.79 -0.0115425 21.1442 0.0248067C23.8976 0.0429813 26.2021 2.3348 26.2185 5.0828C26.2548 11.0005 26.2585 16.9199 26.2094 22.8394C26.193 24.864 25.775 26.8287 24.9499 28.7171C23.3451 32.392 21.8366 36.1087 20.2682 39.7999C19.6702 41.2085 18.5616 41.9536 17.0331 41.9809C15.1757 42.0136 13.3183 41.9954 11.4608 41.9863C10.2177 41.9791 9.43437 41.0158 9.67064 39.8054C10.5194 35.4526 11.3645 31.0998 12.2241 26.7488C12.3023 26.3562 12.2532 26.229 11.8043 26.2362C9.76514 26.2635 7.72597 26.249 5.68497 26.249C2.80796 26.249 1.00687 24.9331 0.136309 22.1924C0.110864 22.1106 0.119952 22.007 0.00181749 21.9852C4.16387e-08 16.0784 0 10.1753 0 4.27403Z" fill="#E6EDF2"/>
</svg>
