<svg width="36" height="36" viewBox="0 0 36 36" fill="none" xmlns="http://www.w3.org/2000/svg">
<path fill-rule="evenodd" clip-rule="evenodd" d="M4.43405 35.9942C4.03625 35.9942 3.63733 35.9942 3.23953 35.9942C3.16913 35.8758 3.03504 35.9026 2.93112 35.868C2.07071 35.5852 1.44496 35.0411 1.11979 34.1952C0.776738 33.3046 0.489561 32.3928 0.222498 31.4754C0.136457 31.1804 0.158805 30.8597 0.00683594 30.5814C0.00683594 28.8472 0.00683594 27.1141 0.00683594 25.3799C0.100699 25.3508 0.0738811 25.2692 0.0783507 25.2055C0.194562 23.687 0.422516 22.1863 0.781208 20.7057C1.72766 16.8014 3.40491 13.2413 5.90123 10.0924C7.22649 8.41965 8.97748 7.4866 11.1576 7.53577C12.6817 7.57041 13.5287 8.48893 13.4974 9.99856C13.4863 10.5383 13.4986 11.0769 13.5813 11.6099C13.6751 12.2122 13.7924 12.8089 14.0383 13.419C14.7423 12.6323 15.0451 11.754 15.044 10.7562C15.0417 7.52459 15.0507 4.29302 15.035 1.06032C15.0328 0.601059 15.1389 0.246837 15.5412 0.0065918C15.7055 0.0065918 15.8697 0.0065918 16.0329 0.0065918C16.4195 0.23678 16.5447 0.569771 16.5424 1.02233C16.5268 4.25502 16.5245 7.4866 16.5379 10.7193C16.5447 12.3049 15.9859 13.6324 14.8596 14.7409C13.4159 16.1622 11.9856 17.597 10.5497 19.0273C10.4748 19.1011 10.3966 19.1726 10.3318 19.2542C10.1977 19.4218 10.1999 19.5983 10.3262 19.7682C10.4536 19.9391 10.6179 19.9503 10.7922 19.8486C11.0246 19.7134 11.2604 19.5827 11.4794 19.4296C13.1365 18.2686 14.7903 17.1031 16.4452 15.9377C17.5816 15.1376 18.413 15.1376 19.5606 15.9377C21.3831 17.2093 23.2067 18.4787 25.027 19.7525C25.2415 19.9023 25.4572 19.9782 25.6505 19.7536C25.8516 19.519 25.7567 19.3044 25.5533 19.1111C25.3075 18.8776 25.0672 18.6373 24.8281 18.396C23.5051 17.054 22.0982 15.7957 20.8523 14.3755C19.9137 13.3061 19.4734 12.0826 19.4857 10.6534C19.5136 7.44526 19.5002 4.23603 19.4891 1.0268C19.4879 0.566419 19.6109 0.214432 20.0399 0.0065918C20.1807 0.0065918 20.3215 0.0065918 20.4612 0.0065918C20.8925 0.213315 21.0154 0.567537 21.011 1.0268C20.9853 3.66056 20.9741 6.29543 20.9629 8.92919C20.9596 9.80748 20.9797 10.6847 21.0937 11.5574C21.1864 12.2647 21.4423 12.8904 22.001 13.3855C22.3586 12.5262 22.5441 11.2948 22.5061 10.0511C22.4949 9.69798 22.5005 9.35046 22.6078 9.00965C22.8782 8.14588 23.6794 7.58493 24.7376 7.52571C26.3355 7.43632 27.7144 8.00508 28.9592 8.95377C30.023 9.7639 30.7337 10.8735 31.4477 11.9708C33.9563 15.8192 35.4268 20.033 35.8704 24.6077C35.8995 24.9116 35.8481 25.2312 35.9933 25.5206C35.9933 27.2079 35.9933 28.8941 35.9933 30.5814C35.971 30.6049 35.933 30.625 35.9297 30.6507C35.7609 31.8754 35.3005 33.0185 34.9117 34.1784C34.6178 35.0556 33.9876 35.6188 33.1015 35.8981C33.0121 35.9261 32.8813 35.8545 32.831 35.9931C32.2455 35.9931 31.66 35.9931 31.0733 35.9931C31.0432 35.9037 30.9605 35.9294 30.8979 35.9126C30.2409 35.7372 29.6028 35.5126 29.0374 35.1249C27.7233 34.2231 26.3344 33.4599 24.865 32.842C24.3152 32.6107 23.7799 32.3514 23.267 32.0475C21.7485 31.148 20.9428 29.8931 20.9864 28.0494C21.0568 25.0647 21.002 22.0779 21.011 19.0921C21.0121 18.8407 20.935 18.6921 20.726 18.5524C20.0165 18.0775 19.3069 17.6004 18.6309 17.0808C18.2085 16.7567 17.8375 16.7567 17.4229 17.0506C16.7078 17.5579 15.9926 18.0663 15.2652 18.5558C15.0529 18.6988 14.9903 18.8541 14.9903 19.1022C14.9981 22.1818 14.9758 25.2614 15.0037 28.341C15.0171 29.8127 14.4059 30.901 13.2013 31.6955C12.5756 32.109 11.9062 32.4397 11.2291 32.7571C9.85354 33.4007 8.48023 34.041 7.24325 34.9427C6.66442 35.3651 5.99285 35.6132 5.2967 35.7953C5.01064 35.8713 4.70559 35.8612 4.43405 35.9942ZM8.25786 27.5622C8.19305 27.6739 8.1383 27.7767 8.07573 27.8739C7.50808 28.76 6.78399 29.4752 5.80625 29.8987C5.36598 30.0898 4.97712 29.9512 4.79386 29.5724C4.61061 29.1947 4.75252 28.8025 5.15479 28.5623C5.40509 28.4125 5.66769 28.2773 5.89787 28.1008C7.48573 26.885 7.51143 25.0737 7.75391 23.3082C6.5348 23.5082 5.47214 23.8266 5.1749 25.1977C5.11791 25.4614 4.90114 25.5855 4.62178 25.6022C4.05637 25.6346 3.70326 25.2469 3.76137 24.6345C3.81724 24.0468 4.10553 23.573 4.51339 23.1662C5.23636 22.4466 6.13924 22.0421 7.12145 21.9024C7.75279 21.813 8.10925 21.5694 8.39531 21.0007C8.61767 20.5582 8.87245 20.2174 8.73947 19.6553C8.59086 19.024 8.9082 18.4686 9.39875 18.0451C9.58536 17.8842 9.62894 17.7646 9.42333 17.5713C9.12275 17.2897 8.89815 16.9433 8.71377 16.5757C8.63108 16.4114 8.54057 16.3734 8.35508 16.4193C7.93828 16.5221 7.574 16.7176 7.22313 16.9567C6.83986 17.2182 6.41524 17.1545 6.16605 16.8182C5.92246 16.4885 5.99174 16.0494 6.34149 15.7611C6.78064 15.3991 7.27901 15.1387 7.82766 15.0013C8.05561 14.9443 8.09249 14.866 8.05896 14.647C7.97069 14.0771 7.9908 13.5017 8.09584 12.934C8.17629 12.5005 8.53834 12.2468 8.96631 12.306C9.36188 12.3608 9.62335 12.7094 9.58983 13.1419C9.57754 13.2938 9.55184 13.4447 9.54066 13.5955C9.45239 14.7152 9.79655 15.6896 10.5262 16.5377C10.6614 16.6941 10.743 16.7143 10.9006 16.5522C11.4783 15.9544 12.0672 15.3678 12.6661 14.7901C12.8169 14.6437 12.8359 14.5331 12.7544 14.342C12.3867 13.476 12.1465 12.5742 12.0772 11.6333C12.0292 10.9797 12.0236 10.3237 11.9655 9.67116C11.9197 9.16161 11.7196 9.00071 11.2056 9.00853C9.5686 9.03535 8.17294 9.64322 7.15721 10.9238C4.32566 14.4951 2.57914 18.5558 1.83605 23.0511C1.4863 25.1642 1.4796 27.2951 1.50753 29.426C1.51312 29.8462 1.52206 30.2686 1.60139 30.6854C1.79806 31.7234 2.18245 32.7034 2.53444 33.6923C2.69311 34.1371 3.06074 34.3717 3.5133 34.4522C4.47875 34.6243 5.35481 34.336 6.14147 33.8186C7.60976 32.852 9.13839 32.0073 10.7698 31.3469C11.3766 31.101 11.9643 30.8127 12.4851 30.406C13.1645 29.8763 13.5142 29.2014 13.5075 28.3198C13.4874 25.591 13.4919 22.8612 13.484 20.1324C13.484 20.0352 13.5287 19.9257 13.4326 19.8263C13.3924 19.8497 13.3522 19.8687 13.3164 19.8933C12.7711 20.2766 12.2538 20.7001 11.6805 21.0431C11.2134 21.3225 10.7218 21.4801 10.1765 21.3169C10.0301 21.2733 9.9407 21.3214 9.84795 21.4354C9.53284 21.8265 9.31606 22.2533 9.27025 22.764C9.18309 23.7428 9.12498 24.725 8.8758 25.6816C8.83892 25.8223 8.89144 25.9274 8.96631 26.038C9.40769 26.6906 10.0044 27.1443 10.7408 27.408C11.2559 27.5923 11.4961 27.9421 11.3699 28.3678C11.238 28.8148 10.838 28.9869 10.2893 28.8405C9.48591 28.626 8.82328 28.1868 8.25786 27.5622ZM22.4971 19.8196C22.4971 19.9905 22.4971 20.1034 22.4971 20.2162C22.4971 22.8981 22.5117 25.5799 22.4893 28.2617C22.4815 29.2014 22.8536 29.9043 23.5922 30.4462C24.1621 30.8653 24.7979 31.1558 25.4449 31.4284C26.9679 32.071 28.415 32.8498 29.7716 33.794C30.2487 34.1259 30.7828 34.3326 31.3493 34.441C32.7148 34.7036 33.249 34.3863 33.687 33.071C33.9786 32.1972 34.3776 31.3424 34.4334 30.4138C34.5742 28.0728 34.563 25.7296 34.2155 23.4043C33.5495 18.9368 31.8567 14.8951 29.1402 11.2814C28.6094 10.5752 27.9625 10.0142 27.1858 9.60523C26.4439 9.21413 25.6706 8.92472 24.8091 8.99847C24.2426 9.04764 23.9699 9.3404 23.999 9.88794C24.0794 11.4434 23.8235 12.9396 23.2212 14.3755C23.1542 14.5364 23.162 14.6403 23.2939 14.7688C23.9051 15.3655 24.5119 15.9689 25.1063 16.5824C25.2505 16.731 25.3231 16.7176 25.4505 16.5712C26.2919 15.6125 26.5925 14.5018 26.4115 13.2491C26.3411 12.7631 26.5981 12.3831 27.0361 12.3161C27.4641 12.2502 27.8328 12.553 27.9066 13.0335C27.9904 13.5799 28.0273 14.1297 27.9233 14.6761C27.8798 14.9052 27.9624 14.9744 28.1681 15.0258C28.6854 15.1521 29.1492 15.3991 29.5715 15.7209C29.9794 16.0315 30.0822 16.4617 29.8364 16.8171C29.5749 17.1959 29.1335 17.2506 28.6988 16.9422C28.3904 16.7232 28.0597 16.5589 27.6954 16.4573C27.492 16.4003 27.3613 16.4204 27.254 16.6405C27.0897 16.9757 26.8786 17.2953 26.5992 17.5467C26.3601 17.7624 26.3936 17.892 26.6182 18.0954C27.2395 18.6597 27.4317 19.3614 27.168 20.1648C27.1177 20.3191 27.1657 20.4006 27.254 20.5034C27.5289 20.8241 27.7647 21.1728 27.9278 21.565C27.9937 21.7236 28.0876 21.7896 28.2653 21.8052C28.7201 21.8466 29.167 21.946 29.6006 22.089C30.4465 22.3684 31.2164 22.774 31.7639 23.5093C32.0947 23.954 32.3025 24.4434 32.1986 25.0145C32.1103 25.5005 31.6913 25.7441 31.2253 25.5933C30.9359 25.4994 30.8599 25.2458 30.794 24.9988C30.6174 24.3328 30.1872 23.9127 29.5604 23.6624C29.2117 23.5227 28.8474 23.44 28.4832 23.3573C28.3088 23.3171 28.2597 23.364 28.2899 23.5506C28.3658 24.0244 28.4083 24.5027 28.4821 24.9765C28.7256 26.5632 29.3872 27.8706 30.9236 28.5846C30.9661 28.6036 31.0041 28.6327 31.0409 28.6617C31.3225 28.8852 31.4075 29.2584 31.251 29.5769C31.0957 29.8942 30.7526 30.0484 30.3984 29.9624C30.1101 29.892 29.8576 29.7456 29.6118 29.5858C28.8217 29.0729 28.196 28.4036 27.739 27.5611C27.1523 28.236 26.4539 28.7008 25.5935 28.9087C25.1253 29.0215 24.7253 28.8293 24.608 28.4293C24.4817 27.9957 24.7007 27.6348 25.1845 27.4694C25.9388 27.2102 26.5433 26.7543 26.9992 26.0972C27.0909 25.9643 27.1199 25.8469 27.0808 25.6782C26.8707 24.7764 26.7568 23.8602 26.7076 22.9349C26.6785 22.3762 26.474 21.8901 26.1031 21.4733C26.036 21.3974 25.9936 21.3069 25.8494 21.3504C25.1667 21.5538 24.5867 21.2901 24.0425 20.9158C23.5453 20.5694 23.0525 20.2129 22.4971 19.8196Z" fill="#363636"/>
<path fill-rule="evenodd" clip-rule="evenodd" d="M15.5393 0.0078125C15.137 0.24694 15.0308 0.60228 15.0331 1.06154C15.0487 4.29312 15.0398 7.5247 15.042 10.7574C15.0431 11.7552 14.7403 12.6335 14.0363 13.4202C13.7905 12.8101 13.6732 12.2134 13.5793 11.6111C13.4966 11.0781 13.4843 10.5395 13.4955 9.99978C13.5268 8.49126 12.6809 7.57275 11.1556 7.53699C8.97553 7.48782 7.22453 8.42087 5.89927 10.0936C3.40296 13.2425 1.72571 16.8026 0.779255 20.7069C0.420563 22.1875 0.192609 23.6882 0.0763976 25.2067C0.0719279 25.2704 0.0987461 25.352 0.00488281 25.3811C0.00488281 16.9233 0.00488281 8.46556 0.00488281 0.0078125C5.18412 0.0078125 10.3611 0.0078125 15.5393 0.0078125Z" fill="white"/>
<path fill-rule="evenodd" clip-rule="evenodd" d="M35.9921 25.5219C35.8468 25.2325 35.8982 24.9129 35.8692 24.6089C35.4256 20.0342 33.955 15.8204 31.4464 11.972C30.7313 10.8747 30.0217 9.76513 28.9579 8.955C27.712 8.00743 26.3342 7.43755 24.7363 7.52694C23.6781 7.58616 22.8769 8.14711 22.6065 9.01087C22.4993 9.35169 22.4937 9.70032 22.5048 10.0523C22.5428 11.296 22.3573 12.5274 21.9998 13.3867C21.4422 12.8917 21.1852 12.267 21.0924 11.5586C20.9784 10.6859 20.9583 9.80871 20.9617 8.93042C20.9729 6.29666 20.984 3.66179 21.0097 1.02803C21.0142 0.567649 20.8913 0.214545 20.46 0.00782191C25.5398 0.00782191 30.6195 0.0100568 35.6993 0C35.9642 0 35.9999 0.0692801 35.9999 0.310643C35.991 8.71476 35.9921 17.1178 35.9921 25.5219Z" fill="white"/>
<path fill-rule="evenodd" clip-rule="evenodd" d="M4.43359 35.9944C4.70513 35.8626 5.01018 35.8726 5.29624 35.7966C5.99128 35.6134 6.66396 35.3664 7.24279 34.944C8.47865 34.0423 9.85308 33.4009 11.2286 32.7584C11.9058 32.4421 12.5751 32.1103 13.2009 31.6968C14.4054 30.9023 15.0167 29.814 15.0033 28.3423C14.9753 25.2627 14.9977 22.1831 14.9899 19.1035C14.9887 18.8565 15.0524 18.7001 15.2647 18.5571C15.9922 18.0676 16.7073 17.5592 17.4225 17.0519C17.837 16.758 18.208 16.7569 18.6304 17.0821C19.3065 17.6017 20.0171 18.0777 20.7256 18.5537C20.9345 18.6934 21.0116 18.842 21.0105 19.0934C21.0016 22.0792 21.0563 25.066 20.9859 28.0507C20.9424 29.8944 21.7491 31.1493 23.2666 32.0488C23.7795 32.3527 24.3147 32.6131 24.8645 32.8433C26.3339 33.4612 27.7229 34.2244 29.0369 35.1262C29.6035 35.515 30.2404 35.7396 30.8975 35.914C30.96 35.9307 31.0427 35.905 31.0729 35.9944C22.1927 35.9944 13.3126 35.9944 4.43359 35.9944Z" fill="white"/>
<path fill-rule="evenodd" clip-rule="evenodd" d="M20.0381 0.0078125C19.609 0.215653 19.4861 0.56764 19.4872 1.02802C19.4984 4.23725 19.5118 7.44536 19.4838 10.6546C19.4715 12.0838 19.9107 13.3073 20.8504 14.3767C22.0964 15.7958 23.5032 17.0552 24.8262 18.3972C25.0642 18.6386 25.3056 18.8788 25.5514 19.1123C25.7548 19.3057 25.8498 19.5202 25.6486 19.7549C25.4553 19.9795 25.2385 19.9035 25.0251 19.7537C23.2037 18.4799 21.3801 17.2105 19.5587 15.9389C18.4111 15.1377 17.5797 15.1377 16.4433 15.9389C14.7895 17.1043 13.1346 18.2698 11.4775 19.4308C11.2585 19.5839 11.0227 19.7146 10.7903 19.8498C10.6171 19.9504 10.4517 19.9403 10.3243 19.7694C10.1981 19.5995 10.1958 19.4219 10.3299 19.2554C10.3947 19.1738 10.4741 19.1023 10.5478 19.0285C11.9837 17.5994 13.4129 16.1635 14.8577 14.7421C15.9841 13.6336 16.5428 12.3061 16.5361 10.7205C16.5227 7.48782 16.5249 4.25624 16.5405 1.02355C16.5428 0.570992 16.4176 0.238001 16.031 0.0078125C17.3663 0.0078125 18.7028 0.0078125 20.0381 0.0078125Z" fill="white"/>
<path fill-rule="evenodd" clip-rule="evenodd" d="M0.00560886 30.5828C0.157578 30.861 0.13523 31.1817 0.221271 31.4767C0.488334 32.3941 0.775511 33.3048 1.11856 34.1965C1.44485 35.0424 2.06948 35.5877 2.9299 35.8693C3.0327 35.9028 3.16791 35.8771 3.2383 35.9955C2.23039 35.9955 1.2236 35.9911 0.215684 36C0.0402488 36.0011 -0.00109557 35.9598 2.185e-05 35.7844C0.00896121 34.0501 0.00560886 32.3159 0.00560886 30.5828Z" fill="white"/>
<path fill-rule="evenodd" clip-rule="evenodd" d="M32.8291 35.9944C32.8794 35.8548 33.0101 35.9274 33.0995 35.8994C33.9856 35.6201 34.6159 35.0569 34.9097 34.1797C35.2986 33.0199 35.759 31.8767 35.9277 30.652C35.9311 30.6263 35.9702 30.6062 35.9914 30.5828C35.9914 32.317 35.988 34.0501 35.9959 35.7844C35.997 35.9598 35.9568 36.0022 35.7802 36C34.798 35.9888 33.8135 35.9944 32.8291 35.9944Z" fill="white"/>
<path fill-rule="evenodd" clip-rule="evenodd" d="M8.25731 27.5623C8.82272 28.1869 9.48535 28.6261 10.2899 28.8406C10.8385 28.987 11.2386 28.8138 11.3704 28.368C11.4967 27.9422 11.2565 27.5925 10.7413 27.4081C10.0038 27.1444 9.40825 26.6907 8.96687 26.0381C8.892 25.9275 8.83948 25.8225 8.87636 25.6817C9.12554 24.7252 9.18365 23.7418 9.27081 22.7641C9.31662 22.2534 9.53228 21.8266 9.84851 21.4355C9.94126 21.3215 10.0307 21.2723 10.177 21.317C10.7235 21.4802 11.2151 21.3226 11.6811 21.0433C12.2543 20.7002 12.7717 20.2767 13.317 19.8934C13.3527 19.8689 13.393 19.8487 13.4332 19.8264C13.5293 19.9258 13.4835 20.0353 13.4846 20.1326C13.4924 22.8613 13.488 25.5912 13.5081 28.3199C13.5148 29.2015 13.165 29.8753 12.4856 30.4061C11.9649 30.8129 11.3771 31.1023 10.7704 31.347C9.13895 32.0063 7.61144 32.851 6.14203 33.8187C5.35425 34.3372 4.47931 34.6244 3.51386 34.4523C3.06131 34.3718 2.69368 34.1372 2.535 33.6925C2.18301 32.7035 1.79862 31.7236 1.60196 30.6855C1.52262 30.2687 1.51368 29.8463 1.50809 29.4261C1.48016 27.2941 1.48798 25.1643 1.83661 23.0513C2.5797 18.5559 4.32511 14.4952 7.15777 10.9239C8.1735 9.64334 9.56916 9.03547 11.2062 9.00865C11.7202 8.99971 11.9213 9.16173 11.966 9.67128C12.0241 10.3239 12.0297 10.9798 12.0778 11.6335C12.147 12.5743 12.3873 13.4761 12.7549 14.3421C12.8365 14.5343 12.8175 14.6449 12.6666 14.7902C12.0688 15.3679 11.4788 15.9545 10.9011 16.5524C10.7436 16.7155 10.662 16.6954 10.5268 16.5378C9.79711 15.6897 9.45295 14.7153 9.54122 13.5957C9.55352 13.4437 9.57922 13.294 9.59039 13.142C9.62391 12.7084 9.36244 12.3598 8.96687 12.3062C8.5389 12.2469 8.17686 12.5006 8.0964 12.9341C7.99136 13.5018 7.97125 14.0761 8.05953 14.6471C8.09305 14.8662 8.05617 14.9444 7.82822 15.0014C7.27957 15.1388 6.7812 15.3992 6.34205 15.7612C5.9923 16.0495 5.92302 16.4887 6.16662 16.8183C6.41468 17.1546 6.84042 17.2183 7.2237 16.9569C7.57457 16.7177 7.93884 16.5222 8.35564 16.4194C8.54002 16.3736 8.63164 16.4116 8.71433 16.5758C8.89871 16.9434 9.12443 17.291 9.4239 17.5714C9.6295 17.7636 9.58592 17.8832 9.39931 18.0452C8.90876 18.4687 8.59142 19.0252 8.74003 19.6554C8.87301 20.2175 8.61824 20.5572 8.39587 21.0008C8.10981 21.5696 7.75335 21.8132 7.12201 21.9026C6.1398 22.0422 5.23692 22.4467 4.51395 23.1664C4.10609 23.5731 3.8178 24.0469 3.76193 24.6347C3.70382 25.247 4.05693 25.6359 4.62234 25.6023C4.90058 25.5867 5.11848 25.4615 5.17546 25.1978C5.4727 23.8256 6.53537 23.5083 7.75447 23.3083C7.51087 25.0727 7.48629 26.8851 5.89844 28.1009C5.66825 28.2774 5.40565 28.4126 5.15535 28.5624C4.75308 28.8026 4.61117 29.1948 4.79442 29.5725C4.97768 29.9513 5.36654 30.0899 5.80681 29.8988C6.78455 29.4753 7.50864 28.7602 8.07629 27.8741C8.13663 27.7768 8.19138 27.674 8.25731 27.5623Z" fill="white"/>
<path fill-rule="evenodd" clip-rule="evenodd" d="M22.4968 19.8196C23.0521 20.213 23.5449 20.5694 24.0455 20.9147C24.5908 21.2891 25.1696 21.5528 25.8524 21.3494C25.9965 21.3058 26.039 21.3974 26.106 21.4723C26.477 21.8891 26.6804 22.3752 26.7106 22.9339C26.7586 23.8591 26.8726 24.7754 27.0838 25.6772C27.1229 25.8459 27.0938 25.9632 27.0022 26.0962C26.5474 26.7532 25.9418 27.2091 25.1875 27.4684C24.7037 27.6349 24.4847 27.9947 24.6109 28.4283C24.7271 28.8283 25.1283 29.0205 25.5965 28.9076C26.4558 28.6998 27.1553 28.2349 27.7419 27.56C28.2001 28.4026 28.8247 29.0708 29.6147 29.5848C29.8595 29.7435 30.112 29.891 30.4014 29.9614C30.7556 30.0474 31.0987 29.8921 31.254 29.5758C31.4104 29.2574 31.3244 28.8842 31.0439 28.6607C31.007 28.6316 30.9691 28.6037 30.9266 28.5836C29.3901 27.8695 28.7286 26.5622 28.485 24.9754C28.4124 24.5016 28.3688 24.0234 28.2928 23.5496C28.2627 23.3619 28.3118 23.3161 28.4861 23.3563C28.8504 23.4401 29.2136 23.5228 29.5633 23.6613C30.1891 23.9116 30.6193 24.3318 30.797 24.9978C30.8629 25.2447 30.9389 25.4984 31.2283 25.5922C31.6943 25.7431 32.1122 25.4995 32.2016 25.0134C32.3055 24.4424 32.0988 23.953 31.7669 23.5083C31.2194 22.7741 30.4495 22.3685 29.6036 22.088C29.17 21.945 28.723 21.8455 28.2683 21.8042C28.0906 21.7885 27.9967 21.7226 27.9308 21.5639C27.7676 21.1728 27.5319 20.8231 27.257 20.5024C27.1687 20.3996 27.1195 20.3169 27.1709 20.1638C27.4358 19.3604 27.2425 18.6587 26.6212 18.0944C26.3977 17.891 26.3631 17.7602 26.6022 17.5457C26.8804 17.2943 27.0927 16.9758 27.257 16.6395C27.3643 16.4205 27.495 16.3992 27.6984 16.4562C28.0626 16.5579 28.3934 16.7222 28.7018 16.9412C29.1365 17.2496 29.5768 17.1948 29.8393 16.816C30.0852 16.4607 29.9824 16.0316 29.5745 15.7198C29.1521 15.398 28.6884 15.1511 28.171 15.0248C27.9654 14.9745 27.8827 14.9052 27.9263 14.675C28.0291 14.1286 27.9934 13.5789 27.9096 13.0324C27.8358 12.5519 27.4671 12.2491 27.0391 12.3151C26.6011 12.3832 26.3441 12.7631 26.4145 13.2481C26.5955 14.5007 26.2949 15.6114 25.4535 16.5702C25.325 16.7166 25.2535 16.73 25.1093 16.5814C24.5148 15.9679 23.9081 15.3645 23.2969 14.7678C23.1661 14.6404 23.1572 14.5354 23.2242 14.3745C23.8254 12.9386 24.0813 11.4424 24.0019 9.8869C23.974 9.34048 24.2455 9.0466 24.8121 8.99744C25.6736 8.92257 26.448 9.21198 27.1888 9.6042C27.9654 10.0143 28.6124 10.5741 29.1432 11.2803C31.8585 14.8941 33.5525 18.9369 34.2185 23.4032C34.5649 25.7286 34.5761 28.0718 34.4364 30.4128C34.3805 31.3414 33.9816 32.1962 33.69 33.07C33.2519 34.3852 32.7167 34.7026 31.3523 34.44C30.7858 34.3316 30.2517 34.1249 29.7745 33.793C28.418 32.8476 26.9709 32.0688 25.4479 31.4274C24.802 31.1548 24.1651 30.8642 23.5952 30.4452C22.8566 29.9021 22.4845 29.2004 22.4923 28.2606C22.5147 25.5788 22.5001 22.897 22.5001 20.2152C22.4968 20.1035 22.4968 19.9895 22.4968 19.8196Z" fill="white"/>
</svg>
