<svg width="31" height="32" viewBox="0 0 31 32" fill="none" xmlns="http://www.w3.org/2000/svg">
<path fill-rule="evenodd" clip-rule="evenodd" d="M15.376 31.0615C13.7135 31.0615 12.0522 31.0627 10.3897 31.0615C8.69832 31.0603 7.56144 29.9235 7.56723 28.2251C7.56954 27.4691 7.51397 26.7108 7.68763 25.9606C8.18545 23.8073 10.1073 22.242 12.3208 22.2293C14.3734 22.2177 16.4261 22.2154 18.4775 22.2293C21.0685 22.2467 23.1941 24.3688 23.223 26.9609C23.2299 27.5953 23.2925 28.2344 23.1755 28.863C22.9382 30.1492 21.8696 31.0522 20.5626 31.0592C18.8341 31.0696 17.1045 31.0615 15.376 31.0615ZM15.3633 29.9906C17.0813 29.9906 18.7994 29.9952 20.5174 29.9883C21.4552 29.9848 22.1429 29.2995 22.1556 28.364C22.1625 27.8732 22.1672 27.3823 22.1498 26.8914C22.0838 24.9546 20.492 23.3395 18.5586 23.3083C16.4504 23.2747 14.341 23.2793 12.234 23.3071C10.6016 23.3291 9.17182 24.5158 8.76083 26.0995C8.5756 26.815 8.64506 27.5409 8.63927 28.2633C8.63117 29.3249 9.30843 29.9895 10.377 29.9895C12.0383 29.9918 13.7008 29.9906 15.3633 29.9906Z" fill="#273339"/>
<path fill-rule="evenodd" clip-rule="evenodd" d="M18.1262 11.4C17.9062 11.407 17.6434 11.2993 17.3933 11.1407C16.8295 10.783 16.2565 10.4391 15.6996 10.0721C15.4924 9.93552 15.3396 9.9031 15.1126 10.0582C14.5535 10.4414 13.9711 10.7911 13.3923 11.1465C12.8285 11.4926 12.2276 11.4903 11.768 11.1314C11.2517 10.7297 11.122 10.1995 11.2806 9.57894C11.4543 8.90052 11.6106 8.21863 11.7958 7.54368C11.8456 7.36076 11.8074 7.26351 11.6684 7.15121C11.1243 6.70781 10.5918 6.25051 10.05 5.80363C9.5533 5.3938 9.35649 4.88325 9.54057 4.2604C9.70959 3.68733 10.2063 3.34002 10.8847 3.29255C11.5735 3.24393 12.2635 3.19067 12.9535 3.16173C13.1573 3.15363 13.2429 3.07722 13.3112 2.89893C13.5567 2.25524 13.8148 1.61618 14.0742 0.97828C14.337 0.32996 14.7966 -0.00230341 15.4079 1.20186e-05C16.0157 0.00232745 16.4649 0.338065 16.73 0.992173C16.9928 1.64049 17.2579 2.28881 17.5114 2.94061C17.567 3.08532 17.6341 3.14552 17.7962 3.15363C18.4966 3.18951 19.1971 3.24161 19.8975 3.28908C20.7044 3.34349 21.2242 3.79268 21.3145 4.53478C21.3747 5.02565 21.1849 5.42969 20.8132 5.74575C20.261 6.21462 19.7076 6.68118 19.145 7.13848C18.9979 7.25888 18.9516 7.36192 19.0037 7.55641C19.2017 8.29735 19.3985 9.03945 19.5513 9.78965C19.7238 10.6475 19.0697 11.4058 18.1262 11.4ZM12.3098 9.91352C12.2901 10.1069 12.3214 10.2111 12.4279 10.2759C12.5726 10.3639 12.7046 10.3083 12.8331 10.2273C13.5509 9.77691 14.2733 9.33582 14.983 8.87389C15.2736 8.68403 15.5236 8.68403 15.8142 8.87274C16.495 9.31614 17.1896 9.74102 17.8784 10.1728C18.0289 10.2666 18.1829 10.3928 18.367 10.2713C18.5731 10.1358 18.492 9.93436 18.448 9.75375C18.2512 8.95377 18.059 8.15264 17.8449 7.35729C17.7603 7.04355 17.8437 6.82358 18.0868 6.6233C18.7247 6.10001 19.3522 5.56399 19.9855 5.03607C20.1348 4.91219 20.298 4.79642 20.2147 4.56835C20.136 4.35649 19.9345 4.3727 19.7609 4.36112C18.9597 4.30671 18.1598 4.24998 17.3575 4.21062C17.0032 4.19325 16.7832 4.04738 16.6536 3.70933C16.3595 2.93945 16.0411 2.17999 15.7343 1.4159C15.6672 1.24687 15.6058 1.06627 15.3789 1.07669C15.174 1.08595 15.1196 1.25961 15.0571 1.4159C14.7538 2.16957 14.4365 2.91861 14.1517 3.67807C14.014 4.04391 13.7836 4.19673 13.4015 4.21293C12.5992 4.24767 11.7993 4.30787 10.9981 4.36228C10.8337 4.37386 10.6485 4.37038 10.5767 4.56719C10.4992 4.7779 10.6427 4.89483 10.784 5.01291C11.4265 5.54778 12.0621 6.09075 12.7092 6.62098C12.9558 6.82242 13.038 7.05165 12.9466 7.35729C12.8667 7.62356 12.8076 7.89562 12.7405 8.16653C12.5935 8.77549 12.443 9.37981 12.3098 9.91352Z" fill="#2A3539"/>
<path fill-rule="evenodd" clip-rule="evenodd" d="M21.0137 9.87704C21.0125 9.46837 21.185 9.14652 21.5069 8.90225C21.9514 8.56535 22.396 8.23077 22.8475 7.9043C22.9911 7.8001 23.0397 7.70517 22.998 7.51646C22.8753 6.96308 22.7769 6.4039 22.6808 5.84472C22.5905 5.31796 22.7803 4.89771 23.2249 4.61176C23.6614 4.33159 24.1164 4.34664 24.5447 4.6326C24.98 4.92203 25.4118 5.22072 25.8251 5.5414C26.0463 5.71274 26.213 5.74748 26.4642 5.58771C26.8856 5.31912 27.3348 5.09452 27.7747 4.85603C28.2621 4.59208 28.7437 4.59902 29.1779 4.95444C29.612 5.3087 29.7185 5.77989 29.5565 6.31012C29.4002 6.82068 29.2427 7.33007 29.0748 7.83599C29.0158 8.01428 29.032 8.137 29.1848 8.27129C29.5866 8.62439 29.9698 8.99834 30.3599 9.36533C30.7651 9.74622 30.8982 10.2024 30.7072 10.7314C30.5312 11.2177 30.0786 11.5036 29.4974 11.5106C28.9625 11.5175 28.4265 11.5256 27.8917 11.5187C27.7203 11.5164 27.6381 11.5743 27.5698 11.7294C27.3545 12.2179 27.1253 12.6995 26.8949 13.1812C26.639 13.7149 26.1887 14.0101 25.6908 13.98C25.1618 13.9476 24.7624 13.6141 24.5632 13.0376C24.393 12.5444 24.2159 12.0524 24.0608 11.5534C24.0052 11.3763 23.9242 11.3138 23.7389 11.2964C23.218 11.2489 22.7005 11.1702 22.1807 11.1065C21.4721 11.0197 21.0148 10.5393 21.0137 9.87704ZM25.7314 12.8825C25.8796 12.8732 25.9062 12.7505 25.9513 12.6532C26.228 12.0698 26.5082 11.4886 26.771 10.8993C26.9111 10.5844 27.1276 10.4432 27.4726 10.4478C28.1186 10.4559 28.7657 10.4432 29.4117 10.4374C29.5194 10.4362 29.6525 10.4663 29.6989 10.3297C29.7394 10.2116 29.6271 10.1537 29.5576 10.0877C29.0795 9.63624 28.6048 9.18126 28.1174 8.74017C27.8731 8.51904 27.8014 8.28403 27.909 7.96566C28.1186 7.34396 28.3061 6.71417 28.4995 6.08669C28.5307 5.98481 28.5921 5.85862 28.4751 5.77989C28.3779 5.7139 28.2841 5.8042 28.1996 5.85051C27.6335 6.16078 27.0639 6.46526 26.5059 6.78942C26.2083 6.96192 25.9513 6.95381 25.6735 6.74774C25.1537 6.36454 24.6223 5.99638 24.092 5.62591C24.0064 5.56571 23.9195 5.443 23.8015 5.52751C23.6938 5.60508 23.7482 5.7359 23.7679 5.84125C23.886 6.47568 24.0029 7.11126 24.1383 7.74222C24.2078 8.06638 24.1221 8.30255 23.8547 8.49589C23.3407 8.86867 22.8324 9.24956 22.3265 9.63392C22.2281 9.70802 22.0475 9.75201 22.1066 9.92451C22.154 10.0646 22.3103 10.0275 22.4284 10.0426C23.0582 10.1236 23.6857 10.2163 24.3166 10.2788C24.6686 10.3135 24.8492 10.4964 24.9511 10.8171C25.1479 11.4319 25.3609 12.0408 25.5681 12.6521C25.6017 12.7482 25.6225 12.8512 25.7314 12.8825Z" fill="#2A3539"/>
<path fill-rule="evenodd" clip-rule="evenodd" d="M5.75037e-05 10.033C-0.00341564 9.65324 0.15056 9.34298 0.429569 9.09175C0.834769 8.72476 1.2365 8.35429 1.64864 7.9954C1.78294 7.87847 1.82925 7.78122 1.76905 7.59599C1.60118 7.07849 1.45878 6.55173 1.31291 6.02728C1.16125 5.48316 1.30827 4.98765 1.72274 4.67855C2.16035 4.35207 2.62575 4.3347 3.09926 4.60445C3.57276 4.8742 4.04858 5.14163 4.51399 5.42527C4.6807 5.52715 4.79994 5.51673 4.95508 5.40443C5.38111 5.09995 5.81757 4.81052 6.25287 4.51878C6.74374 4.19115 7.26472 4.17378 7.69075 4.46321C8.12721 4.76074 8.2974 5.22846 8.17699 5.81542C8.07396 6.31671 7.98018 6.82032 7.85747 7.31698C7.80305 7.53694 7.85747 7.66313 8.0346 7.7928C8.45716 8.10191 8.86815 8.42838 9.27798 8.75486C9.72254 9.10912 9.89041 9.59767 9.74685 10.0874C9.60098 10.5852 9.1761 10.914 8.60535 10.9707C8.0948 11.0217 7.5854 11.0784 7.07485 11.1178C6.87225 11.1328 6.75995 11.2069 6.69396 11.4083C6.53072 11.9038 6.3397 12.3912 6.1672 12.8844C5.97849 13.4262 5.60108 13.7296 5.0338 13.7735C4.53598 13.8118 4.09026 13.498 3.84483 12.9585C3.62833 12.4827 3.41416 12.0069 3.21271 11.5241C3.14325 11.3586 3.05642 11.2868 2.86887 11.2845C2.32243 11.2798 1.77599 11.2602 1.23071 11.2347C0.519871 11.2046 0.0081615 10.6975 5.75037e-05 10.033ZM7.13505 5.55957C7.15473 5.49126 7.15589 5.4218 7.09337 5.3778C6.98686 5.30371 6.90235 5.37896 6.82131 5.43338C6.26792 5.80847 5.71338 6.18126 5.16578 6.5633C4.90761 6.74275 4.66217 6.75317 4.39011 6.59109C3.82515 6.25535 3.25439 5.93119 2.68248 5.60703C2.59334 5.55609 2.50072 5.43916 2.38611 5.54104C2.28423 5.6325 2.35138 5.74712 2.38148 5.85247C2.55398 6.45101 2.70564 7.05649 2.90476 7.64577C3.03559 8.0336 2.94065 8.30219 2.63965 8.55573C2.18003 8.94357 1.73894 9.35455 1.29554 9.76091C1.20408 9.84427 1.02811 9.90447 1.09873 10.0689C1.15546 10.2008 1.31175 10.1615 1.43099 10.165C2.06542 10.187 2.701 10.2194 3.33543 10.2217C3.67001 10.224 3.87493 10.3594 4.00459 10.6628C4.25234 11.2463 4.51283 11.8251 4.77447 12.4028C4.82194 12.5093 4.84046 12.6702 4.98981 12.6726C5.14841 12.6749 5.1542 12.5105 5.19356 12.4017C5.42048 11.7858 5.64623 11.1698 5.86157 10.5505C5.95766 10.2761 6.1371 10.1349 6.42421 10.1071C7.08874 10.0422 7.75327 9.97161 8.4178 9.90215C8.52431 9.89057 8.65976 9.91373 8.69449 9.77249C8.72922 9.63241 8.59609 9.58725 8.51273 9.52126C8.02996 9.14269 7.55762 8.75138 7.05748 8.39828C6.7148 8.15632 6.62218 7.87963 6.72059 7.48021C6.87804 6.84694 6.9996 6.20094 7.13505 5.55957Z" fill="#2A3539"/>
<path fill-rule="evenodd" clip-rule="evenodd" d="M11.2131 17.3851C11.0881 15.2063 12.9034 13.1803 15.0903 13.0599C17.4937 12.9268 19.4317 14.6587 19.5799 17.0726C19.7154 19.2629 17.8897 21.2994 15.6877 21.4163C13.2901 21.5436 11.3521 19.7978 11.2131 17.3851ZM18.5021 17.23C18.4975 15.512 17.1128 14.1262 15.3994 14.1262C13.6872 14.125 12.2991 15.512 12.2944 17.2277C12.2898 18.9573 13.6872 20.3547 15.4133 20.3489C17.1233 20.3419 18.5067 18.9469 18.5021 17.23Z" fill="#29343A"/>
<path fill-rule="evenodd" clip-rule="evenodd" d="M15.363 29.9909C13.7005 29.9909 12.038 29.9921 10.3767 29.9909C9.30811 29.9898 8.632 29.3264 8.63895 28.2648C8.64474 27.5423 8.57528 26.8165 8.76051 26.101C9.1715 24.5172 10.6013 23.3306 12.2337 23.3086C14.3419 23.2808 16.4512 23.2762 18.5582 23.3097C20.4916 23.3398 22.0835 24.956 22.1495 26.8929C22.1657 27.3837 22.1622 27.8746 22.1553 28.3655C22.1425 29.3009 21.4548 29.9863 20.5171 29.9898C18.7991 29.9955 17.081 29.9909 15.363 29.9909ZM18.6868 25.0151C18.6868 25.0104 18.6868 25.0069 18.6868 25.0035C18.4749 25.0035 18.263 24.9919 18.0512 25.0058C17.4179 25.0463 17.0092 25.4839 17.0023 26.116C17 26.3383 17.0011 26.5618 17.0023 26.7852C17.0058 27.5366 17.4712 28.1281 18.1542 28.2532C19.1996 28.443 19.9846 28.12 20.274 27.3733C20.3133 27.2714 20.3388 27.1603 20.3527 27.0515C20.3955 26.6961 20.3944 26.3383 20.3631 25.9841C20.3157 25.4561 19.9498 25.0787 19.4207 25.0208C19.1788 24.9931 18.931 25.0151 18.6868 25.0151Z" fill="#6498CA"/>
<path fill-rule="evenodd" clip-rule="evenodd" d="M12.3112 9.91387C12.4443 9.38016 12.5937 8.77468 12.7442 8.17035C12.8113 7.9006 12.8715 7.62738 12.9502 7.36111C13.0417 7.05547 12.9583 6.82625 12.7129 6.6248C12.0657 6.09573 11.4302 5.5516 10.7876 5.01674C10.6464 4.89865 10.5028 4.78172 10.5804 4.57102C10.6522 4.37421 10.8374 4.37768 11.0018 4.3661C11.8029 4.31169 12.6029 4.25149 13.4052 4.21676C13.7873 4.20055 14.0188 4.04773 14.1554 3.68189C14.4414 2.92127 14.7586 2.17339 15.0608 1.41972C15.1233 1.26343 15.1777 1.08977 15.3826 1.08051C15.6095 1.07009 15.6709 1.25069 15.738 1.41972C16.0448 2.18381 16.3632 2.94443 16.6572 3.71315C16.7869 4.05236 17.0057 4.19823 17.3611 4.21444C18.1623 4.2538 18.9634 4.31053 19.7646 4.36494C19.9382 4.37652 20.1397 4.36031 20.2184 4.57218C20.3029 4.80024 20.1385 4.91602 19.9891 5.03989C19.3547 5.56781 18.7272 6.10383 18.0905 6.62712C17.8474 6.8274 17.764 7.04737 17.8485 7.36111C18.0627 8.15646 18.2549 8.9576 18.4517 9.75758C18.4957 9.93818 18.5767 10.1396 18.3707 10.2751C18.1854 10.3966 18.0326 10.2704 17.8821 10.1767C17.1933 9.74484 16.4986 9.31996 15.8179 8.87656C15.5273 8.68785 15.2772 8.68785 14.9867 8.87772C14.277 9.33964 13.5534 9.78073 12.8368 10.2311C12.7083 10.3121 12.5763 10.3665 12.4316 10.2797C12.3239 10.2114 12.2915 10.1072 12.3112 9.91387Z" fill="#69CFB2"/>
<path fill-rule="evenodd" clip-rule="evenodd" d="M25.731 12.8821C25.6221 12.8497 25.6013 12.7478 25.5689 12.6529C25.3628 12.0416 25.1486 11.4326 24.9518 10.8179C24.8499 10.4972 24.6693 10.3143 24.3174 10.2795C23.6864 10.217 23.0578 10.1233 22.4291 10.0434C22.3111 10.0283 22.1548 10.0654 22.1073 9.92528C22.0483 9.75278 22.2289 9.70879 22.3273 9.63469C22.8332 9.25149 23.3414 8.86945 23.8555 8.49666C24.1229 8.30332 24.2086 8.06715 24.1391 7.74299C24.0036 7.11204 23.8879 6.47645 23.7686 5.84202C23.7489 5.73783 23.6945 5.60585 23.8022 5.52828C23.9203 5.44377 24.0071 5.56649 24.0928 5.62669C24.6219 5.99716 25.1544 6.36415 25.6742 6.74851C25.9521 6.95343 26.2091 6.96269 26.5066 6.79019C27.0646 6.46603 27.6342 6.16155 28.2004 5.85128C28.2849 5.80498 28.3775 5.71352 28.4759 5.78066C28.5928 5.85939 28.5315 5.98558 28.5002 6.08746C28.308 6.71494 28.1205 7.34474 27.9098 7.96643C27.8021 8.2848 27.8739 8.51982 28.1182 8.74094C28.6056 9.18203 29.0802 9.63701 29.5584 10.0885C29.6278 10.1545 29.7401 10.2124 29.6996 10.3305C29.6533 10.4671 29.5201 10.437 29.4125 10.4381C28.7665 10.4439 28.1193 10.4567 27.4733 10.4486C27.1283 10.4439 26.9118 10.5863 26.7717 10.9001C26.5089 11.4894 26.2288 12.0705 25.9521 12.654C25.9058 12.7501 25.8803 12.874 25.731 12.8821Z" fill="#69CFB2"/>
<path fill-rule="evenodd" clip-rule="evenodd" d="M7.13547 5.5594C7.00001 6.20193 6.87845 6.84678 6.72216 7.48468C6.62376 7.88409 6.71753 8.16079 7.05906 8.40275C7.55919 8.75585 8.03154 9.14832 8.5143 9.52573C8.59766 9.59056 8.7308 9.63687 8.69606 9.77696C8.66133 9.9182 8.52588 9.89504 8.41937 9.90662C7.75484 9.97608 7.09031 10.0467 6.42579 10.1115C6.13867 10.1393 5.95923 10.2794 5.86314 10.5549C5.64664 11.1743 5.42205 11.7914 5.19514 12.4061C5.15577 12.5138 5.14999 12.6793 4.99138 12.677C4.84203 12.6747 4.82351 12.5138 4.77604 12.4073C4.51556 11.8296 4.25391 11.2519 4.00616 10.6672C3.87766 10.3628 3.67274 10.2273 3.337 10.2261C2.70258 10.2227 2.06699 10.1914 1.43256 10.1694C1.31332 10.1648 1.15703 10.2053 1.1003 10.0733C1.02968 9.90893 1.20565 9.84873 1.29711 9.76538C1.74052 9.35902 2.18161 8.94919 2.64122 8.5602C2.94222 8.3055 3.03716 8.03807 2.90633 7.65023C2.70721 7.06096 2.55555 6.45547 2.38305 5.85693C2.35295 5.75158 2.2858 5.63697 2.38768 5.54551C2.50229 5.44363 2.59491 5.56056 2.68405 5.6115C3.25481 5.93566 3.82672 6.25982 4.39168 6.59556C4.66375 6.75764 4.90918 6.74722 5.16735 6.56777C5.71611 6.18573 6.26949 5.81294 6.82288 5.43784C6.90392 5.38227 6.98844 5.30702 7.09495 5.38227C7.1563 5.42163 7.15515 5.4911 7.13547 5.5594Z" fill="#69CFB2"/>
<path fill-rule="evenodd" clip-rule="evenodd" d="M18.5007 17.2305C18.5053 18.9462 17.123 20.3424 15.4119 20.3482C13.6846 20.3551 12.2872 18.9566 12.293 17.227C12.2976 15.5113 13.6857 14.1255 15.398 14.1255C17.1114 14.1278 18.496 15.5124 18.5007 17.2305ZM15.4084 19.6327C16.1516 19.6501 16.7745 19.3699 17.3047 18.864C17.5849 18.5966 17.6127 18.2771 17.3858 18.0409C17.167 17.8128 16.8706 17.8232 16.5835 18.0675C15.7847 18.7471 15.0032 18.7482 14.2148 18.0733C13.9161 17.8174 13.6058 17.8128 13.3893 18.0606C13.1821 18.2967 13.2122 18.6001 13.482 18.8582C14.0191 19.3734 14.6536 19.6559 15.4084 19.6327Z" fill="#F9C8AC"/>
<path fill-rule="evenodd" clip-rule="evenodd" d="M18.6878 25.0148C18.9332 25.0148 19.1798 24.9928 19.4218 25.0194C19.952 25.0773 20.3178 25.4547 20.3641 25.9827C20.3954 26.3381 20.3966 26.6958 20.3537 27.0501C20.341 27.1589 20.3155 27.27 20.275 27.3719C19.9844 28.1175 19.2006 28.4416 18.1552 28.2518C17.4722 28.1279 17.0068 27.5363 17.0033 26.7838C17.0021 26.5615 17.001 26.3381 17.0033 26.1146C17.0102 25.4814 17.4189 25.0449 18.0522 25.0044C18.2629 24.9905 18.4759 25.0021 18.6878 25.0021C18.6878 25.0067 18.6878 25.0102 18.6878 25.0148ZM18.7005 26.0915C18.0522 26.0915 18.0522 26.0915 18.0753 26.7502C18.0765 26.7838 18.0742 26.8174 18.0777 26.8498C18.102 27.0524 18.2085 27.1763 18.418 27.1902C18.5396 27.1983 18.6623 27.1948 18.7839 27.1948C19.2157 27.1913 19.2863 27.1207 19.2909 26.6889C19.299 26.0915 19.299 26.0915 18.7005 26.0915Z" fill="#28353D"/>
<path fill-rule="evenodd" clip-rule="evenodd" d="M15.4085 19.6329C14.6536 19.6561 14.0192 19.3736 13.482 18.8584C13.2123 18.6002 13.1822 18.2981 13.3894 18.0607C13.6059 17.8141 13.9162 17.8188 14.2149 18.0735C15.0033 18.7496 15.7836 18.7472 16.5836 18.0677C16.8707 17.8234 17.167 17.813 17.3859 18.041C17.6128 18.2761 17.5861 18.5967 17.3048 18.8642C16.7746 19.3689 16.1517 19.6503 15.4085 19.6329Z" fill="#2B353A"/>
<path fill-rule="evenodd" clip-rule="evenodd" d="M18.6996 26.0913C19.297 26.0913 19.297 26.0913 19.2912 26.6898C19.2866 27.1217 19.216 27.1911 18.7841 27.1958C18.6626 27.1969 18.5399 27.1992 18.4183 27.1911C18.2087 27.1772 18.1011 27.0534 18.0779 26.8508C18.0745 26.8184 18.0768 26.7836 18.0756 26.7512C18.0513 26.0913 18.0513 26.0913 18.6996 26.0913Z" fill="#BFD6ED"/>
</svg>
