<svg width="82" height="90" viewBox="0 0 82 90" fill="none" xmlns="http://www.w3.org/2000/svg">
<path fill-rule="evenodd" clip-rule="evenodd" d="M74.9144 89.9775C52.1898 89.9775 29.4622 89.9775 6.73764 89.9775C6.65255 89.6888 6.36994 89.7192 6.16937 89.6584C2.60175 88.5735 0.261835 85.5681 0.255758 81.8576C0.234486 66.554 0.243602 51.2503 0.24968 35.9466C0.24968 34.1051 1.50777 32.8804 3.34627 32.8682C4.95687 32.8561 6.56442 32.8561 8.17502 32.8713C8.5488 32.8743 8.72201 32.8287 8.7676 32.3699C8.96512 30.3794 9.93148 29.5346 11.9189 29.5316C15.1097 29.5285 18.2974 29.5285 21.4882 29.5316C22.8132 29.5316 23.0198 29.6866 23.4179 30.9386C23.1718 31.8654 22.567 32.2118 21.6189 32.1875C20.1147 32.1511 18.6105 32.1936 17.1062 32.2058C15.526 32.1936 13.9458 32.2331 12.3686 32.1541C11.5482 32.1146 11.3719 32.3729 11.3719 33.16C11.3962 46.0964 11.3901 59.0358 11.3901 71.9722C11.3901 72.1181 11.4053 72.267 11.3871 72.4098C11.3354 72.8262 11.4995 72.972 11.928 72.9629C13.6541 72.9325 15.3801 72.9295 17.1062 72.9173C18.3309 72.9295 19.5586 72.9386 20.7832 72.9538C21.8559 72.966 22.2176 73.2668 22.4576 74.3334C22.2844 75.2694 21.707 75.625 20.7772 75.6006C19.671 75.5703 18.5649 75.6158 17.4587 75.628C15.6172 75.6158 13.7726 75.6219 11.931 75.5824C11.3962 75.5703 11.3871 75.8498 11.3901 76.2358C11.3992 77.4939 11.3901 78.7519 11.3932 80.01C11.3962 81.2468 11.5178 81.3684 12.7394 81.3684C21.1388 81.3684 29.5382 81.3684 37.9376 81.3684C39.9068 81.3684 39.928 81.335 39.0437 79.5451C39.0194 79.4965 38.9647 79.4661 38.9252 79.4235C37.9224 77.351 36.2358 76.1294 34.0083 75.7526C31.7505 75.3697 29.4561 75.625 27.177 75.6098C26.2197 75.6037 25.6029 75.2937 25.3749 74.3426C25.5239 73.5889 25.8794 72.9812 26.7212 72.9751C29.0277 72.9568 31.3433 72.8961 33.6437 73.0328C35.9836 73.1696 37.9801 74.2271 39.77 75.9896C39.77 75.549 39.77 75.2694 39.77 74.9898C39.77 69.8177 39.7731 64.6456 39.767 59.4734C39.767 59.0328 39.7731 58.6013 39.9523 58.188C40.5085 57.6015 41.1497 57.4739 41.879 57.8294C42.2953 58.2488 42.4199 58.7502 42.4169 59.3397C42.4017 64.5483 42.4047 69.7569 42.4138 74.9655C42.4138 75.2603 42.3105 75.5855 42.5171 75.8893C44.6231 73.829 47.1149 72.9325 50.0079 72.9477C56.6205 72.9812 63.233 72.9447 69.8456 72.9781C70.6144 72.9812 70.8089 72.8049 70.8059 72.027C70.7694 66.1741 70.7846 60.3243 70.7876 54.4715C70.7876 53.2164 70.9882 52.949 72.0913 52.636C73.1731 52.9247 73.4284 53.2255 73.4314 54.359C73.4375 63.0259 73.4436 71.6896 73.4284 80.3534C73.4254 82.6538 72.0336 84.0092 69.7544 84.0092C50.637 84.0122 31.5226 84.0092 12.4051 84.0061C12.0556 84.0061 11.6971 83.994 11.3628 83.9119C9.66406 83.4986 8.7524 82.1828 8.7524 80.1529C8.74936 65.9553 8.7524 51.7578 8.7524 37.5572C8.7524 35.4148 8.7524 35.4148 6.56442 35.5364C5.68619 35.5272 4.80493 35.5698 3.93277 35.4908C3.06062 35.4118 2.87221 35.7552 2.87221 36.5756C2.89349 51.4509 2.88741 66.3261 2.89045 81.2013C2.89045 85.1335 5.09969 87.3458 9.03197 87.3458C30.3496 87.3458 51.6671 87.3458 72.9847 87.3458C76.9231 87.3458 79.1262 85.1396 79.1262 81.2013C79.1262 66.3564 79.1262 51.5086 79.1262 36.6638C79.1262 36.5179 79.1141 36.369 79.1293 36.2231C79.1809 35.7065 78.9895 35.4725 78.4364 35.4969C77.5005 35.5364 76.5645 35.5272 75.6285 35.5364C75.2213 35.5272 74.805 35.5607 74.4039 35.4969C73.5621 35.3601 73.4162 35.74 73.4253 36.4997C73.4618 40.2709 73.4436 44.0391 73.4405 47.8103C73.4405 49.0775 73.2461 49.3388 72.0943 49.7278C71.0368 49.3996 70.7967 49.0775 70.7937 47.8923C70.7876 42.9208 70.7785 37.9492 70.8059 32.9776C70.8089 32.3182 70.6357 32.1541 69.9793 32.1602C66.8493 32.1967 63.7192 32.1571 60.5923 32.1906C59.6411 32.1997 59.0121 31.8867 58.7659 30.9416C59.0911 29.7595 59.3767 29.5377 60.6105 29.5346C63.859 29.5316 67.1045 29.5316 70.3531 29.5346C72.222 29.5377 73.2734 30.4493 73.4132 32.2848C73.4527 32.8227 73.6533 32.8834 74.1 32.8743C75.5039 32.85 76.9079 32.8652 78.3118 32.8652C80.6274 32.8652 81.764 33.9957 81.764 36.2961C81.767 42.5865 81.764 48.8769 81.764 55.1643C81.764 63.9709 81.7701 72.7776 81.7609 81.5811C81.7579 85.5195 79.418 88.6434 75.7744 89.6979C75.4857 89.783 75.1089 89.628 74.9144 89.9775ZM43.2495 79.4235C42.9851 79.6758 42.9091 80.0313 42.7937 80.3504C42.429 81.3623 42.4381 81.3654 43.5352 81.3654C48.2727 81.3654 53.0103 81.3654 57.7479 81.3654C61.7258 81.3654 65.7036 81.3532 69.6784 81.3745C70.4685 81.3775 70.8271 81.0706 70.7815 80.2896C70.7663 80.0009 70.742 79.7122 70.7238 79.4235C70.742 78.3143 70.7451 77.2021 70.7876 76.096C70.8059 75.631 70.5719 75.5824 70.195 75.5855C63.1996 75.5946 56.2011 75.5368 49.2087 75.631C46.5467 75.6645 44.4802 76.9681 43.2495 79.4235Z" fill="#020203"/>
<path fill-rule="evenodd" clip-rule="evenodd" d="M43.1097 0.0117188C44.1125 0.239633 45.1244 0.434121 46.112 0.704579C58.3769 4.08075 63.8438 18.4485 56.9395 29.127C56.5931 29.6649 56.2679 30.2149 55.9336 30.7589C55.7969 30.8136 55.7513 30.926 55.7391 31.0597C53.4387 34.6121 51.1444 38.1706 48.8257 41.7109C48.4732 42.2488 48.2939 42.7806 48.3243 43.4248C48.3729 44.3881 48.2605 45.47 47.4431 45.9744C46.2366 46.7189 46.3643 47.7522 46.3734 48.8401C46.3764 49.0741 46.3521 49.308 46.3248 49.539C46.0665 51.6449 44.4619 53.1735 42.3469 53.2829C41.4991 53.3284 40.6482 53.3285 39.8034 53.2798C37.7339 53.1674 36.1081 51.6419 35.8772 49.5907C35.7951 48.8674 35.8255 48.132 35.8103 47.3996C35.8042 47.1079 35.8286 46.8375 35.5064 46.649C34.2271 45.9015 33.7925 44.7133 33.8594 43.3033C33.8867 42.7502 33.7378 42.2944 33.437 41.8294C31.1791 38.3469 28.9486 34.8522 26.6937 31.3666C26.5448 31.1387 26.4962 30.7984 26.1437 30.7406C26.0921 30.1815 25.6848 29.8077 25.4022 29.3792C24.2232 27.5863 23.348 25.6597 22.8162 23.578C22.5305 22.4597 22.7007 22.0556 23.6853 21.5055C24.8005 21.5724 25.0862 21.8064 25.3688 22.9065C25.7942 24.5596 26.4506 26.1125 27.3714 27.5498C30.1155 31.8255 32.8535 36.1103 35.6371 40.3616C36.2388 41.2794 36.6187 42.188 36.5032 43.2972C36.4637 43.6679 36.3938 44.1146 37.0593 44.4276C36.8466 41.246 36.6399 38.2041 36.4363 35.1622C36.3725 33.6762 36.2965 32.1902 36.2479 30.7011C36.2358 30.3122 36.0717 30.1936 35.7131 30.2149C34.9534 30.2635 34.1997 30.1906 33.4491 30.0569C30.8691 28.6864 30.1884 26.7719 31.331 24.0916C31.5012 23.8941 31.6653 23.6874 31.8446 23.499C32.9082 22.3777 34.2301 22.013 35.6918 22.3868C37.1292 22.7515 38.0773 23.727 38.4602 25.1674C38.6091 25.7265 38.6425 26.3252 38.6516 26.9086C38.6608 27.4283 38.8127 27.6349 39.3627 27.5954C40.0921 27.5438 40.8244 27.5833 41.5568 27.5833C43.2859 27.5833 43.2859 27.5833 43.4318 25.8906C43.608 23.8151 45.1973 22.2987 47.2364 22.2561C49.2178 22.2166 50.956 23.7118 51.1839 25.6536C51.4361 27.7777 50.1932 29.6102 48.1997 30.0994C47.5889 30.2483 46.9781 30.2362 46.3673 30.2119C45.9084 30.1936 45.7535 30.3577 45.7535 30.8105C45.7535 31.4548 45.6927 32.096 45.6562 32.7402C45.4435 36.4506 45.2277 40.1641 45.0241 43.8746C45.015 44.0599 44.8266 44.4064 45.2125 44.4185C45.4556 44.4276 45.6167 44.1815 45.6471 43.9323C45.6836 43.6132 45.714 43.2881 45.6836 42.972C45.6015 42.112 45.878 41.4009 46.3491 40.6807C49.1084 36.4415 51.8129 32.1689 54.5661 27.9236C57.0033 24.1615 57.8268 20.0986 57.0003 15.6922C55.6692 8.59953 49.0992 2.88952 42.0521 2.71326C33.8776 1.97482 25.8885 8.54179 25.0102 16.7224C24.8613 18.1051 24.6364 18.3725 23.4634 18.5487C22.5214 18.3087 22.2722 17.6887 22.3451 16.7649C22.9347 9.25896 29.0428 2.32733 36.649 0.534402C37.3966 0.358149 38.1928 0.388537 38.8948 0.0177966C40.2987 0.0117189 41.7057 0.0117188 43.1097 0.0117188ZM39.5542 41.2976C39.5663 41.8142 39.5785 42.3308 39.5937 42.8444C39.6514 44.5249 39.6514 44.5249 41.3562 44.4368C41.7543 44.3942 42.3256 44.768 42.3712 43.9384C42.6113 39.5655 42.8605 35.1895 43.1279 30.8166C43.1613 30.2848 42.9638 30.1876 42.4958 30.2028C41.5051 30.2331 40.5084 30.2483 39.5177 30.1967C38.9343 30.1663 38.8431 30.3912 38.8826 30.8987C38.9768 32.0929 39.0133 33.2902 39.0892 34.4845C39.2381 36.7576 39.3962 39.0276 39.5542 41.2976ZM41.0979 50.633C41.0979 50.6269 41.0979 50.6239 41.0979 50.6178C41.5051 50.6178 41.9184 50.6482 42.3226 50.6117C43.0428 50.5449 43.4956 50.1285 43.6597 49.4266C43.8086 48.7945 43.7265 48.1472 43.7265 47.506C43.7265 47.1231 43.4804 47.114 43.1947 47.117C42.201 47.1231 41.2073 47.1201 40.2167 47.1201C38.2566 47.1201 38.2566 47.1201 38.4754 49.0801C38.5878 50.083 39.1318 50.5965 40.1316 50.636C40.4537 50.6421 40.7758 50.633 41.0979 50.633ZM46.0118 26.699C45.9327 27.5833 45.9328 27.5863 46.8566 27.5741C47.1149 27.5711 47.3853 27.5711 47.6315 27.5042C48.3213 27.3128 48.6951 26.6625 48.5401 25.9332C48.4003 25.2859 47.987 24.906 47.3154 24.9121C46.5588 24.9182 46.1394 25.3345 46.0665 26.0912C46.0452 26.2917 46.033 26.4953 46.0118 26.699ZM35.2572 27.5772C36.0018 27.7686 36.1355 27.3553 35.9927 26.6686C35.938 26.4133 35.9623 26.1428 35.9076 25.8876C35.7617 25.2281 35.3211 24.8908 34.6556 24.9091C33.984 24.9273 33.5737 25.3102 33.4582 25.9605C33.2759 26.9755 33.9262 27.5711 35.2572 27.5772Z" fill="#040403"/>
<path fill-rule="evenodd" clip-rule="evenodd" d="M55.739 31.0631C55.7512 30.9293 55.7967 30.8139 55.9335 30.7622C56.8755 30.8199 57.8176 30.8807 58.7596 30.9385C59.0058 31.8835 59.6348 32.1965 60.586 32.1874C63.716 32.154 66.846 32.1965 69.973 32.157C70.6294 32.1479 70.8026 32.3151 70.7996 32.9745C70.7722 37.9461 70.7814 42.9176 70.7874 47.8892C70.7874 49.0744 71.0305 49.3965 72.0881 49.7247C72.0881 50.6941 72.0911 51.6604 72.0911 52.6298C70.988 52.9459 70.7905 53.2133 70.7874 54.4653C70.7844 60.3181 70.7692 66.1679 70.8057 72.0208C70.8117 72.7987 70.6142 72.978 69.8454 72.9719C63.2328 72.9385 56.6203 72.975 50.0077 72.9415C47.1178 72.9263 44.6229 73.8228 42.5169 75.8831C42.3103 75.5793 42.4136 75.2541 42.4136 74.9593C42.4045 69.7507 42.4015 64.5421 42.4167 59.3335C42.4197 58.744 42.2951 58.2426 41.8788 57.8232C41.8788 57.0909 41.8788 56.3585 41.8788 55.6261C41.8788 54.2252 41.9001 54.2283 43.2615 53.9153C43.7386 53.8059 44.2096 53.5992 44.632 53.347C46.4006 52.2834 47.1299 50.6211 47.133 48.6337C47.133 47.7859 47.3062 47.1082 47.9656 46.5308C48.5005 46.0598 48.8135 45.4156 48.9077 44.6984C49.0748 43.3978 49.3209 42.1731 50.108 41.0275C52.0559 38.1983 53.8701 35.2749 55.736 32.391C56.0247 31.9443 56.1736 31.5067 55.739 31.0631ZM57.3496 66.6693C59.7169 66.6693 62.0841 66.6633 64.4514 66.6724C65.0835 66.6754 65.6183 66.5174 65.8949 65.9005C66.3294 64.9402 65.6366 64.0346 64.421 64.0316C59.7442 64.0164 55.0705 64.0225 50.3937 64.0286C49.3635 64.0316 48.7618 64.5239 48.7405 65.3262C48.7193 66.1588 49.3361 66.6602 50.421 66.6633C52.7336 66.6724 55.0401 66.6693 57.3496 66.6693ZM57.3314 60.2604C59.6682 60.2604 62.0082 60.2634 64.345 60.2573C65.433 60.2543 66.0164 59.759 65.9951 58.8899C65.9739 58.0481 65.436 57.6227 64.3542 57.6227C59.7078 57.6196 55.0583 57.6196 50.4119 57.6227C49.3726 57.6227 48.7739 58.0846 48.7436 58.8838C48.7132 59.7195 49.3453 60.2543 50.4028 60.2573C52.7153 60.2634 55.0218 60.2604 57.3314 60.2604ZM57.4317 53.8119C59.7412 53.8119 62.0507 53.818 64.3572 53.8089C65.436 53.8059 65.9739 53.3774 65.9951 52.5356C66.0164 51.6665 65.433 51.1681 64.342 51.1681C59.6956 51.162 55.0461 51.162 50.3997 51.1681C49.3756 51.1681 48.7679 51.6604 48.7405 52.4627C48.7132 53.2862 49.3483 53.8089 50.4149 53.8119C52.7549 53.818 55.0917 53.8119 57.4317 53.8119ZM60.5039 47.1021C62.5764 47.1021 64.652 47.1052 66.7245 47.1021C67.7972 47.0991 68.4202 46.5946 68.4019 45.762C68.3837 44.9597 67.779 44.4705 66.7579 44.4705C62.6403 44.4674 58.5196 44.4674 54.4019 44.4705C53.3748 44.4705 52.7852 44.9567 52.7731 45.7742C52.764 46.6007 53.3505 47.1021 54.3685 47.1052C56.4136 47.1082 58.4588 47.1021 60.5039 47.1021Z" fill="#BFD6ED"/>
<path fill-rule="evenodd" clip-rule="evenodd" d="M23.4178 30.9384C24.0773 30.987 24.7215 30.8958 25.3627 30.7651C25.3262 31.2453 25.4326 31.6677 25.7061 32.087C27.8485 35.3842 29.9726 38.6935 32.0998 41.9998C32.4037 42.4738 32.5557 42.9753 32.583 43.5587C32.6468 44.8654 33.0145 46.0992 34.0022 47.0291C34.4398 47.4424 34.4975 47.8952 34.5066 48.4422C34.5613 51.4324 36.0078 53.7693 39.0649 54.4409C39.6879 54.5776 39.773 54.8815 39.779 55.4103C39.7912 56.3371 39.6392 57.2792 39.9492 58.1908C39.773 58.6041 39.7638 59.0356 39.7638 59.4763C39.7699 64.6484 39.7669 69.8205 39.7669 74.9926C39.7669 75.2722 39.7669 75.5518 39.7669 75.9924C37.977 74.2299 35.9805 73.1724 33.6405 73.0356C31.3401 72.9019 29.0276 72.9597 26.718 72.9779C25.8763 72.984 25.5207 73.5948 25.3718 74.3454C24.3994 74.3423 23.4239 74.3423 22.4515 74.3393C22.2114 73.2757 21.8498 72.9748 20.7771 72.9597C19.5524 72.9445 18.3247 72.9353 17.1 72.9232C17.1456 70.8446 16.9603 68.76 17.2763 66.6905C21.9865 66.6844 26.6968 66.6814 31.407 66.6753C31.6987 66.6753 31.9935 66.6875 32.2822 66.6479C32.9933 66.5537 33.3853 66.0979 33.4157 65.4111C33.4461 64.7608 33.1057 64.2837 32.4554 64.1227C32.1211 64.0406 31.7625 64.0376 31.4131 64.0345C26.7028 64.0224 21.9926 64.0163 17.2824 64.0102C16.9238 62.7704 17.1092 61.5305 17.2733 60.2907C22.0443 60.2815 26.8122 60.2755 31.5832 60.2664C31.9023 60.2664 32.2244 60.3028 32.5374 60.1752C33.1574 59.926 33.4825 59.4611 33.4126 58.8107C33.3427 58.1695 32.9568 57.7411 32.2883 57.6499C31.9996 57.6104 31.7048 57.6286 31.4131 57.6286C26.7028 57.6225 21.9896 57.6165 17.2793 57.6134C17.0362 56.3523 17.0332 55.0912 17.2793 53.8301C20.8773 53.827 24.4784 53.824 28.0764 53.8179C29.4226 53.8179 30.7688 53.8331 32.115 53.8027C32.8778 53.7845 33.4065 53.2375 33.4309 52.5477C33.4552 51.8639 32.9446 51.2865 32.2001 51.1862C31.9418 51.1528 31.6744 51.1711 31.41 51.1711C26.6998 51.165 21.9865 51.1589 17.2763 51.1528C17.0241 49.8218 17.1092 48.4786 17.1 47.1385C17.4222 47.1294 17.7412 47.1111 18.0634 47.1111C21.3332 47.1081 24.606 47.1172 27.8758 47.1051C29.064 47.102 29.7386 46.1509 29.2524 45.2058C28.9425 44.6071 28.4167 44.4643 27.7877 44.4643C24.2262 44.4643 20.6616 44.4491 17.1 44.44C17.1 40.3618 17.1 36.2837 17.1 32.2056C18.6043 32.1964 20.1085 32.1509 21.6127 32.1873C22.5669 32.2116 23.1747 31.8652 23.4178 30.9384Z" fill="#BFD6ED"/>
<path fill-rule="evenodd" clip-rule="evenodd" d="M75.6192 35.5303C76.5552 35.5211 77.4942 35.5303 78.4271 35.4908C78.9802 35.4664 79.1716 35.7004 79.12 36.217C79.1048 36.3629 79.1169 36.5088 79.1169 36.6577C79.1169 51.5025 79.1169 66.3503 79.1169 81.1952C79.1169 85.1335 76.9138 87.3397 72.9754 87.3397C51.6578 87.3397 30.3403 87.3397 9.02268 87.3397C5.09344 87.3397 2.88115 85.1274 2.88115 81.1952C2.88115 66.3199 2.88723 51.4447 2.86292 36.5695C2.86292 35.7491 3.04829 35.4057 3.92348 35.4847C4.79563 35.5637 5.6769 35.5211 6.55512 35.5303C6.55512 50.5787 6.55513 65.6301 6.56424 80.6786C6.56424 82.1068 7.11428 83.3163 8.06848 84.3981C9.46939 85.9874 11.3201 86.27 13.2406 86.27C30.8386 86.2883 48.4336 86.2852 66.0316 86.2731C67.5176 86.2731 69.0036 86.2305 70.4927 86.1576C73.2216 86.0209 75.6344 83.3284 75.6283 80.5904C75.601 65.5724 75.6192 50.5513 75.6192 35.5303Z" fill="#6498CA"/>
<path fill-rule="evenodd" clip-rule="evenodd" d="M75.6193 35.5303C75.6193 50.5513 75.6011 65.5693 75.6314 80.5904C75.6375 83.3284 73.2277 86.0209 70.4958 86.1576C69.0067 86.2305 67.5207 86.2731 66.0347 86.2731C48.4367 86.2852 30.8417 86.2883 13.2437 86.27C11.3232 86.267 9.47249 85.9874 8.07158 84.3981C7.11738 83.3163 6.56734 82.1098 6.56734 80.6785C6.55823 65.6301 6.56127 50.5787 6.55823 35.5303C8.7462 35.4117 8.74621 35.4117 8.74621 37.5511C8.74621 51.7486 8.74621 65.9462 8.74621 80.1467C8.74621 82.1767 9.65786 83.4925 11.3566 83.9058C11.6909 83.9879 12.0525 84 12.3989 84C31.5164 84.0031 50.6308 84.0031 69.7482 84.0031C72.0304 84.0031 73.4191 82.6477 73.4222 80.3473C73.4374 71.6835 73.4313 63.0167 73.4252 54.3529C73.4252 53.2194 73.17 52.9186 72.0851 52.6299C72.0851 51.6605 72.082 50.6941 72.082 49.7247C73.2338 49.3388 73.4252 49.0744 73.4252 47.8072C73.4283 44.036 73.4465 40.2648 73.41 36.4966C73.404 35.7369 73.5468 35.357 74.3885 35.4938C74.7958 35.5576 75.2121 35.5211 75.6193 35.5303Z" fill="#6498CA"/>
<path fill-rule="evenodd" clip-rule="evenodd" d="M17.2823 60.2847C17.1182 61.5245 16.9328 62.7644 17.2914 64.0042C16.6624 64.2595 16.1579 64.612 16.1853 65.3899C16.2096 66.1162 16.6411 66.487 17.2853 66.6814C16.9693 68.7509 17.1547 70.8386 17.1091 72.9141C15.383 72.9263 13.6569 72.9293 11.9309 72.9597C11.5024 72.9688 11.3413 72.823 11.39 72.4067C11.4082 72.2638 11.393 72.1149 11.393 71.9691C11.393 59.0326 11.3991 46.0932 11.3748 33.1568C11.3748 32.3667 11.551 32.1084 12.3715 32.1509C13.9487 32.2299 15.5289 32.1935 17.1091 32.2026C17.1091 36.2807 17.1091 40.3589 17.1091 44.437C16.4679 44.4461 15.8236 44.4431 15.1824 44.4704C14.3255 44.5069 13.7542 45.0721 13.7815 45.8288C13.8058 46.5551 14.362 47.0656 15.1824 47.096C15.8236 47.1203 16.4679 47.1203 17.1091 47.1294C17.1152 48.4696 17.0301 49.8128 17.2853 51.1438C16.6654 51.4082 16.1579 51.7576 16.1883 52.5356C16.2157 53.2558 16.6472 53.6265 17.2853 53.821C17.0392 55.0821 17.0422 56.3433 17.2853 57.6044C16.6472 57.8019 16.2157 58.1696 16.1883 58.8898C16.1549 59.6708 16.6593 60.0233 17.2823 60.2847Z" fill="#BFD6ED"/>
<path fill-rule="evenodd" clip-rule="evenodd" d="M43.2495 79.4232C44.4802 76.9678 46.5467 75.6641 49.2118 75.6307C56.2072 75.5395 63.2026 75.5973 70.1981 75.5851C70.5749 75.5851 70.8059 75.6337 70.7907 76.0957C70.7512 77.2048 70.7451 78.314 70.7269 79.4232C61.5677 79.4262 52.4086 79.4232 43.2495 79.4232Z" fill="#BFD6ED"/>
<path fill-rule="evenodd" clip-rule="evenodd" d="M38.9281 79.4235C38.9676 79.463 39.0223 79.4965 39.0466 79.5451C39.9309 81.338 39.9096 81.3684 37.9405 81.3684C29.5411 81.3684 21.1417 81.3684 12.7423 81.3684C11.5206 81.3684 11.3991 81.2468 11.396 80.01C11.393 78.7519 11.4021 77.4939 11.393 76.2358C11.39 75.8498 11.3991 75.5703 11.9339 75.5824C13.7755 75.6219 15.6201 75.6158 17.4616 75.628C17.1425 77.6579 19.2515 79.4448 21.1386 79.4418C27.0674 79.4235 32.9962 79.4266 38.9281 79.4235Z" fill="#BFD6ED"/>
<path fill-rule="evenodd" clip-rule="evenodd" d="M38.928 79.4232C32.9962 79.4262 27.0674 79.4232 21.1355 79.4384C19.2484 79.4445 17.1394 77.6546 17.4585 75.6246C18.5647 75.6125 19.6738 75.5699 20.7769 75.5973C21.7068 75.6216 22.2842 75.266 22.4574 74.3301C23.4299 74.3331 24.4053 74.3331 25.3778 74.3362C25.6057 75.2904 26.2226 75.5973 27.1798 75.6034C29.459 75.6186 31.7533 75.3633 34.0112 75.7462C36.2386 76.126 37.9222 77.3477 38.928 79.4232Z" fill="#BFD6ED"/>
<path fill-rule="evenodd" clip-rule="evenodd" d="M39.9522 58.1844C39.6422 57.2727 39.7942 56.3307 39.782 55.4038C39.776 54.875 39.6878 54.5712 39.0679 54.4344C36.0138 53.7628 34.5674 51.429 34.5096 48.4357C34.5005 47.8918 34.4428 47.4359 34.0052 47.0226C33.0175 46.0928 32.6498 44.862 32.586 43.5523C32.5587 42.9688 32.4067 42.4674 32.1028 41.9933C29.9756 38.6871 27.8515 35.3777 25.7091 32.0806C25.4356 31.6612 25.3292 31.2388 25.3657 30.7587C25.624 30.7496 25.8823 30.7435 26.1406 30.7344C26.4931 30.7921 26.5417 31.1325 26.6906 31.3604C28.9424 34.8459 31.176 38.3406 33.4339 41.8232C33.7347 42.2851 33.8836 42.7439 33.8563 43.297C33.7894 44.707 34.224 45.8952 35.5033 46.6428C35.8254 46.8312 35.8011 47.1017 35.8072 47.3934C35.8224 48.1257 35.792 48.8612 35.8741 49.5844C36.105 51.6356 37.7338 53.1611 39.8003 53.2736C40.6451 53.3192 41.499 53.3192 42.3438 53.2766C44.4588 53.1672 46.0664 51.6387 46.3216 49.5327C46.349 49.3018 46.3733 49.0648 46.3703 48.8338C46.3581 47.7459 46.2335 46.7127 47.4399 45.9682C48.2574 45.4637 48.3698 44.3819 48.3212 43.4186C48.2908 42.7743 48.4701 42.2456 48.8226 41.7046C51.1443 38.1644 53.4356 34.6059 55.736 31.0535C56.1706 31.4971 56.0217 31.9347 55.733 32.3814C53.8641 35.2653 52.0529 38.1887 50.105 41.0179C49.3149 42.1635 49.0718 43.3882 48.9047 44.6888C48.8135 45.406 48.5005 46.0502 47.9626 46.5212C47.3032 47.0986 47.13 47.7763 47.13 48.6241C47.1269 50.6115 46.4007 52.2738 44.629 53.3374C44.2096 53.5896 43.7356 53.7963 43.2585 53.9057C41.8971 54.2217 41.8758 54.2156 41.8758 55.6165C41.8758 56.3489 41.8758 57.0813 41.8758 57.8136C41.1495 57.4702 40.5083 57.5979 39.9522 58.1844Z" fill="#BFD6ED"/>
<path fill-rule="evenodd" clip-rule="evenodd" d="M43.2494 79.4229C52.4085 79.4229 61.5676 79.4259 70.7268 79.4259C70.745 79.7146 70.7693 80.0033 70.7845 80.292C70.8301 81.0729 70.4715 81.3799 69.6814 81.3768C65.7035 81.3556 61.7257 81.3677 57.7508 81.3677C53.0133 81.3677 48.2757 81.3677 43.5381 81.3677C42.4411 81.3677 42.4289 81.3647 42.7966 80.3527C42.9091 80.0276 42.985 79.6751 43.2494 79.4229Z" fill="#BFD6ED"/>
<path fill-rule="evenodd" clip-rule="evenodd" d="M36.4332 35.1563C36.6368 38.1982 36.8435 41.2431 37.0562 44.4217C36.3907 44.1087 36.4606 43.662 36.5001 43.2913C36.6186 42.1821 36.2357 41.2735 35.634 40.3557C32.8504 36.1044 30.1124 31.8226 27.3683 27.5439C26.4475 26.1096 25.7911 24.5537 25.3657 22.9005C25.0831 21.8005 24.7974 21.5665 23.6822 21.4996C23.6092 20.512 23.5333 19.5244 23.4603 18.5368C24.6364 18.3605 24.8612 18.0931 25.0071 16.7104C25.8853 8.5298 33.8745 1.96283 42.049 2.70127C41.9639 2.78028 41.894 2.88968 41.7938 2.93526C38.6212 4.34529 36.0685 6.50592 34.1328 9.36852C31.571 13.1549 30.5409 17.3729 30.8447 21.9038C30.8934 22.621 30.8235 23.4354 31.331 24.0827C30.1884 26.7629 30.866 28.6774 33.449 30.0479C34.0568 31.1419 34.6129 32.2693 35.2936 33.3208C35.6826 33.9316 35.8194 34.6943 36.4332 35.1563Z" fill="#69CFB2"/>
<path fill-rule="evenodd" clip-rule="evenodd" d="M15.1278 20.8552C14.5474 20.7914 14.1341 20.5696 13.9001 20.0681C13.6631 19.5607 13.7147 19.0562 14.1037 18.6946C15.1278 17.7404 16.1701 16.8044 17.255 15.9231C17.802 15.4764 18.428 15.601 18.9112 16.1055C19.37 16.5795 19.4764 17.2177 19.0509 17.6978C18.0481 18.8344 16.8599 19.7855 15.6596 20.7093C15.5137 20.8187 15.2767 20.8157 15.1278 20.8552Z" fill="#070707"/>
<path fill-rule="evenodd" clip-rule="evenodd" d="M15.1491 4.88639C15.4894 4.86208 15.8085 5.05049 16.1002 5.30879C16.9754 6.08066 17.8628 6.83733 18.7258 7.62136C19.37 8.20786 19.4551 8.99796 18.975 9.56015C18.4736 10.1497 17.7078 10.2044 17.0332 9.63916C16.0729 8.83386 15.1339 8.00122 14.2101 7.15641C13.7968 6.77656 13.6357 6.28122 13.8667 5.72511C14.0916 5.19027 14.4866 4.89247 15.1491 4.88639Z" fill="#070707"/>
<path fill-rule="evenodd" clip-rule="evenodd" d="M68.4082 19.5273C68.3899 20.0348 68.162 20.4329 67.7244 20.673C67.2564 20.9313 66.7429 20.9404 66.3266 20.5879C65.2782 19.7036 64.2237 18.8223 63.2421 17.8681C62.7225 17.3606 62.7468 16.686 63.2391 16.1299C63.701 15.6072 64.3452 15.4613 64.8892 15.8989C66.0014 16.7923 67.0498 17.7678 68.1073 18.7281C68.3231 18.9226 68.4173 19.2174 68.4082 19.5273Z" fill="#070707"/>
<path fill-rule="evenodd" clip-rule="evenodd" d="M64.2692 10.0373C63.6614 10.0099 63.2451 9.75771 63.0232 9.2715C62.8075 8.79136 62.8075 8.25348 63.2086 7.88274C64.2327 6.92854 65.272 5.98953 66.3629 5.11738C66.8947 4.69194 67.5299 4.78007 68.0252 5.28452C68.4901 5.75858 68.6178 6.3937 68.1832 6.8708C67.1439 8.01037 65.9709 9.01927 64.7098 9.91574C64.5761 10.0099 64.3786 10.0069 64.2692 10.0373Z" fill="#070707"/>
<path fill-rule="evenodd" clip-rule="evenodd" d="M31.3311 24.0855C30.8236 23.4382 30.8935 22.6238 30.8448 21.9066C30.541 17.3757 31.5711 13.1578 34.1329 9.37135C36.0717 6.50571 38.6213 4.34508 41.7938 2.93809C41.8941 2.89251 41.964 2.78311 42.0491 2.7041C49.0962 2.88036 55.6662 8.59037 56.9972 15.6831C57.8238 20.0894 57.0003 24.1523 54.5631 27.9145C51.8129 32.1597 49.1053 36.4324 46.346 40.6716C45.8781 41.3918 45.5985 42.1059 45.6805 42.9629C45.7109 43.2789 45.6805 43.6071 45.6441 43.9231C45.6137 44.1693 45.4526 44.4154 45.2095 44.4094C44.8205 44.3972 45.0089 44.0508 45.0211 43.8654C45.2217 40.155 45.4405 36.4415 45.6532 32.731C45.6897 32.0868 45.7504 31.4456 45.7504 30.8014C45.7504 30.3486 45.9024 30.1845 46.3643 30.2027C46.9751 30.227 47.5889 30.2392 48.1967 30.0903C50.1902 29.601 51.4331 27.7686 51.1809 25.6444C50.953 23.7026 49.2147 22.2075 47.2334 22.247C45.1974 22.2895 43.608 23.8059 43.4287 25.8815C43.2829 27.5741 43.2829 27.5741 41.5538 27.5741C40.8214 27.5741 40.086 27.5346 39.3597 27.5863C38.8066 27.6258 38.6547 27.4191 38.6486 26.8995C38.6395 26.316 38.6061 25.7174 38.4572 25.1582C38.0773 23.7148 37.1292 22.7423 35.6888 22.3777C34.2271 22.0069 32.9052 22.3685 31.8416 23.4899C31.6653 23.6813 31.5012 23.888 31.3311 24.0855Z" fill="#69CFB2"/>
<path fill-rule="evenodd" clip-rule="evenodd" d="M39.5542 41.2979C39.3992 39.0279 39.2382 36.7579 39.0893 34.4878C39.0103 33.2936 38.9768 32.0963 38.8826 30.902C38.8431 30.3915 38.9313 30.1666 39.5178 30.2C40.5084 30.2517 41.5052 30.2365 42.4958 30.2061C42.9669 30.1909 43.1613 30.2881 43.1279 30.8199C42.8575 35.1929 42.6113 39.5658 42.3712 43.9417C42.3257 44.7713 41.7544 44.3975 41.3563 44.4401C40.7971 43.3674 40.3018 42.2612 39.5542 41.2979Z" fill="#69CFB2"/>
<path fill-rule="evenodd" clip-rule="evenodd" d="M41.0979 50.6332C40.7758 50.6332 40.4537 50.6423 40.1346 50.6302C39.1348 50.5937 38.5909 50.0771 38.4784 49.0743C38.2596 47.1142 38.2596 47.1142 40.2197 47.1142C41.2134 47.1142 42.2071 47.1173 43.1978 47.1112C43.4804 47.1081 43.7296 47.1173 43.7296 47.5002C43.7296 48.1414 43.8086 48.7886 43.6627 49.4207C43.4986 50.1227 43.0458 50.539 42.3256 50.6059C41.9215 50.6423 41.5082 50.6119 41.101 50.6119C41.0979 50.6241 41.0979 50.6271 41.0979 50.6332Z" fill="#6498CA"/>
<path fill-rule="evenodd" clip-rule="evenodd" d="M36.4332 35.1561C35.8194 34.6941 35.6796 33.9284 35.2906 33.3236C34.613 32.2752 34.0569 31.1478 33.446 30.0508C34.1936 30.1845 34.9503 30.2574 35.71 30.2088C36.0686 30.1875 36.2327 30.306 36.2448 30.695C36.2935 32.1841 36.3694 33.6701 36.4332 35.1561Z" fill="#69CFB2"/>
<path fill-rule="evenodd" clip-rule="evenodd" d="M46.0117 26.699C46.0299 26.4954 46.0451 26.2918 46.0664 26.0913C46.1424 25.3376 46.5617 24.9213 47.3154 24.9122C47.9869 24.9061 48.4002 25.286 48.54 25.9332C48.695 26.6595 48.3182 27.3098 47.6314 27.5043C47.3853 27.5742 47.1148 27.5712 46.8565 27.5742C45.9327 27.5864 45.9327 27.5803 46.0117 26.699Z" fill="#69CFB2"/>
<path fill-rule="evenodd" clip-rule="evenodd" d="M35.2571 27.5774C33.923 27.5744 33.2758 26.9757 33.4581 25.9638C33.5766 25.3104 33.9869 24.9306 34.6554 24.9123C35.3209 24.8941 35.7616 25.2284 35.9074 25.8908C35.9652 26.1431 35.9409 26.4166 35.9925 26.6718C36.1353 27.3525 36.0016 27.7689 35.2571 27.5774Z" fill="#69CFB2"/>
<path fill-rule="evenodd" clip-rule="evenodd" d="M39.5541 41.2979C40.3016 42.2612 40.8 43.3673 41.3561 44.437C39.6544 44.5251 39.6513 44.5251 39.5936 42.8446C39.5754 42.3311 39.5662 41.8145 39.5541 41.2979Z" fill="#69CFB2"/>
<path fill-rule="evenodd" clip-rule="evenodd" d="M57.3496 66.6693C55.0401 66.6693 52.7336 66.6723 50.4241 66.6662C49.3392 66.6632 48.7223 66.1587 48.7436 65.3291C48.7648 64.5269 49.3665 64.0346 50.3967 64.0315C55.0735 64.0224 59.7503 64.0194 64.4241 64.0346C65.6366 64.0376 66.3294 64.9432 65.8979 65.9035C65.6183 66.5173 65.0865 66.6784 64.4545 66.6753C62.0842 66.6632 59.7169 66.6693 57.3496 66.6693Z" fill="#070707"/>
<path fill-rule="evenodd" clip-rule="evenodd" d="M57.3314 60.2601C55.0219 60.2601 52.7123 60.2632 50.4058 60.2571C49.3453 60.254 48.7132 59.7192 48.7466 58.8835C48.777 58.0873 49.3757 57.6254 50.415 57.6224C55.0614 57.6194 59.7108 57.6194 64.3572 57.6224C65.4391 57.6224 65.9769 58.0478 65.9982 58.8896C66.0225 59.7587 65.436 60.254 64.3481 60.2571C62.0082 60.2632 59.6713 60.2601 57.3314 60.2601Z" fill="#040404"/>
<path fill-rule="evenodd" clip-rule="evenodd" d="M57.4317 53.8116C55.0918 53.8116 52.7549 53.8176 50.418 53.8085C49.3514 53.8055 48.7193 53.2828 48.7436 52.4593C48.7679 51.657 49.3757 51.1647 50.4028 51.1647C55.0492 51.1586 59.6956 51.1586 64.3451 51.1647C65.433 51.1647 66.0195 51.6661 65.9982 52.5322C65.977 53.374 65.4391 53.8024 64.3603 53.8055C62.0508 53.8176 59.7412 53.8116 57.4317 53.8116Z" fill="#040404"/>
<path fill-rule="evenodd" clip-rule="evenodd" d="M60.504 47.1019C58.4589 47.1019 56.4137 47.105 54.3686 47.0989C53.3536 47.0958 52.7641 46.5944 52.7732 45.7679C52.7823 44.9504 53.3749 44.4672 54.402 44.4642C58.5197 44.4612 62.6403 44.4612 66.758 44.4642C67.779 44.4642 68.3868 44.9534 68.402 45.7557C68.4202 46.5914 67.7942 47.0958 66.7246 47.0958C64.6521 47.105 62.5765 47.1019 60.504 47.1019Z" fill="#020203"/>
<path fill-rule="evenodd" clip-rule="evenodd" d="M17.2823 66.6841C16.6381 66.4896 16.2066 66.1188 16.1822 65.3926C16.1579 64.6116 16.6593 64.2591 17.2884 64.0068C21.9986 64.0129 26.7088 64.019 31.4191 64.0311C31.7685 64.0311 32.1271 64.0372 32.4614 64.1193C33.1148 64.2803 33.4521 64.7574 33.4217 65.4077C33.3883 66.0945 32.9993 66.5473 32.2882 66.6446C31.9995 66.6841 31.7047 66.6719 31.413 66.6719C26.7028 66.675 21.9925 66.678 17.2823 66.6841Z" fill="#070707"/>
<path fill-rule="evenodd" clip-rule="evenodd" d="M17.2823 53.8237C16.6411 53.6292 16.2126 53.2585 16.1853 52.5383C16.1549 51.7603 16.6624 51.4109 17.2823 51.1465C21.9925 51.1526 26.7058 51.1586 31.416 51.1647C31.6804 51.1647 31.9448 51.1465 32.2061 51.1799C32.9506 51.2802 33.4581 51.8545 33.4368 52.5413C33.4125 53.2311 32.8838 53.7781 32.121 53.7964C30.7748 53.8268 29.4286 53.8116 28.0824 53.8116C24.4813 53.8176 20.8803 53.8207 17.2823 53.8237Z" fill="#040404"/>
<path fill-rule="evenodd" clip-rule="evenodd" d="M17.2823 60.2847C16.6593 60.0233 16.1549 59.6708 16.1853 58.8929C16.2126 58.1726 16.6441 57.8049 17.2823 57.6074C21.9925 57.6135 26.7058 57.6165 31.416 57.6226C31.7077 57.6226 32.0056 57.6044 32.2912 57.6439C32.9598 57.7351 33.3457 58.1605 33.4156 58.8047C33.4855 59.455 33.1603 59.92 32.5404 60.1692C32.2274 60.2968 31.9053 60.2603 31.5862 60.2603C26.8213 60.2695 22.0503 60.2786 17.2823 60.2847Z" fill="#040404"/>
<path fill-rule="evenodd" clip-rule="evenodd" d="M17.1061 47.1329C16.4649 47.1237 15.8206 47.1237 15.1794 47.0994C14.359 47.069 13.8059 46.5585 13.7785 45.8322C13.7512 45.0756 14.3225 44.5103 15.1794 44.4739C15.8206 44.4465 16.4649 44.4495 17.1061 44.4404C20.6676 44.4495 24.2322 44.4647 27.7937 44.4647C28.4228 44.4647 28.9515 44.6045 29.2585 45.2062C29.7447 46.1483 29.067 47.0994 27.8819 47.1055C24.6121 47.1177 21.3392 47.1085 18.0694 47.1116C17.7473 47.1055 17.4282 47.1237 17.1061 47.1329Z" fill="#020203"/>
</svg>
