<svg width="42" height="53" viewBox="0 0 42 53" fill="none" xmlns="http://www.w3.org/2000/svg">
<path d="M37.5228 25.8033C37.1015 24.9282 36.4394 24.1504 36.2218 23.2059C36.0181 22.3215 36.2311 21.4048 36.407 20.5112C36.7913 18.5713 36.995 16.4878 36.2033 14.6775C35.3469 12.719 33.458 11.381 32.4672 9.48731C31.3886 7.41772 31.4672 4.82958 30.1154 2.92667C28.7774 1.04228 26.3469 0.269079 24.0506 0.0236919C23.6201 -0.0226076 23.1571 0.000541661 22.7034 0.0792509C21.4488 0.301489 20.1571 0.301489 18.9025 0.0792509C18.4488 0.000541661 17.9859 -0.0226076 17.5553 0.0236919C15.259 0.269079 12.8285 1.04228 11.4905 2.92667C10.1387 4.83421 10.2174 7.41772 9.13869 9.48731C8.15259 11.3856 6.26371 12.719 5.4026 14.6775C4.61094 16.4878 4.81464 18.5713 5.1989 20.5112C5.37482 21.4002 5.58779 22.3215 5.38409 23.2059C5.16649 24.155 4.50446 24.9282 4.08317 25.8033C3.14336 27.7617 3.4628 30.373 4.9952 31.9055C8.91647 35.8271 20.8007 33.1186 20.8007 33.1186C20.8007 33.1186 32.6802 35.8271 36.6061 31.9055C38.1431 30.3684 38.4626 27.7617 37.5228 25.8033Z" fill="#051733"/>
<path d="M41.6108 44.393C40.4905 45.4764 39.2868 46.4673 38.009 47.3608C37.2775 47.8794 36.5183 48.3609 35.7405 48.81C31.4072 51.3009 26.3887 52.7408 21.0369 52.7779C20.9582 52.7825 20.8841 52.7825 20.8054 52.7825C20.7267 52.7825 20.6526 52.7825 20.5739 52.7779C15.6249 52.7455 10.9583 51.5093 6.85644 49.3471C5.97218 48.8841 5.11571 48.3794 4.28701 47.8238C2.74999 46.8145 1.31944 45.6663 0 44.393C1.52314 42.1429 3.70831 40.3881 6.287 39.3973L9.05087 38.3324C10.074 37.9389 11.0231 37.4111 11.8796 36.7721L11.8842 36.7675C12.9351 35.9897 13.8425 35.0452 14.5786 33.971C14.8147 33.633 15.0277 33.2811 15.2268 32.92C15.2962 32.795 15.361 32.6654 15.4258 32.5357C15.4768 32.4385 15.523 32.3413 15.5647 32.244C15.6064 32.1607 15.6434 32.0774 15.6805 31.9894C15.7777 31.7764 15.8656 31.5588 15.9443 31.3366C16.0045 31.1791 16.0601 31.0171 16.111 30.8551C16.199 30.5819 16.2777 30.3087 16.3425 30.0309C16.3749 29.9013 16.4073 29.7716 16.4305 29.642L16.5925 28.8549L17.023 26.79L17.5138 24.4102H24.0971L24.5878 26.79L25.1804 29.642C25.2174 29.8226 25.2591 29.9985 25.3054 30.1744C25.3609 30.4059 25.4304 30.6328 25.4998 30.8551C25.5878 31.1328 25.685 31.406 25.7961 31.6746C25.8378 31.7903 25.8887 31.9014 25.9396 32.0172C26.0554 32.2811 26.1758 32.5357 26.31 32.7904C26.3887 32.9339 26.4674 33.0728 26.5461 33.2117C26.6989 33.471 26.8609 33.7256 27.0322 33.971C27.7683 35.0452 28.6757 35.9897 29.7267 36.7675C30.5831 37.4111 31.5368 37.9342 32.56 38.3324L35.3238 39.3973C37.9025 40.3881 40.0877 42.1429 41.6108 44.393Z" fill="#69CFB2"/>
<path d="M21.0372 42.3183V52.7766C20.9585 52.7812 20.8844 52.7812 20.8057 52.7812C20.727 52.7812 20.6529 52.7812 20.5742 52.7766V42.3183C20.5742 42.2767 20.5835 42.235 20.5974 42.2026V42.198C20.639 42.1146 20.7131 42.0591 20.8057 42.0591C20.8983 42.0591 20.9724 42.1146 21.014 42.198V42.2026C21.0279 42.235 21.0372 42.2767 21.0372 42.3183Z" fill="#A1E9D4"/>
<path d="M26.5459 33.2117C22.0136 37.1749 20.8052 43.9393 20.8052 43.9393C20.8052 43.9393 20.3932 38.6936 15.2266 32.92C15.7821 31.906 16.1895 30.8041 16.4303 29.642L16.5923 28.8549L17.5136 24.4102H24.0969L25.1802 29.642C25.4117 30.7532 25.7959 31.8135 26.3098 32.7904C26.3885 32.9339 26.4672 33.0728 26.5459 33.2117Z" fill="#F69779"/>
<path d="M26.3103 32.7897C25.0001 33.1879 24.0325 33.1879 24.0325 33.1879C24.0325 33.1879 19.2779 33.1879 16.5928 28.8546L17.5141 24.4102H24.0974L25.1807 29.6416C25.4122 30.7527 25.7964 31.8129 26.3103 32.7897Z" fill="#F37A67"/>
<path d="M32.1157 15.3578C32.0601 14.9874 31.9212 14.6124 31.6388 14.367C31.3842 14.1447 31.037 14.0568 30.699 14.0707C30.3611 14.0845 30.037 14.1957 29.7314 14.3438C29.7314 14.3438 29.7037 5.80619 26.6759 5.70896C24.6898 5.61173 23.8102 6.20436 20.8056 6.20436C17.801 6.20436 16.9167 5.6071 14.9352 5.70896C11.9075 5.80619 11.8797 14.3438 11.8797 14.3438C11.5788 14.1957 11.2501 14.0845 10.9121 14.0707C10.5742 14.0568 10.2269 14.1494 9.97231 14.367C9.6899 14.6124 9.55564 14.9874 9.49546 15.3578C9.38435 16.0986 9.56027 16.881 9.98156 17.5014C10.4029 18.1219 11.0279 18.5895 11.7593 18.7562C13.051 27.7846 20.8056 27.7846 20.8056 27.7846C20.8056 27.7846 28.5601 27.7846 29.8518 18.7562C30.5833 18.5895 31.2036 18.1219 31.6296 17.5014C32.0509 16.881 32.2268 16.1032 32.1157 15.3578Z" fill="#F69779"/>
<path d="M26.1024 35.7063L30.3199 37.8174L26.8385 31.6693C26.8385 31.6693 26.4635 30.8452 25.2783 30.8452L26.1024 35.7063Z" fill="#A1E9D4"/>
<path d="M20.8057 43.9387C20.8057 43.9387 22.9908 38.1976 26.1019 35.7067L25.2779 30.8452C25.2779 30.8452 21.0371 38.8458 20.8057 43.9387Z" fill="#A1E9D4"/>
<path d="M15.5096 35.7061L11.292 37.8172L14.7781 31.6737C14.7781 31.6737 15.1531 30.8496 16.3383 30.8496L15.5096 35.7061Z" fill="#A1E9D4"/>
<path d="M20.806 43.9387C20.806 43.9387 18.6209 38.1976 15.5098 35.7067L16.3338 30.8452C16.3338 30.8452 20.5745 38.8458 20.806 43.9387Z" fill="#A1E9D4"/>
<path d="M38.0087 47.3602C37.2773 47.8787 36.518 48.3602 35.7402 48.8093L37.3097 44.4204L38.0087 47.3602Z" fill="#A1E9D4"/>
<path d="M6.85653 49.3463C5.97228 48.8833 5.11581 48.3787 4.28711 47.8232L5.09729 44.4204L6.85653 49.3463Z" fill="#A1E9D4"/>
<path d="M20.3711 13.9038V19.2001H21.2692C22.8063 19.2001 20.6581 14.5103 20.3711 13.9038Z" fill="#F37A67"/>
<path d="M26.8984 11.8383C25.6577 11.2272 24.2781 11.1346 22.9864 11.6485C22.4401 11.8661 22.6762 12.7643 23.2318 12.542C24.292 12.1208 25.4031 12.13 26.4308 12.6393C26.9632 12.8985 27.4308 12.1022 26.8984 11.8383Z" fill="#051733"/>
<path d="M25.7832 13.4876C25.5008 12.9968 24.9082 13.0292 24.9082 13.0292C24.4267 13.0292 24.0332 13.4181 24.0332 13.9042C24.0332 14.3857 24.4221 14.7792 24.9082 14.7792C25.0147 14.7792 25.1165 14.7561 25.2091 14.7237C25.2138 14.7237 25.2184 14.7191 25.223 14.7144C25.2508 14.7052 25.2786 14.6913 25.3063 14.6774C26.0702 14.3441 26.1536 13.4968 26.1536 13.4968C26.0008 13.6265 25.7832 13.4876 25.7832 13.4876Z" fill="#051733"/>
<path d="M14.7132 11.8383C15.954 11.2272 17.3336 11.1346 18.6252 11.6485C19.1715 11.8661 18.9354 12.7643 18.3799 12.542C17.3197 12.1208 16.2086 12.13 15.1808 12.6393C14.6484 12.8985 14.1808 12.1022 14.7132 11.8383Z" fill="#051733"/>
<path d="M15.8286 13.4876C16.111 12.9968 16.7036 13.0292 16.7036 13.0292C17.1851 13.0292 17.5786 13.4181 17.5786 13.9042C17.5786 14.3857 17.1897 14.7792 16.7036 14.7792C16.5971 14.7792 16.4953 14.7561 16.4027 14.7237C16.3981 14.7237 16.3934 14.7191 16.3888 14.7144C16.361 14.7052 16.3333 14.6913 16.3055 14.6774C15.5416 14.3441 15.4629 13.4968 15.4629 13.4968C15.611 13.6265 15.8286 13.4876 15.8286 13.4876Z" fill="#051733"/>
<path d="M17.959 22.0156C18.2645 23.1638 19.4219 24.0202 20.8062 24.0202C22.1904 24.0202 23.3432 23.1638 23.6534 22.0156H17.959Z" fill="white"/>
</svg>
