<svg width="47" height="53" viewBox="0 0 47 53" fill="none" xmlns="http://www.w3.org/2000/svg">
<path d="M46.3091 42.0729C44.4942 44.2118 42.3829 46.0961 40.0401 47.6562C39.2253 48.2025 38.378 48.7072 37.5075 49.1701C34.3036 50.8785 30.7477 52.0266 26.9789 52.471C25.8122 52.6099 24.6223 52.6794 23.4185 52.6794C21.9508 52.6794 20.5062 52.5729 19.0941 52.3692C15.2697 51.8183 11.6815 50.5451 8.46825 48.6933H8.46362C7.64411 48.221 6.84775 47.7118 6.07917 47.1655C3.79659 45.5405 1.75014 43.6099 0 41.4294C0.00462999 41.4109 0.0138896 41.397 0.0231496 41.3785C0.0787094 41.2535 0.134269 41.1331 0.194459 41.0173C0.240759 40.9201 0.291689 40.8229 0.347249 40.7303C0.365769 40.6886 0.38892 40.647 0.4167 40.6053C0.462999 40.522 0.513929 40.4386 0.564859 40.3599C0.606529 40.2905 0.648199 40.2257 0.689869 40.1609C0.768579 40.0405 0.856548 39.9201 0.944518 39.8044C1.0186 39.6979 1.09731 39.596 1.18065 39.4988C1.25936 39.4016 1.3427 39.3044 1.42604 39.2118C1.44919 39.184 1.47697 39.1562 1.50012 39.1331C1.59272 39.0312 1.68994 38.9294 1.7918 38.8322C1.80569 38.8183 1.81495 38.809 1.82421 38.7998C1.92144 38.7072 2.0233 38.6146 2.12516 38.5266C2.24091 38.4248 2.35666 38.3275 2.47704 38.2349C2.57427 38.1562 2.67613 38.0822 2.77799 38.0127C2.91226 37.9155 3.04653 37.8229 3.19006 37.7396C3.26877 37.6886 3.35211 37.6377 3.44008 37.5914C3.6901 37.4433 3.94938 37.3136 4.21792 37.1979C4.31052 37.1562 4.39849 37.1192 4.49109 37.0822C4.62999 37.0266 4.76889 36.9757 4.91242 36.9294C5.05132 36.8831 5.19022 36.8368 5.33375 36.7998L12.5241 34.8136L12.7649 34.7488L14.2326 34.3414L15.0706 34.1099L15.3901 34.022H30.669L30.9885 34.1099L31.8265 34.3414L33.2942 34.7488L33.535 34.8136L40.7254 36.7998C43.3737 37.5312 45.448 39.5266 46.3091 42.0729Z" fill="white"/>
<path d="M30.9882 34.1097C29.2149 36.4476 26.3119 37.9708 23.0293 37.9708C19.7466 37.9708 16.8436 36.4476 15.0703 34.1097L17.3575 33.4754L18.2233 28.6143L18.8438 25.1421L23.0293 26.781L27.2148 25.1421L28.576 32.7717L28.701 33.4754L30.9882 34.1097Z" fill="#F69779"/>
<path d="M28.5755 32.7717C27.057 33.3087 25.8764 33.3087 25.8764 33.3087C25.8764 33.3087 20.8625 33.3088 18.2236 28.6143L18.844 25.1421L23.0292 26.781L27.2144 25.1421L28.5755 32.7717Z" fill="#F37A67"/>
<path d="M46.3092 42.0728C44.4942 44.2117 42.383 46.0959 40.0402 47.6561C39.2253 48.2024 38.378 48.7071 37.5076 49.17C34.3036 50.8783 30.7478 52.0265 26.979 52.4709C26.3678 48.1561 27.1133 43.4663 27.1133 43.4663C27.1133 42.957 27.1966 42.3552 27.3355 41.7163C27.8587 39.2302 29.1505 36.2117 29.1505 36.2117L29.507 35.9617L31.8266 34.3413L33.2943 34.7487L33.5351 34.8135L40.7254 36.7996C43.3738 37.5311 45.448 39.5265 46.3092 42.0728Z" fill="#6498CA"/>
<path d="M19.0941 52.3691C15.2697 51.8182 11.6815 50.545 8.46825 48.6932H8.46362C7.64411 48.2209 6.84775 47.7117 6.07917 47.1654C3.79659 45.5404 1.75014 43.6098 0 41.4293C0.00462999 41.4108 0.0138896 41.3969 0.0231496 41.3784C0.0787094 41.2534 0.134269 41.133 0.194459 41.0172C0.240758 40.92 0.291689 40.8228 0.347249 40.7302C0.365769 40.6885 0.38892 40.6469 0.4167 40.6052C0.462999 40.5219 0.513929 40.4385 0.564859 40.3598C0.606529 40.2904 0.648199 40.2256 0.689869 40.1608C0.768579 40.0404 0.856548 39.92 0.944518 39.8043C1.0186 39.6978 1.09731 39.5959 1.18065 39.4987C1.25936 39.4015 1.3427 39.3043 1.42604 39.2117C1.44919 39.1839 1.47697 39.1561 1.50012 39.133C1.59272 39.0311 1.68994 38.9293 1.7918 38.8321C1.80569 38.8182 1.81495 38.8089 1.82421 38.7996C1.92144 38.7071 2.0233 38.6145 2.12516 38.5265C2.24091 38.4246 2.35666 38.3274 2.47704 38.2348C2.57427 38.1561 2.67613 38.082 2.77799 38.0126C2.91226 37.9154 3.04653 37.8228 3.19006 37.7395C3.26877 37.6885 3.35211 37.6376 3.44008 37.5913C3.6901 37.4432 3.94938 37.3135 4.21792 37.1978C4.31052 37.1561 4.39849 37.1191 4.49109 37.082C4.62999 37.0265 4.76889 36.9756 4.91242 36.9293C5.05132 36.883 5.19022 36.8367 5.33375 36.7996L12.5241 34.8135L12.7649 34.7487L14.2326 34.3413L16.5522 35.9617L16.9087 36.2117C16.9087 36.2117 18.2005 39.2302 18.7237 41.7163V41.7209C18.8626 42.3598 18.9459 42.957 18.9459 43.4663C18.9459 43.4663 19.6774 48.0821 19.0941 52.3691Z" fill="#6498CA"/>
<path d="M32.174 6.97075C31.1045 4.96149 29.058 3.855 27.169 3.23926C24.4836 2.36426 21.576 2.36426 18.8906 3.23926C17.0062 3.855 14.9551 4.96612 13.8856 6.97075C11.9502 10.6744 12.2789 16.443 12.2789 16.443L14.2976 18.5865L23.0298 17.48L31.7619 18.5865L33.7806 16.443C33.7806 16.443 34.1093 10.6791 32.174 6.97075Z" fill="#051733"/>
<path d="M34.3402 16.0915C34.2847 15.7211 34.1458 15.3461 33.8633 15.1007C33.6087 14.8785 33.2568 14.7906 32.9235 14.8044C32.5901 14.8183 32.2614 14.9294 31.9558 15.0776C31.9558 15.0776 31.928 6.54055 28.9 6.44333C26.9137 6.34611 26.034 6.9387 23.0292 6.9387C20.0243 6.9387 19.14 6.34148 17.1584 6.44333C14.1303 6.54055 14.1026 15.0776 14.1026 15.0776C13.797 14.9294 13.4729 14.8183 13.1349 14.8044C12.7969 14.7906 12.4497 14.8832 12.195 15.1007C11.9126 15.3461 11.7783 15.7211 11.7181 16.0915C11.607 16.8322 11.7829 17.6146 12.2043 18.235C12.6256 18.8554 13.2506 19.323 13.9822 19.4896C15.2739 28.5174 23.0292 28.5174 23.0292 28.5174C23.0292 28.5174 30.789 28.5174 32.0762 19.4896C32.8077 19.323 33.4281 18.8554 33.8541 18.235C34.2754 17.6146 34.4514 16.8369 34.3402 16.0915Z" fill="#F69779"/>
<path d="M29.5058 38.2807C29.5058 38.2807 27.6123 40.4751 27.1123 43.4658L28.5058 32.4751L29.5058 33.0908V38.2807Z" fill="#78A8D7"/>
<path d="M27.9961 29.5405C27.9961 29.5405 31.7973 31.1979 33.1956 33.5915L33.7975 40.8739L29.5008 38.2813L27.9961 29.5405Z" fill="#78A8D7"/>
<path d="M16.5518 38.2807C16.5518 38.2807 18.4453 40.4751 18.9453 43.4658L17.5518 32.4751L16.5518 33.0908V38.2807Z" fill="#78A8D7"/>
<path d="M18.0611 29.5405C18.0611 29.5405 14.2599 31.1979 12.8617 33.5915L12.2598 40.8739L16.5564 38.2813L18.0611 29.5405Z" fill="#78A8D7"/>
<path d="M12.3338 13.3735C12.3338 13.3735 11.3569 5.22071 16.5471 1.62348V3.03552C16.5471 3.03552 22.1031 -2.29319 29.6176 1.16977L28.0711 1.71607C28.0711 1.71607 31.3955 1.80867 33.1271 4.08182L31.4881 4.17441C31.4881 4.17441 33.5392 4.94755 34.0392 7.22533L32.4928 6.4383C32.4928 6.4383 34.405 9.00774 33.766 14.0077L30.9927 6.86422L29.7148 5.54478L23.4226 4.81792L17.3712 4.95682L15.0748 6.44756L14.1395 8.87348L12.3338 13.3735Z" fill="#051733"/>
<path d="M22.5947 14.7808V20.0771H23.4929C25.0299 20.0771 22.8818 15.3872 22.5947 14.7808Z" fill="#F37A67"/>
<path d="M29.1231 12.7163C27.8823 12.1052 26.5027 12.0126 25.211 12.5265C24.6647 12.7441 24.9008 13.6422 25.4564 13.42C26.5166 12.9987 27.6277 13.0079 28.6555 13.5172C29.1879 13.7765 29.6555 12.9802 29.1231 12.7163Z" fill="#051733"/>
<path d="M27.1328 15.6558C27.6161 15.6558 28.0078 15.264 28.0078 14.7808C28.0078 14.2975 27.6161 13.9058 27.1328 13.9058C26.6496 13.9058 26.2578 14.2975 26.2578 14.7808C26.2578 15.264 26.6496 15.6558 27.1328 15.6558Z" fill="#051733"/>
<path d="M16.9369 12.7163C18.1776 12.1052 19.5572 12.0126 20.8489 12.5265C21.3952 12.7441 21.1591 13.6422 20.6035 13.42C19.5433 12.9987 18.4322 13.0079 17.4044 13.5172C16.872 13.7765 16.4044 12.9802 16.9369 12.7163Z" fill="#051733"/>
<path d="M18.9277 15.6558C19.411 15.6558 19.8027 15.264 19.8027 14.7808C19.8027 14.2975 19.411 13.9058 18.9277 13.9058C18.4445 13.9058 18.0527 14.2975 18.0527 14.7808C18.0527 15.264 18.4445 15.6558 18.9277 15.6558Z" fill="#051733"/>
<path d="M20.1826 22.1421C20.4882 23.2902 21.6456 24.1467 23.0298 24.1467C24.4095 24.1467 25.5669 23.2902 25.8771 22.1421H20.1826Z" fill="white"/>
<path d="M40.0402 47.6562C39.2254 48.2025 38.3782 48.7072 37.5078 49.1701L39.1374 40.272L40.0402 47.6562Z" fill="#78A8D7"/>
<path d="M8.46336 48.6933C7.64392 48.221 6.84762 47.7118 6.0791 47.1655L6.92169 40.272L8.46336 48.6933Z" fill="#78A8D7"/>
</svg>
