<svg width="36" height="36" viewBox="0 0 36 36" fill="none" xmlns="http://www.w3.org/2000/svg">
<path fill-rule="evenodd" clip-rule="evenodd" d="M17.966 35.9937C12.0755 35.9937 6.18369 35.9925 0.293143 36C0.0603898 36 0.00125791 35.9648 0.00125791 35.7169C0.00880667 23.9107 0.010065 12.1057 0 0.299433C0 0.0314528 0.0717131 0 0.312015 0C12.1057 0.00629063 23.9006 0.00629063 35.6943 0C35.9384 0 36.0038 0.0377437 36.0038 0.300692C35.995 12.0944 35.995 23.8893 36.0038 35.683C36.0038 35.9585 35.9296 36 35.6754 36C29.7723 35.9912 23.8692 35.9937 17.966 35.9937ZM14.3225 22.2122C14.2961 22.2072 14.2697 22.2021 14.2445 22.1984C14.2344 22.1682 14.2181 22.138 14.2143 22.1065C13.7941 18.8933 13.3739 15.6788 12.9537 12.4655C12.8958 12.0226 12.7322 11.8314 12.4051 11.8163C12.0881 11.8012 11.9056 11.9736 11.7949 12.4127C11.308 14.3502 10.8186 16.2864 10.3456 18.2277C10.2814 18.4894 10.1883 18.5699 9.91151 18.5687C7.03041 18.5561 4.14804 18.5599 1.26693 18.5611C0.822814 18.5611 0.569931 18.7712 0.572447 19.126C0.574963 19.4796 0.827847 19.6846 1.27448 19.6846C4.36695 19.6859 7.45943 19.6859 10.5519 19.6846C11.0036 19.6846 11.1545 19.5689 11.2665 19.1273C11.5458 18.0289 11.8201 16.9293 12.0969 15.8297C12.122 15.7316 12.1158 15.6196 12.2239 15.5542C12.6479 18.7838 13.0707 22.0084 13.4947 25.2342C13.5488 25.6481 13.7111 25.8419 14.0218 25.8671C14.3326 25.8922 14.5301 25.7236 14.6395 25.3248C15.0736 23.7484 15.5051 22.1707 15.9379 20.5943C16.0185 20.3011 16.0172 19.9123 16.2084 19.7438C16.4173 19.5588 16.8111 19.6909 17.1231 19.6871C17.7949 19.6783 17.9031 19.6041 18.0742 18.9637C18.1497 18.6819 18.2089 18.3951 18.2957 18.1157C18.3347 17.9912 18.3259 17.8327 18.4718 17.7522C18.8769 19.9061 19.2808 22.0549 19.6859 24.2038C19.7551 24.5699 19.9564 24.7599 20.2646 24.7423C20.5943 24.7234 20.7628 24.5297 20.8169 24.2114C21.1176 22.4714 21.4234 20.7326 21.7253 18.9927C21.9895 17.4791 22.2512 15.9656 22.5318 14.354C22.5834 14.5754 22.6148 14.6987 22.64 14.8232C23.1508 17.3672 23.6653 19.9111 24.1686 22.4575C24.229 22.7633 24.3447 23.001 24.6706 23.0501C25.0191 23.103 25.1927 22.8778 25.3336 22.5922C25.7652 21.7115 26.2181 20.8396 26.6433 19.9551C26.7452 19.7438 26.8622 19.6783 27.0937 19.6796C29.5999 19.6897 32.1074 19.6859 34.6136 19.6846C34.7306 19.6846 34.8513 19.6985 34.9633 19.6733C35.2615 19.6066 35.4364 19.4129 35.4276 19.1009C35.4175 18.8077 35.2426 18.6265 34.957 18.5699C34.8438 18.5473 34.723 18.5599 34.606 18.5599C32.1225 18.5599 29.6389 18.5523 27.1554 18.5636C26.0847 18.5687 26.1602 18.3321 25.5928 19.5538C25.4116 19.9451 25.2405 20.3426 24.9763 20.7326C24.9411 20.5716 24.9147 20.4571 24.8908 20.3426C24.2818 17.3055 23.6742 14.2671 23.0652 11.23C22.9897 10.8551 22.796 10.6714 22.489 10.6903C22.143 10.7117 21.9857 10.9205 21.9279 11.2539C21.4636 13.9501 20.9931 16.6463 20.5238 19.3424C20.4383 19.8306 20.3464 20.3187 20.2583 20.8056C20.1715 20.6748 20.1401 20.5502 20.1162 20.4257C19.7891 18.6907 19.4594 16.957 19.1411 15.2195C19.082 14.8949 18.9537 14.6647 18.6039 14.6295C18.2957 14.598 18.1044 14.7704 17.9874 15.1743C17.688 16.2059 17.3823 17.2363 17.103 18.273C17.0375 18.5171 16.9319 18.5875 16.6966 18.5724C16.4047 18.5523 16.1116 18.5586 15.8184 18.5599C15.485 18.5611 15.2686 18.7134 15.1881 19.0505C15.1025 19.4028 15.0019 19.7501 14.9063 20.0998C14.7113 20.8044 14.5163 21.5089 14.3225 22.2122ZM18.0365 10.8035C17.9925 10.7997 17.9748 10.8035 17.9711 10.7972C17.8654 10.6425 17.761 10.4877 17.6565 10.333C16.6425 8.83707 15.4624 7.5022 13.9262 6.51709C12.0944 5.34326 10.0927 4.83749 7.93626 5.14951C5.46781 5.50556 3.97064 7.04299 3.26358 9.35039C2.40176 12.1661 2.79681 14.9277 3.81841 17.6301C3.94171 17.956 4.22982 18.0705 4.52799 17.9572C4.84882 17.8364 4.98092 17.5685 4.85888 17.2225C4.66387 16.6714 4.46635 16.1216 4.33047 15.5529C3.85112 13.5525 3.70895 11.5471 4.37073 9.56175C4.97211 7.75886 6.15475 6.54603 8.09478 6.26798C10.1594 5.97106 12.039 6.51206 13.7224 7.72489C15.3026 8.86349 16.4311 10.3921 17.4037 12.0516C17.7572 12.6542 18.2453 12.6567 18.5951 12.0579C19.2166 10.9935 19.9124 9.98448 20.7553 9.08115C22.5267 7.18012 24.6605 6.08807 27.3089 6.2013C29.0564 6.27553 30.3837 7.07444 31.2254 8.63074C31.7702 9.63976 31.9979 10.7331 32.0533 11.8654C32.1439 13.6909 31.8193 15.451 31.165 17.1545C31.0153 17.5446 31.1361 17.8289 31.4758 17.9572C31.7853 18.0742 32.0658 17.9472 32.1992 17.5974C33.1189 15.1881 33.4863 12.7134 32.9629 10.1606C32.6396 8.58545 31.9589 7.19019 30.6391 6.19375C29.1357 5.05892 27.4133 4.90417 25.6242 5.16712C23.2728 5.51311 21.3995 6.7272 19.8193 8.44957C19.1462 9.18306 18.5662 9.98574 18.0365 10.8035ZM30.3825 20.861C30.3837 20.5603 30.2592 20.3753 30.0138 20.286C29.7308 20.1816 29.5093 20.2923 29.3433 20.5238C28.9142 21.1239 28.4651 21.709 27.9757 22.2613C25.2078 25.3877 21.8574 27.7442 18.1787 29.6653C17.9925 29.7622 17.8742 29.6817 17.732 29.6062C13.4217 27.3315 9.55169 24.5234 6.65674 20.5213C6.43909 20.2206 6.12707 20.1652 5.86035 20.3477C5.58734 20.5339 5.53449 20.871 5.75341 21.1805C6.02391 21.5618 6.29818 21.9417 6.59509 22.304C9.57308 25.9451 13.3022 28.6186 17.4628 30.7398C17.849 30.936 18.1598 30.9335 18.5448 30.741C20.715 29.654 22.7582 28.367 24.6781 26.8836C26.754 25.2795 28.6211 23.464 30.1535 21.324C30.2604 21.1743 30.3938 21.0321 30.3825 20.861Z" fill="white"/>
<path fill-rule="evenodd" clip-rule="evenodd" d="M14.3226 22.2124C14.5164 21.5091 14.7114 20.8046 14.9051 20.1013C15.0007 19.7515 15.1027 19.4043 15.187 19.052C15.2687 18.7136 15.4839 18.5626 15.8173 18.5613C16.1104 18.5601 16.4036 18.5538 16.6954 18.5739C16.9295 18.5903 17.0364 18.5185 17.1018 18.2745C17.3811 17.2378 17.6881 16.2074 17.9863 15.1757C18.1033 14.7731 18.2945 14.6007 18.6028 14.6309C18.9525 14.6662 19.0808 14.8964 19.14 15.221C19.4583 16.9572 19.7879 18.6922 20.115 20.4271C20.1389 20.5529 20.1704 20.6762 20.2572 20.8071C20.3465 20.3189 20.4384 19.832 20.5227 19.3439C20.9932 16.6477 21.4625 13.9528 21.9267 11.2554C21.9833 10.9232 22.1406 10.7131 22.4879 10.6917C22.7948 10.6729 22.9898 10.8566 23.0641 11.2315C23.6743 14.2686 24.2819 17.3057 24.8896 20.3441C24.9123 20.4586 24.9399 20.5731 24.9752 20.7341C25.2406 20.3441 25.4105 19.9465 25.5916 19.5552C26.1591 18.3323 26.0836 18.5701 27.1542 18.5651C29.6378 18.5538 32.1213 18.5613 34.6049 18.5613C34.7219 18.5613 34.8426 18.5487 34.9559 18.5714C35.2415 18.628 35.4163 18.8092 35.4264 19.1023C35.4365 19.4131 35.2616 19.6068 34.9622 19.6748C34.8502 19.6999 34.7294 19.6861 34.6124 19.6861C32.1062 19.6861 29.5988 19.6899 27.0926 19.6811C26.8598 19.6798 26.7428 19.7452 26.6422 19.9566C26.2169 20.841 25.764 21.7117 25.3325 22.5936C25.1928 22.8792 25.0192 23.1044 24.6694 23.0516C24.3448 23.0025 24.2278 22.7647 24.1674 22.459C23.6642 19.9126 23.1509 17.3699 22.6388 14.8247C22.6137 14.7001 22.5822 14.5768 22.5306 14.3554C22.2501 15.9671 21.9884 17.4806 21.7242 18.9941C21.421 20.7341 21.1165 22.4728 20.8158 24.2128C20.7604 24.5311 20.5931 24.7249 20.2635 24.7438C19.9552 24.7614 19.7539 24.5726 19.6847 24.2053C19.2784 22.0564 18.8758 19.9075 18.4707 17.7536C18.3247 17.8341 18.3335 17.9927 18.2945 18.1172C18.2077 18.3953 18.1486 18.6821 18.0731 18.9652C17.9007 19.6056 17.7938 19.6811 17.1219 19.6886C16.8099 19.6924 16.4161 19.559 16.2073 19.7452C16.0161 19.9151 16.0173 20.3026 15.9368 20.5957C15.504 22.1721 15.0725 23.7498 14.6384 25.3263C14.529 25.7251 14.3302 25.8937 14.0207 25.8685C13.7099 25.8434 13.5476 25.6509 13.4935 25.2357C13.0695 22.0111 12.6468 18.7865 12.2228 15.5557C12.1134 15.6211 12.1196 15.7331 12.0957 15.8312C11.8189 16.9295 11.5447 18.0291 11.2654 19.1287C11.1534 19.5691 11.0024 19.6848 10.5508 19.6861C7.45829 19.6873 4.36581 19.6873 1.27334 19.6861C0.826707 19.6861 0.573824 19.481 0.571308 19.1275C0.568791 18.7727 0.821674 18.5626 1.26579 18.5626C4.1469 18.5613 7.02927 18.5576 9.91037 18.5701C10.1872 18.5714 10.2803 18.4909 10.3444 18.2292C10.8175 16.2879 11.3069 14.3516 11.7938 12.4141C11.9045 11.9763 12.0857 11.8039 12.404 11.8178C12.7311 11.8329 12.8946 12.0228 12.9525 12.467C13.3727 15.6802 13.7929 18.8947 14.2132 22.108C14.2169 22.1394 14.2333 22.1684 14.2434 22.1998C14.271 22.2023 14.2962 22.2074 14.3226 22.2124Z" fill="#363636"/>
<path fill-rule="evenodd" clip-rule="evenodd" d="M18.0364 10.8038C18.5661 9.98605 19.1473 9.18337 19.8192 8.45114C21.3994 6.72877 23.2727 5.51468 25.6242 5.16869C27.4132 4.90574 29.1356 5.06049 30.6391 6.19532C31.9588 7.19176 32.6395 8.58702 32.9628 10.1622C33.4862 12.7149 33.1201 15.1884 32.1991 17.599C32.0658 17.9487 31.7852 18.0758 31.4757 17.9588C31.136 17.8305 31.0152 17.5461 31.165 17.1561C31.8192 15.4526 32.1438 13.6925 32.0532 11.8669C31.9978 10.7359 31.7701 9.64133 31.2254 8.63231C30.3837 7.07601 29.0563 6.2771 27.3088 6.20287C24.6604 6.08964 22.5254 7.18169 20.7552 9.08272C19.9135 9.98605 19.2178 10.9951 18.595 12.0594C18.2453 12.6583 17.7571 12.6558 17.4036 12.0532C16.4311 10.3937 15.3038 8.8638 13.7223 7.72646C12.0389 6.51363 10.1593 5.97263 8.09471 6.26955C6.15469 6.54885 4.97205 7.76043 4.37066 9.56332C3.70889 11.5486 3.8498 13.5541 4.3304 15.5545C4.46628 16.1232 4.66381 16.673 4.85882 17.224C4.98085 17.57 4.85001 17.838 4.52793 17.9588C4.2285 18.072 3.94164 17.9575 3.81835 17.6317C2.79549 14.9292 2.40044 12.1676 3.26351 9.35196C3.97058 7.0433 5.46775 5.50713 7.93619 5.15108C10.0926 4.84032 12.0943 5.34483 13.9261 6.51866C15.4623 7.50251 16.6424 8.83864 17.6565 10.3346C17.7609 10.4893 17.8653 10.6441 17.971 10.7988C17.9748 10.8038 17.9924 10.8001 18.0364 10.8038Z" fill="#363636"/>
<path fill-rule="evenodd" clip-rule="evenodd" d="M30.3821 20.861C30.3934 21.0321 30.26 21.1743 30.1531 21.324C28.6195 23.4641 26.7537 25.2796 24.6777 26.8837C22.7579 28.367 20.7159 29.6541 18.5444 30.7411C18.1607 30.9336 17.8486 30.9361 17.4624 30.7398C13.3018 28.6186 9.57396 25.9451 6.59471 22.3041C6.29905 21.9418 6.02353 21.5631 5.75303 21.1806C5.53411 20.8711 5.58696 20.5339 5.85997 20.3477C6.12669 20.1653 6.43871 20.2206 6.65636 20.5213C9.55005 24.5222 13.4213 27.3316 17.7316 29.6063C17.8738 29.6817 17.9933 29.7623 18.1783 29.6654C21.857 27.743 25.2074 25.3878 27.9753 22.2613C28.4647 21.709 28.9126 21.124 29.3429 20.5238C29.5089 20.2924 29.7304 20.1816 30.0135 20.2861C30.2588 20.3754 30.3833 20.5603 30.3821 20.861Z" fill="#363636"/>
</svg>
