<svg width="70" height="90" viewBox="0 0 70 90" fill="none" xmlns="http://www.w3.org/2000/svg">
<path fill-rule="evenodd" clip-rule="evenodd" d="M3.18197 89.9999C2.93273 89.6899 2.52241 89.6778 2.20632 89.4832C0.978393 88.7264 0.245895 87.6717 0.154713 86.2098C0.139516 85.9484 0.136475 85.684 0.136475 85.4195C0.136475 62.2045 0.136475 38.9865 0.136475 15.7714C0.136475 13.4524 1.11821 11.9539 3.00568 11.3673C3.60444 11.1819 4.2184 11.188 4.83237 11.188C7.99335 11.185 11.1574 11.1455 14.3184 11.2123C15.2028 11.2306 15.3943 10.9601 15.3335 10.1485C15.2788 9.42819 15.2363 8.68962 15.4308 7.96624C15.8593 6.37054 17.1633 5.31587 18.8106 5.29155C20.0689 5.27332 21.3273 5.27332 22.5856 5.29459C23.0324 5.30371 23.2421 5.25204 23.2542 4.70495C23.3089 1.97556 24.0293 0.984709 26.555 0.0151367C28.8984 0.0151367 31.2418 0.0151367 33.5852 0.0151367C34.4849 0.398102 35.3784 0.784107 35.9924 1.61387C36.6307 2.4801 36.883 3.45271 36.7857 4.49827C36.7219 5.18821 36.9741 5.32803 37.6124 5.30067C38.8069 5.249 40.0075 5.27332 41.205 5.28851C43.1289 5.31283 44.5666 6.67145 44.7186 8.59843C44.7368 8.83247 44.7368 9.0665 44.7398 9.30054C44.749 11.1819 44.749 11.1819 46.6729 11.1819C47.0528 11.1819 47.4328 11.2002 47.8127 11.1789C48.7731 11.1242 49.378 11.5315 49.5725 12.4919C49.5543 12.6044 49.536 12.7168 49.5178 12.8293C49.2047 13.5709 48.6364 13.8597 47.8461 13.8293C47.0559 13.7989 46.2626 13.8536 45.4754 13.8141C44.9161 13.7837 44.6973 13.9417 44.7277 14.5374C44.7733 15.4128 44.7672 16.2942 44.7186 17.1726C44.6061 19.1573 43.1685 20.5676 41.1837 20.5707C33.7463 20.5889 26.3088 20.5889 18.8714 20.5707C16.832 20.5646 15.3548 19.0449 15.3153 17.0024C15.2971 16.124 15.3031 15.2456 15.3153 14.3672C15.3214 14.0299 15.2849 13.8323 14.8533 13.8353C11.7227 13.8688 8.59212 13.8779 5.46152 13.8961C5.25788 13.8779 5.05728 13.8475 4.85364 13.8475C3.14853 13.8293 2.77165 14.194 2.77165 15.8687C2.77165 39.0199 2.77165 62.1711 2.77165 85.3223C2.77165 85.5259 2.76557 85.7326 2.78076 85.9362C2.84459 86.8268 3.34305 87.3192 4.23968 87.3556C4.64696 87.3739 5.05728 87.3405 5.46456 87.3283C5.58006 87.3405 5.6986 87.3587 5.81409 87.3587C22.4062 87.3587 39.0014 87.3617 55.5936 87.3587C56.7759 87.3587 57.2926 86.8329 57.2956 85.6353C57.3048 83.0883 57.32 80.5443 57.2865 77.9973C57.2744 77.0642 57.6239 76.4897 58.5357 76.2709C59.6603 76.5445 59.9308 76.8788 59.9338 78.0277C59.9369 80.3711 59.9338 82.7145 59.9338 85.0579C59.9338 87.921 59.2074 88.9969 56.5996 89.9999C38.7978 89.9999 20.9899 89.9999 3.18197 89.9999ZM20.2331 17.9112C27.169 17.9203 34.1049 17.9325 41.0409 17.9416C41.8433 17.9416 42.0925 17.4826 42.0895 16.7501C42.0773 14.2031 42.0925 11.6561 42.0803 9.11209C42.0773 8.15164 41.8433 7.93584 40.8646 7.92976C39.3418 7.92064 37.8221 7.94192 36.2994 7.92064C35.0228 7.90241 34.2295 7.12432 34.1596 5.84473C34.1292 5.26116 34.1688 4.67455 34.1414 4.08795C34.0989 3.18828 33.6034 2.67158 32.7007 2.66246C31.2388 2.64423 29.7768 2.67462 28.3118 2.68678C28.1386 2.67462 27.9623 2.65638 27.789 2.65638C26.3392 2.64727 25.8742 3.12141 25.8681 4.59857C25.8651 5.23988 25.8529 5.8812 25.8469 6.52251C25.3545 7.57111 24.5278 7.99055 23.3789 7.94192C22.3303 7.89633 21.2786 7.95104 20.23 7.96016C19.996 7.95104 19.765 7.9328 19.531 7.92976C18.1328 7.92368 17.9505 8.09997 17.9505 9.4677C17.9505 11.6014 17.9505 13.735 17.9505 15.8717C17.9505 17.9537 18.0204 18.0176 20.1449 17.9294C20.1753 17.9233 20.2027 17.9173 20.2331 17.9112Z" fill="#030303"/>
<path fill-rule="evenodd" clip-rule="evenodd" d="M58.5418 76.2707C57.63 76.4865 57.2804 77.064 57.2926 77.9971C57.326 80.5441 57.3108 83.0881 57.3017 85.6352C57.2987 86.8327 56.782 87.3585 55.5996 87.3585C39.0075 87.3615 22.4123 87.3615 5.82016 87.3585C5.70466 87.3585 5.58612 87.3372 5.47063 87.3281C5.24875 86.5895 5.2913 85.8266 5.2913 85.0698C5.2913 62.2135 5.2913 39.3601 5.2913 16.5068C5.2913 15.6314 5.24875 14.7561 5.46759 13.8959C8.59818 13.8777 11.7288 13.8686 14.8594 13.8351C15.2879 13.8321 15.3244 14.0266 15.3214 14.367C15.3062 15.2454 15.3031 16.1238 15.3214 17.0022C15.3609 19.0477 16.838 20.5644 18.8775 20.5705C26.3149 20.5887 33.7523 20.5887 41.1898 20.5705C43.1715 20.5644 44.6122 19.1572 44.7246 17.1724C44.7733 16.2971 44.7763 15.4156 44.7337 14.5373C44.7033 13.9415 44.9222 13.7835 45.4814 13.8139C46.2686 13.8564 47.0619 13.8017 47.8522 13.8291C48.6424 13.8595 49.2108 13.5707 49.5238 12.8291C49.5451 13.2972 49.5816 13.7652 49.5816 14.2303C49.5846 29.8984 49.5816 45.5666 49.5877 61.2348C49.5877 62.8001 49.9646 64.2863 50.618 65.7149C51.6241 67.9184 52.621 70.1281 53.5754 72.359C54.5206 74.5687 56.1954 75.7084 58.5448 75.9364C58.5418 76.0489 58.5418 76.1613 58.5418 76.2707ZM15.5827 44.1442C13.8837 44.1442 12.1847 44.135 10.4857 44.1472C8.93555 44.1563 8.05109 44.98 8.03893 46.5058C8.01461 49.992 8.01461 53.4752 8.03893 56.9614C8.05109 58.4659 8.88996 59.2895 10.4036 59.2987C13.8594 59.3199 17.3152 59.3199 20.771 59.2987C22.3454 59.2895 23.1874 58.4142 23.1934 56.8215C23.2056 53.4235 23.2056 50.0254 23.1934 46.6304C23.1874 45.0225 22.2998 44.1563 20.6768 44.1472C18.9808 44.135 17.2818 44.1442 15.5827 44.1442ZM15.6466 62.6998C13.8898 62.6998 12.133 62.6785 10.3762 62.7058C8.91124 62.7302 8.05717 63.5447 8.04501 64.9854C8.01461 68.499 8.01765 72.0156 8.04501 75.5291C8.05717 77.0002 8.94771 77.8512 10.434 77.8604C13.8898 77.8755 17.3456 77.8786 20.8014 77.8604C22.2998 77.8512 23.1904 76.9455 23.1965 75.4319C23.2117 72.0064 23.2117 68.578 23.1965 65.1526C23.1904 63.5751 22.3363 62.7241 20.7437 62.7058C19.0416 62.6846 17.3456 62.6998 15.6466 62.6998ZM15.6162 25.6554C13.9171 25.6554 12.2181 25.6493 10.5191 25.6585C8.89908 25.6645 8.04805 26.4609 8.03589 28.0535C8.01461 31.5093 8.01461 34.9651 8.03589 38.4209C8.04501 39.9619 8.91428 40.7917 10.4583 40.7978C13.8837 40.8069 17.3122 40.8069 20.7376 40.7978C22.3059 40.7947 23.1874 39.9255 23.1934 38.351C23.2086 34.9256 23.2086 31.4972 23.1934 28.0717C23.1874 26.5368 22.315 25.6737 20.7984 25.6615C19.072 25.6463 17.3426 25.6554 15.6162 25.6554ZM39.4634 72.4593C43.1502 72.4593 46.84 72.4654 50.5269 72.4563C51.4356 72.4532 51.9979 71.97 52.0344 71.2162C52.0709 70.4229 51.4934 69.8728 50.5633 69.8242C50.3597 69.812 50.153 69.8211 49.9494 69.8211C42.983 69.8211 36.0167 69.8211 29.0504 69.8242C28.7282 69.8242 28.3969 69.8059 28.0899 69.8758C27.4121 70.0308 27.0261 70.4655 27.0322 71.1828C27.0383 71.9973 27.5823 72.4563 28.5793 72.4593C32.2022 72.4624 35.8313 72.4593 39.4634 72.4593ZM39.4543 77.8664C41.6791 77.8664 43.904 77.8664 46.1288 77.8664C47.6516 77.8664 49.1743 77.8877 50.694 77.8512C51.5055 77.833 52.0435 77.2464 52.0314 76.5169C52.0222 75.7875 51.466 75.2708 50.6545 75.2282C50.5664 75.2252 50.4782 75.2282 50.3901 75.2282C43.132 75.2282 35.8708 75.2282 28.6127 75.2282C28.4942 75.2282 28.3787 75.2221 28.2632 75.2343C27.5155 75.3103 27.0778 75.7206 27.0352 76.4683C26.9927 77.2251 27.4182 77.6719 28.1294 77.833C28.3817 77.8907 28.6553 77.8634 28.9166 77.8634C32.4302 77.8664 35.9407 77.8664 39.4543 77.8664ZM37.6215 35.421C40.5485 35.421 43.4724 35.4241 46.3993 35.418C46.7185 35.418 47.0498 35.421 47.3598 35.3481C47.9707 35.2052 48.3111 34.7676 48.3324 34.1536C48.3567 33.4971 48.0285 33.029 47.378 32.8588C47.1014 32.7859 46.8005 32.7828 46.5088 32.7828C40.6275 32.7798 34.7462 32.7798 28.865 32.7828C28.5458 32.7828 28.2115 32.7859 27.9106 32.874C27.3058 33.0533 27.014 33.5062 27.0292 34.1323C27.0444 34.7585 27.3605 35.1961 27.9714 35.342C28.3057 35.4241 28.6674 35.415 29.0169 35.418C31.8861 35.4241 34.7554 35.421 37.6215 35.421ZM37.6246 59.3047C39.2324 59.3047 40.8433 59.3047 42.4542 59.3047C43.9769 59.3047 45.4966 59.323 47.0194 59.2895C47.7944 59.2743 48.3172 58.7394 48.3446 58.0434C48.3719 57.3413 47.8917 56.7911 47.1258 56.6848C46.8674 56.6483 46.5999 56.6635 46.3385 56.6635C40.9254 56.6635 35.5122 56.6635 30.0959 56.6635C29.5093 56.6635 28.9227 56.6331 28.3422 56.6757C27.4061 56.7456 26.8742 57.4355 27.0656 58.2865C27.248 59.092 27.8437 59.3047 28.5853 59.3047C31.5944 59.3017 34.6095 59.3047 37.6246 59.3047ZM37.7188 51.302C35.6702 51.302 33.6217 51.302 31.5731 51.302C30.4911 51.302 29.406 51.2837 28.324 51.3172C27.5246 51.3415 27.0444 51.8399 27.0231 52.5694C27.0018 53.2806 27.4851 53.8308 28.2389 53.928C28.4698 53.9584 28.7069 53.9402 28.941 53.9402C34.7645 53.9402 40.591 53.9402 46.4145 53.9402C46.7641 53.9402 47.1136 53.9797 47.454 53.8429C48.0771 53.5967 48.3962 53.1347 48.3263 52.4813C48.2564 51.8339 47.8674 51.4175 47.2017 51.3293C46.9434 51.2929 46.6759 51.305 46.4115 51.305C43.5149 51.302 40.6184 51.302 37.7188 51.302ZM37.6246 40.7978C40.667 40.7978 43.7125 40.8008 46.7549 40.7947C47.685 40.7917 48.2534 40.357 48.3354 39.6215C48.4297 38.7766 47.7944 38.1656 46.7732 38.1626C42.9678 38.1535 39.1625 38.1596 35.3572 38.1596C33.0746 38.1596 30.792 38.1504 28.5094 38.1626C27.6036 38.1687 27.0535 38.6611 27.0261 39.43C26.9957 40.2719 27.5702 40.7917 28.5823 40.7947C31.5974 40.8008 34.6125 40.7978 37.6246 40.7978Z" fill="#BFD6ED"/>
<path fill-rule="evenodd" clip-rule="evenodd" d="M52.6635 12.486C52.6756 11.3736 52.6847 10.2642 52.703 9.15177C52.7516 6.59562 54.5023 4.80237 57.0493 4.71119C57.7514 4.68687 58.4596 4.75374 59.1556 4.69295C62.7057 4.39205 64.8211 6.58955 64.6205 10.1821C64.4746 12.8082 64.6235 15.4494 64.5719 18.0846C64.5567 18.8566 64.7451 19.1302 65.5232 19.0299C66.0399 18.963 66.5748 18.9995 67.1007 19.0238C68.6872 19.0937 69.8209 20.1818 69.83 21.7592C69.8574 26.6193 69.8483 31.4793 69.8361 36.3393C69.8331 37.318 69.3255 37.8468 68.4957 37.8256C67.6933 37.8043 67.2101 37.2572 67.207 36.2663C67.1949 31.7285 67.1827 27.1907 67.2192 22.6528C67.2253 21.8808 67.0703 21.5951 66.2314 21.6316C64.5931 21.7076 64.5901 21.6529 64.5901 23.2972C64.5901 29.5614 64.5931 35.8256 64.5871 42.0929C64.5871 43.3178 64.4169 43.5427 63.271 43.9439C62.1586 43.5609 61.9124 43.2205 61.9124 42.0108C61.9093 34.1023 61.9124 26.1968 61.9124 18.2882C61.9124 18.0846 61.9002 17.8779 61.9124 17.6743C61.9397 17.2731 61.7878 17.0816 61.3592 17.0907C59.8973 17.1181 58.4323 17.1272 56.9703 17.1424C55.3564 16.9843 55.3564 16.9843 55.3564 18.5284C55.3564 30.2422 55.3503 41.9561 55.3625 53.67C55.3625 55.442 55.0464 55.2292 56.9429 55.2323C58.3715 55.4602 59.8061 55.2931 61.2376 55.3356C61.8486 55.3539 61.9245 54.98 61.9215 54.4755C61.9033 52.4543 61.9033 50.4361 61.9185 48.4149C61.9276 47.3268 62.2558 46.956 63.3044 46.7371C64.1828 46.8374 64.5871 47.3602 64.5871 48.2143C64.5871 52.6883 64.584 57.1593 64.581 61.6333C64.581 62.5846 64.3166 63.4752 63.9336 64.3353C62.9427 66.5723 61.9367 68.8032 60.9762 71.0555C60.5386 72.0828 59.8638 72.7454 58.7271 72.873C57.5022 72.8183 56.7667 72.1527 56.2986 71.0463C55.3989 68.9218 54.4689 66.8094 53.5054 64.7152C52.9309 63.466 52.6847 62.1864 52.6878 60.8096C52.706 45.0533 52.6999 29.2939 52.6999 13.5376C52.703 13.1851 52.6756 12.8355 52.6635 12.486ZM58.6329 69.7576C59.4079 68.013 60.0036 66.3535 60.8547 64.8368C61.9762 62.8369 62.0188 60.7245 61.958 58.5543C61.9458 58.1471 61.8425 57.989 61.4139 57.9951C59.572 58.0164 57.7302 58.0073 55.8913 58.0164C55.6786 58.0164 55.3594 57.9343 55.3716 58.299C55.4172 59.7245 55.0403 61.2169 55.5479 62.5633C56.4445 64.9523 57.5508 67.2653 58.6329 69.7576ZM58.6511 14.4495C58.6511 14.4525 58.6511 14.4555 58.6511 14.4586C59.5568 14.4586 60.4656 14.4495 61.3714 14.4647C61.7361 14.4707 61.9701 14.4373 61.961 13.9632C61.9337 12.3249 61.9762 10.6867 61.9306 9.05147C61.9002 7.99983 61.2559 7.39499 60.189 7.35852C59.1678 7.32508 58.1405 7.32812 57.1192 7.36763C56.0038 7.41019 55.3776 8.0363 55.3594 9.13049C55.3351 10.7079 55.3685 12.2884 55.3412 13.8689C55.3351 14.3279 55.4658 14.4799 55.9308 14.4616C56.8366 14.4251 57.7423 14.4495 58.6511 14.4495Z" fill="#030304"/>
<path fill-rule="evenodd" clip-rule="evenodd" d="M52.6636 12.4858C52.6758 12.8354 52.7031 13.1849 52.7031 13.5375C52.7062 29.2938 52.7122 45.0531 52.691 60.8094C52.6879 62.1863 52.9341 63.4659 53.5086 64.7151C54.4721 66.8092 55.4021 68.9216 56.3018 71.0462C56.7699 72.1495 57.5024 72.8181 58.7303 72.8729C58.6057 73.8911 58.9005 74.9366 58.5388 75.9396C56.1893 75.7117 54.5116 74.5719 53.5694 72.3622C52.618 70.1343 51.6211 67.9247 50.612 65.7181C49.9585 64.2896 49.5816 62.8033 49.5816 61.238C49.5756 45.5698 49.5786 29.9017 49.5756 14.2335C49.5756 13.7654 49.5361 13.2974 49.5178 12.8323C49.5361 12.7199 49.5543 12.6074 49.5725 12.495C50.6029 12.4919 51.6332 12.4889 52.6636 12.4858Z" fill="#BFD6ED"/>
<path fill-rule="evenodd" clip-rule="evenodd" d="M56.9764 17.1423C58.4384 17.1271 59.9034 17.121 61.3653 17.0906C61.7939 17.0815 61.9428 17.273 61.9185 17.6742C61.9064 17.8779 61.9185 18.0845 61.9185 18.2882C61.9185 26.1967 61.9185 34.1022 61.9185 42.0108C61.9185 43.2205 62.1647 43.5609 63.2771 43.9438C63.2863 44.8739 63.2984 45.804 63.3075 46.731C62.2589 46.9498 61.9307 47.3206 61.9216 48.4087C61.9064 50.4299 61.9064 52.4481 61.9246 54.4693C61.9307 54.9769 61.8547 55.3477 61.2407 55.3295C59.8092 55.29 58.3715 55.4541 56.946 55.2261C56.9491 50.1351 56.9552 45.0441 56.9582 39.9561C56.9643 32.3546 56.9704 24.7469 56.9764 17.1423Z" fill="#6498CA"/>
<path fill-rule="evenodd" clip-rule="evenodd" d="M20.2329 7.96006C21.2815 7.95094 22.3331 7.89623 23.3817 7.94182C24.5306 7.99045 25.3574 7.57101 25.8497 6.52242C26.254 6.52242 26.6613 6.50114 27.0655 6.5285C27.8497 6.57713 28.1719 6.22455 28.1445 5.44646C28.1111 4.52552 28.1019 3.60154 28.3177 2.69276C29.7797 2.68364 31.2447 2.65021 32.7067 2.66844C33.6063 2.6806 34.1048 3.1973 34.1473 4.09393C34.1747 4.67749 34.1321 5.2641 34.1656 5.85071C34.2355 7.1303 35.0288 7.90535 36.3053 7.92662C37.8281 7.9479 39.3478 7.92662 40.8705 7.93574C41.8492 7.94182 42.0802 8.15762 42.0863 9.11807C42.0984 11.6651 42.0832 14.2121 42.0954 16.7561C42.0984 17.4886 41.8462 17.9476 41.0468 17.9476C34.1109 17.9384 27.1749 17.9263 20.239 17.9172C20.2329 14.5951 20.2329 11.2761 20.2329 7.96006Z" fill="#69CFB2"/>
<path fill-rule="evenodd" clip-rule="evenodd" d="M5.4644 13.8994C5.24556 14.7595 5.28811 15.6349 5.28811 16.5102C5.28811 39.3636 5.28811 62.2199 5.28811 85.0732C5.28811 85.8301 5.2486 86.5899 5.46743 87.3315C5.06015 87.3437 4.64983 87.3771 4.24255 87.3589C3.34593 87.3224 2.8505 86.827 2.78363 85.9395C2.76844 85.7358 2.77452 85.5292 2.77452 85.3255C2.77452 62.1743 2.77452 39.0231 2.77452 15.8719C2.77452 14.1972 3.15141 13.8325 4.85651 13.8507C5.06016 13.8507 5.2638 13.8811 5.4644 13.8994Z" fill="#BFD6ED"/>
<path fill-rule="evenodd" clip-rule="evenodd" d="M20.233 7.96034C20.233 11.2794 20.233 14.5954 20.233 17.9144C20.2026 17.9205 20.1753 17.9266 20.1449 17.9266C18.0203 18.0177 17.9504 17.9509 17.9504 15.8689C17.9504 13.7352 17.9504 11.6016 17.9504 9.46485C17.9504 8.09711 18.1328 7.92083 19.5309 7.92691C19.765 7.92994 19.999 7.94818 20.233 7.96034Z" fill="#69CFB2"/>
<path fill-rule="evenodd" clip-rule="evenodd" d="M28.3147 2.68699C28.0989 3.59578 28.108 4.51976 28.1414 5.4407C28.1688 6.21879 27.8466 6.57136 27.0624 6.52273C26.6582 6.49841 26.2509 6.51969 25.8467 6.51665C25.8558 5.87533 25.8649 5.23402 25.868 4.5927C25.8771 3.11555 26.3421 2.6414 27.7889 2.65052C27.9682 2.65964 28.1414 2.67787 28.3147 2.68699Z" fill="#69CFB2"/>
<path fill-rule="evenodd" clip-rule="evenodd" d="M15.5826 44.1444C17.2816 44.1444 18.9806 44.1383 20.6797 44.1474C22.3027 44.1566 23.1902 45.0228 23.1963 46.6306C23.2085 50.0287 23.2085 53.4268 23.1963 56.8218C23.1902 58.4144 22.3483 59.2898 20.7739 59.2989C17.3181 59.3171 13.8623 59.3202 10.4065 59.2989C8.89283 59.2898 8.05091 58.4661 8.0418 56.9616C8.01748 53.4754 8.01748 49.9922 8.0418 46.506C8.05395 44.9802 8.93842 44.1566 10.4885 44.1474C12.1845 44.1353 13.8835 44.1444 15.5826 44.1444ZM11.9748 46.81C10.683 46.7401 10.683 46.7401 10.683 47.9923C10.683 50.4724 10.683 52.9526 10.683 55.4297C10.683 56.7002 10.683 56.7002 11.9657 56.6181C14.6495 56.6303 17.3363 56.6364 20.0201 56.6668C20.5368 56.6728 20.5672 56.4084 20.5672 56.0133C20.5581 53.1502 20.552 50.2901 20.5702 47.43C20.5733 46.9528 20.4608 46.7644 19.9411 46.7704C17.2877 46.8039 14.6312 46.8008 11.9748 46.81Z" fill="#030304"/>
<path fill-rule="evenodd" clip-rule="evenodd" d="M15.6466 62.7C17.3456 62.7 19.0447 62.6848 20.7437 62.7031C22.3364 62.7213 23.1904 63.5754 23.1965 65.1498C23.2087 68.5752 23.2117 72.0037 23.1965 75.4291C23.1904 76.9427 22.2999 77.8484 20.8015 77.8576C17.3456 77.8758 13.8898 77.8758 10.434 77.8576C8.94776 77.8515 8.05721 77.0004 8.04505 75.5263C8.0177 72.0128 8.0177 68.4962 8.04505 64.9826C8.05721 63.5389 8.91128 62.7274 10.3763 62.7031C12.13 62.6787 13.8868 62.7 15.6466 62.7ZM11.972 75.2011C14.6284 75.2102 17.2879 75.2133 19.9443 75.2346C20.3668 75.2376 20.5735 75.1616 20.5705 74.6662C20.5492 71.7453 20.5553 68.8244 20.5674 65.9036C20.5705 65.4993 20.4519 65.3321 20.0234 65.3352C17.3365 65.3625 14.6497 65.3686 11.9659 65.3808C10.6833 65.3018 10.6833 65.3018 10.6833 66.5722C10.6833 69.0554 10.6833 71.5356 10.6833 74.0157C10.6833 75.2619 10.6833 75.2619 11.972 75.2011Z" fill="#030304"/>
<path fill-rule="evenodd" clip-rule="evenodd" d="M15.6161 25.6556C17.3455 25.6556 19.0719 25.6465 20.8013 25.6587C22.318 25.6708 23.1903 26.534 23.1964 28.0689C23.2116 31.4943 23.2116 34.9228 23.1964 38.3482C23.1903 39.9226 22.3119 40.7919 20.7405 40.7949C17.3151 40.8041 13.8867 40.8041 10.4613 40.7949C8.91723 40.7919 8.051 39.9591 8.03884 38.4181C8.01453 34.9623 8.01757 31.5065 8.03884 28.0507C8.04796 26.458 8.899 25.6647 10.522 25.6556C12.218 25.6495 13.9171 25.6556 15.6161 25.6556ZM11.9718 38.1324C14.6283 38.1415 17.2847 38.1446 19.9412 38.1658C20.3545 38.1689 20.5764 38.1111 20.5734 37.6066C20.5521 34.6857 20.5582 31.7679 20.5703 28.847C20.5734 28.4397 20.4548 28.2817 20.0293 28.2847C17.3425 28.309 14.6587 28.3121 11.9718 28.3242C10.6862 28.2543 10.6862 28.2543 10.6862 29.5066C10.6862 31.9867 10.6862 34.4699 10.6862 36.9501C10.6831 38.1932 10.6831 38.1932 11.9718 38.1324Z" fill="#030303"/>
<path fill-rule="evenodd" clip-rule="evenodd" d="M39.4634 72.4595C35.8343 72.4595 32.2052 72.4655 28.5762 72.4564C27.5793 72.4534 27.0352 71.9944 27.0291 71.1799C27.023 70.4626 27.409 70.0249 28.0868 69.8729C28.3938 69.803 28.7251 69.8213 29.0473 69.8213C36.0136 69.8182 42.9799 69.8182 49.9463 69.8182C50.1499 69.8182 50.3566 69.8091 50.5602 69.8213C51.4903 69.8699 52.0678 70.417 52.0313 71.2133C51.9979 71.9671 51.4356 72.4534 50.5238 72.4534C46.837 72.4625 43.1502 72.4595 39.4634 72.4595Z" fill="#050505"/>
<path fill-rule="evenodd" clip-rule="evenodd" d="M39.4542 77.8667C35.9406 77.8667 32.4301 77.8667 28.9165 77.8667C28.6521 77.8667 28.3816 77.894 28.1293 77.8363C27.4181 77.6752 26.9926 77.2284 27.0351 76.4716C27.0777 75.7208 27.5184 75.3105 28.2631 75.2376C28.3786 75.2254 28.4971 75.2315 28.6126 75.2315C35.8707 75.2315 43.1319 75.2315 50.39 75.2315C50.4781 75.2315 50.5663 75.2285 50.6544 75.2315C51.4659 75.271 52.0221 75.7908 52.0313 76.5202C52.0404 77.2497 51.5024 77.8363 50.6939 77.8545C49.1742 77.891 47.6515 77.8667 46.1287 77.8697C43.9039 77.8697 41.679 77.8667 39.4542 77.8667Z" fill="#030303"/>
<path fill-rule="evenodd" clip-rule="evenodd" d="M37.6216 35.4211C34.7524 35.4211 31.8862 35.4241 29.017 35.418C28.6675 35.418 28.3058 35.4241 27.9715 35.3421C27.3575 35.1962 27.0414 34.7585 27.0293 34.1324C27.0141 33.5063 27.3058 33.0534 27.9107 32.8741C28.2116 32.7859 28.5459 32.7829 28.8651 32.7829C34.7463 32.7768 40.6276 32.7768 46.5088 32.7829C46.8006 32.7829 47.1015 32.7859 47.3781 32.8589C48.0285 33.0291 48.3568 33.4971 48.3325 34.1537C48.3082 34.7676 47.9708 35.2053 47.3599 35.3481C47.0529 35.4211 46.7216 35.418 46.3994 35.418C43.4755 35.4241 40.5486 35.4211 37.6216 35.4211Z" fill="#050505"/>
<path fill-rule="evenodd" clip-rule="evenodd" d="M37.6245 59.3053C34.6094 59.3053 31.5973 59.3023 28.5823 59.3083C27.8406 59.3083 27.2449 59.0956 27.0625 58.2901C26.868 57.4391 27.403 56.7492 28.3391 56.6793C28.9196 56.6337 29.5093 56.6671 30.0928 56.6671C35.506 56.6671 40.9223 56.6671 46.3355 56.6671C46.5999 56.6671 46.8643 56.6549 47.1227 56.6884C47.8886 56.7947 48.3719 57.3418 48.3415 58.047C48.3141 58.743 47.7944 59.2779 47.0163 59.2931C45.4966 59.3235 43.9738 59.3053 42.4511 59.3083C40.8432 59.3053 39.2323 59.3053 37.6245 59.3053Z" fill="#050505"/>
<path fill-rule="evenodd" clip-rule="evenodd" d="M37.7187 51.3019C40.6153 51.3019 43.5149 51.3019 46.4114 51.3019C46.6758 51.3019 46.9403 51.2898 47.2017 51.3263C47.8703 51.4144 48.2594 51.8338 48.3262 52.4782C48.3962 53.1317 48.077 53.5937 47.4539 53.8399C47.1135 53.9766 46.761 53.9371 46.4145 53.9371C40.5909 53.9402 34.7674 53.9402 28.9409 53.9371C28.7068 53.9371 28.4698 53.9523 28.2388 53.925C27.485 53.8277 27.0017 53.2806 27.023 52.5663C27.0443 51.8369 27.5245 51.3384 28.3239 51.3141C29.4059 51.2807 30.4879 51.2989 31.573 51.2989C33.6216 51.3019 35.6701 51.3019 37.7187 51.3019Z" fill="#050505"/>
<path fill-rule="evenodd" clip-rule="evenodd" d="M37.6246 40.7982C34.6095 40.7982 31.5944 40.8043 28.5793 40.7952C27.5672 40.7922 26.9927 40.2754 27.0231 39.4305C27.0505 38.6646 27.6036 38.1691 28.5064 38.1631C30.789 38.1509 33.0715 38.16 35.3541 38.16C39.1595 38.16 42.9648 38.1539 46.7702 38.1631C47.7914 38.1661 48.4267 38.777 48.3324 39.622C48.2504 40.3606 47.685 40.7952 46.7519 40.7952C43.7125 40.8013 40.6701 40.7982 37.6246 40.7982Z" fill="#030303"/>
<path fill-rule="evenodd" clip-rule="evenodd" d="M56.9765 17.1423C56.9705 24.7499 56.9644 32.3545 56.9583 39.9621C56.9553 45.0532 56.9492 50.1442 56.9461 55.2322C55.0495 55.2291 55.3687 55.4419 55.3656 53.6699C55.3565 41.956 55.3596 30.2421 55.3596 18.5282C55.3626 16.9812 55.3626 16.9812 56.9765 17.1423Z" fill="#6498CA"/>
<path fill-rule="evenodd" clip-rule="evenodd" d="M58.633 69.7574C57.551 67.2651 56.4446 64.9521 55.545 62.5601C55.0374 61.2136 55.4143 59.7213 55.3687 58.2958C55.3565 57.9311 55.6757 58.0162 55.8884 58.0131C57.7303 58.004 59.5722 58.0131 61.4111 57.9919C61.8426 57.9858 61.9429 58.1438 61.9551 58.5511C62.0159 60.7213 61.9733 62.8367 60.8518 64.8336C60.0038 66.3533 59.4081 68.0128 58.633 69.7574Z" fill="#6498CA"/>
<path fill-rule="evenodd" clip-rule="evenodd" d="M58.6512 14.4495C57.7454 14.4495 56.8367 14.4252 55.9309 14.4586C55.4659 14.4768 55.3352 14.3249 55.3413 13.8659C55.3686 12.2885 55.3352 10.708 55.3595 9.12748C55.3777 8.03329 56.0008 7.40718 57.1193 7.36462C58.1406 7.32511 59.1679 7.32207 60.1891 7.3555C61.256 7.38894 61.9003 7.99378 61.9307 9.04846C61.9763 10.6837 61.9338 12.3249 61.9611 13.9601C61.9702 14.4343 61.7362 14.4677 61.3715 14.4616C60.4657 14.4465 59.5569 14.4556 58.6512 14.4556C58.6512 14.4556 58.6512 14.4525 58.6512 14.4495Z" fill="#BFD6ED"/>
<path fill-rule="evenodd" clip-rule="evenodd" d="M11.9748 46.8103C14.6313 46.8012 17.2877 46.8012 19.9442 46.7677C20.4609 46.7616 20.5764 46.9501 20.5733 47.4273C20.5551 50.2874 20.5612 53.1505 20.5703 56.0106C20.5703 56.4087 20.5429 56.6701 20.0232 56.664C17.3394 56.6306 14.6525 56.6276 11.9688 56.6154C11.9688 53.3511 11.9718 50.0807 11.9748 46.8103ZM14.9626 54.2052C15.2574 54.193 15.5644 54.196 15.8014 54.0046C16.8318 53.1748 17.7527 52.2295 18.5278 51.1688C18.9016 50.6582 18.771 50.0321 18.2695 49.5822C17.771 49.1354 17.1965 49.0868 16.6646 49.488C16.2938 49.7646 15.9777 50.1232 15.6708 50.4758C15.303 50.8952 15.0173 51.2417 14.4276 50.6825C14.0416 50.3147 13.4854 50.4272 13.0417 50.7433C12.6283 51.0381 12.4429 51.4575 12.5006 51.9651C12.5949 52.7979 14.1267 54.1839 14.9626 54.2052Z" fill="#69CFB2"/>
<path fill-rule="evenodd" clip-rule="evenodd" d="M11.975 46.8099C11.9719 50.0803 11.9689 53.3477 11.9659 56.6181C10.6832 56.6971 10.6832 56.6971 10.6832 55.4296C10.6832 52.9495 10.6832 50.4724 10.6832 47.9922C10.6832 46.743 10.6832 46.743 11.975 46.8099Z" fill="#69CFB2"/>
<path fill-rule="evenodd" clip-rule="evenodd" d="M11.9658 65.3835C14.6527 65.3714 17.3395 65.3622 20.0233 65.3379C20.4519 65.3349 20.5704 65.5021 20.5674 65.9063C20.5552 68.8272 20.5522 71.7481 20.5704 74.6689C20.5734 75.1644 20.3668 75.2403 19.9443 75.2373C17.2878 75.216 14.6283 75.213 11.9719 75.2039C11.9719 71.9304 11.9689 68.657 11.9658 65.3835ZM15.0934 72.7693C15.3001 72.7966 15.5706 72.7146 15.7742 72.5626C16.8502 71.742 17.762 70.745 18.5553 69.666C18.917 69.1737 18.765 68.5141 18.2361 68.0916C17.7225 67.6813 17.1328 67.6631 16.6192 68.0673C16.2088 68.3895 15.8502 68.7877 15.5067 69.1858C15.1937 69.5536 14.9596 69.6843 14.5311 69.2922C14.136 68.9305 13.6041 68.9579 13.139 69.2375C12.7074 69.4958 12.4764 69.8879 12.4977 70.4046C12.5342 71.2921 14.1238 72.7815 15.0934 72.7693Z" fill="#69CFB2"/>
<path fill-rule="evenodd" clip-rule="evenodd" d="M11.9658 65.3839C11.9688 68.6573 11.9719 71.9277 11.9749 75.2012C10.6862 75.262 10.6862 75.262 10.6862 74.0188C10.6862 71.5356 10.6862 69.0555 10.6862 66.5753C10.6831 65.3048 10.6832 65.3048 11.9658 65.3839Z" fill="#69CFB2"/>
<path fill-rule="evenodd" clip-rule="evenodd" d="M11.9688 28.3242C14.6556 28.3151 17.3394 28.309 20.0262 28.2847C20.4517 28.2817 20.5703 28.4397 20.5672 28.847C20.5551 31.7679 20.549 34.6857 20.5703 37.6066C20.5733 38.1111 20.3514 38.1689 19.9381 38.1658C17.2816 38.1446 14.6252 38.1415 11.9688 38.1324C11.9718 34.862 11.9688 31.5946 11.9688 28.3242ZM14.9899 35.7009C15.458 35.7221 15.8592 35.5519 16.1753 35.2267C16.9108 34.473 17.6494 33.7222 18.3485 32.935C18.85 32.3727 18.8105 31.5977 18.3272 31.1114C17.8227 30.6068 17.0263 30.6159 16.4397 31.157C16.1388 31.4335 15.847 31.7253 15.5887 32.0414C15.2574 32.4457 14.9899 32.6736 14.4793 32.2055C14.0842 31.8439 13.5462 31.9047 13.0903 32.2086C12.6709 32.4882 12.4581 32.8864 12.5006 33.4031C12.5675 34.2572 14.1237 35.6948 14.9899 35.7009Z" fill="#BFD6ED"/>
<path fill-rule="evenodd" clip-rule="evenodd" d="M11.9688 28.3245C11.9688 31.5919 11.9688 34.8623 11.9688 38.1297C10.6801 38.1904 10.6801 38.1904 10.6801 36.9504C10.6801 34.4702 10.6801 31.987 10.6801 29.5069C10.6831 28.2577 10.6831 28.2577 11.9688 28.3245Z" fill="#BFD6ED"/>
<path fill-rule="evenodd" clip-rule="evenodd" d="M14.9627 54.2019C14.1269 54.1806 12.5981 52.7946 12.5038 51.9649C12.4461 51.4573 12.6315 51.0378 13.0449 50.743C13.4886 50.4269 14.0448 50.3145 14.4308 50.6822C15.0174 51.2415 15.3062 50.895 15.6739 50.4755C15.9809 50.123 16.297 49.7643 16.6678 49.4877C17.1997 49.0896 17.7742 49.1352 18.2726 49.582C18.7741 50.0318 18.9048 50.6579 18.531 51.1685C17.7559 52.2293 16.832 53.1745 15.8046 54.0043C15.5645 54.1927 15.2545 54.1927 14.9627 54.2019Z" fill="#030304"/>
<path fill-rule="evenodd" clip-rule="evenodd" d="M15.0933 72.7694C14.1238 72.7816 12.5341 71.2922 12.4946 70.4047C12.4734 69.885 12.7044 69.496 13.136 69.2376C13.604 68.958 14.1329 68.9306 14.528 69.2923C14.9566 69.6844 15.1906 69.5537 15.5037 69.1859C15.8441 68.7878 16.2058 68.3896 16.6161 68.0674C17.1328 67.6632 17.7194 67.6814 18.233 68.0918C18.7619 68.5142 18.9139 69.1707 18.5522 69.6662C17.7589 70.7452 16.8471 71.7421 15.7711 72.5627C15.5705 72.7147 15.3 72.7968 15.0933 72.7694Z" fill="#030304"/>
<path fill-rule="evenodd" clip-rule="evenodd" d="M14.9901 35.7009C14.1239 35.6948 12.5677 34.2572 12.4978 33.4C12.4552 32.8833 12.668 32.4852 13.0874 32.2056C13.5433 31.9016 14.0843 31.8408 14.4764 32.2025C14.9871 32.6706 15.2545 32.4426 15.5858 32.0384C15.8442 31.7223 16.136 31.4305 16.4369 31.1539C17.0265 30.6129 17.8198 30.6038 18.3243 31.1083C18.8076 31.5946 18.8471 32.3697 18.3456 32.932C17.6465 33.7192 16.908 34.473 16.1724 35.2237C15.8594 35.5519 15.4582 35.7221 14.9901 35.7009Z" fill="#030304"/>
</svg>
