<svg width="36" height="36" viewBox="0 0 36 36" fill="none" xmlns="http://www.w3.org/2000/svg">
<path fill-rule="evenodd" clip-rule="evenodd" d="M18.4248 35.993C12.3799 35.993 6.33505 35.9907 0.290173 36C0.0499097 36 -0.00696412 35.9536 0.00116072 35.7122C0.0232139 35.1039 0.0081248 34.4946 0.0081248 33.8852C0.0301779 33.9108 0.0568737 33.9328 0.0719627 33.9607C0.272762 34.3437 0.568739 34.5097 0.912303 34.4296C1.26515 34.3483 1.48452 34.0663 1.49497 33.6554C1.5031 33.3397 1.48685 33.0228 1.49497 32.7071C1.53211 31.3247 1.59595 29.9412 2.12406 28.6389C2.74736 27.0987 3.82216 26.1225 5.55043 25.989C5.99265 25.9554 6.43719 25.9287 6.87245 25.8289C7.70467 25.6373 8.40108 25.1847 9.04178 24.6531C10.0226 23.8394 11.1032 23.2069 12.2673 22.6985C13.0044 22.377 13.7461 22.0555 14.4297 21.6248C16.2311 20.4908 17.5543 18.8856 18.7475 17.1666C19.5809 15.9665 20.066 14.5945 20.5245 13.2191C20.8205 12.3323 21.1211 11.4514 21.6005 10.6412C21.7908 10.3185 21.9197 9.96453 21.9847 9.59311C22.0705 9.10214 21.987 8.6634 21.5622 8.33957C20.4792 7.51315 19.7828 6.40818 19.2582 5.1732C18.7986 4.09144 18.5095 2.96557 18.2913 1.81416C18.1996 1.33247 17.8259 1.08757 17.4092 1.18274C16.9821 1.28024 16.779 1.63657 16.8509 2.12523C16.9844 3.0294 17.2072 3.91269 17.5067 4.77508C18.1021 6.48594 18.9216 8.05984 20.3353 9.25419C20.5024 9.39463 20.485 9.5107 20.4003 9.67088C19.784 10.8281 19.3325 12.0515 18.9286 13.2969C18.4422 14.7988 17.7342 16.18 16.7372 17.4173C15.45 19.0156 14.0072 20.3887 12.0596 21.171C10.7573 21.6945 9.48981 22.312 8.43358 23.2649C7.52592 24.0832 6.48942 24.4894 5.26141 24.5509C3.93474 24.6183 2.8228 25.2218 1.92907 26.2131C0.920428 27.3308 0.460794 28.6842 0.212406 30.1385C0.142765 30.5436 0.169461 30.9661 0.0081248 31.3561C0.0081248 21.0166 0.00928553 10.6772 0 0.336601C0 0.0417851 0.0708021 0 0.347047 0C12.1269 0.00812484 23.9068 0.00812484 35.6866 0C35.9663 0 36.0023 0.0800877 36.0012 0.330797C35.993 5.8464 35.9954 11.3608 35.9954 16.8764C35.8839 16.8381 35.9304 16.7395 35.9234 16.6675C35.7551 14.9845 35.408 13.3433 34.7418 11.781C34.1046 10.2849 33.2178 8.96634 31.9678 7.91243C30.3648 6.56139 28.5054 5.85569 26.4115 5.79997C25.9647 5.78837 25.6246 5.62819 25.3332 5.31364C24.0855 3.97305 22.9875 2.5512 22.6753 0.67204C22.6079 0.26812 22.2574 0.0371422 21.8883 0.0800878C21.4972 0.125355 21.2302 0.435259 21.236 0.860072C21.2406 1.21292 21.3184 1.55649 21.4252 1.89193C21.9765 3.61207 22.9956 5.03392 24.2318 6.32345C24.8875 7.00825 25.6664 7.34253 26.6123 7.31119C27.1207 7.29494 27.614 7.40869 28.0992 7.53753C30.3915 8.14805 31.9805 9.61168 33.046 11.6858C33.8075 13.1692 34.2137 14.757 34.3982 16.4087C34.6989 19.0899 34.4157 21.713 33.595 24.2735C32.7327 26.9652 31.2446 29.2517 29.0335 31.038C26.9745 32.7013 24.6484 33.7633 22.0195 34.1824C19.4195 34.5967 16.8451 34.5967 14.2986 33.8759C12.7374 33.4337 11.2854 32.7802 10.1897 31.5244C9.75909 31.0311 9.35981 30.5099 8.9408 30.0062C8.36974 29.3191 7.68378 28.8223 6.74246 28.9244C5.50516 29.0579 4.7066 29.759 4.28179 30.9255C3.90224 31.9701 3.86046 33.0518 3.85466 34.1417C3.85466 34.2682 3.86974 34.3971 3.93823 34.5143C4.10188 34.794 4.34215 34.938 4.6625 34.8997C4.99329 34.8602 5.21266 34.6768 5.29507 34.3379C5.37052 34.0245 5.33454 33.7088 5.3473 33.3942C5.37748 32.6421 5.45641 31.9004 5.77328 31.2052C6.18881 30.2917 7.14522 30.1559 7.7836 30.9208C8.16546 31.3793 8.52876 31.854 8.91875 32.3055C9.47124 32.9462 10.0852 33.5219 10.8142 33.9618C12.7363 35.1202 14.8441 35.6634 17.0598 35.863C17.5148 35.906 17.9814 35.8421 18.4248 35.993ZM18.2565 33.2422C19.466 33.2259 20.6638 33.0948 21.8349 32.7895C25.3727 31.8645 28.2802 29.9505 30.5262 27.0789C32.1198 25.0431 33.0031 22.7426 32.6944 20.1008C32.5783 19.1061 32.3044 18.1509 31.7101 17.3233C31.1866 16.5932 30.3428 16.4748 29.6185 17.003C29.3492 17.1991 29.1461 17.4533 28.9662 17.7296C28.3371 18.6987 27.5803 19.553 26.6715 20.2726C24.7088 21.8268 22.4362 22.6613 20.0103 23.1349C18.2704 23.4738 16.5062 23.5771 14.7431 23.6909C13.7101 23.757 12.698 23.9033 11.7462 24.342C9.95293 25.1684 9.04643 27.0429 9.57338 28.8966C9.94016 30.1861 10.8049 31.0787 11.9516 31.7136C13.912 32.7965 16.0408 33.2039 18.2565 33.2422Z" fill="white"/>
<path fill-rule="evenodd" clip-rule="evenodd" d="M18.4246 35.993C17.9801 35.841 17.5147 35.9048 17.0597 35.8642C14.8428 35.6646 12.7349 35.1214 10.814 33.963C10.0851 33.5243 9.47108 32.9474 8.91859 32.3067C8.5286 31.8552 8.1653 31.3805 7.78343 30.922C7.14505 30.1571 6.18864 30.2929 5.77312 31.2064C5.45625 31.9016 5.37732 32.6433 5.34714 33.3954C5.33437 33.71 5.36919 34.0268 5.29491 34.3391C5.21366 34.678 4.99313 34.8614 4.66233 34.9008C4.34198 34.9391 4.10056 34.7952 3.93806 34.5155C3.86958 34.3983 3.85449 34.2694 3.85449 34.1429C3.8603 33.053 3.90092 31.9712 4.28163 30.9266C4.70644 29.759 5.50616 29.0591 6.74229 28.9256C7.68361 28.8235 8.36958 29.3202 8.94064 30.0074C9.35965 30.5111 9.75893 31.0322 10.1895 31.5255C11.2852 32.7814 12.7373 33.4349 14.2984 33.8771C16.8449 34.5979 19.4194 34.5967 22.0193 34.1835C24.6471 33.7645 26.9743 32.7025 29.0334 31.0392C31.2445 29.2529 32.7325 26.9663 33.5949 24.2747C34.4155 21.7142 34.6975 19.0911 34.3981 16.4099C34.2135 14.757 33.8073 13.1704 33.0459 11.687C31.9815 9.61285 30.3925 8.14922 28.099 7.53869C27.615 7.40986 27.1205 7.29495 26.6122 7.31236C25.6662 7.3437 24.8885 7.00942 24.2316 6.32461C22.9955 5.03392 21.9775 3.61207 21.425 1.89309C21.3171 1.55765 21.2405 1.21525 21.2358 0.861236C21.23 0.436423 21.497 0.126518 21.8882 0.0812511C22.2573 0.0383056 22.6078 0.270444 22.6751 0.673204C22.9873 2.55236 24.0865 3.97537 25.3331 5.31481C25.6256 5.62819 25.9657 5.78837 26.4114 5.80114C28.5053 5.85685 30.3647 6.56139 31.9676 7.9136C33.2177 8.9675 34.1044 10.286 34.7416 11.7822C35.4079 13.3456 35.7538 14.9857 35.9232 16.6687C35.9302 16.7407 35.8826 16.8393 35.9952 16.8776C35.9952 17.1121 35.9952 17.3465 35.9952 17.581C35.8814 17.6982 35.9 17.8155 35.9952 17.9327C35.9952 18.0035 35.9952 18.0731 35.9952 18.1439C35.8872 18.5188 35.8756 18.8937 35.9952 19.2686C35.9952 19.4323 35.9952 19.5971 35.9952 19.7608C35.8861 19.8014 35.9302 19.8977 35.9244 19.9709C35.7155 22.6346 35.0713 25.1777 33.791 27.5386C32.2937 30.2998 30.143 32.4019 27.3852 33.9015C24.8166 35.2978 22.0448 35.8387 19.157 35.9292C19.0305 35.9327 18.8796 35.8572 18.774 35.9965C18.6591 35.993 18.5419 35.993 18.4246 35.993Z" fill="#363636"/>
<path fill-rule="evenodd" clip-rule="evenodd" d="M0.0107422 31.3548C0.172078 30.9648 0.145382 30.5423 0.215024 30.1372C0.463412 28.684 0.923045 27.3307 1.93169 26.2118C2.82542 25.2205 3.93736 24.617 5.26403 24.5497C6.49204 24.487 7.52854 24.0807 8.4362 23.2636C9.49359 22.3107 10.7599 21.6932 12.0622 21.1697C14.0087 20.3874 15.4526 19.0143 16.7398 17.4161C17.7368 16.1776 18.4448 14.7964 18.9312 13.2956C19.3351 12.0513 19.7866 10.8268 20.4029 9.6696C20.4888 9.50942 20.5051 9.39335 20.3379 9.25291C18.9242 8.05972 18.1048 6.48466 17.5093 4.7738C17.2087 3.91141 16.987 3.02928 16.8535 2.12394C16.7816 1.63529 16.9835 1.27896 17.4118 1.18146C17.8285 1.08629 18.2023 1.33003 18.294 1.81288C18.5122 2.96312 18.8012 4.09016 19.2608 5.17192C19.7854 6.40806 20.4819 7.51303 21.5648 8.33829C21.9908 8.66328 22.0732 9.10086 21.9873 9.59183C21.9223 9.96325 21.7934 10.3173 21.6031 10.6399C21.1237 11.4501 20.8231 12.3311 20.5271 13.2178C20.0686 14.5933 19.5835 15.9652 18.7501 17.1653C17.5569 18.8843 16.2337 20.4896 14.4323 21.6236C13.7475 22.0542 13.007 22.3757 12.27 22.6972C11.1058 23.2056 10.0252 23.8393 9.0444 24.6518C8.4037 25.1834 7.70845 25.6361 6.87507 25.8276C6.43865 25.9274 5.99411 25.9541 5.55304 25.9878C3.82477 26.1212 2.74997 27.0974 2.12668 28.6376C1.59973 29.9399 1.53473 31.3235 1.49759 32.7058C1.48946 33.0215 1.50571 33.3384 1.49759 33.6541C1.48714 34.065 1.26777 34.3459 0.914921 34.4283C0.571356 34.5072 0.27538 34.3413 0.0745801 33.9594C0.0594911 33.9315 0.0327953 33.9095 0.0107422 33.8839C0.0107422 33.0413 0.0107422 32.1975 0.0107422 31.3548Z" fill="#363636"/>
<path fill-rule="evenodd" clip-rule="evenodd" d="M18.7764 35.9931C18.882 35.8526 19.0329 35.9292 19.1594 35.9258C22.0472 35.8352 24.8189 35.2932 27.3875 33.898C30.1453 32.3996 32.2949 30.2964 33.7934 27.5351C35.0736 25.1743 35.7178 22.6324 35.9267 19.9674C35.9325 19.8943 35.8884 19.7979 35.9975 19.7573C35.9975 25.0756 35.9952 30.3939 36.0045 35.7122C36.0045 35.9524 35.9569 36 35.7167 36C30.0687 35.9919 24.4231 35.9931 18.7764 35.9931Z" fill="white"/>
<path fill-rule="evenodd" clip-rule="evenodd" d="M35.9965 19.2651C35.8769 18.8902 35.8886 18.5153 35.9965 18.1404C35.9965 18.5153 35.9965 18.8902 35.9965 19.2651Z" fill="#363636"/>
<path fill-rule="evenodd" clip-rule="evenodd" d="M35.9965 17.9293C35.9013 17.8121 35.8827 17.6949 35.9965 17.5776C35.9965 17.696 35.9965 17.8133 35.9965 17.9293Z" fill="#363636"/>
<path fill-rule="evenodd" clip-rule="evenodd" d="M18.2578 33.2421C16.042 33.2038 13.9133 32.7964 11.9529 31.7123C10.8061 31.0786 9.94143 30.1849 9.57465 28.8954C9.0477 27.0417 9.9542 25.1684 11.7475 24.3408C12.6992 23.9021 13.7114 23.757 14.7444 23.6896C16.5075 23.5759 18.2729 23.4726 20.0116 23.1337C22.4386 22.6613 24.7101 21.8267 26.6728 20.2714C27.5805 19.5529 28.3372 18.6975 28.9675 17.7283C29.1474 17.4509 29.3517 17.1979 29.6198 17.0017C30.3441 16.4736 31.1879 16.592 31.7114 17.3221C32.3056 18.1497 32.5784 19.1049 32.6956 20.0996C33.0044 22.7414 32.1211 25.0419 30.5275 27.0777C28.2804 29.9481 25.374 31.8632 21.8362 32.7883C20.6651 33.0947 19.4672 33.2271 18.2578 33.2421ZM30.4973 18.2031C30.3185 18.3354 30.2303 18.4874 30.1351 18.6348C29.4376 19.7166 28.5786 20.651 27.57 21.4495C25.75 22.8876 23.6701 23.7744 21.4381 24.3362C19.2827 24.8782 17.075 25.0186 14.8697 25.1695C14.041 25.2264 13.2169 25.303 12.4439 25.6535C10.8096 26.3941 10.4045 28.1757 11.5734 29.5395C11.9042 29.926 12.3058 30.2278 12.7549 30.4623C14.9754 31.6183 17.3385 31.9503 19.7992 31.6439C23.7386 31.1529 26.8864 29.2354 29.3354 26.17C30.6783 24.4894 31.4525 22.5684 31.2181 20.3538C31.138 19.5936 30.9302 18.8681 30.4973 18.2031Z" fill="#363636"/>
<path fill-rule="evenodd" clip-rule="evenodd" d="M30.497 18.2031C30.93 18.8682 31.1377 19.5936 31.2178 20.355C31.4511 22.5696 30.6781 24.4894 29.3352 26.1713C26.885 29.2367 23.7383 31.1541 19.799 31.6451C17.3383 31.9515 14.974 31.6184 12.7547 30.4635C12.3055 30.229 11.9039 29.9273 11.5731 29.5408C10.4043 28.1769 10.8094 26.3953 12.4437 25.6548C13.2178 25.3042 14.0419 25.2276 14.8695 25.1708C17.0748 25.0199 19.2824 24.8794 21.4379 24.3374C23.6699 23.7756 25.7498 22.8888 27.5698 21.4507C28.5784 20.6533 29.4373 19.7178 30.1349 18.6361C30.2289 18.4875 30.3171 18.3354 30.497 18.2031Z" fill="white"/>
</svg>
