<svg width="36" height="36" viewBox="0 0 36 36" fill="none" xmlns="http://www.w3.org/2000/svg">
<path fill-rule="evenodd" clip-rule="evenodd" d="M35.9883 18.0404C35.9883 23.9305 35.987 29.8205 35.9948 35.7105C35.9948 35.9504 35.9491 35.9987 35.7079 35.9987C23.9044 35.9909 12.0995 35.9909 0.296001 36C0.0195596 36 0.00130425 35.9152 0.00130425 35.6844C0.00652013 23.8926 0.00651985 12.0995 0 0.307737C0 0.0560708 0.0508548 0.00130375 0.305129 0.00130375C12.0969 0.00912757 23.89 0.00912779 35.6818 0C35.9635 0 35.9961 0.0847579 35.9948 0.332512C35.987 6.23558 35.9883 12.1373 35.9883 18.0404ZM17.9987 27.0574C17.7875 26.7118 17.5919 26.4093 17.3493 26.1433C15.9854 24.645 14.2367 23.9213 12.2756 23.6162C11.8192 23.5458 11.3537 23.5862 10.909 23.3645C10.1371 22.9799 9.33773 22.6487 8.54491 22.3044C7.87076 22.0123 7.21356 22.0514 6.62025 22.4974C6.38945 22.6708 6.34251 22.5913 6.24993 22.38C5.77267 21.2899 5.2876 20.2011 4.79079 19.1201C4.40351 18.2777 3.55071 17.8135 2.71226 17.9622C1.40438 18.1956 0.710664 19.4565 1.22964 20.707C2.22327 23.0998 3.23515 25.4848 4.24181 27.8737C4.59519 28.7121 5.21718 29.2467 6.07911 29.5323C7.96334 30.1556 9.84106 30.7972 11.724 31.4231C12.0748 31.5391 12.2404 31.753 12.226 32.1233C12.2143 32.4389 12.2469 32.7583 12.2182 33.0713C12.1543 33.7728 12.4985 34.2292 13.0984 34.4783C14.6931 35.1394 16.2801 35.1485 17.8279 34.3127C17.9178 34.2644 17.9804 34.1875 18.1056 34.2709C18.9832 34.859 19.9794 34.9686 20.9965 34.9268C21.7737 34.8942 22.5313 34.7508 23.1924 34.2983C23.5745 34.0375 23.7909 33.6894 23.7688 33.2056C23.7518 32.8548 23.7648 32.5028 23.7662 32.152C23.7688 31.6878 23.8587 31.5665 24.3047 31.4165C26.1733 30.788 28.0419 30.1543 29.9131 29.531C30.7463 29.2533 31.3696 28.7486 31.7152 27.931C32.7388 25.5135 33.7611 23.0933 34.7769 20.6718C34.9738 20.2037 35.0012 19.7173 34.8186 19.2336C34.5187 18.442 33.9293 18.0169 33.0987 17.9426C32.3137 17.8722 31.5587 18.3325 31.2105 19.0914C30.7046 20.1946 30.2143 21.3056 29.7253 22.4165C29.6431 22.6043 29.6001 22.6669 29.3954 22.513C28.7943 22.0606 28.1292 22.0045 27.4407 22.3057C26.5958 22.676 25.7547 23.0529 24.9136 23.431C24.7624 23.4988 24.6137 23.5432 24.4455 23.5523C23.0711 23.6266 21.7737 23.9826 20.5623 24.6372C19.51 25.2096 18.6233 25.9686 17.9987 27.0574ZM17.009 5.70487C16.9503 5.70487 16.906 5.714 16.8668 5.70356C15.9828 5.47667 15.1939 5.71269 14.4858 6.23428C12.2886 7.8512 11.415 10.0992 11.4319 12.7567C11.4397 13.9225 11.8492 15.0022 12.1856 16.0949C12.2691 16.3674 12.2273 16.5539 12.0226 16.7495C11.338 17.4067 10.6678 18.0769 9.99102 18.742C9.53593 19.1905 9.37293 19.7356 9.53071 20.3471C9.84888 21.5898 11.3511 21.9836 12.2886 21.0643C13.2444 20.1268 14.2211 19.2101 15.1274 18.2256C15.143 18.236 15.1626 18.2425 15.1626 18.2491C15.1665 18.9284 15.1573 19.6065 15.1756 20.2859C15.1991 21.1882 15.915 21.8715 16.8069 21.8689C17.6962 21.8663 18.4147 21.1699 18.4238 20.2689C18.4355 19.0393 18.429 17.8096 18.4225 16.58C18.4199 16.0545 18.2699 15.5655 18.0052 15.113C17.6401 14.4897 17.6401 14.4897 17.6414 13.7673C17.6414 13.4009 17.6414 13.0345 17.6414 12.6485C18.4825 13.1388 19.274 13.6069 20.0746 14.0607C20.2428 14.1559 20.2624 14.2615 20.2311 14.4297C19.9351 16.0636 19.643 17.6975 19.3509 19.3314C19.2388 19.9638 19.1292 20.5975 19.0236 21.2325C18.9845 21.4738 19.0849 21.655 19.3209 21.7176C19.553 21.7789 19.7369 21.6863 19.8243 21.4516C19.8608 21.3538 19.8738 21.2469 19.8921 21.1439C20.1307 19.7851 20.3706 18.4264 20.6066 17.0677C20.6353 16.8981 20.6836 16.8069 20.8909 16.8095C21.8976 16.8225 22.9055 16.8199 23.9122 16.8108C24.0974 16.8095 24.1534 16.8786 24.173 17.0481C24.2369 17.6179 24.3086 18.1865 24.3855 18.755C24.4116 18.9467 24.3725 19.0601 24.1899 19.1788C23.5758 19.5765 23.3528 20.3015 23.6071 20.9626C23.8548 21.6107 24.5172 22.0136 25.1927 21.9276C25.876 21.8402 26.4393 21.2756 26.5032 20.6132C26.5749 19.8712 26.1837 19.2375 25.4809 19.0041C25.3114 18.948 25.2409 18.888 25.2201 18.7041C25.1158 17.7744 24.9762 16.8486 24.881 15.9176C24.7428 14.5771 24.1978 13.5209 22.9055 12.9667C22.7543 12.9015 22.7686 12.8089 22.7569 12.6954C22.6943 12.0813 22.3931 11.6275 21.8519 11.3211C21.0382 10.8608 20.2389 10.3757 19.4213 9.92451C18.918 9.64677 18.6598 9.18125 18.3847 8.71965C18.3442 8.65184 18.3469 8.59577 18.3847 8.52536C18.875 7.61649 18.6063 6.86931 17.8083 6.16517C18.6363 6.34121 19.3679 6.32686 20.042 5.9122C20.7175 5.49754 21.1308 4.89641 21.2782 4.11924C21.4959 2.97696 20.8557 1.77992 19.7799 1.29354C18.7015 0.807157 17.4145 1.1175 16.6739 2.04332C15.8185 3.11127 15.9202 4.27702 17.009 5.70487Z" fill="white"/>
<path fill-rule="evenodd" clip-rule="evenodd" d="M17.9991 27.0573C18.6251 25.9685 19.5104 25.2096 20.5641 24.6384C21.7754 23.9838 23.0729 23.6265 24.4473 23.5535C24.6155 23.5444 24.7654 23.5001 24.9154 23.4322C25.7565 23.0541 26.5988 22.6772 27.4425 22.3069C28.131 22.0044 28.796 22.0618 29.3971 22.5142C29.6006 22.6681 29.6449 22.6055 29.7271 22.4178C30.216 21.3068 30.705 20.1958 31.2123 19.0926C31.5604 18.3337 32.3154 17.8747 33.1004 17.9438C33.9311 18.0182 34.5191 18.4433 34.8204 19.2348C35.0042 19.7185 34.9755 20.2049 34.7786 20.673C33.7628 23.0945 32.7405 25.5147 31.7169 27.9322C31.3714 28.7485 30.7481 29.2545 29.9148 29.5322C28.0436 30.1555 26.1763 30.7892 24.3064 31.4178C23.8605 31.5677 23.7705 31.6877 23.7679 32.1532C23.7666 32.504 23.7549 32.856 23.7705 33.2068C23.7927 33.6906 23.5749 34.0387 23.1942 34.2995C22.5331 34.752 21.7754 34.8967 20.9983 34.928C19.9799 34.9698 18.9849 34.8602 18.1074 34.2721C17.9822 34.1887 17.9196 34.2643 17.8296 34.3139C16.2805 35.1497 14.6949 35.1406 13.1001 34.4795C12.5003 34.2304 12.1561 33.7727 12.22 33.0725C12.2486 32.7582 12.2147 32.4401 12.2278 32.1245C12.2421 31.7542 12.0765 31.5403 11.7257 31.4243C9.84282 30.7984 7.9651 30.1568 6.08086 29.5335C5.21894 29.248 4.59694 28.7133 4.24357 27.8749C3.2369 25.4873 2.22502 23.101 1.2314 20.7083C0.712419 19.459 1.40743 18.1968 2.71401 17.9634C3.55247 17.8134 4.40526 18.279 4.79254 19.1213C5.28935 20.2036 5.77443 21.2911 6.25168 22.3812C6.34426 22.5925 6.39121 22.672 6.62201 22.4986C7.21401 22.0526 7.87252 22.0135 8.54667 22.3056C9.33948 22.6499 10.1388 22.9798 10.9108 23.3657C11.3541 23.5874 11.8209 23.547 12.2773 23.6174C14.2385 23.9225 15.9858 24.6462 17.3511 26.1445C17.5923 26.4092 17.7866 26.7117 17.9991 27.0573ZM18.419 30.8466C18.419 31.5964 18.436 32.3462 18.4112 33.0947C18.4008 33.4037 18.5286 33.5719 18.7776 33.7023C19.2001 33.9227 19.6565 34.0231 20.122 34.0661C20.9709 34.1444 21.8041 34.0857 22.5839 33.6906C22.8238 33.5693 22.9529 33.4024 22.9308 33.109C22.9047 32.7595 22.9203 32.4075 22.9255 32.0554C22.9373 31.333 23.275 30.8779 23.9648 30.6445C25.8451 30.0121 27.7229 29.3731 29.6058 28.7498C30.2421 28.5386 30.7129 28.167 30.975 27.5411C31.9725 25.1639 32.9752 22.7881 33.9702 20.4096C34.2401 19.7629 34.0002 19.1187 33.4212 18.8762C32.8305 18.6271 32.2242 18.8931 31.9334 19.5399C31.3544 20.8282 30.7833 22.1191 30.2069 23.4075C30.1495 23.5366 30.1117 23.6565 30.1261 23.8078C30.2004 24.611 29.8144 25.3347 29.0842 25.6725C27.7815 26.2749 26.4645 26.8434 25.1553 27.4302C24.8985 27.545 24.6924 27.4954 24.5542 27.2568C24.429 27.0403 24.5438 26.7939 24.8124 26.6583C24.875 26.627 24.9415 26.6035 25.0054 26.5748C26.2207 26.035 27.4386 25.5003 28.65 24.9527C29.2146 24.6971 29.4389 24.1129 29.2055 23.5822C28.976 23.0593 28.3774 22.8389 27.8141 23.071C27.6629 23.1336 27.5155 23.2041 27.3669 23.2719C26.0629 23.8613 24.7746 24.4207 23.3037 24.5797C21.8315 24.7388 20.5197 25.4391 19.4596 26.5161C18.7698 27.2164 18.3486 28.0313 18.4125 29.0589C18.4503 29.6496 18.419 30.2494 18.419 30.8466ZM17.5754 30.8453C17.5754 30.6002 17.578 30.3537 17.5754 30.1073C17.5688 29.51 17.6236 28.905 17.5388 28.3195C17.4137 27.4498 16.8803 26.7834 16.231 26.2201C15.0848 25.2252 13.7273 24.7049 12.2447 24.4611C11.7205 24.375 11.1794 24.4389 10.6695 24.1859C9.84412 23.7778 8.99263 23.4205 8.14505 23.058C7.71735 22.8755 7.274 22.9746 6.98451 23.2914C6.68851 23.6161 6.62201 23.9903 6.78761 24.3972C6.9154 24.7101 7.17489 24.8797 7.4735 25.0114C8.70184 25.5525 9.92758 26.0963 11.152 26.6439C11.4519 26.7782 11.5719 27.0312 11.4402 27.2555C11.2889 27.5137 11.0646 27.5306 10.8038 27.4133C9.52595 26.8408 8.24154 26.2827 6.96756 25.7025C6.20604 25.3556 5.79399 24.6241 5.86832 23.7987C5.87875 23.6891 5.87744 23.5913 5.83311 23.4935C5.22285 22.1296 4.62042 20.763 3.99712 19.4056C3.77153 18.914 3.2343 18.6884 2.73618 18.8214C2.04116 19.0079 1.72691 19.6912 2.02812 20.4096C3.0048 22.7451 3.99973 25.0739 4.96727 27.4133C5.25284 28.1031 5.72357 28.5256 6.42902 28.7564C8.30283 29.3692 10.1688 30.0056 12.0348 30.6406C12.7455 30.8818 13.0623 31.3382 13.0701 32.0906C13.0741 32.4296 13.091 32.7713 13.0649 33.109C13.0415 33.4024 13.1705 33.5667 13.4105 33.6919C13.8212 33.907 14.2633 34.01 14.7184 34.057C15.5685 34.1457 16.4005 34.0805 17.1881 33.714C17.4502 33.5928 17.5975 33.4207 17.5858 33.0908C17.5558 32.3449 17.5754 31.5938 17.5754 30.8453Z" fill="#363636"/>
<path fill-rule="evenodd" clip-rule="evenodd" d="M17.0087 5.70498C15.9199 4.27713 15.8182 3.11138 16.6749 2.04213C17.4155 1.11631 18.7025 0.805964 19.7809 1.29234C20.8567 1.77742 21.497 2.97577 21.2792 4.11805C21.1318 4.89391 20.7185 5.49504 20.043 5.91101C19.3689 6.32567 18.6373 6.34001 17.8093 6.16398C18.6074 6.86812 18.876 7.61399 18.3857 8.52416C18.3479 8.59457 18.3453 8.65065 18.3857 8.71845C18.6621 9.18006 18.9203 9.64558 19.4223 9.92332C20.2399 10.3745 21.0393 10.8609 21.8529 11.3199C22.3941 11.6263 22.6953 12.0801 22.7579 12.6943C22.7696 12.809 22.7553 12.9003 22.9065 12.9655C24.2001 13.5197 24.7451 14.5772 24.8821 15.9164C24.9772 16.8474 25.1168 17.7732 25.2211 18.7029C25.242 18.8868 25.3111 18.9468 25.4819 19.0029C26.1847 19.2363 26.5759 19.87 26.5042 20.612C26.4403 21.2744 25.877 21.8403 25.1937 21.9264C24.5182 22.0124 23.8558 21.6095 23.6081 20.9614C23.3551 20.3003 23.5768 19.5753 24.191 19.1776C24.3735 19.0602 24.4126 18.9455 24.3865 18.7538C24.3096 18.1853 24.2379 17.6167 24.174 17.0469C24.1544 16.8774 24.0984 16.8083 23.9132 16.8096C22.9065 16.8187 21.8986 16.82 20.8919 16.8083C20.6846 16.8057 20.6376 16.897 20.6076 17.0665C20.3716 18.4252 20.1317 19.7839 19.8931 21.1427C19.8748 21.2457 19.8605 21.3526 19.8253 21.4504C19.7392 21.6838 19.5553 21.7777 19.3219 21.7164C19.0846 21.6538 18.9842 21.4713 19.0246 21.2313C19.1289 20.5963 19.2385 19.9626 19.3519 19.3302C19.6427 17.6963 19.9348 16.0624 20.2321 14.4285C20.2621 14.2616 20.2425 14.1547 20.0756 14.0595C19.275 13.6057 18.4835 13.1376 17.6424 12.6473C17.6424 13.0333 17.6424 13.3997 17.6424 13.7661C17.6424 14.4885 17.6424 14.4885 18.0062 15.1118C18.2709 15.5643 18.4209 16.0533 18.4235 16.5788C18.4287 17.8084 18.4365 19.0381 18.4248 20.2677C18.4157 21.1688 17.6972 21.8638 16.8079 21.8677C15.916 21.8716 15.2001 21.1883 15.1766 20.2847C15.1584 19.6066 15.1675 18.9272 15.1636 18.2479C15.1636 18.2413 15.1453 18.2348 15.1284 18.2244C14.2221 19.2089 13.2454 20.1256 12.2896 21.0631C11.3521 21.9824 9.84989 21.5886 9.53172 20.346C9.37525 19.7331 9.53694 19.1893 9.99202 18.7408C10.6675 18.0757 11.339 17.4042 12.0236 16.7483C12.2283 16.5527 12.2701 16.3662 12.1866 16.0937C11.8515 15.001 11.4407 13.9213 11.4329 12.7555C11.416 10.0981 12.2896 7.85131 14.4868 6.23309C15.1949 5.7115 15.9838 5.47418 16.8679 5.70237C16.9057 5.71411 16.95 5.70498 17.0087 5.70498ZM17.7024 7.54097C17.7154 7.57226 17.7285 7.60356 17.7415 7.63485C17.8067 7.59704 17.778 7.54488 17.7611 7.49533C17.7167 7.25149 17.5668 7.07415 17.3868 6.92028C16.6905 6.32697 15.8651 6.29046 15.0045 6.90724C13.0081 8.33769 12.2518 10.368 12.2779 12.7516C12.2896 13.8222 12.6678 14.8119 12.9859 15.812C13.1815 16.4236 13.0759 16.9217 12.6 17.369C11.9167 18.0092 11.2569 18.6743 10.5945 19.3367C10.2411 19.6901 10.2307 20.1777 10.5475 20.4946C10.8722 20.8206 11.3364 20.8154 11.7041 20.4568C12.5178 19.664 13.3237 18.8646 14.1295 18.064C14.5403 17.6546 14.6785 17.1538 14.5963 16.5853C14.565 16.3649 14.5338 16.1446 14.5272 15.9229C14.5168 15.6073 14.7685 15.4026 15.0501 15.4782C15.3944 15.5708 16.0138 16.3897 16.0138 16.7535C16.0151 17.8775 16.0111 19.0016 16.0151 20.1256C16.0177 20.6902 16.3306 21.0358 16.8157 21.0266C17.2812 21.0175 17.5811 20.6719 17.5824 20.1269C17.585 19.0029 17.585 17.8788 17.5811 16.7548C17.5811 16.5801 17.5655 16.4041 17.5342 16.2319C17.4338 15.6777 17.1273 15.2448 16.7166 14.8771C16.521 14.7024 16.3893 14.465 16.5849 14.2708C16.8157 14.0439 16.7948 13.8013 16.7948 13.5392C16.7948 13.1063 16.7831 12.6721 16.8001 12.2405C16.8079 12.024 16.7453 11.8728 16.5849 11.7228C15.8442 11.0291 15.2783 10.1932 14.7567 9.33393C14.3108 8.59849 14.5338 7.65311 15.2262 7.14456C16.0268 6.55256 16.9226 6.6973 17.7024 7.54097ZM21.1175 13.5731C21.4891 13.5692 21.776 13.3502 21.879 12.9981C21.9833 12.646 21.8595 12.3096 21.5087 12.1023C20.7067 11.625 19.9009 11.1543 19.0859 10.7005C18.5591 10.4071 18.1575 10.0068 17.8602 9.48519C17.5772 8.98837 17.2851 8.49678 16.9722 8.01822C16.7023 7.60617 16.2054 7.5175 15.8025 7.77177C15.3944 8.02996 15.2431 8.52938 15.4974 8.931C16.0477 9.80075 16.6279 10.6483 17.4038 11.342C18.417 12.247 19.6414 12.8155 20.7941 13.4988C20.8932 13.5575 21.0093 13.5849 21.1175 13.5731ZM20.4668 3.65644C20.4616 2.68107 19.6701 1.9013 18.6947 1.90912C17.7285 1.91564 16.9383 2.71889 16.9461 3.68774C16.9539 4.6605 17.7454 5.43506 18.726 5.42984C19.7027 5.42332 20.472 4.64094 20.4668 3.65644ZM22.4241 15.9711C22.8922 15.9711 23.3603 15.9724 23.8284 15.9711C23.9289 15.9711 24.0384 15.9985 24.0175 15.8173C23.9119 14.924 23.5285 14.2186 22.7044 13.7935C22.5675 13.7231 22.471 13.7022 22.3511 13.8548C22.0863 14.1912 21.7173 14.3764 21.2935 14.4038C21.0992 14.4155 21.0614 14.5055 21.0366 14.6528C20.9741 15.0218 20.9232 15.3922 20.8411 15.7573C20.7993 15.9424 20.8502 15.9763 21.021 15.9737C21.4878 15.9659 21.9559 15.9711 22.4241 15.9711ZM25.3893 19.9182C25.3593 20.2495 25.6279 20.7215 25.092 20.818C24.4961 20.9249 24.6526 20.342 24.5065 20.0278C24.2718 20.419 24.3331 20.7776 24.6552 20.9862C24.946 21.1753 25.3137 21.1127 25.5327 20.8375C25.7635 20.5468 25.7127 20.1934 25.3893 19.9182Z" fill="#363636"/>
<path fill-rule="evenodd" clip-rule="evenodd" d="M18.4182 30.8466C18.4182 30.2494 18.4482 29.6509 18.4116 29.0563C18.3478 28.0287 18.7689 27.2138 19.4587 26.5135C20.5202 25.4364 21.8307 24.7362 23.3028 24.5771C24.7737 24.418 26.062 23.8586 27.366 23.2692C27.5147 23.2014 27.662 23.131 27.8133 23.0684C28.3766 22.8363 28.9751 23.0567 29.2046 23.5796C29.438 24.1116 29.2137 24.6945 28.6491 24.9501C27.4377 25.499 26.2198 26.0324 25.0045 26.5722C24.9406 26.6009 24.8741 26.6244 24.8115 26.6557C24.5429 26.7913 24.4282 27.039 24.5533 27.2542C24.6916 27.4915 24.8989 27.5424 25.1545 27.4276C26.4637 26.8408 27.7807 26.271 29.0833 25.6699C29.8136 25.3321 30.1995 24.6084 30.1252 23.8052C30.1109 23.6539 30.1487 23.534 30.2061 23.4049C30.7824 22.1165 31.3535 20.8243 31.9325 19.5373C32.2233 18.8905 32.8309 18.6245 33.4203 18.8736C33.9993 19.1174 34.2392 19.7616 33.9693 20.407C32.9744 22.7855 31.9716 25.1613 30.9741 27.5384C30.712 28.1644 30.24 28.5373 29.6049 28.7472C27.722 29.3718 25.8443 30.0095 23.964 30.6419C23.2742 30.874 22.9364 31.3304 22.9247 32.0528C22.9195 32.4036 22.9038 32.7569 22.9299 33.1064C22.9521 33.3998 22.823 33.5667 22.583 33.688C21.8033 34.0831 20.97 34.1418 20.1212 34.0635C19.6556 34.0205 19.1992 33.9214 18.7768 33.6997C18.5277 33.5693 18.3999 33.4011 18.4103 33.0921C18.4351 32.3449 18.4182 31.5951 18.4182 30.8466Z" fill="white"/>
<path fill-rule="evenodd" clip-rule="evenodd" d="M17.5749 30.8456C17.5749 31.5954 17.5554 32.3452 17.584 33.0937C17.5958 33.4236 17.4484 33.5957 17.1863 33.717C16.3987 34.0834 15.5668 34.1486 14.7166 34.0599C14.2615 34.0117 13.8195 33.91 13.4087 33.6948C13.1688 33.5696 13.0397 33.4053 13.0632 33.1119C13.0893 32.7742 13.0723 32.4326 13.0684 32.0935C13.0606 31.3425 12.7424 30.8861 12.033 30.6435C10.1671 30.0085 8.30108 29.3722 6.42728 28.7593C5.72183 28.5285 5.24979 28.106 4.96553 27.4162C3.99798 25.0769 3.00305 22.748 2.02638 20.4126C1.72516 19.6941 2.03942 19.0108 2.73443 18.8243C3.23385 18.69 3.76979 18.9156 3.99537 19.4085C4.61867 20.766 5.2198 22.1338 5.83136 23.4965C5.8757 23.5943 5.8757 23.6921 5.86657 23.8016C5.79224 24.627 6.2043 25.3585 6.96582 25.7054C8.23979 26.2857 9.5242 26.8438 10.8021 27.4162C11.0642 27.5336 11.2872 27.5153 11.4384 27.2584C11.5701 27.0328 11.4515 26.7812 11.1503 26.6469C9.92583 26.0992 8.70009 25.5541 7.47176 25.0143C7.17315 24.8826 6.91366 24.7144 6.78587 24.4001C6.62026 23.992 6.68677 23.619 6.98277 23.2944C7.27094 22.9775 7.71429 22.8771 8.1433 23.0609C8.99088 23.4234 9.84237 23.7794 10.6678 24.1889C11.1776 24.4419 11.7188 24.378 12.243 24.464C13.7256 24.7079 15.083 25.2281 16.2292 26.2231C16.8786 26.7864 17.4119 27.4514 17.5371 28.3225C17.6219 28.9079 17.5671 29.513 17.5736 30.1102C17.5762 30.3527 17.5749 30.5992 17.5749 30.8456Z" fill="white"/>
<path fill-rule="evenodd" clip-rule="evenodd" d="M17.7029 7.54081C16.9231 6.69714 16.0273 6.5524 15.2253 7.1418C14.5329 7.65034 14.3099 8.59572 14.7559 9.33116C15.2788 10.1905 15.8434 11.0263 16.5841 11.72C16.7432 11.87 16.807 12.0212 16.7992 12.2377C16.7836 12.6706 16.7953 13.1035 16.794 13.5365C16.794 13.7986 16.8149 14.0411 16.5841 14.268C16.3872 14.461 16.5202 14.6996 16.7158 14.8743C17.1265 15.2421 17.433 15.6763 17.5334 16.2292C17.5647 16.4013 17.579 16.5773 17.5803 16.7521C17.5842 17.8761 17.5842 19.0001 17.5816 20.1241C17.5803 20.6692 17.2804 21.0147 16.8149 21.0239C16.3298 21.0343 16.0168 20.6874 16.0142 20.1228C16.0103 18.9988 16.0129 17.8748 16.0129 16.7507C16.0129 16.3856 15.3935 15.568 15.0493 15.4755C14.7676 15.3998 14.516 15.6046 14.5264 15.9201C14.5329 16.1418 14.5642 16.3635 14.5955 16.5825C14.6777 17.1524 14.5407 17.6531 14.1287 18.0612C13.3241 18.8619 12.517 19.6612 11.7033 20.454C11.3343 20.8126 10.8714 20.8191 10.5467 20.4918C10.2311 20.175 10.2416 19.6873 10.5936 19.3339C11.2547 18.6715 11.9159 18.0065 12.5991 17.3662C13.0751 16.919 13.1807 16.4208 12.9851 15.8093C12.6656 14.8091 12.2888 13.8194 12.2771 12.7489C12.251 10.3652 13.0073 8.33493 15.0037 6.90447C15.8643 6.289 16.6897 6.32421 17.386 6.91751C17.566 7.07138 17.7172 7.24872 17.7602 7.49256C17.742 7.51082 17.7224 7.52516 17.7029 7.54081Z" fill="white"/>
<path fill-rule="evenodd" clip-rule="evenodd" d="M21.1181 13.573C21.0112 13.5847 20.8938 13.5574 20.7934 13.4987C19.6407 12.8154 18.4163 12.2469 17.4031 11.3419C16.6259 10.6482 16.0469 9.79932 15.4967 8.93087C15.2424 8.52925 15.3937 8.02983 15.8018 7.77165C16.2047 7.51607 16.7015 7.60604 16.9715 8.0181C17.2844 8.49535 17.5765 8.98825 17.8595 9.48506C18.1568 10.0066 18.5597 10.407 19.0852 10.7004C19.9002 11.1541 20.706 11.6262 21.508 12.1021C21.8587 12.3108 21.9813 12.6459 21.8783 12.998C21.7753 13.35 21.4897 13.5691 21.1181 13.573Z" fill="white"/>
<path fill-rule="evenodd" clip-rule="evenodd" d="M20.4674 3.65631C20.4726 4.64081 19.7033 5.4245 18.7253 5.42971C17.7447 5.43493 16.9532 4.65907 16.9454 3.68761C16.9375 2.71876 17.7278 1.91551 18.694 1.90899C19.6707 1.90117 20.4609 2.68094 20.4674 3.65631Z" fill="white"/>
<path fill-rule="evenodd" clip-rule="evenodd" d="M22.4248 15.971C21.9566 15.971 21.4885 15.9658 21.0204 15.9737C20.8496 15.9763 20.8 15.9424 20.8404 15.7572C20.9226 15.3934 20.9734 15.0218 21.036 14.6527C21.0608 14.5054 21.0999 14.4154 21.2929 14.4037C21.7167 14.3763 22.0857 14.1911 22.3504 13.8547C22.4704 13.7021 22.5669 13.723 22.7038 13.7934C23.5279 14.2185 23.9113 14.924 24.0169 15.8172C24.0378 15.9984 23.9282 15.9697 23.8278 15.971C23.361 15.9724 22.8929 15.971 22.4248 15.971Z" fill="white"/>
<path fill-rule="evenodd" clip-rule="evenodd" d="M25.3893 19.9182C25.7127 20.1934 25.7635 20.5467 25.5314 20.8375C25.3136 21.1126 24.9446 21.1739 24.6538 20.9862C24.3331 20.7775 24.2718 20.4202 24.5052 20.0277C24.6512 20.3407 24.4961 20.9249 25.0907 20.818C25.6266 20.7228 25.3593 20.2507 25.3893 19.9182Z" fill="white"/>
<path fill-rule="evenodd" clip-rule="evenodd" d="M17.7618 7.49512C17.7788 7.54467 17.8074 7.59683 17.7422 7.63464C17.7292 7.60335 17.7162 7.57205 17.7031 7.54076C17.7227 7.52511 17.7422 7.51076 17.7618 7.49512Z" fill="white"/>
</svg>
