<svg width="36" height="36" viewBox="0 0 36 36" fill="none" xmlns="http://www.w3.org/2000/svg">
<path fill-rule="evenodd" clip-rule="evenodd" d="M0.00642507 18C0.00642507 12.0964 0.00856684 6.19168 0 0.28806C0 0.0471176 0.0471176 0 0.28806 0C12.0964 0.00749598 23.9036 0.00749598 35.7119 0C35.9529 0 36 0.0471176 36 0.28806C35.9925 12.0964 35.9925 23.9036 36 35.7119C36 35.9529 35.9529 36 35.7119 36C23.9036 35.9925 12.0964 35.9925 0.28806 36C0.0471176 36 0 35.9529 0 35.7119C0.00856684 29.8083 0.00642507 23.9047 0.00642507 18ZM28.4333 21.2522C28.4226 21.0648 28.4301 20.7339 28.383 20.4105C27.8155 16.5169 25.6684 13.9179 21.96 12.6125C21.794 12.5547 21.6784 12.4958 21.6013 12.3266C19.6106 8.00571 16.7685 4.28235 13.5281 0.840621C13.0966 0.382295 12.8567 0.385508 12.423 0.838479C10.0607 3.3068 7.95431 5.97537 6.17134 8.89131C4.69463 11.305 3.476 13.8333 2.92879 16.6368C2.25629 20.0828 2.92986 23.2119 5.28681 25.8633C7.55381 28.4141 10.4526 29.5203 13.8515 29.2889C14.221 29.2632 14.5144 29.3232 14.8399 29.4913C17.7976 31.013 20.7585 31.0045 23.7023 29.4474C23.9283 29.3275 24.0471 29.3371 24.227 29.5192C25.9757 31.2818 27.7309 33.0369 29.4903 34.7889C30.1874 35.4828 31.0152 35.6884 31.9372 35.3275C33.4321 34.7417 33.7855 32.8528 32.6193 31.6748C30.8728 29.9111 29.1123 28.1592 27.3518 26.4094C27.1815 26.2402 27.1323 26.1246 27.2661 25.8879C28.0543 24.4958 28.4344 22.9913 28.4333 21.2522Z" fill="white"/>
<path fill-rule="evenodd" clip-rule="evenodd" d="M28.4332 21.2522C28.4332 22.9923 28.0541 24.4958 27.2659 25.8879C27.1321 26.1246 27.1813 26.2402 27.3516 26.4094C29.1121 28.1592 30.8726 29.9111 32.6191 31.6748C33.7853 32.8527 33.4319 34.7407 31.937 35.3275C31.0161 35.6884 30.1883 35.4838 29.4901 34.7889C27.7307 33.0369 25.9745 31.2818 24.2268 29.5192C24.0469 29.3382 23.9281 29.3286 23.7021 29.4474C20.7583 31.0044 17.7974 31.013 14.8397 29.4913C14.5131 29.3232 14.2208 29.2643 13.8513 29.2889C10.4524 29.5202 7.55362 28.4141 5.28662 25.8633C2.92967 23.2118 2.2561 20.0817 2.9286 16.6368C3.47581 13.8333 4.69444 11.3061 6.17115 8.8913C7.95519 5.97536 10.0616 3.30679 12.4228 0.838469C12.8565 0.385497 13.0964 0.382284 13.5279 0.84061C16.7694 4.28234 19.6114 8.0057 21.6011 12.3266C21.6782 12.4947 21.7938 12.5536 21.9598 12.6125C25.6693 13.9179 27.8163 16.5169 28.3828 20.4105C28.431 20.7339 28.4235 21.0648 28.4332 21.2522ZM20.3418 12.2313C20.3054 12.1446 20.2829 12.0814 20.2529 12.0203C18.4014 8.30126 15.9095 5.03836 13.1178 1.98642C12.9689 1.82366 12.9047 1.90825 12.803 2.01855C10.2329 4.80813 7.92735 7.79367 6.13795 11.1508C5.01677 13.255 4.14295 15.4471 3.84739 17.8404C3.32053 22.1014 5.73103 26.1288 9.74673 27.6505C10.7801 28.0425 11.8499 28.2299 13.0535 28.2384C11.4751 26.751 10.5028 25.0162 10.159 22.958C9.81206 20.8827 10.0851 18.8781 11.1303 17.0491C13.151 13.5152 16.2693 11.9957 20.3418 12.2313ZM27.343 21.4321C27.3569 16.957 23.7428 13.3107 19.2763 13.2925C14.783 13.2743 11.1281 16.8959 11.1164 21.3775C11.1046 25.8622 14.7401 29.5149 19.2206 29.5213C23.6871 29.5277 27.3291 25.9018 27.343 21.4321ZM26.4724 27.0969C26.0109 27.6741 25.4958 28.1838 24.9197 28.6496C24.9807 28.7192 25.03 28.7835 25.0867 28.8403C26.8087 30.5633 28.5306 32.2852 30.2536 34.0071C30.3114 34.065 30.3703 34.1228 30.4367 34.171C30.8137 34.443 31.2184 34.4729 31.6275 34.2631C32.0269 34.0575 32.2186 33.7148 32.2122 33.2618C32.2079 32.9245 32.0634 32.6578 31.8299 32.4244C30.0983 30.6939 28.3689 28.9623 26.6384 27.2318C26.5902 27.1847 26.5324 27.1451 26.4724 27.0969Z" fill="#363636"/>
<path fill-rule="evenodd" clip-rule="evenodd" d="M20.3423 12.2313C16.2698 11.9946 13.1515 13.5141 11.1318 17.0501C10.0867 18.8791 9.81361 20.8848 10.1606 22.9591C10.5043 25.0162 11.4766 26.7521 13.0551 28.2395C11.8525 28.2309 10.7827 28.0435 9.74828 27.6516C5.73365 26.1299 3.32315 22.1024 3.84894 17.8415C4.1445 15.447 5.01832 13.255 6.1395 11.1518C7.9289 7.79471 10.2334 4.80917 12.8045 2.01959C12.9052 1.91036 12.9705 1.82577 13.1193 1.98746C15.91 5.03833 18.4019 8.3023 20.2544 12.0214C20.2834 12.0813 20.3058 12.1456 20.3423 12.2313ZM5.4156 19.0066C5.42738 20.721 5.93925 22.2802 6.99404 23.6551C7.2382 23.9743 7.54553 24.0364 7.81218 23.835C8.07668 23.6359 8.11095 23.3093 7.87215 22.9998C6.52287 21.2489 6.27871 19.2807 6.71883 17.1786C7.069 15.5059 7.74364 13.9575 8.53501 12.454C8.74703 12.0514 8.67743 11.744 8.35189 11.5845C8.04562 11.4356 7.76827 11.5545 7.56802 11.9507C7.27354 12.5343 6.9737 13.1169 6.71241 13.7155C5.97887 15.3989 5.44987 17.1347 5.4156 19.0066Z" fill="white"/>
<path fill-rule="evenodd" clip-rule="evenodd" d="M27.3429 21.4321C27.329 25.9019 23.687 29.5278 19.2205 29.5213C14.7389 29.5149 11.1045 25.8622 11.1162 21.3775C11.128 16.896 14.7828 13.2754 19.2762 13.2925C23.7427 13.3107 27.3568 16.957 27.3429 21.4321ZM19.2558 14.7371C15.6267 14.6889 12.6186 17.6498 12.5683 21.3186C12.518 24.9981 15.4575 28.0275 19.1187 28.0693C22.8517 28.111 25.8533 25.1908 25.8962 21.4749C25.939 17.7698 22.9984 14.7864 19.2558 14.7371Z" fill="white"/>
<path fill-rule="evenodd" clip-rule="evenodd" d="M26.4727 27.0969C26.5326 27.1451 26.5905 27.1837 26.6386 27.2329C28.3691 28.9634 30.0986 30.695 31.8302 32.4255C32.0636 32.6589 32.2082 32.9256 32.2124 33.2629C32.2178 33.7159 32.0272 34.0586 31.6278 34.2642C31.2198 34.474 30.815 34.4441 30.437 34.1721C30.3706 34.1249 30.3117 34.066 30.2539 34.0082C28.5308 32.2863 26.8089 30.5633 25.087 28.8413C25.0302 28.7846 24.981 28.7203 24.9199 28.6507C25.496 28.1838 26.0111 27.6741 26.4727 27.0969Z" fill="white"/>
<path fill-rule="evenodd" clip-rule="evenodd" d="M5.41504 19.0065C5.44931 17.1358 5.97938 15.3988 6.71184 13.7165C6.97206 13.1179 7.27297 12.5354 7.56746 11.9518C7.76771 11.5555 8.04506 11.4356 8.35132 11.5855C8.67793 11.7451 8.74647 12.0513 8.53444 12.4551C7.74308 13.9585 7.06844 15.507 6.71827 17.1797C6.27815 19.2818 6.5223 21.25 7.87158 23.0008C8.11038 23.3103 8.07611 23.6369 7.81161 23.8361C7.54497 24.0374 7.23871 23.9753 6.99348 23.6562C5.93869 22.2802 5.42575 20.721 5.41504 19.0065Z" fill="#363636"/>
<path fill-rule="evenodd" clip-rule="evenodd" d="M19.2565 14.7372C22.9992 14.7864 25.9397 17.7698 25.8969 21.475C25.854 25.1908 22.8524 28.1111 19.1194 28.0693C15.4582 28.0286 12.5176 24.9981 12.569 21.3186C12.6194 17.6499 15.6274 14.689 19.2565 14.7372ZM19.219 15.8251C16.1478 15.8273 13.6452 18.3449 13.6527 21.4257C13.6592 24.4809 16.1735 26.9856 19.2297 26.9834C22.3106 26.9813 24.8164 24.4734 24.8121 21.3979C24.8068 18.3181 22.3031 15.823 19.219 15.8251Z" fill="#363636"/>
<path fill-rule="evenodd" clip-rule="evenodd" d="M19.2188 15.825C22.3028 15.8228 24.8075 18.3179 24.8108 21.3977C24.815 24.4732 22.3092 26.9811 19.2284 26.9833C16.1722 26.9854 13.6589 24.4807 13.6514 21.4255C13.645 18.3447 16.1475 15.826 19.2188 15.825ZM21.5275 19.3845C21.5425 18.3993 20.9321 17.6936 19.9501 17.5629C18.3053 17.3445 16.3574 18.8319 16.0876 20.5099C15.9676 21.2542 16.1465 21.9031 16.7868 22.3261C17.0621 22.5082 17.0717 22.6527 17.0021 22.929C16.6798 24.1969 17.4369 25.2024 18.7444 25.2667C20.3003 25.3427 22.0694 23.9313 22.366 22.3872C22.4806 21.7918 22.396 21.2456 22.0073 20.7691C21.7203 20.4168 21.5211 19.8621 21.5275 19.3845Z" fill="white"/>
<path fill-rule="evenodd" clip-rule="evenodd" d="M21.5276 19.3847C21.5201 19.8633 21.7203 20.417 22.0073 20.7693C22.396 21.2458 22.4806 21.7909 22.366 22.3873C22.0694 23.9326 20.3004 25.344 18.7444 25.2669C17.4369 25.2026 16.6787 24.1971 17.0021 22.9292C17.0717 22.654 17.0621 22.5084 16.7869 22.3263C16.1465 21.9033 15.9677 21.2533 16.0876 20.5101C16.3575 18.8321 18.3054 17.3447 19.9502 17.5631C20.9322 17.6938 21.5426 18.3984 21.5276 19.3847ZM17.9595 21.5853C18.9586 21.5906 20.1397 20.6633 20.3957 19.6706C20.567 19.0077 20.2618 18.6201 19.5775 18.634C18.5881 18.6533 17.3876 19.6363 17.1735 20.6022C17.0375 21.218 17.3277 21.581 17.9595 21.5853ZM18.8108 24.1832C19.8506 24.1714 21.0585 23.2044 21.2823 22.2374C21.3155 22.0929 21.3166 21.9344 21.3038 21.7855C21.2823 21.5435 21.1367 21.3882 20.915 21.2919C20.6869 21.1933 20.6334 21.4054 20.5306 21.505C19.9406 22.0822 19.2606 22.4869 18.4414 22.639C18.36 22.654 18.27 22.6529 18.2283 22.7354C18.0569 23.0759 17.9209 23.4304 18.0944 23.8052C18.2443 24.1253 18.5527 24.1725 18.8108 24.1832Z" fill="#363636"/>
<path fill-rule="evenodd" clip-rule="evenodd" d="M17.9589 21.5851C17.3271 21.5819 17.0358 21.2178 17.1729 20.6021C17.3871 19.6351 18.5875 18.6531 19.577 18.6339C20.2613 18.621 20.5665 19.0076 20.3951 19.6704C20.1392 20.6621 18.9591 21.5905 17.9589 21.5851Z" fill="white"/>
<path fill-rule="evenodd" clip-rule="evenodd" d="M18.8102 24.1831C18.5521 24.1723 18.2437 24.1242 18.0949 23.805C17.9203 23.4302 18.0563 23.0758 18.2287 22.7353C18.2705 22.6517 18.3604 22.6539 18.4418 22.6389C19.26 22.4868 19.94 22.082 20.5311 21.5048C20.6328 21.4053 20.6874 21.1922 20.9155 21.2917C21.1372 21.3881 21.2828 21.5434 21.3042 21.7854C21.3171 21.9353 21.316 22.0927 21.2828 22.2373C21.0579 23.2043 19.8489 24.1723 18.8102 24.1831Z" fill="white"/>
</svg>
