<svg width="36" height="36" viewBox="0 0 36 36" fill="none" xmlns="http://www.w3.org/2000/svg">
<path fill-rule="evenodd" clip-rule="evenodd" d="M28.6835 0.00608259C31.0369 0.00608259 33.3902 0.00851406 35.7435 0.0012207C35.9404 0.0012207 36 0.0255317 36 0.247979C35.9927 12.0839 35.9927 23.9198 36.0012 35.7569C36.0012 35.9927 35.9222 35.9976 35.7387 35.9964C30.5762 35.9915 25.4125 35.9927 20.25 35.9927C20.69 35.8298 21.1434 35.701 21.5105 35.3813C22.207 34.7771 22.4647 34.0089 22.4635 33.1033C22.455 26.7326 22.4623 20.3606 22.4562 13.9899C22.455 12.9797 22.7091 12.0717 23.3934 11.3084C24.1058 10.5146 24.107 10.517 24.829 11.3813C24.6528 11.5466 24.4656 11.7071 24.2954 11.8833C23.2622 12.9518 23.2585 14.5758 24.2832 15.609C25.3067 16.641 26.9368 16.6495 28.0089 15.6199C28.4064 15.2383 28.7893 14.8432 29.1783 14.4542C30.9834 12.6491 32.7921 10.8464 34.5936 9.03647C35.3947 8.23177 35.6426 7.27391 35.2573 6.20179C34.6009 4.3748 32.2998 3.8983 30.8874 5.29376C29.2877 6.87399 27.705 8.47124 26.1151 10.0612C25.5729 10.6033 25.5814 10.5948 25.0393 10.0733C24.8582 9.89952 24.8703 9.80835 25.0417 9.63939C26.2087 8.48704 27.3647 7.32496 28.5231 6.16532C29.0944 5.59401 29.6815 5.03607 30.231 4.4453C31.4635 3.1167 31.0551 1.00892 29.4263 0.256488C29.1917 0.145872 28.9327 0.087525 28.6835 0.00608259Z" fill="white"/>
<path fill-rule="evenodd" clip-rule="evenodd" d="M15.0486 35.9927C10.128 35.9927 5.20867 35.9903 0.288087 36C0.0474067 36 0 35.9526 0 35.7119C0.00729335 26.3642 0.00729306 17.0154 0.00729306 7.66772C0.228525 8.13571 0.41329 8.61829 0.796191 8.99876C3.00486 11.1953 5.19895 13.4064 7.41005 15.6005C8.4688 16.6507 10.1001 16.6483 11.1333 15.626C12.1617 14.6074 12.169 12.9785 11.1588 11.8954C10.9838 11.707 10.6313 11.5575 10.6811 11.3168C10.7273 11.0956 11.0361 10.9327 11.216 10.7334C11.3205 10.6167 11.3788 10.6373 11.4895 10.7358C12.4923 11.6244 12.9882 12.7074 12.9797 14.0737C12.9518 18.6637 12.9688 23.2548 12.9688 27.8448C12.9688 29.6365 12.9639 31.4283 12.97 33.22C12.9749 34.551 13.6288 35.4505 14.8845 35.8906C14.9453 35.9112 15.0316 35.8991 15.0486 35.9927Z" fill="white"/>
<path fill-rule="evenodd" clip-rule="evenodd" d="M15.0482 35.9927C15.0311 35.8991 14.9448 35.9113 14.8841 35.8906C13.6284 35.4506 12.9744 34.5511 12.9696 33.22C12.9623 31.4283 12.9683 29.6366 12.9683 27.8448C12.9683 23.2549 12.9513 18.6637 12.9793 14.0738C12.9878 12.7075 12.4918 11.6244 11.489 10.7358C11.3784 10.6374 11.32 10.6167 11.2155 10.7334C11.0356 10.9328 10.7269 11.0956 10.6807 11.3169C10.6308 11.5576 10.9833 11.7071 11.1584 11.8955C12.1685 12.9785 12.1612 14.6074 11.1328 15.626C10.0996 16.6483 8.46834 16.6508 7.40959 15.6005C5.19849 13.4064 3.00562 11.1953 0.795734 8.99881C0.412833 8.61834 0.228068 8.13576 0.00683594 7.66777C0.00683594 7.29338 0.00683594 6.91777 0.00683594 6.54338C0.0627517 6.53487 0.0761228 6.49476 0.089494 6.44735C0.610969 4.4514 3.15757 3.76704 4.72077 5.44087C6.20619 7.03082 7.78885 8.53082 9.32774 10.0697C9.86502 10.607 9.85894 10.5997 10.4023 10.0636C10.5615 9.90683 10.5786 9.82174 10.4072 9.654C9.49549 8.76178 8.59841 7.85375 7.69646 6.95181C6.87718 6.13131 6.04452 5.32539 5.24225 4.48909C3.91 3.10092 4.39622 0.878875 6.17094 0.18236C6.3399 0.116719 6.51372 0.0644503 6.68512 0.00610352C6.96591 0.00610352 7.24792 0.00610352 7.52872 0.00610352C8.10854 0.178713 8.63852 0.421825 9.07855 0.86672C11.2374 3.04379 13.4096 5.20748 15.5781 7.37482C16.2953 8.092 16.8873 8.89792 17.3334 9.80959C17.4635 10.0758 17.5765 10.3493 17.6957 10.6131C17.7771 10.5997 17.7795 10.5486 17.7965 10.5073C18.2864 9.24435 19.0498 8.1698 20.0101 7.21923C21.8067 5.44087 23.585 3.64549 25.3756 1.86105C26.0964 1.14265 26.7418 0.32458 27.7726 0.00731933C28.0765 0.00731933 28.3816 0.00731933 28.6867 0.00731933C28.9347 0.0887618 29.1936 0.147109 29.4294 0.256509C31.0571 1.00894 31.4667 3.11672 30.2341 4.44533C29.6847 5.0373 29.0976 5.59403 28.5263 6.16534C27.3679 7.32498 26.2106 8.48827 25.0449 9.63941C24.8735 9.80837 24.8626 9.89954 25.0425 10.0734C25.5846 10.5948 25.5761 10.6033 26.1183 10.0612C27.7082 8.47126 29.2909 6.87401 30.8905 5.29379C32.303 3.89832 34.6041 4.37482 35.2605 6.20181C35.6458 7.27393 35.3978 8.23179 34.5968 9.03649C32.7953 10.8452 30.9878 12.6479 29.1815 14.4542C28.7925 14.8432 28.4084 15.2383 28.0121 15.62C26.94 16.6495 25.3111 16.641 24.2864 15.609C23.2617 14.5758 23.2653 12.953 24.2986 11.8833C24.4687 11.7071 24.6547 11.5466 24.8322 11.3813C24.1114 10.5158 24.1089 10.5146 23.3966 11.3084C22.7123 12.0705 22.4582 12.9798 22.4594 13.9899C22.4655 20.3606 22.4582 26.7326 22.4667 33.1033C22.4679 34.0089 22.2102 34.7772 21.5137 35.3813C21.1454 35.701 20.692 35.8298 20.2532 35.9927C19.9481 35.9927 19.6442 35.9927 19.3391 35.9927C18.7617 35.7812 18.2038 35.5381 17.8051 35.0385C17.7528 34.9729 17.6981 34.9571 17.6373 35.0337C17.207 35.5746 16.6126 35.8311 15.9647 35.9927C15.6572 35.9927 15.3521 35.9927 15.0482 35.9927ZM11.9217 5.20019C11.2362 5.89184 10.5749 6.57134 9.89662 7.23382C9.7228 7.40278 9.71186 7.48909 9.89176 7.66534C10.7305 8.4822 11.5352 9.33552 12.3849 10.1402C13.536 11.2281 14.038 12.5422 14.032 14.1236C14.0089 20.4238 14.0222 26.7253 14.0234 33.0256C14.0234 33.2127 14.0259 33.4012 14.0514 33.5859C14.1523 34.3481 14.799 34.9206 15.566 34.9376C16.5093 34.9583 17.1827 34.2484 17.1839 33.2115C17.1875 30.4474 17.1851 27.6844 17.1863 24.9202C17.1863 24.7804 17.1827 24.637 17.2106 24.5008C17.2678 24.2188 17.461 24.0815 17.7418 24.0936C18.0056 24.1046 18.1807 24.2492 18.222 24.5191C18.2414 24.6455 18.239 24.7756 18.239 24.9044C18.2402 27.6333 18.239 30.3623 18.2414 33.0912C18.2414 33.2784 18.2475 33.4668 18.2779 33.6503C18.4189 34.5146 19.3087 35.1005 20.1596 34.8975C20.9692 34.7055 21.4019 34.0989 21.4019 33.1471C21.4031 26.7533 21.4068 20.3582 21.3982 13.9644C21.3958 12.5057 21.8845 11.2743 22.9359 10.2545C23.8184 9.39873 24.6717 8.51259 25.5506 7.65319C25.7208 7.48787 25.705 7.40278 25.5457 7.2484C24.9246 6.64427 24.3107 6.03285 23.7078 5.40926C23.551 5.24638 23.4683 5.24516 23.3079 5.40926C22.4558 6.27839 21.5976 7.14265 20.726 7.99354C19.0364 9.64427 18.2244 11.6475 18.2366 14.0057C18.2512 16.7346 18.2402 19.4636 18.2402 22.1913C18.2402 22.7723 18.0871 23.0179 17.7236 23.0239C17.348 23.0288 17.1851 22.7735 17.1851 22.173C17.1851 19.421 17.1778 16.669 17.1875 13.917C17.1948 12.0243 16.6697 10.3068 15.4639 8.84322C14.3918 7.53892 13.1021 6.44006 11.9217 5.20019ZM26.0623 15.3319C26.5437 15.3307 26.912 15.2115 27.1977 14.9307C28.1665 13.979 29.1207 13.0138 30.0871 12.0584C30.2001 11.9465 30.1855 11.8858 30.081 11.7824C29.4222 11.1333 28.7706 10.4769 28.1179 9.82174C28.0364 9.7403 27.9793 9.68074 27.8662 9.795C26.8877 10.7869 25.8824 11.7533 24.9307 12.7683C24.4858 13.2423 24.4578 13.8501 24.7398 14.4409C25.0157 15.0243 25.5081 15.2954 26.0623 15.3319ZM5.23009 11.8931C6.25238 12.9275 7.23577 13.9644 8.26778 14.9502C8.87556 15.5312 9.84679 15.4474 10.423 14.8456C11.0028 14.2403 11.0149 13.2788 10.412 12.6564C9.49063 11.7071 8.54371 10.782 7.61259 9.84241C7.50562 9.73422 7.4412 9.69168 7.30992 9.82417C6.61948 10.5219 5.9181 11.2111 5.23009 11.8931ZM2.63609 5.53811C1.96875 5.56364 1.47037 5.8651 1.20173 6.48139C0.919721 7.12685 1.04128 7.72855 1.52872 8.22815C2.44525 9.16656 3.38244 10.0831 4.30262 11.0191C4.45092 11.1698 4.52507 11.1345 4.6527 11.0045C5.27628 10.3687 5.90351 9.73787 6.54047 9.11672C6.68755 8.97328 6.67418 8.89913 6.5356 8.76178C5.61907 7.8574 4.71105 6.9433 3.79938 6.03163C3.47847 5.71194 3.098 5.53204 2.63609 5.53811ZM5.54128 2.64022C5.5352 3.02069 5.63974 3.37199 5.9023 3.64063C6.86745 4.62887 7.84841 5.60254 8.81964 6.58593C8.9181 6.6856 8.97523 6.67952 9.07126 6.58228C9.72888 5.91615 10.3914 5.25246 11.0575 4.59362C11.1499 4.50124 11.1645 4.44897 11.0636 4.3493C10.0814 3.37806 9.12231 2.38131 8.11826 1.43317C7.64541 0.985844 7.03885 0.933575 6.44687 1.21437C5.85611 1.49395 5.55586 1.98382 5.54128 2.64022ZM24.2548 4.49273C24.9586 5.18925 25.6673 5.88576 26.3687 6.58957C26.4744 6.69654 26.5316 6.66737 26.6191 6.57863C27.5842 5.60618 28.57 4.65319 29.5109 3.65886C30.0883 3.04865 30.0117 2.08228 29.4124 1.50367C28.8229 0.933575 27.8747 0.887384 27.2803 1.46113C26.2617 2.4433 25.2771 3.46315 24.2548 4.49273ZM32.7965 5.54054C32.4027 5.53203 32.0441 5.64508 31.767 5.91615C30.7884 6.87401 29.8233 7.84768 28.8508 8.81161C28.7572 8.904 28.7414 8.96234 28.8448 9.06445C29.5121 9.72207 30.1734 10.3845 30.8334 11.0495C30.9173 11.1333 30.9708 11.1771 31.079 11.0677C32.0502 10.0843 33.0445 9.12523 33.9927 8.12118C34.44 7.64832 34.4983 7.04541 34.2188 6.451C33.9416 5.85902 33.4529 5.55756 32.7965 5.54054Z" fill="#363636"/>
<path fill-rule="evenodd" clip-rule="evenodd" d="M27.7703 0.00609817C26.7395 0.324575 26.094 1.14143 25.3732 1.85983C23.5827 3.64427 21.8043 5.43965 20.0077 7.21801C19.0474 8.16858 18.2841 9.24313 17.7942 10.5061C17.7784 10.5474 17.7747 10.5997 17.6933 10.6119C17.5754 10.3481 17.4611 10.0746 17.3311 9.80837C16.885 8.8967 16.293 8.09078 15.5758 7.3736C13.4072 5.20626 11.235 3.04256 9.07621 0.865498C8.63617 0.420604 8.10619 0.177492 7.52637 0.00488281C14.2752 0.00609837 21.0227 0.00609817 27.7703 0.00609817Z" fill="white"/>
<path fill-rule="evenodd" clip-rule="evenodd" d="M6.68439 0.0060777C6.51299 0.0644245 6.33917 0.116694 6.17021 0.182334C4.3967 0.877634 3.91048 3.10089 5.24152 4.48906C6.04379 5.32537 6.87644 6.13128 7.69573 6.95057C8.59768 7.85251 9.49476 8.76054 10.4064 9.65276C10.5778 9.8205 10.5608 9.90559 10.4016 10.0624C9.85821 10.5997 9.86307 10.6058 9.32701 10.0685C7.7869 8.52958 6.20546 7.02958 4.72004 5.43963C3.15683 3.7658 0.610237 4.45016 0.0887622 6.44611C0.0766066 6.49352 0.0620199 6.53363 0.00610417 6.54214C0.00610417 4.43922 0.00975094 2.3363 2.64648e-05 0.233388C-0.00118909 0.0388981 0.0389241 0 0.233414 0C2.38495 0.00972447 4.53528 0.0060777 6.68439 0.0060777Z" fill="white"/>
<path fill-rule="evenodd" clip-rule="evenodd" d="M15.9629 35.9927C16.6108 35.831 17.2052 35.5757 17.6355 35.0336C17.6963 34.957 17.7498 34.9728 17.8032 35.0385C18.202 35.5381 18.7599 35.7812 19.3373 35.9927C18.2117 35.9927 17.0873 35.9927 15.9629 35.9927Z" fill="white"/>
<path fill-rule="evenodd" clip-rule="evenodd" d="M11.9217 5.2002C13.1021 6.44007 14.3918 7.53893 15.4651 8.84079C16.6709 10.3043 17.1948 12.0219 17.1888 13.9145C17.179 16.6666 17.1863 19.4186 17.1863 22.1706C17.1863 22.7711 17.348 23.0264 17.7248 23.0215C18.0883 23.0166 18.2414 22.7699 18.2414 22.1889C18.2414 19.4599 18.2524 16.731 18.2378 14.0033C18.2256 11.6451 19.0364 9.64185 20.7273 7.99112C21.5988 7.14023 22.457 6.27596 23.3091 5.40684C23.4696 5.24274 23.5522 5.24517 23.709 5.40684C24.3119 6.02921 24.9258 6.64185 25.5469 7.24598C25.7062 7.40036 25.722 7.48545 25.5518 7.65076C24.673 8.51016 23.8196 9.39631 22.9371 10.2521C21.8857 11.2719 21.3982 12.5033 21.3995 13.9619C21.408 20.3558 21.4031 26.7508 21.4031 33.1447C21.4031 34.0977 20.9704 34.703 20.1608 34.8951C19.3099 35.0981 18.4189 34.511 18.2791 33.6479C18.2487 33.4644 18.2427 33.2747 18.2427 33.0888C18.2402 30.3598 18.2414 27.6309 18.2402 24.902C18.2402 24.7731 18.2427 24.6431 18.2232 24.5166C18.1807 24.248 18.0068 24.1034 17.7431 24.0912C17.4623 24.079 17.269 24.2164 17.2119 24.4984C17.1839 24.6346 17.1875 24.778 17.1875 24.9178C17.1863 27.682 17.1888 30.4461 17.1851 33.2091C17.1839 34.246 16.5105 34.9559 15.5672 34.9352C14.8014 34.9182 14.1547 34.3457 14.0526 33.5835C14.0283 33.3987 14.0247 33.2103 14.0247 33.0231C14.0234 26.7229 14.0101 20.4214 14.0332 14.1212C14.0392 12.5397 13.5372 11.2269 12.3861 10.1378C11.5352 9.3331 10.7305 8.48099 9.89298 7.66292C9.71308 7.48788 9.72402 7.40036 9.89784 7.23139C10.5749 6.57135 11.2362 5.89185 11.9217 5.2002Z" fill="white"/>
<path fill-rule="evenodd" clip-rule="evenodd" d="M26.0628 15.3318C25.5085 15.2954 25.0162 15.0255 24.7391 14.442C24.457 13.8513 24.485 13.2435 24.9299 12.7694C25.8829 11.7544 26.8869 10.7869 27.8655 9.79618C27.9785 9.68191 28.0356 9.74026 28.1171 9.82292C28.7698 10.4781 29.4214 11.1333 30.0802 11.7836C30.1848 11.8869 30.1993 11.9477 30.0863 12.0595C29.1211 13.0138 28.1657 13.9801 27.1969 14.9319C26.9113 15.2115 26.5442 15.3306 26.0628 15.3318Z" fill="white"/>
<path fill-rule="evenodd" clip-rule="evenodd" d="M5.23047 11.8931C5.91726 11.2112 6.61864 10.5232 7.30907 9.82427C7.44036 9.69056 7.50478 9.73431 7.61175 9.8425C8.54287 10.7821 9.48979 11.7072 10.4112 12.6565C11.0141 13.2789 11.0019 14.2404 10.4221 14.8457C9.84595 15.4474 8.87472 15.5325 8.26694 14.9503C7.23614 13.9632 6.25275 12.9264 5.23047 11.8931Z" fill="white"/>
<path fill-rule="evenodd" clip-rule="evenodd" d="M2.63654 5.53805C3.09967 5.53076 3.48014 5.71188 3.79983 6.03157C4.7115 6.94202 5.61831 7.85612 6.53606 8.76172C6.67463 8.89786 6.688 8.97322 6.54092 9.11666C5.90275 9.73781 5.27552 10.3687 4.65316 11.0044C4.52552 11.1345 4.45137 11.1697 4.30307 11.019C3.38411 10.0842 2.4457 9.1665 1.52917 8.22809C1.04173 7.72849 0.920173 7.12801 1.20218 6.48133C1.47082 5.86626 1.96798 5.56358 2.63654 5.53805Z" fill="white"/>
<path fill-rule="evenodd" clip-rule="evenodd" d="M5.54224 2.64027C5.55683 1.98386 5.85707 1.49399 6.44783 1.21442C7.03981 0.933622 7.64637 0.985891 8.11923 1.43322C9.12328 2.38135 10.0824 3.3769 11.0645 4.34934C11.1654 4.44902 11.1508 4.50129 11.0584 4.59367C10.3923 5.2525 9.73106 5.91498 9.07223 6.58232C8.9762 6.67957 8.91785 6.68443 8.8206 6.58597C7.84937 5.6038 6.86842 4.63014 5.90326 3.64067C5.6407 3.37203 5.53616 3.02074 5.54224 2.64027Z" fill="white"/>
<path fill-rule="evenodd" clip-rule="evenodd" d="M24.2549 4.49263C25.2772 3.46305 26.2618 2.44441 27.2804 1.45981C27.8748 0.884852 28.8242 0.932258 29.4125 1.50236C30.0118 2.08218 30.0884 3.04733 29.511 3.65754C28.5701 4.65308 27.5831 5.60487 26.6191 6.57731C26.5304 6.66605 26.4745 6.69522 26.3687 6.58826C25.6674 5.88566 24.9587 5.18915 24.2549 4.49263Z" fill="white"/>
<path fill-rule="evenodd" clip-rule="evenodd" d="M32.7968 5.54048C33.4532 5.5575 33.9406 5.86018 34.219 6.45094C34.4974 7.04535 34.4402 7.64826 33.9929 8.12112C33.0436 9.12395 32.0492 10.0842 31.0792 11.0676C30.971 11.177 30.9175 11.1333 30.8337 11.0494C30.1736 10.3857 29.5111 9.72201 28.845 9.06439C28.7417 8.96228 28.7587 8.90394 28.8511 8.81155C29.8235 7.84762 30.7887 6.87395 31.7672 5.91609C32.0444 5.64502 32.403 5.53198 32.7968 5.54048Z" fill="white"/>
</svg>
