<svg width="22" height="22" viewBox="0 0 22 22" fill="none" xmlns="http://www.w3.org/2000/svg">
<path d="M11 8.272C10.4605 8.272 9.93302 8.43199 9.4844 8.73175C9.03579 9.03151 8.68613 9.45756 8.47966 9.95604C8.27318 10.4545 8.21916 11.003 8.32442 11.5322C8.42968 12.0614 8.6895 12.5475 9.07101 12.929C9.45253 13.3105 9.93861 13.5703 10.4678 13.6756C10.997 13.7808 11.5455 13.7268 12.044 13.5203C12.5424 13.3139 12.9685 12.9642 13.2682 12.5156C13.568 12.067 13.728 11.5395 13.728 11C13.728 10.6418 13.6574 10.287 13.5203 9.95604C13.3832 9.62506 13.1823 9.32433 12.929 9.07101C12.6757 8.81769 12.3749 8.61675 12.044 8.47966C11.713 8.34256 11.3582 8.272 11 8.272ZM21.923 5.577C21.9172 4.72753 21.7608 3.88583 21.461 3.091C21.2402 2.50939 20.8986 1.9812 20.4587 1.5413C20.0188 1.1014 19.4906 0.759789 18.909 0.539C18.1142 0.23921 17.2725 0.082787 16.423 0.0769999C15.004 -7.37608e-08 14.586 0 11 0C7.414 0 6.996 -7.37608e-08 5.577 0.0769999C4.72753 0.082787 3.88583 0.23921 3.091 0.539C2.50939 0.759789 1.9812 1.1014 1.5413 1.5413C1.1014 1.9812 0.759789 2.50939 0.539 3.091C0.23921 3.88583 0.082787 4.72753 0.0769999 5.577C-7.37608e-08 6.996 0 7.414 0 11C0 14.586 -7.37608e-08 15.004 0.0769999 16.423C0.0888403 17.2755 0.245052 18.1197 0.539 18.92C0.758811 19.499 1.10014 20.0241 1.54 20.46C1.97801 20.9025 2.50733 21.2442 3.091 21.461C3.88583 21.7608 4.72753 21.9172 5.577 21.923C6.996 22 7.414 22 11 22C14.586 22 15.004 22 16.423 21.923C17.2725 21.9172 18.1142 21.7608 18.909 21.461C19.4927 21.2442 20.022 20.9025 20.46 20.46C20.8999 20.0241 21.2412 19.499 21.461 18.92C21.7605 18.1213 21.9169 17.276 21.923 16.423C22 15.004 22 14.586 22 11C22 7.414 22 6.996 21.923 5.577ZM19.129 14.377C19.0937 15.0558 18.9488 15.7245 18.7 16.357C18.4865 16.8847 18.169 17.364 17.7665 17.7665C17.364 18.169 16.8847 18.4865 16.357 18.7C15.7185 18.935 15.0461 19.065 14.366 19.085C13.497 19.085 13.266 19.085 11 19.085C8.734 19.085 8.503 19.085 7.634 19.085C6.9539 19.065 6.28154 18.935 5.643 18.7C5.09751 18.4973 4.6049 18.1739 4.202 17.754C3.80343 17.3594 3.49563 16.8827 3.3 16.357C3.06411 15.7191 2.93767 15.046 2.926 14.366C2.926 13.497 2.926 13.266 2.926 11C2.926 8.734 2.926 8.503 2.926 7.634C2.93767 6.95401 3.06411 6.28087 3.3 5.643C3.50271 5.09751 3.8261 4.6049 4.246 4.202C4.64237 3.80559 5.11859 3.4981 5.643 3.3C6.28154 3.06505 6.9539 2.93503 7.634 2.915C8.503 2.915 8.734 2.915 11 2.915C13.266 2.915 13.497 2.915 14.366 2.915C15.0461 2.93503 15.7185 3.06505 16.357 3.3C16.9025 3.50271 17.3951 3.8261 17.798 4.246C18.1966 4.64062 18.5044 5.11735 18.7 5.643C18.935 6.28154 19.065 6.9539 19.085 7.634C19.085 8.503 19.085 8.734 19.085 11C19.085 13.266 19.162 13.497 19.129 14.366V14.377ZM17.369 6.193C17.238 5.83768 17.0315 5.51501 16.7638 5.24724C16.496 4.97946 16.1733 4.77297 15.818 4.642C15.3301 4.47289 14.8163 4.39097 14.3 4.4C13.442 4.4 13.2 4.4 11 4.4C8.8 4.4 8.558 4.4 7.7 4.4C7.18109 4.40507 6.66718 4.5019 6.182 4.686C5.83212 4.81102 5.51286 5.00908 5.24544 5.26702C4.97802 5.52496 4.76857 5.83686 4.631 6.182C4.47125 6.6719 4.39321 7.18475 4.4 7.7C4.4 8.558 4.4 8.8 4.4 11C4.4 13.2 4.4 13.442 4.4 14.3C4.41091 14.8183 4.50755 15.3313 4.686 15.818C4.81697 16.1733 5.02346 16.496 5.29123 16.7638C5.55901 17.0315 5.88168 17.238 6.237 17.369C6.70633 17.5416 7.20022 17.6382 7.7 17.655C8.558 17.655 8.8 17.655 11 17.655C13.2 17.655 13.442 17.655 14.3 17.655C14.8189 17.6499 15.3328 17.5531 15.818 17.369C16.1733 17.238 16.496 17.0315 16.7638 16.7638C17.0315 16.496 17.238 16.1733 17.369 15.818C17.5531 15.3328 17.6499 14.8189 17.655 14.3C17.655 13.442 17.655 13.2 17.655 11C17.655 8.8 17.655 8.558 17.655 7.7C17.6553 7.18058 17.5583 6.66569 17.369 6.182V6.193ZM11 15.202C10.4487 15.202 9.90282 15.0932 9.39363 14.8819C8.88443 14.6706 8.42193 14.3609 8.03262 13.9706C7.64331 13.5803 7.33483 13.117 7.12486 12.6072C6.91489 12.0975 6.80755 11.5513 6.809 11C6.809 10.1685 7.05573 9.35561 7.51794 8.66436C7.98015 7.9731 8.63706 7.43453 9.40552 7.11682C10.174 6.7991 11.0194 6.71653 11.8348 6.87956C12.6502 7.04259 13.3989 7.44389 13.9862 8.03265C14.5734 8.62141 14.9727 9.37116 15.1336 10.187C15.2945 11.0028 15.2097 11.8481 14.89 12.6157C14.5702 13.3833 14.03 14.0388 13.3375 14.4992C12.645 14.9596 11.8315 15.2042 11 15.202ZM15.4 7.623C15.1568 7.59726 14.9318 7.48244 14.7683 7.30067C14.6047 7.11889 14.5142 6.88302 14.5142 6.6385C14.5142 6.39398 14.6047 6.15811 14.7683 5.97633C14.9318 5.79456 15.1568 5.67974 15.4 5.654C15.6432 5.67974 15.8682 5.79456 16.0317 5.97633C16.1953 6.15811 16.2858 6.39398 16.2858 6.6385C16.2858 6.88302 16.1953 7.11889 16.0317 7.30067C15.8682 7.48244 15.6432 7.59726 15.4 7.623Z" fill="#526470"/>
</svg>
