<svg width="36" height="36" viewBox="0 0 36 36" fill="none" xmlns="http://www.w3.org/2000/svg">
<path fill-rule="evenodd" clip-rule="evenodd" d="M35.9962 15.8902C35.9962 22.4828 35.9949 29.0742 36.0013 35.6668C36.0013 35.9135 35.9733 36 35.6884 36C23.897 35.9911 12.1068 35.9911 0.315388 36C0.0317931 36 0.00254351 35.9135 0.00254351 35.6668C0.0101739 29.0742 0.00763053 22.4828 0.00763053 15.8902C0.118271 15.9284 0.0750318 16.0263 0.0839339 16.0988C0.367529 18.3612 1.09877 20.4633 2.37177 22.3607C3.88003 24.6079 5.86774 26.209 8.55363 26.8309C10.9648 27.3891 13.3137 26.5422 14.6833 24.6346C16.3862 22.2628 15.8788 18.8114 13.5553 17.0233C13.0555 16.638 12.7007 16.1662 12.5189 15.5634C12.3179 14.8944 12.3243 14.8868 12.9996 14.9669C13.1153 14.9809 13.2323 14.9962 13.3455 15.0216C15.1615 15.4476 16.3188 16.9267 16.3213 18.847C16.3251 23.6719 16.3226 28.4981 16.3226 33.323C16.3226 33.4171 16.3188 33.51 16.3239 33.6041C16.3429 33.9398 16.5477 34.1624 16.8338 34.1611C17.12 34.1598 17.3171 33.9423 17.3387 33.599C17.3438 33.529 17.34 33.4591 17.34 33.3879C17.34 28.563 17.3412 23.7368 17.3374 18.9118C17.3374 18.585 17.3273 18.2531 17.27 17.9326C16.8516 15.6193 14.9987 14.0119 12.6549 13.9292C12.4159 13.9203 12.3942 13.8542 12.4324 13.6456C12.5697 12.9118 12.9131 12.3141 13.5121 11.8614C14.8563 10.8453 15.543 9.45146 15.6664 7.80712C15.908 4.57821 13.3518 1.83637 10.1051 1.84655C7.95591 1.8529 6.09538 2.69479 4.49046 4.08224C2.20899 6.05341 0.923273 8.60449 0.282323 11.5155C0.172955 12.0114 0.178041 12.5265 0.00635853 13.0098C0.00635853 8.76855 0.00890208 4.52861 0 0.28741C0 0.0470541 0.0470536 0 0.28741 0C12.0954 0.00763035 23.9034 0.00763035 35.7126 0C35.9529 0 36.0013 0.0470541 36 0.28741C35.9911 4.52861 35.9936 8.76855 35.9936 13.0098C35.9148 12.9919 35.9288 12.9271 35.9237 12.8724C35.7317 11.0742 35.223 9.37134 34.3862 7.76897C33.1984 5.49894 31.5591 3.67147 29.1861 2.60068C27.8215 1.98516 26.3921 1.62654 24.8889 1.95337C22.5998 2.45061 21.0102 3.80119 20.4786 6.10428C19.9457 8.41755 20.6516 10.4002 22.5439 11.9033C23.1111 12.3548 23.4366 12.9385 23.5676 13.6456C23.6058 13.8504 23.5892 13.9216 23.3476 13.9292C20.7062 14.0246 18.6893 16.0441 18.6715 18.7007C18.6397 23.6439 18.6613 28.5871 18.6626 33.5303C18.6626 33.9284 18.8597 34.1611 19.1674 34.1611C19.4752 34.1611 19.6749 33.9245 19.6774 33.5329C19.6825 32.9479 19.6787 32.3616 19.6787 31.7753C19.68 27.3713 19.6647 22.9674 19.6927 18.5634C19.7054 16.6011 21.3917 14.9733 23.354 14.925C23.574 14.9199 23.6058 14.9847 23.5714 15.1844C23.4366 15.9462 23.0666 16.549 22.4498 17.0208C20.5053 18.5087 19.7728 21.3065 20.7228 23.5625C21.6918 25.8631 24.2302 27.3128 26.6541 26.9733C28.6672 26.691 30.4019 25.8376 31.8694 24.4489C33.9258 22.5045 35.1136 20.0818 35.7177 17.3451C35.8245 16.8631 35.8156 16.3582 35.9962 15.8902Z" fill="white"/>
<path fill-rule="evenodd" clip-rule="evenodd" d="M0.00976563 13.0084C0.181449 12.5252 0.176361 12.0101 0.28573 11.5142C0.926679 8.60319 2.21239 6.05211 4.49387 4.08094C6.09879 2.69348 7.95932 1.85287 10.1085 1.84524C13.3553 1.83507 15.9114 4.57691 15.6698 7.80582C15.5464 9.45143 14.8597 10.844 13.5155 11.8601C12.9152 12.3141 12.5719 12.9118 12.4358 13.6443C12.3964 13.8516 12.4193 13.919 12.6583 13.9279C15.0021 14.0106 16.8538 15.618 17.2734 17.9313C17.3319 18.2518 17.3408 18.5837 17.3408 18.9105C17.3447 23.7355 17.3434 28.5617 17.3434 33.3866C17.3434 33.4565 17.3472 33.5277 17.3421 33.5977C17.3205 33.9411 17.1234 34.1585 16.8372 34.1598C16.5511 34.1611 16.3451 33.9385 16.3273 33.6028C16.3222 33.5099 16.326 33.4158 16.326 33.3217C16.326 28.4968 16.3285 23.6706 16.3247 18.8457C16.3235 16.9254 15.1662 15.4463 13.3489 15.0203C13.2357 14.9936 13.1187 14.9784 13.003 14.9656C12.3264 14.8868 12.3201 14.8944 12.5223 15.5621C12.7041 16.1649 13.0577 16.6367 13.5587 17.022C15.8822 18.8101 16.3896 22.2615 14.6867 24.6333C13.3171 26.5409 10.9682 27.3878 8.55703 26.8296C5.87115 26.2077 3.88217 24.6079 2.37517 22.3594C1.10218 20.462 0.369664 18.3599 0.0873405 16.0975C0.0784384 16.025 0.122949 15.9271 0.0110371 15.8889C0.00976541 14.93 0.00976563 13.9699 0.00976563 13.0084ZM8.77322 13.919C9.53499 13.919 10.2955 13.9037 11.0572 13.9266C11.337 13.9355 11.4248 13.8427 11.4184 13.582C11.4121 13.2946 11.2035 13.4586 11.0941 13.437C10.8665 13.3912 10.6274 13.4001 10.3985 13.3569C8.81901 13.0593 7.66174 11.5307 7.79018 9.93087C7.81434 9.62693 7.97204 9.45398 8.27089 9.42854C8.54686 9.40565 8.76687 9.62566 8.79103 9.9296C8.79866 10.0224 8.7923 10.1165 8.79485 10.2107C8.81519 10.9215 9.11405 11.4951 9.66471 11.9364C10.209 12.3739 10.8525 12.4451 11.5214 12.4324C11.6957 12.4285 11.7948 12.3802 11.8775 12.2225C12.1077 11.7812 12.4282 11.4099 12.8313 11.1149C14.0649 10.2094 14.6308 8.94783 14.6829 7.46245C14.7834 4.64177 12.0784 2.4137 9.23486 2.90968C7.13397 3.27593 5.41206 4.30222 4.07801 5.92494C1.17848 9.45398 0.368392 13.4866 1.46971 17.883C2.14499 20.5778 3.52227 22.8758 5.82282 24.5188C7.26623 25.5489 8.8686 26.1568 10.6872 25.947C12.4841 25.7397 14.0598 24.3777 14.538 22.6507C15.0174 20.9148 14.351 18.8991 12.9254 17.8079C12.5871 17.5498 12.2349 17.284 12.0581 16.9037C11.8508 16.4574 11.538 16.3658 11.1107 16.4307C11.0649 16.4383 11.0178 16.4357 10.9708 16.4383C9.86691 16.4942 8.99578 17.2611 8.81774 18.3459C8.78721 18.529 8.80375 18.7198 8.79103 18.9067C8.76941 19.2196 8.56593 19.4256 8.2798 19.4141C7.97331 19.4014 7.80544 19.2297 7.79273 18.9271C7.78001 18.6346 7.78382 18.3408 7.84487 18.0534C8.17933 16.4866 9.4536 15.4502 11.1196 15.4222C11.4095 15.4171 11.44 15.3319 11.4006 15.0852C11.3625 14.8461 11.1984 14.9313 11.0801 14.9313C9.53372 14.9262 7.98857 14.93 6.44215 14.9262C6.02757 14.9249 5.82282 14.7494 5.82664 14.4213C5.82918 14.0958 6.03902 13.9254 6.45233 13.9228C7.22808 13.9177 8.00129 13.919 8.77322 13.919Z" fill="#363636"/>
<path fill-rule="evenodd" clip-rule="evenodd" d="M35.9967 15.8901C35.8161 16.3581 35.825 16.8617 35.7182 17.345C35.1141 20.0817 33.9276 22.5044 31.8699 24.4488C30.4023 25.8376 28.6677 26.6896 26.6546 26.9732C24.2319 27.314 21.6923 25.863 20.7232 23.5624C19.7733 21.3077 20.5058 18.5086 22.4502 17.0207C23.067 16.5489 23.4384 15.9461 23.5719 15.1843C23.6075 14.9847 23.5745 14.9198 23.3544 14.9249C21.3934 14.9732 19.7059 16.601 19.6931 18.5633C19.6652 22.9673 19.6817 27.3713 19.6792 31.7752C19.6792 32.3615 19.683 32.9465 19.6779 33.5328C19.6753 33.9232 19.477 34.161 19.1679 34.161C18.8602 34.161 18.663 33.927 18.663 33.5302C18.6605 28.587 18.6402 23.6438 18.6719 18.7006C18.6885 16.044 20.7067 14.0245 23.3481 13.9291C23.5897 13.9202 23.6062 13.849 23.5681 13.6455C23.4358 12.9385 23.1115 12.3547 22.5444 11.9033C20.652 10.4001 19.9462 8.41747 20.4791 6.1042C21.0094 3.8011 22.599 2.45053 24.8894 1.95329C26.3926 1.62645 27.822 1.98508 29.1866 2.60059C31.5596 3.67139 33.1989 5.49886 34.3867 7.76889C35.2247 9.36999 35.7321 11.0741 35.9242 12.8723C35.9305 12.927 35.9165 12.9919 35.9941 13.0097C35.9967 13.9698 35.9967 14.93 35.9967 15.8901ZM27.2523 14.9249C26.4676 14.9249 25.683 14.9223 24.8983 14.9274C24.7877 14.9287 24.6338 14.8575 24.6058 15.0724C24.5778 15.2911 24.555 15.4158 24.8742 15.4209C26.8669 15.4565 28.3218 16.9775 28.2162 18.88C28.1984 19.2131 28.0242 19.4064 27.7343 19.4153C27.4341 19.4242 27.2307 19.217 27.2129 18.8812C27.2027 18.6943 27.2179 18.5023 27.1811 18.3217C26.9076 16.966 25.8305 16.2933 24.3413 16.4293C24.2218 16.4408 24.1887 16.5209 24.1455 16.601C23.8746 17.1059 23.4854 17.5001 23.0327 17.846C21.4837 19.03 20.8911 21.3318 21.6529 23.1669C22.4134 25.002 24.4659 26.2102 26.3926 25.9838C28.6868 25.7129 30.5626 24.6396 31.9717 22.863C35.2934 18.6752 35.8631 14.0436 33.8932 9.11183C32.9992 6.87359 31.5494 5.03722 29.4117 3.83925C28.0369 3.06986 26.5592 2.60441 24.9708 2.96812C23.1179 3.39288 21.8436 4.5298 21.4418 6.41196C21.0501 8.24578 21.5995 9.83544 23.0874 11.0398C23.5121 11.3831 23.8848 11.7608 24.1455 12.2428C24.1951 12.3331 24.2357 12.412 24.368 12.4323C25.9233 12.6727 27.1811 11.6209 27.2141 10.0465C27.2218 9.65485 27.4151 9.42213 27.7254 9.42595C28.0433 9.42976 28.2163 9.65104 28.2188 10.0605C28.2341 11.9719 26.8237 13.4103 24.8881 13.4217C24.56 13.423 24.5778 13.5552 24.6084 13.7829C24.6389 14.0016 24.7979 13.9164 24.9047 13.9164C26.4498 13.9215 27.9962 13.919 29.5414 13.9202C29.956 13.9202 30.1683 14.0868 30.1772 14.4073C30.1874 14.7456 29.975 14.9223 29.5376 14.9236C28.7745 14.9274 28.014 14.9249 27.2523 14.9249Z" fill="#363636"/>
<path fill-rule="evenodd" clip-rule="evenodd" d="M8.7737 13.9191C8.00049 13.9191 7.22728 13.9166 6.45534 13.9204C6.04203 13.9217 5.83347 14.0921 5.82965 14.4189C5.82711 14.7483 6.03058 14.9238 6.44517 14.9238C7.99158 14.9276 9.53673 14.9238 11.0831 14.9289C11.2001 14.9289 11.3655 14.8437 11.4036 15.0827C11.443 15.3295 11.4125 15.4147 11.1226 15.4197C9.45661 15.4477 8.18234 16.4842 7.84788 18.0509C7.78684 18.3396 7.78302 18.6334 7.79574 18.9246C7.80846 19.2286 7.97632 19.4002 8.28281 19.4117C8.56895 19.4231 8.77242 19.2171 8.79404 18.9043C8.80676 18.7173 8.79023 18.5278 8.82075 18.3434C8.99879 17.2587 9.86865 16.4905 10.9738 16.4359C11.0208 16.4333 11.0679 16.4359 11.1137 16.4282C11.5397 16.3634 11.8538 16.4549 12.0611 16.9013C12.2379 17.2828 12.5901 17.5473 12.9284 17.8055C14.3528 18.8966 15.0204 20.9111 14.541 22.6482C14.0641 24.3752 12.4871 25.7373 10.6902 25.9445C8.87162 26.1544 7.26924 25.5465 5.82584 24.5164C3.52528 22.8746 2.14801 20.5753 1.47272 17.8805C0.371406 13.4842 1.18149 9.45281 4.08103 5.9225C5.41507 4.29978 7.13699 3.27349 9.2366 2.90724C12.0802 2.41254 14.7851 4.6406 14.6847 7.46001C14.6325 8.94412 14.0679 10.2069 12.833 11.1124C12.4299 11.4075 12.1094 11.7788 11.8793 12.2201C11.7979 12.3778 11.6987 12.4261 11.5232 12.4299C10.8542 12.4426 10.2107 12.3714 9.66645 11.9339C9.11579 11.4914 8.81693 10.9191 8.79659 10.2082C8.79404 10.1141 8.8004 10.02 8.79277 9.92716C8.76861 9.62322 8.5486 9.40321 8.27264 9.4261C7.97378 9.45154 7.81609 9.62449 7.79192 9.92843C7.66221 11.5295 8.82075 13.0569 10.4002 13.3545C10.6291 13.3977 10.867 13.3901 11.0959 13.4346C11.2052 13.4562 11.4125 13.2934 11.4202 13.5796C11.4265 13.8403 11.3388 13.9318 11.059 13.9242C10.2972 13.9051 9.53546 13.9191 8.7737 13.9191Z" fill="white"/>
<path fill-rule="evenodd" clip-rule="evenodd" d="M27.2515 14.9249C28.0132 14.9249 28.7737 14.9274 29.5355 14.9236C29.973 14.9211 30.1853 14.7456 30.1752 14.4073C30.1663 14.0868 29.9539 13.9202 29.5393 13.9202C27.9929 13.9189 26.4477 13.9215 24.9026 13.9164C24.797 13.9164 24.6368 14.0016 24.6063 13.7829C24.5758 13.5552 24.5579 13.4242 24.8861 13.4217C26.8203 13.4103 28.232 11.9719 28.2167 10.0605C28.2129 9.6523 28.0412 9.43102 27.7233 9.42594C27.4117 9.42212 27.2197 9.65485 27.212 10.0465C27.1802 11.6222 25.9212 12.6727 24.3659 12.4323C24.2337 12.4119 24.1917 12.3331 24.1434 12.2428C23.8827 11.7608 23.51 11.3831 23.0853 11.0398C21.5974 9.83543 21.048 8.24577 21.4397 6.41195C21.8415 4.52979 23.1158 3.39287 24.9687 2.96812C26.5584 2.60313 28.0348 3.06858 29.4096 3.83925C31.5474 5.03721 32.9971 6.87358 33.8911 9.11182C35.861 14.0436 35.2913 18.6752 31.9696 22.863C30.5605 24.6396 28.6847 25.7129 26.3905 25.9838C24.4638 26.2114 22.4113 25.002 21.6508 23.1669C20.8903 21.3318 21.4816 19.03 23.0306 17.846C23.4833 17.5001 23.8725 17.1059 24.1434 16.601C24.1866 16.5209 24.2184 16.4408 24.3392 16.4293C25.8284 16.2933 26.9043 16.9673 27.179 18.3217C27.2159 18.5022 27.2006 18.6943 27.2108 18.8812C27.2298 19.2169 27.432 19.4242 27.7322 19.4153C28.0209 19.4064 28.1951 19.2131 28.2142 18.8799C28.3197 16.9774 26.8661 15.4565 24.8721 15.4208C24.5529 15.4145 24.5758 15.2899 24.6037 15.0724C24.6317 14.8575 24.7856 14.9287 24.8962 14.9274C25.6834 14.9223 26.4668 14.9249 27.2515 14.9249Z" fill="white"/>
</svg>
