<svg width="36" height="36" viewBox="0 0 36 36" fill="none" xmlns="http://www.w3.org/2000/svg">
<path fill-rule="evenodd" clip-rule="evenodd" d="M19.1994 0.00756836C19.6268 0.161254 20.0841 0.135016 20.5226 0.213734C21.7446 0.427395 22.9554 0.674791 24.0649 1.26704C24.5522 1.52943 24.9158 1.88928 25.1595 2.40282C26.179 4.55442 27.2136 6.69853 28.2557 8.84263C28.4131 9.16875 28.4094 9.44239 28.2369 9.76475C23.3977 18.7535 17.9662 27.3674 11.9425 35.6102C11.8413 35.7452 11.7213 35.8651 11.6089 35.9926C11.4439 35.9926 11.279 35.9926 11.1178 35.9926C11.0916 35.8614 10.9604 35.8426 10.8742 35.7864C9.1199 34.6469 7.36188 33.5149 5.60386 32.3791C5.06034 32.0267 5.01536 31.7981 5.39395 31.2658C8.59512 26.7677 11.7588 22.2471 14.6338 17.5315C16.2757 14.8364 17.8313 12.0925 19.3231 9.31494C19.3606 9.24372 19.3944 9.16875 19.4393 9.09753C19.6305 8.77891 19.9566 8.67396 20.2415 8.83889C20.5152 8.99632 20.5976 9.30744 20.4252 9.62981C19.8742 10.6569 19.3156 11.684 18.7496 12.7073C15.2486 19.0534 11.204 25.0509 7.00203 30.9472C6.84834 31.1646 6.57096 31.4045 6.59345 31.6069C6.61969 31.8243 6.99079 31.9218 7.21569 32.068C8.47142 32.8814 9.7309 33.691 10.9829 34.5082C11.1665 34.6281 11.2565 34.6581 11.4139 34.4445C17.1191 26.5802 22.2844 18.3749 26.9212 9.83972C27.0449 9.61106 27.0262 9.5286 26.7788 9.4124C23.6376 7.98424 20.3465 7.31327 16.8942 7.46696C16.568 7.48195 16.2419 7.52319 15.9158 7.55318C15.8483 7.56067 15.7809 7.58316 15.6872 7.60565C16.1782 8.52777 16.718 9.40115 17.2728 10.2633C17.374 10.4245 17.4714 10.5819 17.4227 10.7843C17.3665 11.0242 17.2128 11.1817 16.9766 11.2304C16.7217 11.2829 16.5193 11.1742 16.3844 10.953C15.9645 10.267 15.541 9.57733 15.1286 8.88762C14.945 8.5765 14.7688 8.25788 14.6076 7.93551C14.5364 7.79682 14.4652 7.76309 14.3077 7.79308C12.5085 8.13793 10.7842 8.70395 9.11615 9.46113C8.89124 9.56234 9.01119 9.66354 9.07117 9.77974C10.3306 12.1787 11.5751 14.589 12.9995 16.8943C13.0558 16.9842 13.112 17.0742 13.157 17.1679C13.2994 17.464 13.2057 17.7714 12.9358 17.9251C12.6734 18.0713 12.381 18.0113 12.2049 17.7302C11.8563 17.1754 11.5226 16.6131 11.1928 16.0471C9.97829 13.9705 8.8725 11.8301 7.74422 9.70853C7.59804 9.43489 7.59428 9.19124 7.72923 8.91011C8.81627 6.67229 9.89582 4.43447 10.9791 2.19665C11.2453 1.64189 11.7476 1.36075 12.2686 1.1171C13.6105 0.491114 15.0537 0.262461 16.5081 0.082536C16.5905 0.0712907 16.703 0.131267 16.7517 0.00756836C17.5576 0.00756836 18.3785 0.00756836 19.1994 0.00756836ZM9.36729 8.0817C15.1474 5.70894 20.8563 5.69769 26.6289 8.0817C26.5389 7.88303 26.4939 7.78183 26.4452 7.68062C25.7967 6.33493 25.092 5.01173 24.5185 3.63605C24.1549 2.76642 23.5626 2.26787 22.7192 1.97924C22.708 1.9755 22.6967 1.9755 22.6855 1.968C20.4589 1.10586 18.1611 0.948425 15.8184 1.30078C14.5739 1.4882 13.3819 1.83681 12.2836 2.47404C12.0737 2.59774 11.9275 2.75517 11.8225 2.97633C11.324 4.03339 10.8142 5.08295 10.3082 6.13251C10.0083 6.75101 9.71215 7.3695 9.36729 8.0817Z" fill="#363636"/>
<path fill-rule="evenodd" clip-rule="evenodd" d="M24.3986 35.9925C23.1653 34.4556 22.0071 32.8663 20.8675 31.2619C20.2228 30.3586 19.6081 29.4327 18.9858 28.5106C18.7459 28.1545 18.8059 27.8096 19.1208 27.6334C19.4169 27.4648 19.698 27.5585 19.9454 27.9258C20.7963 29.2003 21.6585 30.4673 22.5693 31.7005C23.244 32.6151 23.9263 33.5185 24.5897 34.4406C24.7284 34.6355 24.8146 34.658 25.0208 34.5231C26.419 33.6047 27.8209 32.6976 29.2341 31.8054C29.4777 31.6518 29.4515 31.5655 29.309 31.3631C27.1387 28.3569 24.9683 25.3544 23.0154 22.1945C22.7118 21.6997 22.7155 21.3923 23.0416 21.1824C23.3715 20.9725 23.6676 21.0962 23.9675 21.5835C26.0179 24.9121 28.3307 28.0608 30.5985 31.2394C31.0033 31.8054 30.9621 32.0191 30.3773 32.3977C28.6006 33.5447 26.8238 34.6917 25.047 35.8425C24.9908 35.88 24.8821 35.8762 24.8934 35.9887C24.7284 35.9925 24.5635 35.9925 24.3986 35.9925Z" fill="#363636"/>
<path fill-rule="evenodd" clip-rule="evenodd" d="M11.1141 35.9924C7.50812 35.9924 3.90212 35.9887 0.296124 35.9999C0.0674694 35.9999 0 35.9737 0 35.7188C0.00749688 23.9075 0.00749688 12.0924 0 0.281049C0 0.0224064 0.0787147 0.00366211 0.296124 0.00366211C5.77634 0.011159 11.2528 0.00741421 16.733 0.00741421C16.6843 0.131113 16.5718 0.0711365 16.4894 0.0823818C15.035 0.258558 13.5956 0.490959 12.2499 1.11695C11.7251 1.3606 11.2266 1.64173 10.9604 2.1965C9.87713 4.43432 8.79758 6.67589 7.71053 8.90995C7.57559 9.18734 7.57934 9.43474 7.72553 9.70837C8.85381 11.8337 9.9596 13.9703 11.1741 16.047C11.504 16.613 11.8376 17.1753 12.1862 17.73C12.3623 18.0112 12.6547 18.0749 12.9171 17.9249C13.187 17.775 13.2807 17.4676 13.1383 17.1678C13.0933 17.0741 13.0371 16.9841 12.9808 16.8941C11.5527 14.5888 10.3119 12.1786 9.05247 9.77959C8.9925 9.66339 8.87255 9.56218 9.09745 9.46097C10.7655 8.70754 12.4898 8.13778 14.289 7.79292C14.4465 7.76293 14.5177 7.79292 14.5889 7.93536C14.7538 8.25772 14.9263 8.57634 15.11 8.88746C15.5223 9.58092 15.9459 10.2669 16.3657 10.9529C16.5006 11.174 16.703 11.2827 16.9579 11.2302C17.1941 11.1815 17.3478 11.0241 17.404 10.7842C17.4527 10.5818 17.3553 10.4206 17.2541 10.2631C16.6993 9.39725 16.1595 8.52761 15.6685 7.6055C15.7622 7.58301 15.8259 7.56052 15.8971 7.55302C16.2232 7.51929 16.5493 7.4818 16.8755 7.4668C20.3278 7.31312 23.6152 7.98409 26.7601 9.41224C27.0112 9.5247 27.03 9.60716 26.9025 9.83957C22.2657 18.3748 17.1004 26.5801 11.3952 34.4443C11.2416 34.658 11.1479 34.628 10.9642 34.508C9.7122 33.6871 8.45273 32.8812 7.197 32.0678C6.97209 31.9216 6.601 31.8242 6.57476 31.6067C6.55227 31.4043 6.82965 31.1644 6.98334 30.947C11.1853 25.0507 15.2299 19.0532 18.7309 12.7071C19.2932 11.6838 19.8555 10.6567 20.4065 9.62965C20.5789 9.30354 20.4965 8.99617 20.2228 8.83873C19.9379 8.6738 19.6118 8.77876 19.4207 9.09738C19.3794 9.1686 19.3457 9.24357 19.3045 9.31479C17.8088 12.0924 16.257 14.8362 14.6152 17.5314C11.7401 22.2469 8.57642 26.7713 5.37526 31.2656C4.99667 31.7979 5.04165 32.0266 5.58517 32.3789C7.34319 33.5147 9.1012 34.6505 10.8555 35.7863C10.9567 35.8425 11.0879 35.8612 11.1141 35.9924Z" fill="white"/>
<path fill-rule="evenodd" clip-rule="evenodd" d="M19.1996 0.00749848C24.6911 0.00749848 30.1826 0.00749688 35.6703 0C35.9177 0 36.0039 0.0299882 36.0039 0.311121C35.9926 12.1 35.9964 23.8888 36.0039 35.6776C36.0039 35.955 35.9252 35.9925 35.674 35.9925C32.0793 35.985 28.4845 35.985 24.8898 35.985C24.8785 35.8726 24.9872 35.8763 25.0435 35.8388C26.8202 34.688 28.597 33.541 30.3737 32.394C30.9585 32.0154 30.9997 31.8017 30.5949 31.2357C28.3271 28.0571 26.0143 24.9084 23.9639 21.5798C23.664 21.0925 23.3679 20.9688 23.038 21.1787C22.7119 21.3886 22.7082 21.696 23.0118 22.1908C24.961 25.3469 27.1351 28.3494 29.3054 31.3594C29.4516 31.5618 29.4741 31.6481 29.2305 31.8017C27.8173 32.6939 26.4154 33.601 25.0172 34.5194C24.8111 34.6543 24.7286 34.6318 24.5862 34.4369C23.9227 33.5148 23.2367 32.6114 22.5657 31.6968C21.6549 30.4636 20.7927 29.1966 19.9418 27.9221C19.6982 27.5548 19.4133 27.4611 19.1172 27.6297C18.8061 27.8097 18.7423 28.1545 18.9822 28.5069C19.6045 29.429 20.2192 30.3511 20.864 31.2582C22.0035 32.8626 23.1617 34.4519 24.395 35.9888C20.1293 35.9888 15.8673 35.9888 11.6016 35.9888C11.714 35.8613 11.8377 35.7414 11.9352 35.6064C17.9552 27.3636 23.3904 18.7497 28.2296 9.76093C28.4021 9.43857 28.4096 9.16493 28.2484 8.83882C27.2063 6.69846 26.1717 4.55436 25.1522 2.399C24.9085 1.88547 24.5449 1.52561 24.0576 1.26322C22.9481 0.670969 21.7373 0.419824 20.5153 0.209912C20.0805 0.134943 19.627 0.161184 19.1996 0.00749848Z" fill="white"/>
<path fill-rule="evenodd" clip-rule="evenodd" d="M9.36719 8.08168C9.71204 7.36573 10.0082 6.75099 10.3043 6.13624C10.8103 5.08293 11.3239 4.03712 11.8187 2.98006C11.9236 2.7589 12.0698 2.59772 12.2797 2.47777C13.378 1.84054 14.57 1.48818 15.8145 1.30451C18.1573 0.955904 20.4551 1.10959 22.6816 1.97173C22.6929 1.97548 22.7041 1.97923 22.7154 1.98298C23.5588 2.27161 24.151 2.7664 24.5146 3.63979C25.0881 5.01547 25.7928 6.33866 26.4413 7.68435C26.4901 7.78556 26.535 7.89052 26.625 8.08544C20.8562 5.69768 15.151 5.70892 9.36719 8.08168Z" fill="white"/>
</svg>
