<svg width="36" height="36" viewBox="0 0 36 36" fill="none" xmlns="http://www.w3.org/2000/svg">
<path fill-rule="evenodd" clip-rule="evenodd" d="M13.2204 35.9938C8.91002 35.9938 4.59836 35.9913 0.28794 36C0.0471626 36 0 35.9528 0 35.7121C0.00744674 23.904 0.00744674 12.096 0 0.28794C0 0.0471626 0.0471626 0 0.28794 0C7.17617 0.00868786 14.0644 0.00620552 20.9514 0.00620552C20.9303 0.0297868 20.9129 0.0645382 20.8869 0.0744672C20.0963 0.367372 19.6817 0.910984 19.6432 1.71647C19.6073 2.44129 19.9808 3.03951 20.7106 3.36965C20.8819 3.4466 20.8943 3.54465 20.8931 3.69234C20.8893 4.53506 20.8893 5.37903 20.8943 6.22175C20.8955 6.37937 20.8571 6.51589 20.7814 6.65366C20.0665 7.95311 19.3528 9.25381 18.6491 10.5595C18.5535 10.737 18.453 10.8114 18.2457 10.8102C16.8408 10.8015 15.4346 10.8015 14.0297 10.8089C13.8298 10.8102 13.7156 10.7506 13.6164 10.5706C13.2626 9.92526 12.8977 9.28608 12.5167 8.65559C12.3876 8.44212 12.374 8.2969 12.5242 8.07226C12.9399 7.44798 12.925 6.7877 12.5254 6.15845C12.1369 5.54906 11.5561 5.27974 10.8437 5.37902C9.85699 5.51679 9.23395 6.3682 9.34565 7.36979C9.44618 8.26836 10.2728 8.92864 11.2384 8.85665C11.4568 8.84052 11.5697 8.89016 11.6752 9.08378C12.0389 9.75026 12.4187 10.4081 12.8047 11.0621C12.8977 11.2197 12.9027 11.3377 12.8146 11.5027C12.1891 12.6781 11.5735 13.8584 10.9641 15.0424C10.876 15.2149 10.7729 15.2658 10.5843 15.2646C8.33538 15.2571 6.08647 15.2584 3.83755 15.2633C3.66131 15.2633 3.56947 15.2248 3.50989 15.0424C3.40192 14.7123 3.18348 14.4516 2.89057 14.258C2.07764 13.7194 0.887402 13.9812 0.390953 14.8054C-0.114184 15.6468 0.186168 16.7775 1.03758 17.2367C1.95601 17.7332 3.04944 17.403 3.48383 16.4809C3.57319 16.291 3.66752 16.2314 3.87106 16.2326C6.10756 16.2401 8.34531 16.2388 10.5831 16.2339C10.7754 16.2339 10.8921 16.2773 10.9963 16.4598C11.6715 17.6488 12.3579 18.8316 13.0516 20.0081C13.1559 20.1844 13.1509 20.3135 13.0566 20.4885C12.4336 21.6526 11.8155 22.818 11.2135 23.9921C11.113 24.1882 11.0038 24.2553 10.7903 24.254C9.0453 24.2466 7.30028 24.2478 5.55402 24.2528C5.37406 24.2528 5.27353 24.2255 5.19037 24.0294C4.85899 23.24 4.07212 22.8404 3.24678 23.0054C2.40405 23.1742 1.84183 23.8444 1.83686 24.6884C1.8319 25.5125 2.41647 26.2547 3.20582 26.421C4.04234 26.5973 4.84782 26.2013 5.19534 25.4095C5.27974 25.2171 5.38399 25.1861 5.56519 25.1861C7.31021 25.1911 9.05523 25.1923 10.8015 25.1849C11.0088 25.1836 11.1105 25.2531 11.1986 25.438C11.5275 26.1219 11.8775 26.7958 12.2164 27.4747C12.5552 28.1536 13.0219 28.804 13.1894 29.5238C13.3607 30.2573 13.2366 31.0603 13.2403 31.8336C13.2415 31.9626 13.2291 32.0929 13.2428 32.2195C13.2651 32.4293 13.2055 32.5422 12.9896 32.6366C12.3107 32.9344 11.9719 33.4954 11.9781 34.2227C11.9855 34.9686 12.3119 35.5495 13.0293 35.8622C13.0988 35.8957 13.1981 35.8908 13.2204 35.9938Z" fill="white"/>
<path fill-rule="evenodd" clip-rule="evenodd" d="M27.0674 0.00740554C29.9593 0.00740554 32.8511 0.00988814 35.7429 0.00244141C35.9377 0.00244141 36.001 0.0235404 36.001 0.248184C35.9936 12.0848 35.9936 23.9201 36.0023 35.7567C36.0023 35.9925 35.9228 35.9962 35.7392 35.9962C30.2956 35.9925 24.8508 35.9925 19.4072 35.9925C19.4209 35.9751 19.4308 35.9466 19.4469 35.9416C20.276 35.6971 20.7104 35.1746 20.7725 34.3406C20.8296 33.5798 20.4547 32.9555 19.7088 32.6154C19.5363 32.5372 19.5016 32.4379 19.5028 32.2679C19.5102 31.4488 19.509 30.6284 19.504 29.8092C19.5028 29.6392 19.5438 29.4903 19.6219 29.3413C20.2661 28.1238 20.909 26.905 21.5432 25.6825C21.6338 25.5075 21.7318 25.4306 21.9404 25.433C23.3453 25.4442 24.7503 25.443 26.1552 25.433C26.3575 25.4318 26.4692 25.4951 26.5673 25.6701C26.9384 26.3329 27.3157 26.9919 27.7116 27.6398C27.8282 27.8297 27.8146 27.9488 27.6954 28.13C27.2809 28.758 27.3318 29.5709 27.7923 30.163C28.2366 30.7314 28.9924 30.9647 29.6812 30.7438C30.5401 30.4683 31.0415 29.6243 30.8715 28.7369C30.7027 27.8557 29.9183 27.2649 29.0098 27.3295C28.8398 27.3419 28.666 27.4387 28.5332 27.1942C28.1547 26.4954 27.7476 25.8141 27.3454 25.129C27.2735 25.0061 27.2598 24.9118 27.3355 24.7765C28.0541 23.4919 28.7653 22.2036 29.4752 20.9154C29.5435 20.79 29.6217 20.7317 29.7743 20.7329C30.5823 20.7416 31.3903 20.7404 32.1982 20.7329C32.3497 20.7317 32.4266 20.7751 32.4787 20.9228C32.5855 21.2281 32.7778 21.4763 33.041 21.6675C33.8427 22.2508 35.0491 22.0262 35.5766 21.1959C36.1202 20.3395 35.8223 19.1741 34.9411 18.7111C34.0053 18.2184 32.9032 18.5796 32.4949 19.5303C32.4142 19.7164 32.3286 19.7661 32.1387 19.7636C31.3654 19.7524 30.5935 19.7537 29.8202 19.7624C29.639 19.7648 29.5323 19.7202 29.4355 19.5489C28.7541 18.3512 28.0603 17.1597 27.3616 15.972C27.2648 15.8081 27.2747 15.684 27.3641 15.5239C28.0653 14.2704 28.7628 13.0144 29.4467 11.7521C29.5484 11.5647 29.6639 11.5201 29.8575 11.5225C30.6071 11.5312 31.3568 11.5362 32.1052 11.5201C32.3261 11.5151 32.4241 11.5846 32.5135 11.7881C32.8523 12.5601 33.6379 12.9263 34.4869 12.7388C35.3135 12.5564 35.8434 11.8998 35.8447 11.0559C35.8459 10.2206 35.2986 9.5293 34.498 9.35678C33.6206 9.16689 32.8411 9.53178 32.5023 10.3249C32.4142 10.5296 32.3087 10.5694 32.1138 10.5669C31.353 10.5582 30.591 10.5569 29.8302 10.5681C29.6316 10.5706 29.5211 10.511 29.4206 10.3335C28.7231 9.10483 28.0132 7.88233 27.3032 6.65982C27.2176 6.51213 27.1816 6.36444 27.1829 6.19564C27.1878 5.3765 27.1903 4.55612 27.1816 3.73698C27.1791 3.54088 27.2226 3.43414 27.4261 3.34727C28.141 3.04443 28.5133 2.35809 28.4265 1.59108C28.3346 0.750838 27.8407 0.259353 27.0674 0.00740554Z" fill="white"/>
<path fill-rule="evenodd" clip-rule="evenodd" d="M27.0677 0.00734443C27.841 0.259292 28.3349 0.750777 28.4293 1.58978C28.5161 2.35555 28.1438 3.04189 27.4289 3.34596C27.2241 3.43284 27.1819 3.53834 27.1844 3.73568C27.1931 4.55482 27.1906 5.3752 27.1857 6.19434C27.1844 6.36437 27.2204 6.51207 27.306 6.65852C28.016 7.88103 28.7259 9.10229 29.4234 10.3322C29.5239 10.5097 29.6344 10.5693 29.833 10.5668C30.5938 10.5556 31.3546 10.5569 32.1166 10.5656C32.3115 10.5681 32.4182 10.5283 32.5051 10.3236C32.8439 9.53048 33.6246 9.16559 34.5008 9.35548C35.3014 9.52924 35.8487 10.2193 35.8475 11.0546C35.8462 11.8985 35.3162 12.5563 34.4897 12.7375C33.6395 12.9249 32.8539 12.5588 32.5163 11.7868C32.4269 11.5833 32.3301 11.5138 32.1079 11.5188C31.3583 11.5336 30.6087 11.5299 29.8603 11.5212C29.6667 11.5188 29.55 11.5647 29.4495 11.7508C28.7656 13.0143 28.0668 14.2691 27.3669 15.5226C27.2775 15.6827 27.2676 15.8068 27.3644 15.9707C28.0631 17.1584 28.7569 18.3499 29.4383 19.5476C29.5351 19.7189 29.6418 19.7623 29.823 19.7611C30.5963 19.7524 31.3695 19.7511 32.1415 19.7623C32.3313 19.7648 32.417 19.7151 32.4977 19.529C32.9072 18.577 34.0081 18.2171 34.9439 18.7098C35.8251 19.1728 36.123 20.3394 35.5794 21.1945C35.0519 22.0249 33.8455 22.2495 33.0438 21.6662C32.7806 21.475 32.5883 21.2268 32.4815 20.9215C32.4294 20.7738 32.3537 20.7304 32.201 20.7316C31.3931 20.7391 30.5851 20.7391 29.7771 20.7316C29.6245 20.7304 29.5463 20.7887 29.478 20.9141C28.7681 22.2036 28.0569 23.4919 27.3383 24.7752C27.2626 24.9092 27.2763 25.0048 27.3482 25.1277C27.7504 25.8128 28.1575 26.4954 28.536 27.1929C28.6688 27.4374 28.8426 27.3406 29.0126 27.3282C29.9198 27.2636 30.7055 27.8557 30.8743 28.7356C31.0443 29.623 30.5429 30.467 29.684 30.7425C28.9952 30.9634 28.2381 30.7301 27.795 30.1617C27.3346 29.5696 27.2837 28.7567 27.6982 28.1287C27.8174 27.9475 27.831 27.8283 27.7144 27.6385C27.3184 26.9906 26.9412 26.3316 26.5701 25.6688C26.472 25.4938 26.3603 25.4305 26.158 25.4317C24.7531 25.4417 23.3481 25.4417 21.9431 25.4317C21.7346 25.4305 21.6366 25.5062 21.546 25.6812C20.9118 26.9037 20.2689 28.1225 19.6247 29.34C19.5465 29.489 19.5056 29.6379 19.5068 29.8079C19.5118 30.6271 19.513 31.4475 19.5056 32.2666C19.5043 32.4366 19.5379 32.5347 19.7116 32.6141C20.4563 32.9542 20.8311 33.5785 20.7753 34.3393C20.7132 35.1721 20.2788 35.6958 19.4497 35.9403C19.4336 35.9453 19.4237 35.9738 19.41 35.9912C19.1295 35.9912 18.8478 35.9912 18.5673 35.9912C18.5462 35.9664 18.5301 35.9292 18.504 35.9192C17.7208 35.6325 17.3249 35.0566 17.3076 34.2412C17.2914 33.4457 17.6762 32.8834 18.4196 32.5881C18.5661 32.5297 18.5661 32.4391 18.5648 32.3187C18.5623 31.6051 18.5574 30.8914 18.5673 30.179C18.5698 29.9891 18.5288 29.9184 18.3216 29.9196C17.0233 29.9296 15.7251 29.9283 14.4282 29.9196C14.2358 29.9184 14.1985 29.9854 14.1998 30.1604C14.2085 30.8505 14.2122 31.5405 14.1985 32.2294C14.1948 32.4428 14.2482 32.5459 14.4579 32.6389C15.1219 32.9318 15.4546 33.4804 15.457 34.1928C15.4608 34.9102 15.1492 35.4724 14.4977 35.8249C14.3586 35.9006 14.1799 35.8597 14.067 35.9912C13.7852 35.9912 13.5048 35.9912 13.223 35.9912C13.1994 35.8882 13.1002 35.8932 13.0319 35.8634C12.3145 35.5506 11.9881 34.971 11.9807 34.2239C11.9732 33.4966 12.312 32.9343 12.9922 32.6377C13.2094 32.5434 13.2677 32.4304 13.2454 32.2207C13.2317 32.0928 13.2441 31.9638 13.2429 31.8347C13.2379 31.0615 13.3633 30.2597 13.192 29.525C13.0244 28.8051 12.5578 28.1548 12.219 27.4759C11.8801 26.797 11.5301 26.123 11.2012 25.4392C11.1119 25.2543 11.0101 25.186 10.8041 25.186C9.05906 25.1934 7.31404 25.1922 5.56778 25.1872C5.38657 25.1872 5.28232 25.2183 5.19792 25.4106C4.85165 26.2012 4.04616 26.5984 3.2084 26.4222C2.42029 26.2558 1.83448 25.5137 1.83945 24.6896C1.84565 23.8456 2.40664 23.1754 3.24936 23.0066C4.07595 22.8415 4.86158 23.2412 5.19296 24.0305C5.27487 24.2266 5.3754 24.2539 5.55661 24.2539C7.30163 24.2489 9.04664 24.2477 10.7929 24.2552C11.0076 24.2564 11.1156 24.1894 11.2161 23.9933C11.8193 22.8192 12.4362 21.6538 13.0592 20.4896C13.1523 20.3146 13.1585 20.1855 13.0542 20.0093C12.3604 18.8314 11.6729 17.6499 10.9989 16.4609C10.8959 16.2785 10.7793 16.235 10.5856 16.235C8.34789 16.2412 6.11139 16.2412 3.87365 16.2338C3.6701 16.2325 3.57578 16.2934 3.48642 16.482C3.05202 17.4054 1.95859 17.7343 1.04016 17.2378C0.188753 16.7774 -0.111599 15.648 0.393538 14.8065C0.888746 13.9811 2.07898 13.7205 2.89316 14.2592C3.18606 14.4528 3.40326 14.7134 3.51248 15.0435C3.57205 15.226 3.6639 15.2645 3.84014 15.2645C6.08905 15.2595 8.33796 15.2583 10.5869 15.2657C10.7755 15.2657 10.8785 15.2148 10.9667 15.0435C11.5748 13.8595 12.1916 12.6792 12.8172 11.5039C12.9053 11.3388 12.9003 11.2196 12.8072 11.0633C12.4225 10.4092 12.0415 9.7514 11.6778 9.08492C11.5723 8.8913 11.4594 8.84165 11.2409 8.85779C10.2754 8.92977 9.44877 8.2695 9.34824 7.37092C9.23654 6.3681 9.85958 5.51793 10.8463 5.38016C11.5587 5.28087 12.1395 5.5502 12.528 6.15959C12.9276 6.78884 12.9425 7.44912 12.5268 8.0734C12.3766 8.29804 12.3902 8.44325 12.5193 8.65673C12.9003 9.28598 13.2652 9.9264 13.6189 10.5718C13.7182 10.753 13.8312 10.8113 14.0322 10.8101C15.4384 10.8026 16.8434 10.8014 18.2483 10.8113C18.4556 10.8126 18.5561 10.7381 18.6517 10.5606C19.3554 9.25495 20.0691 7.95425 20.7839 6.6548C20.8596 6.51703 20.8981 6.38175 20.8969 6.22289C20.8919 5.38016 20.8932 4.5362 20.8956 3.69348C20.8956 3.54578 20.8832 3.44774 20.7132 3.37079C19.9834 3.04065 19.6098 2.44243 19.6458 1.71761C19.6855 0.913364 20.0988 0.368511 20.8894 0.0756061C20.9155 0.0656771 20.9329 0.0309258 20.954 0.00734443C21.2121 0.00734443 21.469 0.00734443 21.7272 0.00734443C21.8451 0.132698 22.0238 0.0929818 22.1641 0.16869C22.8132 0.52241 23.1309 1.07471 23.1272 1.79828C23.1235 2.51689 22.7871 3.05554 22.1194 3.34348C21.9258 3.42664 21.86 3.516 21.865 3.72327C21.8786 4.42574 21.8786 5.12822 21.865 5.82945C21.8612 6.03672 21.9295 6.07767 22.1231 6.07643C23.4102 6.06775 24.6984 6.06775 25.9855 6.07643C26.1878 6.07767 26.2387 6.01686 26.235 5.822C26.2238 5.10836 26.2238 4.39471 26.235 3.68107C26.2374 3.49738 26.1717 3.42788 26.0066 3.35589C25.314 3.05554 24.9578 2.50448 24.969 1.75609C24.9802 0.989072 25.3302 0.416915 26.0637 0.114081C26.122 0.0892586 26.2089 0.0954643 26.2275 0.00610352C26.5055 0.00734464 26.786 0.00734443 27.0677 0.00734443ZM24.0617 7.03086C23.3469 7.03086 22.6332 7.03582 21.9183 7.02713C21.7483 7.02465 21.6515 7.06809 21.5634 7.22944C20.8659 8.51152 20.1597 9.78987 19.446 11.0633C19.3591 11.2184 19.3691 11.3239 19.4559 11.4716C20.1522 12.6606 20.8435 13.8545 21.5261 15.0522C21.6205 15.2185 21.7272 15.2694 21.9146 15.2682C23.332 15.2595 24.7493 15.2595 26.1654 15.2682C26.3529 15.2694 26.4559 15.2198 26.5477 15.0498C27.2316 13.7863 27.9229 12.5265 28.6229 11.273C28.716 11.1055 28.706 10.9876 28.6154 10.8312C27.9216 9.6397 27.2328 8.44574 26.5527 7.24681C26.4596 7.08298 26.3591 7.02341 26.1692 7.02589C25.4679 7.0383 24.7642 7.03086 24.0617 7.03086ZM24.0667 16.2412C23.3531 16.2412 22.6394 16.2462 21.9258 16.2375C21.7582 16.2363 21.6577 16.2698 21.5721 16.4361C20.9515 17.6387 20.3185 18.8352 19.6831 20.0304C19.6049 20.1781 19.5937 20.2947 19.6731 20.4511C20.3136 21.722 20.9465 22.9954 21.5745 24.2725C21.6453 24.4153 21.7185 24.4786 21.8873 24.4786C23.327 24.4711 24.7655 24.4724 26.2052 24.4786C26.3653 24.4786 26.4546 24.4314 26.5328 24.2874C27.2266 23.0041 27.9266 21.7245 28.634 20.4486C28.7197 20.2935 28.711 20.1843 28.6241 20.0366C27.9278 18.8476 27.2378 17.6561 26.5552 16.4597C26.4633 16.2983 26.3678 16.2313 26.1741 16.235C25.4717 16.2499 24.7692 16.2412 24.0667 16.2412ZM16.3829 28.9553C17.073 28.9553 17.7643 28.9454 18.4544 28.9603C18.6703 28.9652 18.7833 28.9007 18.8838 28.7058C19.4882 27.5342 20.1038 26.3675 20.7256 25.2046C20.8237 25.0209 20.8286 24.8745 20.7331 24.6871C20.1125 23.4584 19.4981 22.2259 18.8937 20.9885C18.7944 20.785 18.684 20.7018 18.4444 20.7043C17.0631 20.718 15.6817 20.7155 14.3016 20.7068C14.0881 20.7055 13.9665 20.7639 13.8659 20.96C13.2565 22.1428 12.6372 23.3206 12.0104 24.4935C11.9248 24.6548 11.9236 24.7764 12.0067 24.9378C12.6471 26.1963 13.2838 27.4573 13.9069 28.7244C14.0012 28.9156 14.1141 28.9615 14.309 28.959C15.0016 28.9491 15.6916 28.9553 16.3829 28.9553ZM16.3482 19.7598C17.0506 19.7598 17.7531 19.7511 18.4544 19.7648C18.6678 19.7697 18.7833 19.7102 18.8838 19.5128C19.4845 18.3387 20.0988 17.1721 20.7182 16.0079C20.8038 15.8453 20.8125 15.7262 20.7157 15.5611C20.0144 14.3609 19.3219 13.157 18.6343 11.9494C18.5487 11.798 18.4531 11.7434 18.2781 11.7434C16.862 11.7508 15.4459 11.7521 14.0298 11.7422C13.8386 11.7409 13.7381 11.798 13.6512 11.9668C13.0418 13.1496 12.425 14.3287 11.8019 15.504C11.7175 15.6641 11.7076 15.782 11.8032 15.9458C12.5044 17.1448 13.197 18.3499 13.8833 19.5575C13.9702 19.7114 14.0657 19.7635 14.2395 19.7611C14.9445 19.7536 15.6469 19.7598 16.3482 19.7598ZM4.37382 24.6982C4.36761 24.2328 4.02754 23.9002 3.57205 23.9126C3.13394 23.925 2.81993 24.2589 2.81993 24.7144C2.81993 25.1835 3.15255 25.5236 3.60556 25.5174C4.06106 25.5099 4.38002 25.1699 4.37382 24.6982ZM2.68837 15.7162C2.68589 15.2508 2.35079 14.9232 1.88909 14.9331C1.4398 14.943 1.1258 15.262 1.12208 15.715C1.11835 16.1804 1.44601 16.5168 1.90398 16.5168C2.36196 16.5168 2.69086 16.1804 2.68837 15.7162ZM34.8868 20.2774C34.9017 19.7983 34.5964 19.4719 34.1235 19.4607C33.6544 19.4495 33.3242 19.7437 33.3056 20.1868C33.2858 20.6596 33.5961 21.0071 34.0528 21.0258C34.5306 21.0456 34.8732 20.7378 34.8868 20.2774ZM22.1653 1.79084C22.1802 1.31052 21.8823 0.980385 21.4182 0.96425C20.9503 0.948116 20.6151 1.2584 20.599 1.72258C20.5841 2.1942 20.8932 2.53551 21.3487 2.54792C21.8265 2.56157 22.1504 2.25998 22.1653 1.79084ZM29.9509 29.062C29.9484 28.6016 29.6058 28.2665 29.1491 28.2752C28.7048 28.2838 28.3846 28.609 28.3809 29.0571C28.3759 29.5225 28.7048 29.8601 29.1615 29.8613C29.6195 29.8625 29.9534 29.5237 29.9509 29.062ZM34.8868 11.036C34.8806 10.5693 34.553 10.2578 34.0776 10.2652C33.6221 10.2727 33.3044 10.5892 33.3044 11.0372C33.3044 11.5076 33.6258 11.8278 34.0962 11.8253C34.5728 11.8228 34.893 11.5026 34.8868 11.036ZM14.4989 34.2226C14.4952 33.746 14.1849 33.4469 13.6996 33.4506C13.2392 33.4544 12.9388 33.7572 12.9351 34.2201C12.9314 34.6942 13.2466 35.0157 13.7157 35.0145C14.1874 35.0145 14.5026 34.6955 14.4989 34.2226ZM27.486 1.74616C27.481 1.28198 27.1459 0.954321 26.6842 0.961768C26.2238 0.967974 25.9197 1.30059 25.9309 1.78463C25.942 2.24757 26.2498 2.55165 26.7041 2.54916C27.1658 2.54668 27.4922 2.21158 27.486 1.74616ZM19.0451 33.4519C18.5648 33.4519 18.2508 33.7597 18.2521 34.2325C18.2533 34.7004 18.5772 35.0182 19.0501 35.0157C19.5019 35.0132 19.8183 34.6992 19.827 34.2462C19.8332 33.7733 19.518 33.4519 19.0451 33.4519ZM11.0871 7.90585C11.545 7.90088 11.8826 7.55213 11.8677 7.09912C11.8541 6.6548 11.5252 6.33459 11.0808 6.33211C10.6229 6.32962 10.2803 6.66845 10.2816 7.1227C10.2828 7.57819 10.6266 7.91205 11.0871 7.90585Z" fill="#363636"/>
<path fill-rule="evenodd" clip-rule="evenodd" d="M14.0645 35.9937C14.1774 35.8622 14.3561 35.9031 14.4951 35.8274C15.1467 35.4737 15.457 34.9127 15.4545 34.1953C15.4508 33.4829 15.1194 32.9343 14.4554 32.6414C14.2444 32.5484 14.191 32.4453 14.196 32.2319C14.2097 31.5418 14.2059 30.8517 14.1973 30.1629C14.1948 29.9879 14.2332 29.9209 14.4256 29.9221C15.7238 29.9308 17.022 29.9308 18.319 29.9221C18.5263 29.9209 18.5672 29.9916 18.5648 30.1815C18.5548 30.8952 18.5598 31.6076 18.5623 32.3212C18.5623 32.4416 18.5623 32.5322 18.4171 32.5905C17.6736 32.8859 17.2876 33.4494 17.305 34.2437C17.3224 35.0591 17.7183 35.635 18.5015 35.9217C18.5275 35.9317 18.5437 35.9689 18.5648 35.9937C17.063 35.9937 15.5637 35.9937 14.0645 35.9937Z" fill="white"/>
<path fill-rule="evenodd" clip-rule="evenodd" d="M26.2239 0.00756836C26.2053 0.0969292 26.1197 0.091965 26.0601 0.115546C25.3279 0.41838 24.9779 0.990538 24.9654 1.75755C24.9543 2.50595 25.3105 3.05701 26.003 3.35736C26.1681 3.42934 26.2351 3.49885 26.2314 3.68253C26.2202 4.39618 26.2202 5.10982 26.2314 5.82347C26.2339 6.01833 26.1842 6.07914 25.9819 6.0779C24.6949 6.06921 23.4078 6.06921 22.1196 6.0779C21.9259 6.07914 21.8577 6.03694 21.8614 5.83092C21.8738 5.12844 21.875 4.42596 21.8614 3.72473C21.8577 3.51746 21.9235 3.4281 22.1158 3.34495C22.7836 3.05577 23.1199 2.51836 23.1236 1.79975C23.1273 1.07618 22.8096 0.523875 22.1605 0.170156C22.0203 0.093206 21.8415 0.134163 21.7236 0.00880975C23.2254 0.00756862 24.7247 0.00756836 26.2239 0.00756836Z" fill="white"/>
<path fill-rule="evenodd" clip-rule="evenodd" d="M24.0619 7.03101C24.7644 7.03101 25.4668 7.03845 26.1693 7.02604C26.3592 7.02232 26.4597 7.08189 26.5528 7.24696C27.233 8.44589 27.9218 9.63985 28.6156 10.8313C28.7074 10.9889 28.7173 11.1069 28.623 11.2732C27.923 12.5267 27.2305 13.7864 26.5479 15.0499C26.456 15.2199 26.353 15.2696 26.1656 15.2683C24.7482 15.2597 23.3321 15.2597 21.9147 15.2683C21.7273 15.2696 21.6206 15.2187 21.5263 15.0524C20.8437 13.8547 20.1536 12.662 19.4561 11.4717C19.3692 11.3228 19.3593 11.2173 19.4461 11.0634C20.1598 9.79002 20.866 8.51167 21.5635 7.22959C21.6516 7.06824 21.7484 7.0248 21.9185 7.02728C22.6334 7.03597 23.3482 7.03101 24.0619 7.03101Z" fill="white"/>
<path fill-rule="evenodd" clip-rule="evenodd" d="M24.0669 16.2414C24.7694 16.2414 25.4718 16.2501 26.1731 16.2365C26.3667 16.2328 26.4623 16.2998 26.5541 16.4611C27.2367 17.6576 27.9268 18.849 28.6231 20.038C28.7099 20.1857 28.7186 20.2949 28.633 20.4501C27.9255 21.726 27.2268 23.0056 26.5318 24.2889C26.4536 24.4328 26.3655 24.48 26.2041 24.48C24.7644 24.4738 23.3247 24.4738 21.8862 24.48C21.7174 24.4813 21.643 24.4167 21.5735 24.274C20.9455 22.9969 20.3125 21.7235 19.6721 20.4526C19.5939 20.2962 19.6038 20.1795 19.682 20.0318C20.3175 18.8366 20.9504 17.6402 21.571 16.4375C21.6566 16.2712 21.7572 16.2377 21.9247 16.239C22.6396 16.2464 23.3532 16.2414 24.0669 16.2414Z" fill="white"/>
<path fill-rule="evenodd" clip-rule="evenodd" d="M16.3829 28.9554C15.6928 28.9554 15.0015 28.9492 14.3115 28.9591C14.1166 28.9616 14.0024 28.9169 13.9093 28.7245C13.2863 27.4573 12.6508 26.1964 12.0092 24.9379C11.926 24.7753 11.926 24.6549 12.0129 24.4935C12.6384 23.3194 13.259 22.1416 13.8684 20.9601C13.9689 20.764 14.0905 20.7056 14.304 20.7069C15.6854 20.7168 17.0667 20.7193 18.4469 20.7044C18.6852 20.7019 18.7969 20.7851 18.8962 20.9886C19.5018 22.226 20.1149 23.4585 20.7355 24.6872C20.8298 24.8746 20.8261 25.021 20.7281 25.2047C20.1063 26.3676 19.4907 27.5343 18.8862 28.7059C18.7857 28.9008 18.6728 28.9641 18.4568 28.9603C17.7643 28.9455 17.073 28.9554 16.3829 28.9554Z" fill="white"/>
<path fill-rule="evenodd" clip-rule="evenodd" d="M16.348 19.7598C15.6455 19.7598 14.943 19.7536 14.2418 19.7635C14.068 19.766 13.9737 19.7139 13.8856 19.56C13.1992 18.3511 12.5067 17.1473 11.8055 15.9483C11.7099 15.7845 11.7198 15.6666 11.8042 15.5065C12.4273 14.3311 13.0441 13.1521 13.6535 11.9693C13.7404 11.8005 13.8409 11.7434 14.032 11.7446C15.4481 11.7533 16.8643 11.7533 18.2804 11.7459C18.4554 11.7446 18.5497 11.8005 18.6366 11.9519C19.3242 13.1595 20.0167 14.3647 20.718 15.5636C20.8135 15.7274 20.8061 15.8478 20.7204 16.0104C20.1011 17.1746 19.4868 18.3425 18.8861 19.5153C18.7855 19.7127 18.6701 19.771 18.4566 19.7673C17.7529 19.7499 17.0504 19.7598 16.348 19.7598Z" fill="white"/>
<path fill-rule="evenodd" clip-rule="evenodd" d="M4.37349 24.6983C4.37969 25.1699 4.06072 25.51 3.60399 25.5162C3.15098 25.5224 2.81836 25.1823 2.81836 24.7132C2.81836 24.2577 3.13236 23.9238 3.57048 23.9114C4.02721 23.9002 4.36728 24.2329 4.37349 24.6983Z" fill="white"/>
<path fill-rule="evenodd" clip-rule="evenodd" d="M2.6884 15.7163C2.69088 16.1805 2.36198 16.5168 1.90401 16.5168C1.44604 16.5168 1.11838 16.1805 1.1221 15.715C1.12583 15.2633 1.43859 14.9431 1.88912 14.9331C2.35081 14.922 2.68468 15.2509 2.6884 15.7163Z" fill="white"/>
<path fill-rule="evenodd" clip-rule="evenodd" d="M34.8868 20.2774C34.8731 20.7378 34.5306 21.0456 34.0527 21.0257C33.596 21.0071 33.2857 20.6596 33.3056 20.1868C33.3242 19.7437 33.6543 19.4508 34.1235 19.4607C34.5964 19.4731 34.9017 19.7995 34.8868 20.2774Z" fill="white"/>
<path fill-rule="evenodd" clip-rule="evenodd" d="M22.1653 1.79106C22.1504 2.2602 21.8264 2.56179 21.3498 2.54814C20.8944 2.53573 20.5841 2.19442 20.6002 1.72279C20.6151 1.25861 20.9514 0.948333 21.4194 0.964468C21.881 0.980603 22.1802 1.31074 22.1653 1.79106Z" fill="white"/>
<path fill-rule="evenodd" clip-rule="evenodd" d="M29.9509 29.0622C29.9534 29.5239 29.6196 29.8627 29.1616 29.8615C28.7048 29.8602 28.376 29.5214 28.3809 29.0572C28.3859 28.6092 28.7061 28.284 29.1492 28.2753C29.6059 28.2666 29.9472 28.6017 29.9509 29.0622Z" fill="white"/>
<path fill-rule="evenodd" clip-rule="evenodd" d="M34.8869 11.036C34.8931 11.5026 34.5729 11.8216 34.0975 11.8241C33.6271 11.8266 33.3057 11.5064 33.3057 11.036C33.3057 10.5892 33.6222 10.2727 34.0789 10.264C34.553 10.2578 34.8806 10.5706 34.8869 11.036Z" fill="white"/>
<path fill-rule="evenodd" clip-rule="evenodd" d="M14.4987 34.2227C14.5024 34.6956 14.1872 35.0145 13.7143 35.0158C13.2451 35.017 12.9299 34.6956 12.9336 34.2215C12.9373 33.7573 13.2377 33.4557 13.6982 33.452C14.1847 33.447 14.4962 33.7461 14.4987 34.2227Z" fill="white"/>
<path fill-rule="evenodd" clip-rule="evenodd" d="M27.4861 1.74638C27.4911 2.2118 27.1659 2.54566 26.7042 2.54815C26.2499 2.55063 25.9409 2.24655 25.931 1.78361C25.9198 1.29958 26.2239 0.968196 26.6843 0.960749C27.146 0.955785 27.4811 1.2822 27.4861 1.74638Z" fill="white"/>
<path fill-rule="evenodd" clip-rule="evenodd" d="M19.0453 33.4519C19.5194 33.4519 19.8346 33.7734 19.826 34.2462C19.8173 34.6992 19.5008 35.0132 19.049 35.0157C18.5761 35.0182 18.2522 34.7005 18.251 34.2326C18.251 33.7597 18.5637 33.4507 19.0453 33.4519Z" fill="white"/>
<path fill-rule="evenodd" clip-rule="evenodd" d="M11.0867 7.90601C10.6263 7.91098 10.2825 7.57836 10.2813 7.12411C10.28 6.66985 10.6226 6.33103 11.0805 6.33351C11.5249 6.33599 11.8538 6.6562 11.8674 7.10052C11.8823 7.55353 11.5447 7.90105 11.0867 7.90601Z" fill="white"/>
</svg>
