<svg width="87" height="90" viewBox="0 0 87 90" fill="none" xmlns="http://www.w3.org/2000/svg">
<path fill-rule="evenodd" clip-rule="evenodd" d="M29.6557 31.1458C24.5644 27.781 24.4315 20.9504 28.7291 17.3706C29.5229 16.7097 30.3989 16.1816 31.3823 15.8812C31.8377 15.742 32.0306 15.5238 32.1192 15.0621C32.9983 10.5084 35.6831 7.58005 40.1199 6.25819C40.4835 6.15068 40.7049 5.97991 40.8883 5.64154C43.7692 0.411041 50.1508 -0.885516 54.7868 2.82706C55.1378 3.10851 55.473 3.20022 55.8967 3.19706C57.5032 3.18441 59.1128 3.18757 60.7193 3.19389C61.7787 3.19706 62.136 3.49115 62.3384 4.50626C62.5851 5.73641 62.8317 6.96656 63.0594 8.19987C63.148 8.68687 63.3219 9.00943 63.8532 9.19917C64.9505 9.58813 66.0194 10.0562 67.0788 10.54C67.5373 10.7487 67.8662 10.6949 68.271 10.4072C69.3398 9.64505 70.4561 8.9525 71.5377 8.20619C72.2334 7.72868 72.831 7.8109 73.4129 8.39593C75.3925 10.385 77.3816 12.3615 79.3581 14.3506C80.0507 15.0463 80.0791 15.5112 79.5162 16.365C78.8079 17.437 78.1121 18.5154 77.3658 19.559C77.097 19.9384 77.0433 20.242 77.2362 20.6689C77.7232 21.7568 78.1975 22.8573 78.6086 23.9767C78.7889 24.4606 79.0798 24.6408 79.5447 24.7262C80.778 24.9507 82.0081 25.2006 83.2383 25.4409C84.2755 25.6433 84.5918 26.0006 84.5918 27.0252C84.5981 29.8018 84.5886 32.5783 84.5981 35.3548C84.6012 36.2213 84.2218 36.7115 83.3553 36.8664C82.0935 37.0909 80.8381 37.3661 79.5763 37.5969C79.0861 37.6855 78.7731 37.8689 78.5865 38.397C78.1975 39.4943 77.7327 40.5663 77.2425 41.6194C77.0243 42.0874 77.1097 42.4131 77.388 42.8084C78.1121 43.833 78.8015 44.8829 79.4941 45.9297C80.0854 46.8214 80.0507 47.2737 79.317 48.0105C77.3785 49.9585 75.4368 51.9001 73.492 53.8387C72.7488 54.5786 72.2903 54.6229 71.4143 54.0442C70.3201 53.32 69.2228 52.5959 68.1476 51.8432C67.8219 51.6155 67.5594 51.5808 67.1958 51.7452C66.1332 52.2195 65.0675 52.7034 63.967 53.0765C63.3377 53.2916 63.1353 53.6711 63.0341 54.2592C62.8349 55.4072 62.5914 56.5488 62.3606 57.6935C62.1171 58.8921 61.8293 59.1229 60.5833 59.1261C59.0338 59.1292 57.4874 59.1387 55.9379 59.1198C55.4793 59.1134 55.122 59.2273 54.7551 59.5245C50.1919 63.2023 43.7313 61.8931 40.9073 56.7195C40.7081 56.3559 40.4709 56.1819 40.0724 56.0586C35.6926 54.7178 33.0078 51.8211 32.1192 47.3021C32.0433 46.9226 31.9642 46.6412 31.5025 46.4767C28.1821 45.2877 26.1645 42.9191 25.7344 39.4342C25.317 36.0569 26.6325 33.3309 29.4343 31.3545C29.5039 31.3039 29.5608 31.2343 29.6557 31.1458ZM58.8061 5.67632C58.0187 5.66368 57.2249 5.70479 56.4438 5.62889C55.7418 5.55932 55.6406 5.84709 55.6469 6.46691C55.6785 9.47429 55.6754 12.4848 55.6469 15.4922C55.6406 16.0772 55.7355 16.267 56.3964 16.2448C65.9403 15.9476 73.4097 25.1753 71.1898 34.4852C69.5296 41.4423 63.5622 46.1194 56.349 46.1036C55.9347 46.1036 55.6438 46.0656 55.6501 46.657C55.6785 49.8098 55.6691 52.9659 55.6564 56.1219C55.6564 56.5203 55.7386 56.7006 56.1814 56.6816C57.0542 56.6405 57.9333 56.6531 58.8061 56.6405C59.2741 56.5361 59.9793 57.0737 60.1627 56.2041C60.4473 54.838 60.6782 53.4623 60.9343 52.093C61.2 51.6946 61.5542 51.4258 62.0032 51.2424C63.6982 50.553 65.3901 49.8573 67.0724 49.1363C67.6986 48.8675 68.2298 48.9339 68.7896 49.3165C69.7699 49.9901 70.7787 50.6226 71.778 51.2708C72.0563 51.6661 72.2966 51.5839 72.6065 51.2677C73.9726 49.8731 75.3546 48.4943 76.7492 47.1282C77.0401 46.8436 77.0433 46.6507 76.8156 46.3281C76.161 45.4016 75.5728 44.4244 74.9024 43.5105C74.3996 42.8242 74.3363 42.1886 74.681 41.4044C75.3925 39.7853 76.0218 38.1282 76.6859 36.4869C76.98 35.8165 77.4828 35.4782 78.2197 35.3738C79.0798 35.2536 79.9273 35.0291 80.7812 34.8488C82.1378 34.6212 82.1378 34.6212 82.1378 33.2803C82.1378 31.8257 82.1378 30.371 82.1378 28.9132C82.1378 27.6008 82.1378 27.6008 80.7369 27.528C79.9463 27.215 79.1019 27.1201 78.2734 26.9841C77.5208 26.8608 76.9642 26.5319 76.6764 25.8077C76.0218 24.1886 75.4052 22.5537 74.6937 20.9599C74.3268 20.1377 74.3996 19.4831 74.9277 18.7715C75.5886 17.8829 76.161 16.9311 76.7934 16.0203C77.0022 15.7199 77.0812 15.5238 76.7618 15.2139C75.3388 13.8288 73.9379 12.4216 72.5464 11.0049C72.2334 10.6855 72.0215 10.7361 71.7843 11.0491C70.8103 11.6848 69.8173 12.2983 68.8623 12.9655C68.2488 13.3956 67.6638 13.4525 66.9776 13.1552C65.3458 12.45 63.7045 11.7638 62.0538 11.1061C61.57 10.9131 61.1937 10.6349 60.9154 10.2048C60.7035 9.06635 60.5011 7.92791 60.2766 6.79263C60.0457 5.59411 60.0362 5.59727 58.8061 5.67632ZM39.8606 8.93353C38.4755 9.44899 37.3845 10.2079 36.518 11.2547C34.2474 13.9996 33.8015 17.0449 35.1202 20.3496C35.4744 21.235 35.2973 21.9307 34.6332 22.2311C33.9122 22.5537 33.2608 22.2122 32.856 21.3046C32.5461 20.6089 32.2615 19.891 32.1856 19.1384C32.1002 18.2877 31.8029 18.2782 31.1547 18.6545C28.7956 20.0238 27.6192 22.8383 28.3244 25.5105C29.0011 28.0688 31.4013 29.9377 34.0767 29.9441C39.0162 29.9567 43.9558 29.9504 48.8922 29.9441C49.2116 29.9441 49.5341 29.9156 49.8504 29.8713C51.7478 29.5931 53.1645 28.0815 53.1898 26.1714C53.2309 22.7245 53.2436 19.2744 53.1866 15.8274C53.1424 13.092 51.4094 10.9321 48.8511 10.2269C47.9182 9.97077 47.5324 9.43001 47.7348 8.67422C47.934 7.93423 48.5317 7.67808 49.4835 7.86782C50.8845 8.14611 52.0387 8.89558 53.2088 9.89488C53.2088 8.17141 53.1993 6.59973 53.2151 5.03121C53.2183 4.6707 53.0001 4.52524 52.7597 4.35447C50.5809 2.80177 47.5166 2.77963 45.2555 4.30071C42.9881 5.82812 41.8307 8.66789 42.4505 11.261C43.0419 13.7245 44.5471 15.372 46.9442 16.2101C47.8802 16.5358 48.2376 17.105 48.0036 17.8228C47.7537 18.5913 47.0928 18.8538 46.1378 18.5407C45.4705 18.3225 44.8254 18.0442 44.2372 17.6616C41.1255 15.6377 39.6803 12.7568 39.8606 8.93353ZM53.2024 52.3777C51.9818 53.5414 50.739 54.215 49.3033 54.5122C48.5064 54.6767 47.9055 54.332 47.7284 53.6426C47.545 52.9406 47.8992 52.2638 48.6835 52.1405C51.3145 51.7294 53.2309 48.975 53.2088 46.0498C53.1835 42.8938 53.2088 39.7378 53.2024 36.5818C53.1961 34.0235 51.615 32.4202 49.0503 32.4139C44.0222 32.398 38.9972 32.398 33.9691 32.4139C31.1863 32.4233 28.8715 34.3745 28.2485 37.1763C27.6698 39.7852 29.0296 42.625 31.4013 43.8014C31.8535 44.0259 32.0654 43.9975 32.1318 43.4504C32.2488 42.4859 32.5587 41.572 32.9951 40.7086C33.3398 40.0287 33.9976 39.7789 34.6048 40.0888C35.2783 40.4335 35.4712 40.9964 35.2119 41.7079C35.1424 41.9008 35.0507 42.0843 34.9748 42.274C33.6972 45.5723 34.5257 49.2628 37.0998 51.6883C37.8809 52.4219 38.7601 53.007 39.8416 53.3706C39.8416 52.9595 39.8384 52.6686 39.8416 52.3777C39.8795 48.6113 42.207 45.2656 45.7299 43.9311C46.0556 43.8077 46.3971 43.6971 46.7386 43.6654C47.3743 43.6022 47.8043 43.9153 47.9972 44.5224C48.1965 45.1486 47.934 45.6166 47.4059 45.9265C47.1086 46.1004 46.7481 46.1637 46.4287 46.306C44.0443 47.3622 42.5991 49.1774 42.3398 51.7737C42.0615 54.5533 43.162 56.7765 45.5622 58.2058C47.896 59.5941 50.2931 59.4708 52.6111 58.0572C52.8989 57.8801 53.2088 57.7347 53.2024 57.2793C53.1898 55.7076 53.2024 54.1391 53.2024 52.3777ZM53.0633 31.1742C55.3433 32.8787 55.7924 35.2568 55.6722 37.8847C55.5995 39.488 55.7133 41.1008 55.6374 42.7009C55.5995 43.501 55.8651 43.6654 56.602 43.6686C64.3908 43.7192 70.4245 36.3952 68.8623 28.7582C67.6606 22.8763 62.5282 18.6451 56.6652 18.6672C55.9221 18.6704 55.5995 18.7937 55.6343 19.6538C55.7133 21.5196 55.6121 23.3917 55.6691 25.2607C55.7481 27.6324 55.005 29.6152 53.0633 31.1742Z" fill="#040302"/>
<path fill-rule="evenodd" clip-rule="evenodd" d="M61.2726 73.847C65.4469 72.3449 69.4472 70.6024 73.3685 68.6766C75.2786 67.7405 77.1475 66.7191 79.0259 65.723C80.2656 65.0652 81.5558 64.6857 82.9757 64.8533C86.1096 65.2233 87.7666 68.003 86.6092 70.9376C86.0305 72.4018 84.9585 73.4675 83.7916 74.4542C81.2206 76.6298 78.4251 78.4861 75.5505 80.2254C70.8102 83.0968 65.9971 85.8354 60.773 87.7486C57.9933 88.7669 55.0681 88.9598 52.1524 89.0673C46.3053 89.2792 40.5688 88.3526 34.8482 87.2743C29.8011 86.3224 24.7824 85.2187 19.6784 84.6052C18.4609 84.4598 17.2308 84.425 16.0133 84.2922C15.5801 84.2447 15.4725 84.444 15.3429 84.7792C14.5396 86.8726 13.0945 87.8751 10.8682 87.8814C8.06319 87.8909 5.25504 87.8877 2.45005 87.8814C1.26734 87.8783 0.840425 87.483 0.837263 86.3224C0.830938 76.7658 0.830938 67.2061 0.837263 57.6495C0.837263 56.4826 1.24837 56.1031 2.45005 56.1C5.28667 56.0937 8.12012 56.1 10.9567 56.1C13.0597 56.1 14.5207 57.0929 15.286 59.0283C15.4789 59.5153 15.7129 59.5374 16.1303 59.4963C20.2888 59.1137 24.4504 58.7563 28.612 58.3642C32.0653 58.0385 35.2877 58.7721 38.2888 60.4703C40.6226 61.7922 42.9437 63.1425 45.2238 64.5497C47.7347 66.0993 50.4258 66.8519 53.3794 66.7223C54.4578 66.6748 55.5519 66.659 56.6176 66.7918C59.8179 67.1871 61.9082 70.1059 61.3327 73.2778C61.2979 73.4485 61.2916 73.6193 61.2726 73.847ZM11.6809 58.6646C11.3172 58.516 10.9314 58.5666 10.5551 58.5666C8.45216 58.5603 6.34921 58.5982 4.24942 58.5445C3.49362 58.5255 3.27226 58.7057 3.27542 59.4932C3.30388 67.4907 3.28807 75.4914 3.28807 83.4889C3.28807 83.6629 3.32286 83.8336 3.34183 84.0076C3.18055 85.4306 3.18055 85.4306 4.52138 85.4306C6.65279 85.4306 8.78737 85.4401 10.9188 85.4275C12.2817 85.418 13.085 84.6716 13.0881 83.334C13.104 75.7665 13.0976 68.1991 13.0913 60.6316C13.0945 59.6544 12.6549 58.9587 11.6809 58.6646ZM15.6148 79.2735C15.3587 81.737 15.3587 81.737 17.7842 81.9426C17.9012 81.952 18.0151 81.9679 18.1321 81.9805C23.546 82.4928 28.8524 83.6344 34.1809 84.6558C39.9174 85.7563 45.6728 86.7683 51.5484 86.6291C54.4103 86.5627 57.3134 86.4774 60.0014 85.4085C67.9894 82.2335 75.3576 77.9485 82.1345 72.6548C82.9377 72.0255 83.6872 71.314 84.1584 70.3779C84.5063 69.6885 84.7403 68.977 84.2564 68.2402C83.9781 67.652 83.4595 67.4275 82.8618 67.3263C81.7234 67.1302 80.7463 67.5698 79.7912 68.101C74.7631 70.8934 69.5326 73.2398 64.2136 75.4218C58.3411 77.8284 52.3612 79.0775 46.0175 77.7177C42.9595 77.0631 39.9269 76.3674 37.125 74.9159C36.5337 74.6091 36.0087 74.2612 35.9645 73.5118C36.3281 72.3702 36.9511 72.0539 37.9125 72.5378C42.8773 75.0297 48.1711 75.9341 53.6767 75.7697C54.9638 75.7317 56.2318 75.4882 57.3861 74.8621C58.7269 74.1379 59.2582 72.8097 58.8028 71.3899C58.3569 69.9826 57.424 69.2458 55.9125 69.1762C55.0681 69.1383 54.2174 69.1414 53.3731 69.1794C50.0021 69.328 46.9188 68.4679 44.0505 66.7033C41.7926 65.315 39.4999 63.9742 37.1914 62.665C34.6173 61.204 31.8534 60.5367 28.8745 60.815C24.6876 61.2103 20.5006 61.5803 16.3106 61.9313C15.6939 61.9819 15.5516 62.2223 15.5548 62.801C15.5769 66.5705 15.5611 70.3368 15.5674 74.1063C15.5674 75.8329 15.5959 77.5532 15.6148 79.2735Z" fill="#040404"/>
<path fill-rule="evenodd" clip-rule="evenodd" d="M76.6795 25.8082C76.9672 26.5323 77.5238 26.8612 78.2764 26.9846C79.105 27.1205 79.9493 27.2154 80.7399 27.5285C80.7557 29.9698 80.7684 32.408 80.7842 34.8493C79.9303 35.0295 79.0828 35.2541 78.2227 35.3742C77.4827 35.4786 76.9831 35.817 76.689 36.4874C76.0881 36.5253 75.4493 36.4399 75.1521 37.1926C74.5417 38.7326 73.9187 40.2727 73.2547 41.7906C73.0618 42.2302 73.1155 42.5338 73.3748 42.9069C74.1401 44.0074 74.8516 45.1427 75.6296 46.2305C75.9774 46.7207 75.9679 47.0179 75.5157 47.4638C74.2508 48.7098 72.9226 49.8988 71.7842 51.2713C70.788 50.623 69.7761 49.9905 68.7958 49.3169C68.236 48.9311 67.7048 48.8679 67.0786 49.1367C65.3963 49.8577 63.7044 50.5534 62.0094 51.2428C61.5604 51.4262 61.2062 51.695 60.9405 52.0935C60.3429 52.2326 59.6029 52.182 59.4447 52.9979C59.2107 54.2091 59.021 55.4266 58.8123 56.6441C57.9363 56.6536 57.0603 56.6441 56.1875 56.6852C55.7448 56.7042 55.6594 56.5239 55.6626 56.1255C55.6753 52.9726 55.6847 49.8166 55.6563 46.6606C55.65 46.0692 55.944 46.1072 56.3551 46.1072C63.5716 46.123 69.5389 41.4491 71.196 34.4888C73.4159 25.1789 65.9465 15.948 56.4026 16.2484C55.7417 16.2706 55.6468 16.0808 55.6531 15.4958C55.6816 12.4884 55.6816 9.47788 55.6531 6.4705C55.6468 5.85068 55.7448 5.56607 56.45 5.63248C57.2311 5.70838 58.0249 5.67043 58.8123 5.67992C58.9799 6.65075 59.2329 7.61527 59.2961 8.58927C59.3689 9.68027 59.9128 10.1451 60.931 10.2084C61.2093 10.6385 61.5857 10.9167 62.0695 11.1096C63.7202 11.7706 65.3615 12.4536 66.9932 13.1588C67.6795 13.4561 68.2613 13.3992 68.878 12.9691C69.8299 12.3018 70.8228 11.6884 71.8 11.0527C72.9985 12.2797 74.1717 13.5383 75.4082 14.7242C75.9173 15.2112 76.0344 15.5559 75.5821 16.1599C74.801 17.2066 74.1211 18.3293 73.3748 19.4013C73.1155 19.7744 73.0681 20.0812 73.2641 20.5144C73.8808 21.8932 74.5038 23.2751 74.9908 24.6982C75.288 25.5931 75.8415 25.8524 76.6795 25.8082Z" fill="#69CFB2"/>
<path fill-rule="evenodd" clip-rule="evenodd" d="M39.8605 8.93363C39.6802 12.7569 41.1254 15.6346 44.2372 17.6585C44.8285 18.0411 45.4705 18.3194 46.1377 18.5376C47.0927 18.8507 47.7505 18.5914 48.0035 17.8198C48.2375 17.1019 47.877 16.5327 46.9441 16.207C44.5471 15.369 43.0418 13.7214 42.4504 11.2579C41.8275 8.66167 42.9849 5.82505 45.2554 4.29765C47.5133 2.77657 50.5808 2.80186 52.7596 4.35141C53 4.52217 53.2213 4.66764 53.215 5.02815C53.1992 6.59666 53.2087 8.16518 53.2087 9.89181C52.0386 8.89252 50.8875 8.14304 49.4835 7.86476C48.5316 7.67502 47.9339 7.93433 47.7347 8.67115C47.5323 9.42695 47.9181 9.96455 48.851 10.2239C51.4093 10.9322 53.1423 13.0921 53.1866 15.8243C53.2435 19.2713 53.2308 22.7214 53.1897 26.1683C53.1676 28.0784 51.7509 29.5931 49.8503 29.8683C49.5341 29.9157 49.2115 29.941 48.8921 29.941C43.9526 29.9442 39.013 29.9537 34.0766 29.941C31.4012 29.9347 28.9979 28.0657 28.3243 25.5074C27.6191 22.8352 28.7955 20.0208 31.1546 18.6515C31.8029 18.2752 32.1001 18.2846 32.1855 19.1353C32.2582 19.8879 32.546 20.6058 32.8559 21.3015C33.2607 22.2091 33.9121 22.5506 34.6332 22.2281C35.2972 21.9308 35.4743 21.2351 35.1202 20.3465C33.8015 17.0418 34.2473 13.9965 36.5179 11.2516C37.3812 10.2112 38.4754 9.45225 39.8605 8.93363ZM45.2365 28.4674C46.5457 28.5148 47.0991 28.1163 47.1402 27.3479C47.1813 26.5921 46.7069 26.1494 45.7298 26.0229C43.0829 25.6877 41.897 23.3697 43.1715 21.0169C43.6205 20.1915 43.494 19.4927 42.8299 19.1195C42.188 18.759 41.546 18.9645 41.0748 19.7393C39.9522 21.5766 39.8447 23.4962 40.8218 25.4031C41.799 27.3194 43.4403 28.3124 45.2365 28.4674Z" fill="#6498CA"/>
<path fill-rule="evenodd" clip-rule="evenodd" d="M53.2025 52.3778C53.2025 54.1392 53.1867 55.7077 53.212 57.2762C53.2183 57.7316 52.9084 57.877 52.6206 58.0541C50.3026 59.4677 47.9056 59.591 45.5718 58.2028C43.1684 56.7734 42.0679 54.5503 42.3494 51.7706C42.6119 49.1743 44.0539 47.3591 46.4383 46.3029C46.7577 46.1606 47.115 46.0974 47.4154 45.9234C47.9435 45.6167 48.206 45.1455 48.0068 44.5194C47.8139 43.9153 47.3838 43.5991 46.7482 43.6624C46.4067 43.6972 46.062 43.8078 45.7394 43.928C42.2166 45.2625 39.8891 48.6082 39.8511 52.3746C39.848 52.6655 39.8511 52.9565 39.8511 53.3676C38.7696 53.0071 37.8937 52.422 37.1094 51.6852C34.5321 49.2597 33.7036 45.5692 34.9843 42.2709C35.057 42.0812 35.1488 41.8978 35.2215 41.7049C35.4808 40.9934 35.2879 40.4305 34.6143 40.0858C34.0071 39.7759 33.3462 40.0257 33.0047 40.7056C32.5683 41.5689 32.2584 42.4828 32.1414 43.4473C32.075 43.9976 31.8631 44.0229 31.4109 43.7983C29.0391 42.6188 27.6762 39.7822 28.258 37.1733C28.881 34.3714 31.1958 32.4171 33.9787 32.4108C39.0068 32.395 44.0317 32.395 49.0599 32.4108C51.6245 32.4171 53.2057 34.0204 53.212 36.5787C53.2183 39.7347 53.1962 42.8908 53.2183 46.0468C53.2405 48.9719 51.3241 51.7263 48.693 52.1374C47.9088 52.2607 47.5546 52.9406 47.738 53.6395C47.9182 54.3289 48.5191 54.6736 49.3128 54.5092C50.7391 54.2151 51.985 53.5415 53.2025 52.3778ZM40.1895 39.643C40.1642 40.6487 40.4741 41.6669 41.0781 42.5967C41.5651 43.3493 42.2166 43.5612 42.849 43.1975C43.4783 42.8338 43.6712 42.1033 43.1937 41.3728C41.7485 39.1687 43.3265 36.2973 45.8406 36.2815C46.7071 36.2752 47.2036 35.6933 47.1498 34.9628C47.096 34.2639 46.5774 33.8496 45.7457 33.8433C42.7162 33.8117 40.1863 36.408 40.1895 39.643Z" fill="#BFD6ED"/>
<path fill-rule="evenodd" clip-rule="evenodd" d="M53.0632 31.1744C55.0049 29.6153 55.7449 27.6357 55.6722 25.264C55.6121 23.3982 55.7133 21.5229 55.6374 19.6571C55.6026 18.797 55.9251 18.6705 56.6683 18.6705C62.5313 18.6484 67.6637 22.8796 68.8654 28.7615C70.4276 36.3985 64.3939 43.7225 56.605 43.6719C55.8682 43.6656 55.6026 43.5043 55.6405 42.7042C55.7164 41.1009 55.6026 39.4913 55.6753 37.888C55.7955 35.2569 55.3433 32.8789 53.0632 31.1744Z" fill="#F1F1FD"/>
<path fill-rule="evenodd" clip-rule="evenodd" d="M76.6795 25.8078C75.8415 25.8521 75.2912 25.5928 74.9845 24.6947C74.4975 23.2685 73.8714 21.8865 73.2579 20.5109C73.0618 20.0745 73.1092 19.7678 73.3685 19.3978C74.1149 18.3257 74.7948 17.2031 75.5758 16.1564C76.0249 15.5524 75.9079 15.2077 75.4019 14.7207C74.1623 13.5348 72.9922 12.2794 71.7937 11.0492C72.0309 10.7361 72.2428 10.6855 72.5558 11.0049C73.9441 12.4217 75.345 13.8321 76.7712 15.214C77.0906 15.5239 77.0115 15.72 76.8028 16.0204C76.1704 16.9312 75.598 17.883 74.9371 18.7716C74.409 19.4832 74.3362 20.1378 74.7031 20.96C75.4051 22.5538 76.0217 24.1887 76.6795 25.8078Z" fill="#69CFB2"/>
<path fill-rule="evenodd" clip-rule="evenodd" d="M71.778 51.2678C72.9164 49.8953 74.2446 48.7095 75.5095 47.4603C75.9617 47.0145 75.9744 46.7172 75.6233 46.227C74.8454 45.136 74.1339 44.0008 73.3686 42.9034C73.1093 42.5334 73.0555 42.2267 73.2484 41.7871C73.9125 40.2692 74.5355 38.7291 75.1458 37.1891C75.4431 36.4365 76.0787 36.5218 76.6827 36.4839C76.0186 38.1251 75.3893 39.7822 74.6778 41.4013C74.3331 42.1887 74.3964 42.8244 74.8992 43.5074C75.5696 44.4213 76.1578 45.3953 76.8124 46.3251C77.0401 46.6476 77.0369 46.8405 76.746 47.1251C75.3514 48.4881 73.9694 49.87 72.6033 51.2646C72.2966 51.5809 72.0562 51.6631 71.778 51.2678Z" fill="#69CFB2"/>
<path fill-rule="evenodd" clip-rule="evenodd" d="M80.781 34.8457C80.7652 32.4044 80.7525 29.9662 80.7367 27.5249C82.1376 27.6008 82.1376 27.6008 82.1376 28.91C82.1376 30.3647 82.1376 31.8193 82.1376 33.2772C82.1376 34.618 82.1376 34.618 80.781 34.8457Z" fill="#69CFB2"/>
<path fill-rule="evenodd" clip-rule="evenodd" d="M60.9248 10.2048C59.9065 10.1415 59.3658 9.67668 59.2899 8.58567C59.2235 7.60851 58.9736 6.644 58.806 5.67633C60.0362 5.59727 60.0488 5.59411 60.286 6.79263C60.5105 7.92791 60.7129 9.06635 60.9248 10.2048Z" fill="#69CFB2"/>
<path fill-rule="evenodd" clip-rule="evenodd" d="M58.806 56.6375C59.0147 55.4232 59.2013 54.2025 59.4385 52.9913C59.5966 52.1755 60.3366 52.2261 60.9343 52.0869C60.6813 53.4562 60.4504 54.835 60.1627 56.1979C59.9824 57.0676 59.2741 56.53 58.806 56.6375Z" fill="#27E3AD"/>
<path fill-rule="evenodd" clip-rule="evenodd" d="M35.9582 73.5114C36.0025 74.2608 36.5274 74.6087 37.1188 74.9155C39.9206 76.367 42.9533 77.0627 46.0113 77.7173C52.3581 79.0771 58.3349 77.8311 64.2073 75.4214C69.5264 73.2426 74.7569 70.893 79.785 68.1006C80.74 67.5694 81.7172 67.1298 82.8556 67.3259C83.4533 67.4302 83.9719 67.6516 84.2502 68.2398C84.2407 68.6066 83.9466 68.7869 83.7316 69.0177C82.4571 70.3996 80.9076 71.4432 79.3802 72.5058C74.3932 75.9717 69.0994 78.9063 63.6286 81.5342C60.5453 83.0142 57.2945 83.8838 53.895 83.9977C49.6195 84.14 45.3535 84.0261 41.1002 83.3589C36.5749 82.6474 32.0812 81.7714 27.578 80.9365C23.6124 80.1997 19.6342 79.5862 15.6086 79.2763C15.5896 77.556 15.5612 75.8325 15.558 74.1122C15.5517 70.3427 15.5675 66.5764 15.5453 62.8069C15.5422 62.2313 15.6813 61.991 16.3011 61.9372C20.4912 61.5894 24.6782 61.2162 28.8651 60.8209C31.844 60.5395 34.6079 61.2067 37.182 62.6709C39.4905 63.9801 41.7801 65.3209 44.0411 66.7092C46.9094 68.4738 49.9958 69.3339 53.3637 69.1853C54.208 69.1474 55.0587 69.1442 55.903 69.1821C57.4146 69.2517 58.3475 69.9854 58.7934 71.3958C57.9111 72.2844 56.8422 72.8157 55.6406 73.1667C53.0633 73.9162 50.4512 73.796 47.8549 73.4671C44.1233 72.9959 40.4835 72.1547 37.1125 70.3775C36.1606 69.8779 35.0664 70.3079 34.7059 71.2345C34.3359 72.1927 34.8767 73.1825 35.9582 73.5114Z" fill="#BFD6ED"/>
<path fill-rule="evenodd" clip-rule="evenodd" d="M3.34501 84.0103C3.32603 83.8364 3.29125 83.6656 3.29125 83.4917C3.29125 75.4942 3.30706 67.4935 3.2786 59.4959C3.27544 58.7085 3.4968 58.5282 4.2526 58.5472C6.35239 58.601 8.45534 58.563 10.5583 58.5694C10.9346 58.5694 11.3172 58.5188 11.6841 58.6674C11.6714 59.0753 11.6461 59.4833 11.6461 59.8912C11.643 65.789 11.6461 71.6835 11.6398 77.5813C11.6398 77.9197 11.7537 78.2865 11.4975 78.5932C11.4026 78.4478 11.3078 78.2991 11.2066 78.1568C10.1345 76.6642 8.24979 76.1646 6.63383 76.9425C5.04002 77.711 4.22414 79.4945 4.68584 81.1864C5.14754 82.8687 6.73819 83.9787 8.52491 83.8459C9.8183 83.751 10.7259 83.0237 11.4343 81.9959C11.3805 83.1344 10.5045 84.0135 9.37241 84.0198C7.36433 84.0293 5.35309 84.0135 3.34501 84.0103Z" fill="#6498CA"/>
<path fill-rule="evenodd" clip-rule="evenodd" d="M15.6149 79.2734C19.6374 79.5801 23.6156 80.1968 27.5843 80.9336C32.0875 81.7684 36.5811 82.6444 41.1064 83.3559C45.3598 84.0232 49.6258 84.137 53.9012 83.9947C57.3008 83.8809 60.5516 83.0144 63.6349 81.5313C69.1057 78.9034 74.3995 75.9687 79.3865 72.5028C80.9139 71.4434 82.4634 70.3967 83.7379 69.0147C83.9529 68.7839 84.2438 68.6036 84.2565 68.2368C84.7435 68.9736 84.5063 69.6852 84.1585 70.3746C83.6873 71.3074 82.9378 72.0221 82.1346 72.6514C75.3608 77.9452 67.9926 82.2301 60.0014 85.4051C57.3134 86.474 54.4104 86.5562 51.5485 86.6258C45.6729 86.7649 39.9206 85.753 34.1809 84.6525C28.8524 83.6311 23.546 82.4895 18.1321 81.9772C18.0151 81.9645 17.9012 81.9519 17.7842 81.9392C15.3587 81.7368 15.3587 81.7368 15.6149 79.2734Z" fill="#BFD6ED"/>
<path fill-rule="evenodd" clip-rule="evenodd" d="M35.9581 73.5115C34.8766 73.1826 34.3327 72.1928 34.709 71.2283C35.0695 70.3049 36.1637 69.8716 37.1155 70.3713C40.4866 72.1453 44.1264 72.9897 47.858 73.4609C50.4543 73.7898 53.0663 73.9099 55.6436 73.1605C56.8453 72.8094 57.9142 72.2782 58.7965 71.3895C59.2519 72.8094 58.7238 74.1345 57.3798 74.8618C56.2255 75.4848 54.9574 75.7283 53.6704 75.7694C48.1647 75.9338 42.871 75.0294 37.9061 72.5375C36.9448 72.0536 36.3218 72.3699 35.9581 73.5115Z" fill="#BFD6ED"/>
<path fill-rule="evenodd" clip-rule="evenodd" d="M3.34507 84.0104C5.35315 84.0167 7.3644 84.0325 9.37248 84.0199C10.5046 84.0136 11.3806 83.1313 11.4343 81.996L11.428 81.9454L11.4723 81.9201C11.5513 81.8853 11.5893 81.8347 11.5292 81.7493C11.9529 80.6899 11.9276 79.6369 11.4944 78.587C11.7506 78.2802 11.6367 77.9134 11.6367 77.575C11.643 71.6773 11.6399 65.7827 11.643 59.885C11.643 59.477 11.6683 59.0691 11.681 58.6611C12.655 58.9552 13.0945 59.6509 13.0945 60.6281C13.1009 68.1956 13.1072 75.763 13.0914 83.3305C13.0882 84.6682 12.2882 85.4145 10.922 85.424C8.79061 85.4398 6.65603 85.4271 4.52462 85.4271C3.18379 85.4303 3.18379 85.4303 3.34507 84.0104Z" fill="#6498CA"/>
<path fill-rule="evenodd" clip-rule="evenodd" d="M45.2365 28.4673C43.4403 28.3124 41.8022 27.3225 40.8219 25.4062C39.8447 23.4993 39.9522 21.5797 41.0749 19.7424C41.5461 18.9708 42.188 18.7621 42.83 19.1226C43.4909 19.4926 43.6174 20.1915 43.1715 21.02C41.8971 23.3728 43.0798 25.6908 45.7298 26.026C46.7101 26.1493 47.1813 26.592 47.1402 27.351C47.0959 28.1131 46.5457 28.5147 45.2365 28.4673Z" fill="#050202"/>
<path fill-rule="evenodd" clip-rule="evenodd" d="M40.1894 39.6432C40.1863 36.4081 42.7193 33.815 45.7456 33.8435C46.5773 33.8498 47.096 34.2641 47.1497 34.963C47.2035 35.6903 46.707 36.2753 45.8405 36.2816C43.3265 36.2975 41.7485 39.1689 43.1936 41.373C43.6712 42.1035 43.4782 42.834 42.8489 43.1977C42.2165 43.5645 41.565 43.3495 41.078 42.5968C40.474 41.6639 40.1641 40.6488 40.1894 39.6432Z" fill="#050202"/>
<path fill-rule="evenodd" clip-rule="evenodd" d="M11.4943 78.5903C11.9276 79.6402 11.9529 80.6933 11.5291 81.7527C11.5101 81.8096 11.4912 81.8665 11.4722 81.9234L11.4279 81.9487L11.4342 81.9993C10.7227 83.0239 9.81829 83.7513 8.5249 83.8493C6.73818 83.9821 5.14753 82.8721 4.68583 81.1898C4.22096 79.4979 5.04001 77.7112 6.63382 76.9459C8.24978 76.168 10.1345 76.6645 11.2066 78.1603C11.3078 78.2962 11.3995 78.4449 11.4943 78.5903ZM8.18969 81.3953C8.83797 81.408 9.35027 80.921 9.37557 80.2664C9.40087 79.6055 8.936 79.0995 8.27507 79.0679C7.56671 79.0362 7.04809 79.5264 7.05125 80.2284C7.04809 80.8894 7.53193 81.3827 8.18969 81.3953Z" fill="#010204"/>
<path fill-rule="evenodd" clip-rule="evenodd" d="M11.4722 81.9198C11.4911 81.8629 11.5101 81.8059 11.5291 81.749C11.5923 81.8344 11.5512 81.885 11.4722 81.9198Z" fill="#4DB0FA"/>
<path fill-rule="evenodd" clip-rule="evenodd" d="M8.1897 81.3953C7.53193 81.3827 7.05126 80.8894 7.0481 80.2284C7.0481 79.5264 7.56672 79.0362 8.27192 79.0679C8.93284 79.0963 9.39771 79.6055 9.37241 80.2664C9.35027 80.9178 8.83798 81.4048 8.1897 81.3953Z" fill="#6498CA"/>
</svg>
