<svg width="36" height="36" viewBox="0 0 36 36" fill="none" xmlns="http://www.w3.org/2000/svg">
<path fill-rule="evenodd" clip-rule="evenodd" d="M0.00712681 31.9156C0.00712681 21.384 0.00891001 10.8524 0 0.322543C0 0.058807 0.0588056 0 0.322542 0C12.1069 0.00712801 23.8913 0.00712801 35.6775 0C35.9412 0 36 0.058807 36 0.322543C35.9929 9.94001 35.9929 19.5575 35.9929 29.1749C35.9162 29.1553 35.9287 29.0912 35.9252 29.0359C35.8574 28.1111 35.6881 27.204 35.4618 26.3077C34.8738 23.9786 33.981 21.76 33.0027 19.5717C32.9367 19.4256 32.8512 19.2884 32.8708 19.1084C32.9439 18.4562 33.0009 17.804 33.0686 17.1518C33.2931 14.9742 33.5177 12.7966 33.7422 10.6189C33.9454 8.65162 34.1485 6.68429 34.3481 4.71518C34.4782 3.43392 34.6047 2.15266 34.7366 0.871399C34.7615 0.630828 34.7152 0.425898 34.4924 0.297594C34.1414 0.0962278 33.7885 0.345708 33.7404 0.819721C33.5462 2.73003 33.3502 4.64033 33.1559 6.54886C32.9296 8.74963 32.7033 10.9504 32.477 13.1512C32.281 15.0615 32.0956 16.9718 31.8854 18.8803C31.8462 19.2314 31.8836 19.5396 32.0315 19.8622C32.7407 21.4125 33.3965 22.986 33.9222 24.6094C34.5192 26.4503 35.0181 28.3089 34.9433 30.2744C34.8595 32.4699 33.6941 33.8598 31.5503 34.3018C30.1319 34.594 28.7116 34.496 27.286 34.3463C26.4164 34.2554 25.6287 34.0024 24.9035 33.5034C24.4722 33.2058 23.9786 33.008 23.4886 32.8156C21.466 32.0261 19.4131 32.1081 17.3442 32.5857C15.5426 33.0027 13.8123 33.6495 12.0499 34.193C11.3264 34.4158 10.6189 34.7205 9.85269 34.7722C8.30947 34.8756 6.76448 34.9522 5.21948 34.7918C4.06118 34.6724 2.92605 34.4604 1.91922 33.8242C1.23136 33.3912 0.921294 32.6587 1.07633 31.8925C1.23314 31.1191 1.79269 30.5595 2.59103 30.433C4.41224 30.1443 6.17285 29.6472 7.86219 28.9112C13.1672 26.5999 17.5082 23.0466 21.1434 18.5845C21.3341 18.3493 21.4018 18.1123 21.3929 17.8147C21.2824 14.3255 21.1827 10.8364 21.0775 7.34719C21.0116 5.15711 20.9421 2.96882 20.8744 0.778735C20.8601 0.343927 20.6855 0.117613 20.3629 0.117613C20.0279 0.117613 19.8604 0.358183 19.8729 0.816157C19.8907 1.43629 19.9032 2.05821 19.9228 2.67835C20.076 7.6537 20.2311 12.629 20.3897 17.6062C20.3968 17.8343 20.3273 18 20.1865 18.1729C17.5402 21.4161 14.4289 24.1247 10.8399 26.2756C8.27383 27.8135 5.55272 28.9557 2.57143 29.4155C1.19394 29.6276 0.354617 30.4384 0.0766248 31.8105C0.0694968 31.8586 0.0605869 31.9014 0.00712681 31.9156ZM25.3347 10.218C25.3276 10.218 25.3205 10.218 25.3116 10.218C25.3116 9.7725 25.3187 9.327 25.3116 8.88328C25.2688 6.1782 25.2189 3.47312 25.1797 0.768044C25.1743 0.459757 25.0781 0.233442 24.7663 0.163944C24.5186 0.108702 24.3368 0.235225 24.221 0.454411C24.1586 0.573805 24.1818 0.707455 24.1835 0.833977C24.2192 3.15236 24.2584 5.47253 24.2958 7.79091C24.3564 11.6204 24.4152 15.45 24.4811 19.2795C24.4847 19.4791 24.4259 19.5913 24.2566 19.7036C23.7541 20.035 23.3282 20.4503 22.9825 20.9474C22.4033 21.7814 22.1752 22.7027 22.2893 23.7078C22.4176 24.8375 23.4155 25.586 24.7324 25.406C25.3953 25.3169 25.8462 25.447 26.3309 25.9014C26.9136 26.4503 27.6531 26.7532 28.4906 26.6071C29.918 26.3594 30.9409 24.9694 30.8233 23.4707C30.7146 22.0701 30.0855 20.8779 29.3086 19.7499C29.1535 19.5254 29.0823 19.3133 29.0823 19.0425C29.0751 12.9748 29.0591 6.90704 29.0448 0.839323C29.0431 0.404514 28.8684 0.185328 28.537 0.192457C28.2269 0.199585 28.0505 0.409861 28.0505 0.792992C28.0576 7.01218 28.0683 13.2331 28.0737 19.4523C28.0737 19.6751 28.1449 19.8568 28.2786 20.0315C28.6974 20.5821 29.0591 21.1684 29.346 21.7992C29.6472 22.4657 29.8788 23.1482 29.8129 23.8966C29.7487 24.6397 29.3531 25.1654 28.7098 25.4969C28.1129 25.8034 27.5747 25.5753 27.0722 25.2278C26.7906 25.0336 26.5411 24.8001 26.3326 24.5328C26.1152 24.2548 25.8622 24.1835 25.529 24.2833C25.0995 24.4116 24.6576 24.4508 24.2085 24.401C23.5866 24.3315 23.2836 24.016 23.2658 23.3941C23.2248 22.0006 23.9412 21.049 25.0781 20.3683C25.3793 20.1883 25.5004 19.9762 25.4951 19.6323C25.4363 16.4942 25.3864 13.3561 25.3347 10.218ZM6.42946 33.2539C5.60439 33.2415 4.83635 33.1773 4.11108 32.8708C3.90971 32.7853 3.61924 32.6979 3.61746 32.4752C3.61568 32.2311 3.92575 32.199 4.12355 32.1259C4.95753 31.8159 5.83249 31.6466 6.69142 31.4274C8.7621 30.8963 10.7758 30.221 12.5453 28.9896C14.4217 27.6852 16.4568 26.7176 18.5934 25.9353C19.4826 25.6109 20.3861 25.3329 21.2842 25.0407C21.5907 24.9409 21.7226 24.6825 21.6406 24.4152C21.5587 24.1479 21.3038 24.0196 20.9938 24.098C20.812 24.1426 20.6338 24.1978 20.4556 24.253C17.526 25.1708 14.6819 26.2792 12.1443 28.0576C11.2213 28.7045 10.2162 29.1981 9.1684 29.6062C7.68399 30.1853 6.1283 30.5203 4.594 30.9266C4.10751 31.0549 3.62103 31.1886 3.19156 31.4595C2.43065 31.9388 2.36472 32.771 3.03118 33.3715C3.35016 33.6602 3.73151 33.8438 4.14137 33.9471C6.43481 34.5316 8.65875 34.3249 10.7366 33.188C11.8949 32.5536 13.0995 32.0778 14.3576 31.7107C17.4387 30.8144 20.6071 30.3279 23.7541 29.7345C23.9626 29.6953 24.1069 29.7648 24.253 29.9073C24.875 30.5114 25.5468 31.0603 26.2649 31.5486C27.4321 32.3433 28.6492 33.0258 30.1016 33.1435C32.0796 33.3038 33.7814 31.4862 33.5034 29.5189C33.3181 28.2162 32.657 27.1595 31.8462 26.1705C31.4897 25.7357 31.2171 25.6519 30.948 25.8871C30.6932 26.1081 30.7342 26.3879 31.071 26.7995C31.6662 27.5284 32.1812 28.2982 32.4342 29.2248C32.8565 30.7698 31.7232 32.3309 30.016 32.1313C29.0021 32.0119 28.1253 31.5557 27.2807 31.0229C26.4467 30.4954 25.668 29.8949 24.9658 29.2034C24.5186 28.7633 24.0232 28.635 23.428 28.7793C23.1108 28.856 22.7865 28.9112 22.4639 28.9664C19.9406 29.4012 17.4226 29.8539 14.9474 30.515C13.4915 30.9035 12.0249 31.2866 10.7205 32.0707C9.37689 32.8779 7.92634 33.2254 6.42946 33.2539ZM11.1732 19.1672C11.1963 19.9299 11.2622 20.6748 11.4012 21.4125C11.5296 22.0915 11.7167 22.7544 11.9661 23.3977C12.082 23.6971 12.3493 23.8236 12.6077 23.7274C12.875 23.6276 12.9961 23.3692 12.9106 23.0698C12.8874 22.9914 12.8536 22.9165 12.8251 22.8399C11.1803 18.2976 12.8233 13.1636 16.7971 10.4087C17.3852 10.0006 18.0107 9.66379 18.6593 9.3662C18.9017 9.25572 19.0175 9.0597 18.9587 8.79774C18.907 8.57321 18.7538 8.436 18.5132 8.41461C18.3546 8.40036 18.2156 8.46807 18.0802 8.53401C13.6519 10.7009 11.4315 14.2988 11.1732 19.1672ZM18.5542 16.4924C18.531 16.2822 18.4099 16.1218 18.1907 16.0469C17.9822 15.9739 17.7683 15.9133 17.5563 15.8491C16.7651 15.605 15.9774 15.3519 15.1827 15.1185C14.8637 15.0241 14.6285 15.147 14.5322 15.4232C14.4396 15.687 14.5304 15.9311 14.7674 16.0113C15.8402 16.3677 16.9201 16.7027 18.0071 17.0128C18.2958 17.093 18.5631 16.8061 18.5542 16.4924ZM15.8046 18.7716C16.5352 18.6932 17.2801 18.6237 18.0214 18.5293C18.3332 18.49 18.5168 18.2317 18.474 17.9644C18.4295 17.6881 18.1942 17.51 17.8842 17.5402C17.1642 17.6133 16.4425 17.6935 15.7226 17.7772C15.3822 17.8165 15.1862 18.0392 15.2183 18.3261C15.2504 18.6077 15.4696 18.777 15.8046 18.7716ZM19.3365 15.368C19.3418 15.3038 19.3133 15.2058 19.2492 15.1417C18.6593 14.5607 18.0748 13.9745 17.4636 13.4167C17.2854 13.2545 17.0359 13.3026 16.8613 13.4826C16.6742 13.6733 16.635 13.9299 16.815 14.1152C17.3834 14.7015 17.9733 15.2646 18.5685 15.8224C18.7146 15.9578 18.9159 15.94 19.0924 15.8366C19.2581 15.7404 19.3365 15.5907 19.3365 15.368Z" fill="white"/>
<path fill-rule="evenodd" clip-rule="evenodd" d="M0.00683594 31.9156C0.060296 31.9014 0.0692063 31.8586 0.0781163 31.8123C0.357891 30.4384 1.19543 29.6293 2.57292 29.4173C5.55421 28.9593 8.27532 27.8153 10.8414 26.2774C14.4304 24.1265 17.5417 21.4179 20.188 18.1746C20.3306 18.0018 20.3983 17.836 20.3912 17.608C20.2308 12.6326 20.0775 7.65725 19.9243 2.68012C19.9047 2.05999 19.8922 1.43807 19.8744 0.81793C19.8619 0.359956 20.0294 0.119385 20.3644 0.119385C20.687 0.119385 20.8616 0.3457 20.8759 0.780509C20.9436 2.97059 21.0131 5.15889 21.079 7.34897C21.1841 10.8381 21.2839 14.3273 21.3944 17.8164C21.4033 18.114 21.3356 18.3528 21.1449 18.5863C17.5097 23.0484 13.1687 26.6017 7.86368 28.913C6.17435 29.6489 4.41373 30.1479 2.59252 30.4348C1.79418 30.5613 1.23464 31.1209 1.07782 31.8943C0.922785 32.6623 1.23285 33.3929 1.92071 33.8259C2.92754 34.4621 4.06445 34.6742 5.22097 34.7936C6.76419 34.954 8.31097 34.8773 9.85418 34.774C10.6204 34.7223 11.3279 34.4176 12.0514 34.1948C13.8138 33.6513 15.5441 33.0044 17.3457 32.5875C19.4146 32.1099 21.4675 32.0279 23.4901 32.8173C23.9801 33.0098 24.4737 33.2076 24.905 33.5052C25.6285 34.0041 26.4179 34.2572 27.2875 34.3481C28.7131 34.4978 30.1334 34.5958 31.5518 34.3035C33.6974 33.8616 34.861 32.4716 34.9448 30.2762C35.0196 28.3107 34.5206 26.452 33.9237 24.6112C33.3962 22.9878 32.7422 21.4143 32.033 19.864C31.8851 19.5414 31.8494 19.2349 31.8869 18.8821C32.0971 16.9736 32.2825 15.0633 32.4785 13.1529C32.7048 10.9522 32.9311 8.7514 33.1574 6.55063C33.3534 4.64032 33.5495 2.7318 33.7419 0.821494C33.79 0.347481 34.1411 0.0997831 34.4939 0.299367C34.7185 0.427671 34.763 0.632602 34.7381 0.873172C34.6062 2.15443 34.4814 3.43569 34.3496 4.71695C34.1482 6.68428 33.9451 8.65339 33.7437 10.6207C33.5192 12.7983 33.2928 14.9759 33.0701 17.1535C33.0024 17.8058 32.9454 18.458 32.8723 19.1102C32.8527 19.2902 32.9382 19.4274 33.0042 19.5735C33.9825 21.7618 34.8753 23.9804 35.4633 26.3095C35.6896 27.2076 35.8589 28.1146 35.9266 29.0377C35.9302 29.093 35.9177 29.1571 35.9944 29.1767C35.9944 29.6222 35.9944 30.0677 35.9944 30.5114C35.8839 30.5506 35.9284 30.6486 35.9195 30.7199C35.8411 31.3365 35.7146 31.9406 35.458 32.5108C34.6686 34.2643 33.1966 35.0502 31.3968 35.3585C29.973 35.6026 28.5492 35.5046 27.1289 35.3317C26.3145 35.2319 25.5198 35.084 24.8105 34.6136C22.779 33.2664 20.5533 32.9706 18.1904 33.4321C16.3032 33.801 14.5088 34.4764 12.6822 35.0448C11.8251 35.3104 10.9875 35.6828 10.0858 35.7559C8.40541 35.8913 6.71964 35.9572 5.03565 35.779C3.8916 35.6578 2.77785 35.4191 1.74251 34.8845C0.896056 34.4461 0.320469 33.7992 0.101283 32.8565C0.0870272 32.7942 0.106629 32.7086 0.0104007 32.6908C0.0068367 32.4306 0.00683594 32.1722 0.00683594 31.9156Z" fill="#363636"/>
<path fill-rule="evenodd" clip-rule="evenodd" d="M0.00719926 32.6892C0.103427 32.707 0.0838257 32.7943 0.0980817 32.8549C0.31905 33.7958 0.892854 34.4444 1.73931 34.8828C2.77465 35.4174 3.8884 35.6562 5.03245 35.7774C6.71644 35.9573 8.40221 35.8914 10.0826 35.7542C10.9843 35.6811 11.8219 35.3105 12.679 35.0432C14.5073 34.4747 16.3018 33.7993 18.1872 33.4305C20.5483 32.9671 22.7741 33.2647 24.8073 34.6119C25.5166 35.0824 26.3113 35.2303 27.1257 35.3301C28.5477 35.5029 29.9698 35.6009 31.3936 35.3568C33.1952 35.0485 34.6654 34.2627 35.4548 32.5092C35.7114 31.9389 35.8379 31.3348 35.9163 30.7183C35.9252 30.6452 35.8807 30.5472 35.9912 30.5098C35.9912 32.2437 35.984 33.9775 35.9983 35.7114C36.0001 35.952 35.9502 36.0001 35.7096 36.0001C24.4759 35.993 13.2421 35.993 2.00661 35.993C1.39716 35.993 0.787716 35.9859 0.180054 35.9983C0.0285835 36.0019 -0.00170956 35.9698 7.24451e-05 35.8184C0.0107645 34.7741 0.00719926 33.7316 0.00719926 32.6892Z" fill="white"/>
<path fill-rule="evenodd" clip-rule="evenodd" d="M25.3347 10.218C25.3863 13.3561 25.4362 16.496 25.495 19.6341C25.5022 19.9763 25.3792 20.1883 25.078 20.3701C23.9411 21.0508 23.2248 22.0024 23.2657 23.3959C23.2854 24.0178 23.5865 24.3333 24.2084 24.4028C24.6557 24.4527 25.0994 24.4135 25.5289 24.2851C25.8621 24.1854 26.1152 24.2566 26.3326 24.5346C26.5411 24.8019 26.7905 25.0354 27.0721 25.2296C27.5764 25.5771 28.1128 25.8052 28.7098 25.4987C29.3531 25.1672 29.7487 24.6415 29.8128 23.8985C29.8788 23.15 29.6471 22.4657 29.3459 21.801C29.0608 21.1702 28.6973 20.5839 28.2785 20.0333C28.1449 19.8569 28.0736 19.6751 28.0736 19.4541C28.0665 13.235 28.0576 7.01399 28.0504 0.794802C28.0504 0.411671 28.2268 0.201396 28.5369 0.194268C28.8684 0.18714 29.043 0.406326 29.0448 0.841134C29.059 6.90885 29.0733 12.9766 29.0822 19.0443C29.0822 19.3151 29.1535 19.529 29.3085 19.7517C30.0855 20.878 30.7145 22.0701 30.8232 23.4726C30.9408 24.9712 29.918 26.3612 28.4906 26.6089C27.6548 26.755 26.9153 26.4521 26.3308 25.9032C25.8461 25.4488 25.3952 25.3187 24.7323 25.4078C23.4154 25.586 22.4157 24.8394 22.2892 23.7096C22.1752 22.7045 22.4033 21.7832 22.9824 20.9492C23.3281 20.4521 23.754 20.0369 24.2565 19.7054C24.4258 19.5931 24.4846 19.4809 24.4811 19.2813C24.4151 15.4518 24.3563 11.6222 24.2957 7.79272C24.2583 5.47434 24.2209 3.15595 24.1835 0.835788C24.1817 0.707484 24.1585 0.575617 24.2209 0.456223C24.335 0.237036 24.5185 0.110513 24.7662 0.165755C25.078 0.235254 25.1761 0.461568 25.1796 0.769854C25.2188 3.47493 25.2687 6.18001 25.3115 8.88509C25.3186 9.33059 25.3115 9.77609 25.3115 10.2198C25.3186 10.218 25.3257 10.218 25.3347 10.218Z" fill="#363636"/>
<path fill-rule="evenodd" clip-rule="evenodd" d="M6.42951 33.2541C7.92639 33.2256 9.37694 32.8781 10.7223 32.069C12.025 31.285 13.4934 30.9018 14.9493 30.5133C17.4245 29.8522 19.9442 29.3996 22.4657 28.9648C22.7883 28.9095 23.1108 28.8543 23.4298 28.7777C24.025 28.6333 24.5222 28.7616 24.9677 29.2018C25.668 29.8932 26.4485 30.4937 27.2825 31.0212C28.1272 31.5558 29.0039 32.0102 30.0179 32.1296C31.725 32.331 32.8584 30.7682 32.436 29.2232C32.183 28.2965 31.668 27.5267 31.0728 26.7979C30.736 26.3862 30.6968 26.1065 30.9499 25.8855C31.2207 25.652 31.4916 25.7358 31.848 26.1688C32.657 27.1578 33.3199 28.2146 33.5052 29.5172C33.785 31.4845 32.0814 33.3022 30.1034 33.1418C28.6493 33.0242 27.434 32.3399 26.2667 31.5469C25.5504 31.0586 24.8786 30.5116 24.2549 29.9057C24.1087 29.7649 23.9644 29.6936 23.7559 29.7328C20.6107 30.3262 17.4423 30.8109 14.3594 31.7091C13.1013 32.0744 11.8967 32.552 10.7384 33.1863C8.66057 34.3233 6.43663 34.53 4.1432 33.9455C3.73334 33.8403 3.35199 33.6568 3.03301 33.3699C2.36476 32.7676 2.43069 31.9372 3.19339 31.4578C3.62285 31.1869 4.10934 31.0551 4.59583 30.925C6.13013 30.5187 7.68403 30.1837 9.17022 29.6045C10.2198 29.1964 11.2231 28.7028 12.1462 28.056C14.6837 26.2775 17.526 25.1709 20.4574 24.2514C20.6356 24.1961 20.8138 24.1409 20.9956 24.0964C21.3057 24.0179 21.5605 24.148 21.6425 24.4136C21.7244 24.6809 21.5926 24.9392 21.2861 25.039C20.3861 25.3313 19.4827 25.6075 18.5952 25.9336C16.4586 26.7159 14.4218 27.6835 12.5471 28.988C10.7776 30.2193 8.76215 30.8947 6.69324 31.4257C5.83432 31.6467 4.95935 31.8142 4.12538 32.1243C3.92757 32.1973 3.61573 32.2312 3.61929 32.4735C3.62107 32.6963 3.91154 32.7836 4.1129 32.8692C4.8364 33.1774 5.60444 33.2416 6.42951 33.2541Z" fill="#363636"/>
<path fill-rule="evenodd" clip-rule="evenodd" d="M11.1729 19.1672C11.4312 14.2988 13.6516 10.7009 18.0817 8.5322C18.2171 8.46627 18.3561 8.39855 18.5147 8.41281C18.7553 8.43419 18.9085 8.57141 18.9602 8.79594C19.019 9.05789 18.9032 9.25391 18.6608 9.3644C18.0122 9.66199 17.3867 10.0006 16.7986 10.4069C12.8248 13.1601 11.1818 18.2958 12.8265 22.8381C12.8551 22.9147 12.8889 22.9896 12.9121 23.068C12.9976 23.3674 12.8764 23.6258 12.6091 23.7255C12.349 23.8218 12.0835 23.697 11.9676 23.3959C11.7181 22.7526 11.5293 22.0897 11.4027 21.4107C11.262 20.6748 11.196 19.9299 11.1729 19.1672Z" fill="#363636"/>
<path fill-rule="evenodd" clip-rule="evenodd" d="M18.554 16.4924C18.5629 16.8061 18.2956 17.0912 18.0087 17.0092C16.9216 16.6992 15.8417 16.3641 14.769 16.0077C14.532 15.9293 14.4411 15.6834 14.5338 15.4197C14.63 15.1435 14.8652 15.0205 15.1842 15.115C15.9772 15.3502 16.7666 15.6014 17.5578 15.8456C17.7699 15.9115 17.9837 15.9703 18.1922 16.0434C18.4096 16.1236 18.5308 16.284 18.554 16.4924Z" fill="#363636"/>
<path fill-rule="evenodd" clip-rule="evenodd" d="M15.8047 18.7716C15.4715 18.777 15.2505 18.6059 15.2202 18.3279C15.1881 18.041 15.3842 17.8183 15.7245 17.7791C16.4444 17.6953 17.1644 17.6151 17.8861 17.5421C18.1962 17.51 18.4314 17.6882 18.4759 17.9662C18.5187 18.2335 18.3351 18.4901 18.0233 18.5311C17.2802 18.6237 16.5335 18.6932 15.8047 18.7716Z" fill="#363636"/>
<path fill-rule="evenodd" clip-rule="evenodd" d="M19.3361 15.368C19.3343 15.5907 19.2559 15.7404 19.092 15.8367C18.9156 15.94 18.7124 15.9578 18.5681 15.8224C17.9729 15.2646 17.383 14.6997 16.8146 14.1152C16.6346 13.9299 16.6738 13.6733 16.8609 13.4826C17.0373 13.3027 17.2868 13.2563 17.4632 13.4167C18.0745 13.9745 18.659 14.5607 19.2488 15.1417C19.3147 15.2041 19.3433 15.3021 19.3361 15.368Z" fill="#363636"/>
</svg>
