<svg width="36" height="36" viewBox="0 0 36 36" fill="none" xmlns="http://www.w3.org/2000/svg">
<path fill-rule="evenodd" clip-rule="evenodd" d="M0.0173124 34.8002C0.0173124 23.3035 0.0186265 11.8069 0.0107422 0.310218C0.0107422 0.0605473 0.0580483 0.00272891 0.314289 0.00272891C10.2183 0.0106132 20.1237 0.00929908 30.0277 0.00929908C29.9883 0.11968 29.8766 0.111795 29.7951 0.134134C27.9344 0.645301 27.0461 2.77407 27.983 4.45737C28.0711 4.61637 28.0658 4.7123 27.9331 4.84502C26.6282 6.14068 25.3286 7.44159 24.033 8.74644C23.9042 8.87654 23.8135 8.89099 23.6453 8.80558C22.4403 8.19191 21.2997 8.30624 20.2511 9.16694C20.0895 9.29966 19.9962 9.29178 19.8385 9.16957C18.8227 8.37851 17.803 7.59402 16.7768 6.81741C16.5967 6.68075 16.556 6.55723 16.648 6.3483C16.7715 6.0684 16.8057 5.7596 16.8096 5.45605C16.8267 4.24055 16.0435 3.07367 14.9423 2.65186C13.7479 2.19589 12.4351 2.48629 11.6322 3.38379C10.7531 4.36802 10.5626 5.67944 11.1697 6.79639C11.3011 7.03817 11.2446 7.1525 11.0751 7.3207C9.81884 8.56511 8.56655 9.81346 7.32608 11.0736C7.13817 11.2642 7.00545 11.2878 6.76761 11.1617C5.38259 10.4311 3.5968 10.9488 2.85698 12.2799C2.03176 13.7648 2.47854 15.548 3.8872 16.3811C5.05934 17.0749 6.52451 16.9028 7.51399 15.954C8.45222 15.0552 8.68087 13.569 8.05275 12.4021C7.96471 12.2392 7.9358 12.138 8.09217 11.9843C9.39966 10.6926 10.6993 9.39033 11.9936 8.08548C12.125 7.95407 12.2144 7.94356 12.3786 8.03029C13.5126 8.62555 14.6073 8.54014 15.6335 7.78062C15.8254 7.6387 15.9239 7.65709 16.0974 7.79244C17.0921 8.57168 18.0908 9.34697 19.1053 10.0999C19.3549 10.2852 19.3944 10.4389 19.3129 10.732C18.9082 12.1866 19.8438 13.8437 21.284 14.2615C22.5126 14.6176 23.5928 14.3469 24.439 13.3943C25.3299 12.3903 25.4429 11.1577 24.8214 9.97246C24.7347 9.80557 24.7452 9.7149 24.8766 9.58481C26.1814 8.28915 27.4824 6.98955 28.7767 5.6847C28.9094 5.55067 29.0093 5.53884 29.1657 5.63214C29.5428 5.85553 29.9541 5.96459 30.3943 5.99876C31.6755 6.096 32.9252 5.32333 33.3956 4.12492C33.8687 2.92256 33.5073 1.5428 32.5323 0.717574C32.0842 0.337813 31.552 0.170928 31.0106 0.00667091C32.5677 0.00667091 34.1236 0.0132413 35.6807 0.000100737C35.937 -0.00252737 36.0093 0.0447783 36.0093 0.318102C36.0001 7.527 36.0014 14.7372 36.0014 21.9461C36.0014 26.2299 36.0014 30.5124 36.0014 34.7963C35.9777 34.8002 35.9541 34.8028 35.9291 34.8068C35.4849 34.8028 35.0382 34.7713 34.5953 34.8028C34.251 34.8265 34.1788 34.72 34.1788 34.3836C34.1893 27.2273 34.1867 20.071 34.1867 12.9146C34.1867 12.1722 34.0303 12.0184 33.2773 12.0184C31.485 12.0184 29.6939 12.0184 27.9015 12.0184C27.1604 12.0184 27.0014 12.1788 27.0014 12.9278C27.0014 19.9553 27.0014 26.9829 27.0014 34.0104C27.0014 34.7949 27.0014 34.7818 26.1998 34.8015C25.8963 34.8094 25.7938 34.749 25.7951 34.4139C25.8083 30.0341 25.8043 25.6531 25.8043 21.272C25.8043 20.5913 25.6125 20.4008 24.9226 20.4008C23.1302 20.4008 21.3378 20.4008 19.5468 20.4008C18.7662 20.4008 18.6085 20.5598 18.6085 21.3509C18.6085 25.5677 18.6085 29.7845 18.6085 33.9999C18.6085 34.7936 18.6085 34.7752 17.8149 34.8028C17.4758 34.8147 17.3983 34.7253 17.3983 34.3863C17.4101 28.0144 17.4075 21.6426 17.4062 15.272C17.4062 14.5966 17.2235 14.414 16.5586 14.414C14.7426 14.414 12.9279 14.414 11.1119 14.414C10.376 14.414 10.2104 14.5822 10.2104 15.3299C10.2104 21.5374 10.2104 27.745 10.2091 33.9526C10.2091 34.2207 10.2998 34.5768 10.1658 34.7332C10.0054 34.9185 9.63619 34.7581 9.36286 34.7989C9.06063 34.8436 9.00544 34.7214 9.00676 34.4375C9.01727 30.8423 9.01333 27.2457 9.01333 23.6504C9.01333 22.9908 8.82147 22.8016 8.15131 22.8016C7.08561 22.8003 6.01991 22.8016 4.95421 22.8016C4.16972 22.8016 3.38523 22.7976 2.59943 22.8029C2.04227 22.8068 1.83596 23.0158 1.82808 23.5637C1.82677 23.6925 1.82808 23.8213 1.82808 23.9501C1.82808 27.452 1.82545 30.954 1.83465 34.4559C1.83596 34.7292 1.77157 34.816 1.49037 34.8028C1.02388 34.7805 0.554761 34.8041 0.0856432 34.8081C0.0646184 34.8068 0.0409653 34.8041 0.0173124 34.8002Z" fill="white"/>
<path fill-rule="evenodd" clip-rule="evenodd" d="M0.0897304 34.8106C0.557534 34.8067 1.02665 34.783 1.49445 34.8054C1.77566 34.8185 1.83874 34.7318 1.83874 34.4585C1.82954 30.9565 1.83217 27.4546 1.83217 23.9526C1.83217 23.8238 1.83085 23.6951 1.83217 23.5663C1.84005 23.0183 2.04636 22.8094 2.60352 22.8054C3.38801 22.8002 4.1725 22.8041 4.9583 22.8041C6.024 22.8041 7.0897 22.8028 8.15539 22.8041C8.82688 22.8054 9.01741 22.9933 9.01741 23.653C9.01741 27.2483 9.02136 30.8448 9.01084 34.4401C9.00953 34.7239 9.06472 34.8461 9.36695 34.8014C9.64027 34.7607 10.0095 34.921 10.1698 34.7357C10.3052 34.5794 10.2132 34.2233 10.2132 33.9552C10.2145 27.7476 10.2145 21.54 10.2145 15.3324C10.2145 14.5847 10.3801 14.4165 11.116 14.4165C12.932 14.4165 14.7467 14.4165 16.5627 14.4165C17.2276 14.4165 17.4103 14.5992 17.4103 15.2746C17.4103 21.6464 17.4142 28.0183 17.4024 34.3888C17.4024 34.7265 17.4799 34.8172 17.8189 34.8054C18.6113 34.7778 18.6126 34.7962 18.6126 34.0025C18.6126 29.7857 18.6126 25.5689 18.6126 21.3534C18.6126 20.5623 18.7703 20.4033 19.5509 20.4033C21.3432 20.4033 23.1343 20.4033 24.9267 20.4033C25.6152 20.4033 25.8084 20.5939 25.8084 21.2746C25.8084 25.6556 25.8137 30.0354 25.7992 34.4164C25.7979 34.7515 25.9004 34.8119 26.2039 34.8041C27.0042 34.783 27.0055 34.7975 27.0055 34.013C27.0055 26.9854 27.0055 19.9579 27.0055 12.9303C27.0055 12.1813 27.1632 12.021 27.9056 12.021C29.698 12.021 31.4904 12.021 33.2814 12.021C34.0344 12.021 34.1907 12.1747 34.1907 12.9172C34.1907 20.0735 34.1934 27.2299 34.1829 34.3862C34.1829 34.7226 34.2551 34.829 34.5994 34.8054C35.0423 34.7738 35.4877 34.8054 35.9332 34.8093C35.9332 35.2049 35.9345 35.5991 35.9345 35.9946C23.9871 35.9946 12.0384 35.9946 0.0910442 35.9946C0.0884161 35.6004 0.0884164 35.2048 0.0897304 34.8106ZM28.2013 24.0157C28.2013 27.5045 28.2052 30.9933 28.1947 34.4821C28.1934 34.7476 28.2604 34.808 28.5206 34.8054C29.9017 34.7909 31.2841 34.7922 32.6651 34.8041C32.9148 34.8067 32.9976 34.762 32.9963 34.4861C32.9871 27.4966 32.9884 20.5072 32.995 13.5177C32.995 13.2667 32.9279 13.2128 32.6862 13.2142C31.3169 13.226 29.9464 13.2286 28.5771 13.2128C28.2841 13.2089 28.1908 13.2601 28.1921 13.5834C28.2065 17.0604 28.2013 20.5374 28.2013 24.0157ZM16.2053 25.2062C16.2053 22.1261 16.2 19.0446 16.2132 15.9645C16.2145 15.6662 16.1356 15.6031 15.8492 15.6071C14.4668 15.6241 13.0844 15.6189 11.7033 15.6097C11.4852 15.6084 11.4064 15.6491 11.4064 15.8922C11.4142 22.0998 11.4142 28.3087 11.4064 34.5163C11.4064 34.7528 11.476 34.8041 11.7007 34.8027C13.0831 34.7922 14.4655 34.7896 15.8466 34.8054C16.1317 34.8093 16.2145 34.7502 16.2132 34.4493C16.2013 31.3678 16.2053 28.2877 16.2053 25.2062ZM24.6087 28.1957C24.6087 26.0998 24.6047 24.0039 24.6139 21.9079C24.6152 21.6596 24.5469 21.5965 24.3012 21.5978C22.9083 21.6096 21.5141 21.6096 20.1212 21.5978C19.8768 21.5965 19.8071 21.6609 19.8084 21.9079C19.8163 26.1116 19.8163 30.3153 19.8084 34.5189C19.8084 34.7568 19.882 34.8041 20.1028 34.8027C21.4838 34.7936 22.8662 34.7896 24.2473 34.8054C24.5311 34.808 24.6179 34.7502 24.6152 34.448C24.6008 32.3639 24.6087 30.2798 24.6087 28.1957ZM3.03058 29.3849C3.03058 31.0932 3.03453 32.8014 3.02533 34.5097C3.02401 34.7292 3.06869 34.8054 3.30785 34.8041C4.72308 34.7922 6.13964 34.7922 7.55487 34.8041C7.77563 34.8054 7.82425 34.7462 7.82294 34.5321C7.81637 31.1155 7.81505 27.699 7.82425 24.2824C7.82425 24.0367 7.74015 23.9999 7.52465 24.0012C6.13175 24.0091 4.74017 24.0131 3.34727 23.9986C3.07657 23.996 3.02138 24.0735 3.0227 24.3311C3.03584 26.0157 3.03058 27.7003 3.03058 29.3849Z" fill="#363636"/>
<path fill-rule="evenodd" clip-rule="evenodd" d="M31.0127 0.010498C31.5541 0.174755 32.0863 0.34164 32.5344 0.721401C33.5094 1.54663 33.8708 2.92638 33.3977 4.12874C32.9273 5.32716 31.6763 6.09983 30.3964 6.00259C29.9562 5.96842 29.5449 5.86067 29.1678 5.63596C29.0114 5.54267 28.9102 5.55581 28.7788 5.68853C27.4845 6.99338 26.1835 8.2943 24.8787 9.58864C24.7473 9.71873 24.7355 9.8094 24.8235 9.97628C25.4437 11.1616 25.332 12.3941 24.4411 13.3981C23.5949 14.3508 22.5134 14.6228 21.2861 14.2654C19.8459 13.8475 18.9103 12.1905 19.315 10.7358C19.3965 10.4428 19.3557 10.289 19.1074 10.1037C18.0929 9.35079 17.0942 8.5755 16.0995 7.79627C15.926 7.66092 15.8275 7.64252 15.6356 7.78444C14.6094 8.54397 13.5134 8.62938 12.3807 8.03411C12.2165 7.94739 12.1258 7.9579 11.9957 8.0893C10.7014 9.39416 9.40176 10.6964 8.09428 11.9881C7.93922 12.1418 7.96813 12.243 8.05486 12.406C8.68429 13.5742 8.45433 15.0604 7.51609 15.9579C6.5253 16.9066 5.06144 17.0787 3.88931 16.3849C2.48064 15.5518 2.03386 13.7686 2.85909 12.2838C3.5989 10.9526 5.3847 10.4336 6.76971 11.1655C7.00756 11.2917 7.14028 11.268 7.32818 11.0775C8.56865 9.81728 9.82094 8.56893 11.0772 7.32452C11.2467 7.15764 11.3019 7.042 11.1718 6.80022C10.5647 5.68327 10.7552 4.37184 11.6343 3.38762C12.4359 2.49012 13.75 2.19971 14.9444 2.65569C16.0456 3.07619 16.8288 4.24307 16.8117 5.45988C16.8078 5.76343 16.7723 6.07092 16.6501 6.35212C16.5581 6.56106 16.5988 6.68458 16.7789 6.82124C17.8051 7.59785 18.8262 8.38234 19.8406 9.1734C19.9983 9.2956 20.0916 9.3048 20.2532 9.17077C21.3018 8.31007 22.4411 8.19443 23.6474 8.80941C23.8156 8.89482 23.9063 8.88036 24.0351 8.75027C25.3307 7.44542 26.6303 6.1445 27.9352 4.84885C28.0692 4.71613 28.0745 4.6202 27.9851 4.4612C27.0495 2.7779 27.9378 0.649129 29.7972 0.137961C29.8773 0.115623 29.989 0.122193 30.0298 0.0131262C30.357 0.0104981 30.6842 0.010498 31.0127 0.010498ZM12.0272 5.4336C12.0338 6.41651 12.8367 7.22466 13.8065 7.22203C14.7973 7.2194 15.6199 6.39812 15.6133 5.4152C15.6067 4.4428 14.7933 3.6294 13.8236 3.62678C12.8288 3.62546 12.0207 4.43755 12.0272 5.4336ZM28.8117 2.97632C28.7801 3.975 29.5607 4.79366 30.5672 4.81599C31.5436 4.83702 32.3465 4.07355 32.3951 3.07487C32.4424 2.11299 31.6303 1.26411 30.6303 1.22731C29.675 1.19315 28.8432 1.99209 28.8117 2.97632ZM23.9956 11.427C23.9996 10.4362 23.2164 9.63989 22.2282 9.62937C21.2322 9.61886 20.4083 10.427 20.4083 11.4178C20.4083 12.3915 21.219 13.197 22.2033 13.1997C23.1941 13.2036 23.9904 12.4139 23.9956 11.427ZM7.21123 13.8054C7.20335 12.8173 6.40966 12.0249 5.42543 12.0249C4.43201 12.0249 3.60416 12.8554 3.62255 13.8343C3.64095 14.8159 4.4596 15.6123 5.43595 15.5991C6.432 15.586 7.21912 14.791 7.21123 13.8054Z" fill="#363636"/>
<path fill-rule="evenodd" clip-rule="evenodd" d="M0.0899779 34.8106C0.0899779 35.2061 0.0886636 35.6003 0.0886636 35.9958C-0.0769072 35.8395 0.043986 35.6437 0.0242752 35.4676C0.000622253 35.2481 0.0190189 35.0234 0.0190189 34.8C0.0413578 34.804 0.0650109 34.8066 0.0899779 34.8106Z" fill="#363636"/>
<path fill-rule="evenodd" clip-rule="evenodd" d="M35.932 35.9958C35.932 35.6003 35.9307 35.2061 35.9307 34.8106C35.9543 34.8066 35.978 34.804 36.0029 34.8C36.0029 35.1627 36.0043 35.5267 36.0016 35.8894C36.0003 35.9328 36.0437 36.0195 35.932 35.9958Z" fill="#363636"/>
<path fill-rule="evenodd" clip-rule="evenodd" d="M28.2016 24.0157C28.2016 20.5387 28.2069 17.0618 28.1924 13.5848C28.1911 13.2615 28.2857 13.2116 28.5774 13.2142C29.9467 13.23 31.3172 13.2273 32.6865 13.2155C32.9282 13.2129 32.9953 13.2681 32.9953 13.5191C32.9874 20.5085 32.9874 27.498 32.9966 34.4874C32.9966 34.7621 32.9151 34.8067 32.6654 34.8054C31.2844 34.7936 29.902 34.7923 28.5209 34.8067C28.2607 34.8094 28.195 34.7489 28.195 34.4835C28.2042 30.9934 28.2016 27.5045 28.2016 24.0157Z" fill="white"/>
<path fill-rule="evenodd" clip-rule="evenodd" d="M16.2052 25.2064C16.2052 28.2865 16.1999 31.368 16.2131 34.4481C16.2144 34.749 16.1303 34.8082 15.8464 34.8042C14.4641 34.7884 13.0817 34.7924 11.7006 34.8016C11.4759 34.8029 11.4062 34.7516 11.4062 34.5151C11.4128 28.3075 11.4128 22.0986 11.4062 15.891C11.4062 15.6492 11.4851 15.6072 11.7032 15.6085C13.0856 15.6177 14.468 15.6216 15.8491 15.6059C16.1368 15.6019 16.2144 15.6663 16.2131 15.9633C16.2012 19.0461 16.2052 22.1262 16.2052 25.2064Z" fill="white"/>
<path fill-rule="evenodd" clip-rule="evenodd" d="M24.6085 28.1958C24.6085 30.2799 24.6019 32.364 24.6164 34.4481C24.619 34.749 24.5323 34.8082 24.2484 34.8055C22.8674 34.7898 21.485 34.7937 20.1039 34.8029C19.8832 34.8042 19.8096 34.7582 19.8096 34.5191C19.8175 30.3154 19.8175 26.1118 19.8096 21.9081C19.8096 21.6611 19.8792 21.5953 20.1223 21.598C21.5152 21.6098 22.9094 21.6098 24.3023 21.598C24.548 21.5953 24.6164 21.6597 24.6151 21.9081C24.6032 24.004 24.6085 26.0999 24.6085 28.1958Z" fill="white"/>
<path fill-rule="evenodd" clip-rule="evenodd" d="M3.03101 29.385C3.03101 27.7004 3.03626 26.0158 3.02444 24.3298C3.02312 24.0723 3.07831 23.9948 3.34901 23.9974C4.74191 24.0131 6.13349 24.0079 7.52639 24C7.74189 23.9987 7.82599 24.0355 7.82599 24.2812C7.81679 27.6978 7.81811 31.1143 7.82468 34.5308C7.82468 34.745 7.77606 34.8042 7.55661 34.8028C6.14137 34.7923 4.72482 34.791 3.30959 34.8028C3.07043 34.8055 3.02575 34.7279 3.02706 34.5085C3.03495 32.8015 3.03101 31.0933 3.03101 29.385Z" fill="white"/>
<path fill-rule="evenodd" clip-rule="evenodd" d="M12.0264 5.43369C12.0198 4.43764 12.828 3.62555 13.8227 3.62818C14.7925 3.63081 15.6059 4.44289 15.6125 5.41661C15.619 6.39952 14.7964 7.22212 13.8056 7.22343C12.8345 7.22475 12.0317 6.4166 12.0264 5.43369Z" fill="white"/>
<path fill-rule="evenodd" clip-rule="evenodd" d="M28.8115 2.97646C28.843 1.99223 29.6735 1.19197 30.6301 1.22745C31.6301 1.26425 32.4422 2.11313 32.3949 3.07501C32.3463 4.0737 31.5434 4.83847 30.567 4.81614C29.5605 4.7938 28.7799 3.97646 28.8115 2.97646Z" fill="white"/>
<path fill-rule="evenodd" clip-rule="evenodd" d="M23.9956 11.427C23.9916 12.4139 23.194 13.2036 22.2032 13.201C21.219 13.1984 20.4069 12.3929 20.4082 11.4191C20.4082 10.4283 21.2321 9.6202 22.2282 9.63072C23.2163 9.63992 23.9995 10.4362 23.9956 11.427Z" fill="white"/>
<path fill-rule="evenodd" clip-rule="evenodd" d="M7.21105 13.8054C7.21894 14.791 6.43182 15.586 5.43577 15.5991C4.45811 15.6123 3.64077 14.816 3.62237 13.8344C3.60397 12.8541 4.43051 12.0249 5.42525 12.0249C6.41079 12.0262 7.20448 12.8173 7.21105 13.8054Z" fill="white"/>
</svg>
