<svg width="47" height="51" viewBox="0 0 47 51" fill="none" xmlns="http://www.w3.org/2000/svg">
<path d="M46.7814 40.0636C44.9479 42.2767 42.8042 44.2213 40.4105 45.8279C39.4938 46.4483 38.5446 47.0132 37.5585 47.5271C33.41 49.6986 28.6874 50.9255 23.6778 50.9255C18.3162 50.9255 13.2834 49.518 8.93125 47.0549C7.99599 46.527 7.09314 45.9529 6.22733 45.3279C3.8753 43.6426 1.77329 41.6239 0 39.3413C0.851918 36.7763 2.93541 34.7622 5.59303 34.0307L12.7834 32.0444L15.3762 31.3268L17.6171 30.7064L17.7282 30.0952H28.8494L28.9606 30.7064L31.2015 31.3268L33.7943 32.0444L40.9846 34.0307C43.8877 34.8317 46.1054 37.1559 46.7814 40.0636Z" fill="#93ADC6"/>
<path d="M28.8492 30.0952H17.728L17.6169 30.7064L15.376 31.3268L15.4408 31.5027C15.4732 31.5861 15.5056 31.6601 15.5334 31.725C16.3761 34.1696 19.5059 35.8549 23.2886 35.8549C27.0713 35.8549 30.2012 34.1696 31.0439 31.725C31.0716 31.6601 31.104 31.5861 31.1365 31.5027L31.2013 31.3268L28.9604 30.7064L28.8492 30.0952Z" fill="#69CFB2"/>
<path d="M28.9607 30.706C28.9421 30.757 28.9144 30.7986 28.8912 30.8449C28.4884 32.3682 26.1364 33.5396 23.2889 33.5396C20.4415 33.5396 18.0894 32.3682 17.6866 30.8449C17.6635 30.7986 17.6357 30.757 17.6172 30.706L18.5154 25.6686L19.1034 22.3721L23.2889 24.0111L27.4744 22.3721L28.794 29.78L28.9607 30.706Z" fill="#F69779"/>
<path d="M28.7942 29.78C27.2987 30.3032 26.1366 30.3032 26.1366 30.3032C26.1366 30.3032 21.1593 30.3032 18.5156 25.6686L19.1036 22.3721L23.2891 24.0111L27.4747 22.3721L28.7942 29.78Z" fill="#F69779"/>
<path d="M27.0479 1.05992C27.0479 1.05992 31.9881 0.610805 33.5669 4.14812C34.7244 6.73628 35.4884 20.4503 29.9278 21.2698L25.2607 2.12018L27.0479 1.05992Z" fill="#051733"/>
<path d="M19.5292 1.05992C19.5292 1.05992 14.589 0.610805 13.0101 4.14812C11.8526 6.73628 11.0887 20.4503 16.6493 21.2698L21.3163 2.12018L19.5292 1.05992Z" fill="#051733"/>
<path d="M34.6 13.3207C34.5444 12.9503 34.4055 12.5753 34.1231 12.3299C33.8685 12.1077 33.5166 12.0197 33.1832 12.0336C32.8499 12.0475 32.5211 12.1586 32.2156 12.3068C32.2156 12.3068 32.1878 3.76908 29.1598 3.67185C27.1735 3.57462 26.2938 4.16726 23.2889 4.16726C20.2841 4.16726 19.3998 3.56999 17.4181 3.67185C14.3901 3.76908 14.3623 12.3068 14.3623 12.3068C14.0567 12.1586 13.7326 12.0475 13.3947 12.0336C13.0567 12.0197 12.7094 12.1123 12.4548 12.3299C12.1723 12.5753 12.0381 12.9503 11.9779 13.3207C11.8668 14.0615 12.0427 14.844 12.464 15.4644C12.8854 16.0848 13.5104 16.5525 14.2419 16.7191C15.5337 25.7476 23.2889 25.7476 23.2889 25.7476C23.2889 25.7476 31.0488 25.7476 32.3359 16.7191C33.0675 16.5525 33.6879 16.0848 34.1138 15.4644C34.5352 14.844 34.7111 14.0662 34.6 13.3207Z" fill="#F69779"/>
<path d="M29.16 3.67621C29.16 3.67621 29.5351 0 20.4742 0C15.6683 0 14.0246 3.01875 13.4042 4.45868L14.983 3.97716C14.983 3.97716 13.0616 6.51439 13.4042 8.30156C13.4042 8.30156 16.1498 5.69489 18.4138 5.48654C20.6825 5.28282 26.8682 4.94946 29.16 3.67621Z" fill="#051733"/>
<path d="M40.4107 45.8277C39.4939 46.4481 38.5448 47.0129 37.5586 47.5268L39.3967 37.5029L40.4107 45.8277Z" fill="#AABFD6"/>
<path d="M8.93145 47.0546C7.99619 46.5268 7.09335 45.9527 6.22754 45.3276L7.18132 37.5029L8.93145 47.0546Z" fill="#AABFD6"/>
<path d="M22.8535 13.6309V18.9276H23.7517C25.2889 18.9276 23.1406 14.2374 22.8535 13.6309Z" fill="#F37A67"/>
<path d="M29.3822 11.5659C28.1413 10.9548 26.7616 10.8622 25.4698 11.3761C24.9235 11.5937 25.1596 12.4919 25.7152 12.2697C26.7755 11.8484 27.8867 11.8576 28.9146 12.3669C29.447 12.6262 29.9146 11.8298 29.3822 11.5659Z" fill="#051733"/>
<path d="M27.3917 14.506C27.875 14.506 28.2667 14.1142 28.2667 13.6309C28.2667 13.1476 27.875 12.7559 27.3917 12.7559C26.9084 12.7559 26.5166 13.1476 26.5166 13.6309C26.5166 14.1142 26.9084 14.506 27.3917 14.506Z" fill="#051733"/>
<path d="M17.1957 11.5659C18.4365 10.9548 19.8162 10.8622 21.108 11.3761C21.6543 11.5937 21.4182 12.4919 20.8626 12.2697C19.8023 11.8484 18.6911 11.8576 17.6633 12.3669C17.1308 12.6262 16.6632 11.8298 17.1957 11.5659Z" fill="#051733"/>
<path d="M19.1866 14.506C19.6699 14.506 20.0617 14.1142 20.0617 13.6309C20.0617 13.1476 19.6699 12.7559 19.1866 12.7559C18.7033 12.7559 18.3115 13.1476 18.3115 13.6309C18.3115 14.1142 18.7033 14.506 19.1866 14.506Z" fill="#051733"/>
<path d="M20.4414 20.9927C20.747 22.1409 21.9045 22.9975 23.2888 22.9975C24.6686 22.9975 25.8261 22.1409 26.1363 20.9927H20.4414Z" fill="white"/>
</svg>
