<svg width="37" height="86" viewBox="0 0 37 86" fill="none" xmlns="http://www.w3.org/2000/svg">
<g opacity="0.23">
<path d="M35.6312 0C35.6312 4.77664 27.7139 4.77663 27.7139 9.55327C27.7139 14.3299 35.6312 14.3299 35.6312 19.1066C35.6312 23.8832 27.7139 23.8832 27.7139 28.6598C27.7139 33.4365 35.6312 33.4365 35.6312 38.2131C35.6312 42.9898 27.7139 42.9898 27.7139 47.7664C27.7139 52.5431 35.6312 52.5431 35.6312 57.3197C35.6312 62.0964 27.7139 62.0964 27.7139 66.873C27.7139 71.6496 35.6312 71.6496 35.6312 76.4365C35.6312 81.2233 27.7139 81.2132 27.7139 86" stroke="white" stroke-miterlimit="10"/>
<path d="M22.2748 0C22.2748 4.77664 14.3574 4.77663 14.3574 9.55327C14.3574 14.3299 22.2748 14.3299 22.2748 19.1066C22.2748 23.8832 14.3574 23.8832 14.3574 28.6598C14.3574 33.4365 22.2748 33.4365 22.2748 38.2131C22.2748 42.9898 14.3574 42.9898 14.3574 47.7664C14.3574 52.5431 22.2748 52.5431 22.2748 57.3197C22.2748 62.0964 14.3574 62.0964 14.3574 66.873C14.3574 71.6496 22.2748 71.6496 22.2748 76.4365C22.2748 81.2233 14.3574 81.2132 14.3574 86" stroke="white" stroke-miterlimit="10"/>
<path d="M8.91735 0C8.91735 4.77664 1 4.77663 1 9.55327C1 14.3299 8.91735 14.3299 8.91735 19.1066C8.91735 23.8832 1 23.8832 1 28.6598C1 33.4365 8.91735 33.4365 8.91735 38.2131C8.91735 42.9898 1 42.9898 1 47.7664C1 52.5431 8.91735 52.5431 8.91735 57.3197C8.91735 62.0964 1 62.0964 1 66.873C1 71.6496 8.91735 71.6496 8.91735 76.4365C8.91735 81.2233 1 81.2132 1 86" stroke="white" stroke-miterlimit="10"/>
</g>
</svg>
