<svg width="100" height="88" viewBox="0 0 100 88" fill="none" xmlns="http://www.w3.org/2000/svg">
<path fill-rule="evenodd" clip-rule="evenodd" d="M32.5166 37.806C32.734 36.7356 33.4197 36.3609 34.4701 36.371C37.3702 36.4011 40.2703 36.3576 43.1704 36.3977C43.8528 36.4077 44.0267 36.207 44.0234 35.5381C43.9932 31.4438 44.0066 27.3529 44.01 23.2586C44.01 21.4657 44.4281 21.0543 46.2444 21.0543C52.6266 21.0509 59.0055 21.0509 65.3878 21.0543C67.1472 21.0543 67.572 21.4757 67.5754 23.2017C67.5754 24.1684 67.5787 25.1351 67.5754 26.1018C67.572 27.0318 67.1639 27.6338 66.2073 27.7911C65.07 27.5937 64.702 27.1856 64.6753 26.0784C64.6653 25.6269 64.6485 25.1753 64.6786 24.7271C64.7154 24.2153 64.5816 23.9611 63.9963 23.9811C62.7419 24.028 61.4875 24.0146 60.2298 24.0246C56.1656 24.0112 52.1015 24.028 48.0407 23.9577C47.0673 23.941 46.8933 24.2588 46.8967 25.1552C46.9301 33.317 46.9168 41.4787 46.9168 49.6372C46.9168 55.6046 46.9268 61.5721 46.9034 67.5395C46.9 68.2186 47.0205 68.5229 47.7931 68.4962C49.469 68.436 51.1482 68.4561 52.824 68.4895C53.4562 68.5029 53.7472 68.3724 53.7305 67.6533C53.687 65.556 53.7037 63.4586 53.7171 61.3647C53.7305 59.3677 54.5667 58.5415 56.5369 58.5281C57.8248 58.5181 59.1159 58.5047 60.4037 58.4913C60.8219 58.5281 61.2467 58.595 61.7785 58.4178C61.2534 57.9394 60.8319 57.5547 60.4104 57.1701C59.5842 56.3171 58.7547 55.4675 57.9351 54.6112C56.7611 53.3869 56.7577 52.2028 57.9284 50.9785C58.6844 50.1891 59.4504 49.4131 60.2131 48.6337C61.0627 47.8075 61.9157 46.9812 62.7586 46.1517C63.1031 45.8105 63.451 45.4292 63.9327 45.3489C64.5984 45.2385 64.6853 44.8773 64.682 44.2852C64.6552 40.5288 64.6652 36.769 64.6719 33.0092C64.6753 31.7248 64.9663 31.3836 66.224 31.1093C67.2576 31.3334 67.5888 32.0225 67.5854 33.0193C67.5687 37.4046 67.5955 41.7898 67.562 46.1751C67.5553 46.911 67.7527 47.4395 68.3046 47.9279C68.9702 48.5166 69.559 49.1923 70.4053 50.062C70.4053 48.3661 70.4053 46.9746 70.4053 45.5797C70.4053 42.3351 70.8602 41.8735 74.068 41.8735C75.9713 41.8735 77.8746 41.8668 79.7746 41.8735C81.631 41.8801 82.474 42.7331 82.4806 44.6063C82.4873 46.3122 82.4806 48.0215 82.4806 49.8446C83.2466 49.3528 83.7417 48.6939 84.3204 48.1386C85.0429 47.4462 85.7219 46.7136 86.4478 46.0246C87.6453 44.8906 88.8294 44.8873 90.0135 46.0447C91.6727 47.667 93.315 49.3127 94.9374 50.9685C96.1282 52.1827 96.1282 53.3835 94.934 54.6011C93.6964 55.8655 92.4186 57.0864 90.9568 58.5248C92.8668 58.5248 94.5192 58.5649 96.1717 58.5114C97.5632 58.4646 98.5867 58.9295 99.132 60.2608C99.132 63.2312 99.132 66.1982 99.132 69.1685C98.5466 69.7874 98.0716 70.5567 97.0715 70.5634C96.5563 70.5667 96.0412 70.5968 95.5261 70.6002C94.1011 70.6069 92.6728 70.6002 90.9936 70.6002C92.4219 72.0252 93.6529 73.2394 94.8705 74.4737C96.1549 75.7749 96.1516 76.9389 94.8638 78.2435C93.3217 79.8022 91.763 81.351 90.2076 82.8964C88.7726 84.3213 87.662 84.3213 86.2304 82.8964C85.0295 81.6989 83.8354 80.4947 82.4806 79.1399C82.4806 81.1101 82.4907 82.8696 82.4773 84.6291C82.4639 86.345 81.6511 87.2315 79.9652 87.2616C77.6103 87.3017 75.2521 87.305 72.8973 87.2616C71.2381 87.2315 70.4387 86.3885 70.4086 84.716C70.3818 83.1673 70.4086 81.6186 70.3952 80.0698C70.3919 79.8457 70.539 79.5547 70.1477 79.364C68.9134 80.6084 67.6858 81.8862 66.4147 83.1171C65.3309 84.1708 64.0999 84.2645 63.063 83.2777C61.24 81.545 59.4437 79.7755 57.7411 77.9257C57.2427 77.3838 56.8112 77.1932 56.1255 77.1932C38.183 77.2065 20.2438 77.1998 2.30135 77.2132C1.39486 77.2132 0.582027 77.1028 0 76.3302C0 74.0054 0 71.684 0 69.3592C0.528508 68.7671 1.15402 68.3691 1.98023 68.4928C2.68937 68.5999 2.72616 68.2252 2.71947 67.6767C2.70609 66.1012 2.90679 65.8068 4.09092 65.4456C5.33191 65.6931 5.65302 66.0744 5.59616 67.5596C5.5694 68.3223 5.79017 68.5631 6.54614 68.5062C7.43925 68.4393 8.34239 68.4962 9.24219 68.4895C12.4835 68.4694 15.7214 68.446 18.9627 68.4259C20.1535 68.4494 21.3443 68.4393 22.5318 68.5096C23.2175 68.5497 23.4015 68.3122 23.3948 67.6399C23.3614 64.8033 23.3814 61.9668 23.3814 59.1302C23.3814 56.2937 23.3681 53.4571 23.3915 50.6206C23.3982 50.0452 23.2476 49.8111 22.6355 49.8412C21.4146 49.8981 20.1903 49.888 18.9661 49.9048C14.7112 49.888 10.4598 49.8847 6.20495 49.8446C5.51588 49.8379 5.61289 50.2393 5.61289 50.6574C5.61289 53.8485 5.61623 57.0396 5.61289 60.2307C5.60954 61.5186 5.35867 61.833 4.09092 62.1976C3.03725 61.94 2.68602 61.2443 2.69606 60.1973C2.72616 56.4542 2.70609 52.7112 2.70944 48.9682C2.70944 47.4429 3.19781 46.9545 4.74653 46.9511C10.5869 46.9445 16.4272 46.9344 22.2676 46.9679C23.1038 46.9712 23.4283 46.8274 23.4015 45.8874C23.3246 43.372 23.3714 40.8532 23.3781 38.3378C23.3814 36.8359 23.833 36.3944 25.3383 36.3776C25.9838 36.371 26.6294 36.4077 27.275 36.371C28.3421 36.3074 29.001 36.7523 29.2352 37.8026C29.0311 38.8663 28.3487 39.3781 27.3118 39.2744C26.412 39.1841 26.2715 39.5353 26.2749 40.3481C26.305 49.3763 26.2916 58.401 26.2949 67.4291C26.2949 67.5897 26.3083 67.7536 26.2949 67.9142C26.2581 68.3223 26.4187 68.4862 26.8435 68.4862C31.1284 68.4594 35.4167 68.4427 39.7016 68.4259C40.7954 68.4427 41.8959 68.3992 42.9797 68.4995C43.8829 68.5832 44.0234 68.2319 44.0234 67.4158C43.9966 58.3943 44.0066 49.3729 44.0066 40.3515C44.0066 40.1909 43.9932 40.027 44.0066 39.8698C44.0401 39.4718 43.8996 39.2811 43.4647 39.2911C42.2104 39.3246 40.956 39.3279 39.6983 39.3446C37.9723 39.3279 36.2429 39.3145 34.5169 39.2911C33.2425 39.2777 32.8946 39.0135 32.5166 37.806ZM76.4062 52.4369C69.7162 52.4771 64.2806 57.9193 64.2839 64.5759C64.2873 71.2658 69.8533 76.7951 76.5065 76.7182C83.1965 76.6446 88.6521 71.1253 88.5652 64.519C88.4782 57.7822 83.0593 52.4001 76.4062 52.4369ZM60.8653 71.6371C60.8152 71.5435 60.765 71.4498 60.7148 71.3562C60.3368 71.3562 59.9589 71.3562 59.5775 71.3562C41.3775 71.3562 23.1774 71.3562 4.97734 71.3562C2.85996 71.3562 2.89007 71.3561 2.88338 73.5103C2.88003 74.2128 3.12087 74.37 3.77649 74.3633C7.1014 74.3365 10.423 74.3499 13.7479 74.3499C28.1715 74.3499 42.5984 74.3499 57.022 74.3466C57.4602 74.3466 57.9452 74.4804 58.3165 74.1225C59.1728 73.2962 60.0157 72.4633 60.8653 71.6371ZM60.2699 52.6844C61.4975 53.9154 62.6516 55.0795 63.8457 56.277C64.9529 54.7215 66.2508 53.3033 67.8664 52.2095C68.2645 51.9385 68.0638 51.7713 67.843 51.5505C66.903 50.6206 65.9631 49.6907 65.0432 48.7407C64.7589 48.4464 64.5749 48.4196 64.2705 48.7307C62.9292 50.0787 61.5678 51.4033 60.2699 52.6844ZM84.6114 77.24C85.7353 78.3472 86.8258 79.3941 87.8861 80.4746C88.1738 80.7689 88.331 80.6786 88.5685 80.4378C89.7928 79.2001 91.0271 77.9725 92.2647 76.7449C92.4855 76.5242 92.6661 76.3569 92.345 76.0458C91.3482 75.0825 90.3748 74.0957 89.4014 73.1056C89.174 72.8748 89.0234 72.8179 88.806 73.1323C87.7055 74.7446 86.2973 76.0559 84.6114 77.24ZM88.2307 48.4129C88.1069 48.5133 88.0032 48.5835 87.9162 48.6705C86.9362 49.6472 85.9728 50.6373 84.9793 51.5973C84.5813 51.982 84.8857 52.1325 85.1499 52.3198C86.5314 53.2899 87.7189 54.4573 88.6722 55.8488C88.9733 56.2903 89.1773 56.2937 89.5386 55.9124C90.4016 55.0025 91.2913 54.1194 92.1978 53.2531C92.5424 52.9253 92.6159 52.7146 92.2279 52.3466C91.0237 51.1892 89.8563 49.9917 88.6722 48.811C88.5351 48.6738 88.3879 48.5534 88.2307 48.4129ZM68.2645 77.2333C66.4582 76.0057 65.0031 74.564 63.7788 72.7443C62.6951 73.8515 61.6715 74.9186 60.6145 75.9589C60.2766 76.29 60.3067 76.484 60.6345 76.8018C61.8387 77.9659 63.0229 79.1567 64.1936 80.3575C64.488 80.6586 64.6786 80.779 65.0332 80.4144C66.0701 79.3507 67.1439 78.3304 68.2645 77.2333ZM76.4396 44.7769C75.6034 44.7769 74.7671 44.807 73.9342 44.7669C73.4057 44.7401 73.292 44.9442 73.302 45.4292C73.3321 46.6835 73.3321 47.9379 73.302 49.1889C73.2886 49.7174 73.4492 49.8512 73.9677 49.7542C75.6234 49.4465 77.2892 49.4498 78.9483 49.7609C79.3665 49.8379 79.5973 49.8144 79.5839 49.2793C79.5504 47.9613 79.5504 46.6434 79.5839 45.3255C79.5973 44.807 79.3598 44.7602 78.9483 44.7702C78.1121 44.7936 77.2758 44.7769 76.4396 44.7769ZM96.2285 64.6194C96.2285 63.753 96.2051 62.8833 96.2386 62.017C96.2586 61.5453 96.0914 61.4182 95.6365 61.4282C94.352 61.455 93.0642 61.455 91.7797 61.4282C91.3315 61.4182 91.1341 61.4985 91.2345 62.0103C91.5623 63.6995 91.5589 65.3954 91.2445 67.0846C91.1575 67.5529 91.2746 67.7168 91.763 67.7068C93.0475 67.68 94.3353 67.67 95.6197 67.7101C96.1683 67.7268 96.2519 67.4927 96.2352 67.0311C96.2085 66.2283 96.2285 65.4221 96.2285 64.6194ZM56.6406 64.3785C56.6406 65.3251 56.6707 66.1012 56.6306 66.8739C56.6005 67.4659 56.7276 67.7469 57.41 67.7135C58.5673 67.6566 59.7347 67.6566 60.8921 67.7135C61.6079 67.7503 61.6916 67.4559 61.5745 66.8672C61.337 65.6898 61.3537 64.4956 61.424 63.3014C61.4608 62.6993 61.8956 61.9066 61.5243 61.5654C61.1831 61.251 60.3636 61.4416 59.7548 61.4416C58.758 61.445 57.4334 61.1004 56.8547 61.5988C56.1924 62.1742 56.7343 63.5356 56.6406 64.3785ZM76.4797 84.3681C77.3193 84.3681 78.1589 84.3548 78.9952 84.3715C79.3765 84.3782 79.5872 84.3046 79.5805 83.8463C79.5571 82.4916 79.5672 81.1369 79.5772 79.7822C79.5805 79.4443 79.4768 79.3273 79.1256 79.3908C77.3628 79.6985 75.5967 79.7153 73.8339 79.4042C73.4559 79.3373 73.3053 79.4477 73.3087 79.8424C73.3221 81.1637 73.3254 82.4883 73.3053 83.8095C73.2987 84.2277 73.4458 84.3815 73.864 84.3715C74.737 84.3514 75.6067 84.3681 76.4797 84.3681Z" fill="#040404"/>
<path fill-rule="evenodd" clip-rule="evenodd" d="M39.6947 68.4266C35.4097 68.4433 31.1215 68.46 26.8365 68.4868C26.4117 68.4901 26.2512 68.3229 26.288 67.9148C26.3013 67.7542 26.288 67.5937 26.288 67.4298C26.288 58.4016 26.298 49.3769 26.2679 40.3488C26.2645 39.5359 26.405 39.1847 27.3048 39.275C28.3418 39.3821 29.0275 38.8703 29.2282 37.8032C30.322 37.8032 31.4158 37.8032 32.513 37.8032C32.8943 39.0108 33.2388 39.275 34.5099 39.2917C36.2359 39.3152 37.9653 39.3285 39.6913 39.3453C39.6913 49.0424 39.6947 58.7361 39.6947 68.4266Z" fill="#69CFB2"/>
<path fill-rule="evenodd" clip-rule="evenodd" d="M13.6408 40.3449C11.3194 40.3516 9.23214 38.8263 8.54977 36.6152C7.86404 34.4008 8.71701 31.9523 10.627 30.6444C12.4968 29.3633 15.0792 29.4034 16.842 30.8552C17.4006 31.3134 17.7685 31.2766 18.3405 30.9756C21.6688 29.2228 25.0104 27.4934 28.3621 25.7875C28.894 25.5166 29.0779 25.2255 29.0244 24.6034C28.8405 22.5629 29.68 20.9373 31.3592 19.8267C33.0418 18.7162 34.8782 18.6192 36.6778 19.5424C37.2163 19.8201 37.4973 19.7498 37.9187 19.3852C42.0532 15.8362 46.2043 12.3039 50.3621 8.78161C50.7702 8.43373 50.9374 8.16947 50.7501 7.5841C49.9707 5.17237 51.0445 2.60676 53.2488 1.39923C55.4599 0.188341 58.1793 0.69009 59.8217 2.60342C61.4273 4.47996 61.531 7.28305 60.0626 9.20642C58.4971 11.2602 55.781 11.956 53.4963 10.822C52.9846 10.5678 52.6969 10.5779 52.2587 10.9525C48.1009 14.5249 43.9263 18.074 39.7418 21.613C39.3236 21.9675 39.1898 22.2719 39.3571 22.8339C40.0094 25.0382 39.1062 27.4332 37.223 28.6809C35.3331 29.9319 32.7875 29.845 31.008 28.3932C30.5397 28.0086 30.2219 28.0588 29.7469 28.3063C26.3585 30.0825 22.9566 31.8352 19.5548 33.588C19.0999 33.8222 18.8356 34.0195 18.8992 34.6651C19.1969 37.6823 16.6982 40.3348 13.6408 40.3449ZM13.6676 37.4381C14.9353 37.418 16.0726 36.2506 16.0459 34.9963C16.0191 33.7486 14.8149 32.5879 13.5806 32.618C12.3095 32.6481 11.2057 33.8021 11.2224 35.0799C11.2391 36.3744 12.363 37.4582 13.6676 37.4381ZM55.7542 8.44711C57.0521 8.46718 58.186 7.3834 58.2128 6.09558C58.2395 4.82449 57.1223 3.67716 55.8345 3.65709C54.5266 3.63702 53.4194 4.71076 53.3993 6.01196C53.386 7.32319 54.453 8.42704 55.7542 8.44711ZM36.6677 24.2923C36.6878 22.9811 35.6174 21.8772 34.3128 21.8605C33.0016 21.8404 31.8978 22.9108 31.881 24.2154C31.861 25.5266 32.9314 26.6304 34.2359 26.6472C35.5438 26.6672 36.6477 25.6002 36.6677 24.2923Z" fill="#040403"/>
<path fill-rule="evenodd" clip-rule="evenodd" d="M18.9665 68.433C15.7252 68.4531 12.4873 68.4765 9.246 68.4966C8.3462 68.5033 7.44306 68.4464 6.54995 68.5133C5.79398 68.5702 5.56987 68.3293 5.59997 67.5667C5.65683 66.0815 5.33572 65.7002 4.09473 65.4527C4.09473 64.3689 4.09473 63.2884 4.09807 62.2047C5.36582 61.8401 5.61669 61.529 5.62004 60.2378C5.62673 57.0467 5.62338 53.8556 5.62004 50.6645C5.62004 50.2497 5.51969 49.845 6.2121 49.8516C10.4669 49.8918 14.7184 49.8951 18.9732 49.9119C18.9665 56.0867 18.9665 62.2615 18.9665 68.433Z" fill="#BFD6ED"/>
<path fill-rule="evenodd" clip-rule="evenodd" d="M60.2266 24.0255C61.4809 24.0155 62.7386 24.0255 63.993 23.9821C64.5784 23.962 64.7088 24.2162 64.6754 24.728C64.6453 25.1762 64.662 25.6311 64.672 26.0794C64.6988 27.1899 65.0668 27.5946 66.2041 27.792C66.2107 28.8958 66.2141 30.003 66.2208 31.1069C64.9631 31.3812 64.672 31.7224 64.6687 33.0068C64.662 36.7666 64.6553 40.523 64.6787 44.2828C64.6821 44.8748 64.5951 45.2361 63.9295 45.3465C63.4478 45.4268 63.0999 45.8114 62.7554 46.1493C61.9091 46.9822 61.0561 47.805 60.2098 48.6313C60.2165 40.4293 60.2232 32.2274 60.2266 24.0255Z" fill="#BFD6ED"/>
<path fill-rule="evenodd" clip-rule="evenodd" d="M60.2262 24.0253C60.2195 32.2272 60.2162 40.4325 60.2095 48.6344C59.4468 49.4171 58.6808 50.1931 57.9249 50.9792C56.7541 52.2035 56.7575 53.3876 57.9316 54.6118C58.7544 55.4682 59.584 56.3178 60.4069 57.1708C60.4035 57.6123 60.4035 58.0505 60.4002 58.492C59.1123 58.5054 57.8212 58.5221 56.5334 58.5288C54.5632 58.5422 53.7269 59.3684 53.7135 61.3654C53.7002 63.4627 53.6834 65.56 53.7269 67.6539C53.7403 68.3731 53.4526 68.5036 52.8204 68.4902C51.1446 68.4534 49.4654 68.4367 47.7896 68.4969C47.0169 68.5236 46.8965 68.2192 46.8998 67.5402C46.9232 61.5728 46.9132 55.6053 46.9132 49.6379C46.9132 41.4761 46.9266 33.3143 46.8931 25.1559C46.8898 24.2561 47.0637 23.9383 48.0371 23.9584C52.1013 24.0287 56.1621 24.0086 60.2262 24.0253Z" fill="#BFD6ED"/>
<path fill-rule="evenodd" clip-rule="evenodd" d="M76.406 52.4367C83.0592 52.3966 88.4781 57.782 88.5651 64.5222C88.652 71.1285 83.1964 76.6477 76.5064 76.7213C69.8532 76.7949 64.2872 71.2657 64.2838 64.579C64.2805 57.9192 69.7161 52.4769 76.406 52.4367ZM76.3893 72.3026C80.6508 72.326 84.1631 68.8573 84.1898 64.5958C84.2166 60.3978 80.6441 56.8187 76.4295 56.8187C72.2181 56.8187 68.7561 60.264 68.7059 64.5055C68.6591 68.7803 72.1044 72.2792 76.3893 72.3026Z" fill="#6498CA"/>
<path fill-rule="evenodd" clip-rule="evenodd" d="M60.8654 71.6383C60.0158 72.4679 59.1728 73.2974 58.3165 74.1203C57.9419 74.4782 57.4602 74.3444 57.022 74.3444C42.5984 74.3511 28.1715 74.3478 13.7479 74.3478C10.423 74.3478 7.10145 74.331 3.77653 74.3611C3.12426 74.3678 2.88342 74.2106 2.88342 73.5082C2.89011 71.354 2.86001 71.354 4.97738 71.354C23.1775 71.354 41.3775 71.354 59.5776 71.354C59.9556 71.354 60.3335 71.354 60.7149 71.354C60.7651 71.451 60.8152 71.5447 60.8654 71.6383Z" fill="#6498CA"/>
<path fill-rule="evenodd" clip-rule="evenodd" d="M39.6951 68.4262C39.6951 58.7325 39.6951 49.0387 39.6918 39.3449C40.9461 39.3282 42.2005 39.3248 43.4582 39.2914C43.8931 39.2814 44.0336 39.4687 44.0001 39.8701C43.9867 40.0306 44.0001 40.1912 44.0001 40.3518C44.0001 49.3732 43.9901 58.3946 44.0168 67.416C44.0202 68.2289 43.8763 68.5801 42.9732 68.4998C41.8861 68.3995 40.7889 68.4463 39.6951 68.4262Z" fill="#69CFB2"/>
<path fill-rule="evenodd" clip-rule="evenodd" d="M18.9661 68.433C18.9661 62.2582 18.9694 56.0867 18.9694 49.9118C20.1937 49.8951 21.4179 49.9051 22.6389 49.8483C23.251 49.8215 23.3982 50.0523 23.3948 50.6276C23.3714 53.4642 23.3848 56.3007 23.3848 59.1373C23.3848 61.9738 23.3647 64.8104 23.3982 67.6469C23.4049 68.3193 23.2209 68.5568 22.5352 68.5166C21.3477 68.4497 20.1535 68.4564 18.9661 68.433Z" fill="#BFD6ED"/>
<path fill-rule="evenodd" clip-rule="evenodd" d="M60.2704 52.6839C61.5682 51.4028 62.9296 50.0782 64.2676 48.7268C64.572 48.4191 64.756 48.4425 65.0403 48.7368C65.9602 49.6868 66.9035 50.6134 67.8401 51.5466C68.0642 51.7674 68.2649 51.938 67.8635 52.2056C66.2479 53.2994 64.95 54.7177 63.8428 56.2731C62.652 55.0789 61.498 53.9182 60.2704 52.6839Z" fill="#BFD6ED"/>
<path fill-rule="evenodd" clip-rule="evenodd" d="M84.6115 77.2414C86.294 76.0573 87.7056 74.7461 88.8061 73.1338C89.0201 72.8193 89.174 72.8796 89.4015 73.107C90.3749 74.0938 91.3482 75.0806 92.3451 76.0473C92.6662 76.3583 92.4855 76.5256 92.2648 76.7464C91.0271 77.974 89.7928 79.2016 88.5686 80.4392C88.3311 80.6801 88.1772 80.7704 87.8862 80.476C86.8258 79.3989 85.7387 78.3486 84.6115 77.2414Z" fill="#BFD6ED"/>
<path fill-rule="evenodd" clip-rule="evenodd" d="M88.2309 48.4136C88.3881 48.5541 88.5353 48.6745 88.6691 48.8083C89.8532 49.9891 91.0173 51.1866 92.2248 52.3439C92.6128 52.7152 92.5392 52.9226 92.1947 53.2504C91.2882 54.1168 90.3984 54.9999 89.5354 55.9097C89.1742 56.291 88.9701 56.2877 88.6691 55.8461C87.7157 54.4546 86.5283 53.2872 85.1468 52.3172C84.8825 52.1332 84.5781 51.9793 84.9762 51.5947C85.9697 50.6346 86.933 49.6445 87.9131 48.6678C88.0034 48.5842 88.1071 48.5139 88.2309 48.4136Z" fill="#BFD6ED"/>
<path fill-rule="evenodd" clip-rule="evenodd" d="M68.2647 77.2336C67.1442 78.3307 66.0738 79.3543 65.0368 80.4147C64.6823 80.7793 64.4882 80.6589 64.1972 80.3578C63.0265 79.157 61.8424 77.9662 60.6382 76.8021C60.307 76.4843 60.2803 76.2903 60.6181 75.9592C61.6751 74.9222 62.6987 73.8518 63.7825 72.7446C65.0034 74.5643 66.4584 76.006 68.2647 77.2336Z" fill="#BFD6ED"/>
<path fill-rule="evenodd" clip-rule="evenodd" d="M76.4396 44.777C77.2759 44.777 78.1121 44.7937 78.9484 44.7703C79.3598 44.7603 79.5973 44.8071 79.5839 45.3256C79.5471 46.6435 79.5505 47.9614 79.5839 49.2794C79.5973 49.8146 79.3665 49.838 78.9484 49.761C77.2893 49.4533 75.6268 49.4466 73.9677 49.7543C73.4492 49.8513 73.2887 49.7142 73.302 49.189C73.3321 47.9347 73.3321 46.6803 73.302 45.4293C73.292 44.9443 73.4057 44.7402 73.9342 44.767C74.7671 44.8105 75.6067 44.777 76.4396 44.777Z" fill="#BFD6ED"/>
<path fill-rule="evenodd" clip-rule="evenodd" d="M96.2287 64.6194C96.2287 65.4222 96.2086 66.2283 96.2353 67.0311C96.2521 67.4927 96.1684 67.7269 95.6199 67.7102C94.3354 67.67 93.0476 67.68 91.7631 67.7068C91.2747 67.7168 91.1576 67.5529 91.2446 67.0846C91.559 65.3954 91.5624 63.6962 91.2346 62.0103C91.1342 61.4985 91.3316 61.4216 91.7798 61.4283C93.0643 61.4517 94.3521 61.455 95.6366 61.4283C96.0915 61.4182 96.2588 61.5453 96.2387 62.017C96.2052 62.8833 96.2287 63.753 96.2287 64.6194Z" fill="#BFD6ED"/>
<path fill-rule="evenodd" clip-rule="evenodd" d="M56.641 64.3785C56.7347 63.5355 56.1928 62.1741 56.8551 61.6021C57.4338 61.1004 58.7584 61.4482 59.7552 61.4449C60.364 61.4416 61.1868 61.2542 61.5247 61.5687C61.896 61.9099 61.4578 62.706 61.4243 63.3047C61.3541 64.4989 61.3374 65.693 61.5749 66.8705C61.6953 67.4558 61.6116 67.7535 60.8925 67.7167C59.7351 67.6565 58.5677 67.6599 57.4103 67.7167C56.728 67.7502 56.6009 67.4692 56.631 66.8772C56.6711 66.0978 56.641 65.3217 56.641 64.3785Z" fill="#BFD6ED"/>
<path fill-rule="evenodd" clip-rule="evenodd" d="M76.4801 84.3685C75.6104 84.3685 74.7374 84.3551 73.8677 84.3752C73.4495 84.3853 73.3024 84.2314 73.3091 83.8133C73.3258 82.492 73.3258 81.1674 73.3124 79.8461C73.3091 79.4514 73.4562 79.341 73.8376 79.4079C75.6004 79.719 77.3699 79.7023 79.1293 79.3945C79.4772 79.3343 79.5809 79.4514 79.5809 79.7859C79.5709 81.1406 79.5608 82.4953 79.5843 83.8501C79.5943 84.3083 79.3836 84.3819 78.9989 84.3752C78.1593 84.3551 77.3197 84.3685 76.4801 84.3685Z" fill="#BFD6ED"/>
<path fill-rule="evenodd" clip-rule="evenodd" d="M60.4037 58.4912C60.407 58.0497 60.407 57.6115 60.4104 57.1699C60.8318 57.5546 61.2533 57.9393 61.7785 58.4176C61.2466 58.5915 60.8252 58.5246 60.4037 58.4912Z" fill="#CBEBFF"/>
<path fill-rule="evenodd" clip-rule="evenodd" d="M13.6675 37.4379C12.363 37.458 11.2391 36.3742 11.2224 35.0797C11.2056 33.7985 12.3095 32.6479 13.5806 32.6178C14.8149 32.5877 16.0191 33.7484 16.0458 34.996C16.0726 36.2504 14.9353 37.4178 13.6675 37.4379Z" fill="#69CFB2"/>
<path fill-rule="evenodd" clip-rule="evenodd" d="M55.7546 8.44752C54.45 8.42745 53.3863 7.32361 53.403 6.01237C53.4198 4.71117 54.5303 3.63743 55.8382 3.6575C57.1226 3.67757 58.2432 4.8249 58.2165 6.096C58.1897 7.38382 57.0524 8.46759 55.7546 8.44752Z" fill="#BFD6ED"/>
<path fill-rule="evenodd" clip-rule="evenodd" d="M36.6683 24.2919C36.6482 25.5998 35.5477 26.6669 34.2365 26.6468C32.9286 26.6267 31.8616 25.5262 31.8816 24.215C31.9017 22.9071 33.0022 21.8401 34.3134 21.8601C35.618 21.8769 36.685 22.9807 36.6683 24.2919Z" fill="#BFD6ED"/>
<path fill-rule="evenodd" clip-rule="evenodd" d="M76.3891 72.3033C72.1042 72.2799 68.6589 68.781 68.709 64.5061C68.7592 60.268 72.2213 56.8227 76.4326 56.8193C80.6473 56.816 84.2197 60.3985 84.193 64.5964C84.1629 68.8546 80.6506 72.3233 76.3891 72.3033ZM76.3925 69.3965C79.0785 69.4099 81.2695 67.259 81.2862 64.5931C81.3029 61.9673 79.0551 59.7161 76.4259 59.7228C73.8001 59.7295 71.6459 61.877 71.6158 64.5095C71.5857 67.2155 73.7031 69.3831 76.3925 69.3965Z" fill="#030303"/>
<path fill-rule="evenodd" clip-rule="evenodd" d="M76.393 69.3959C73.7037 69.3825 71.5863 67.2149 71.6164 64.5089C71.6465 61.8764 73.804 59.7289 76.4265 59.7222C79.0557 59.7155 81.3001 61.9667 81.2868 64.5925C81.27 67.2584 79.0791 69.4093 76.393 69.3959Z" fill="#69CFB2"/>
</svg>
