<svg width="24" height="24" viewBox="0 0 24 24" fill="none" xmlns="http://www.w3.org/2000/svg">
<path d="M12.2176 0C5.71098 0 0.43575 5.23398 0.43575 11.691C0.43575 13.8997 1.05354 15.9655 2.12641 17.7278L0 24L6.52307 21.9277C8.211 22.8537 10.1523 23.382 12.2176 23.382C18.7251 23.382 24 18.1473 24 11.691C24 5.23398 18.7251 0 12.2176 0ZM18.0763 16.1309C17.7991 16.8181 16.5455 17.4452 15.9924 17.474C15.4399 17.5033 15.4241 17.9023 12.4117 16.5936C9.39964 15.2847 7.58748 12.102 7.44461 11.897C7.30163 11.6928 6.27782 10.2338 6.33305 8.76552C6.38866 7.29696 7.19271 6.60413 7.4797 6.31596C7.76636 6.02737 8.09502 5.97568 8.2957 5.97241C8.53291 5.96855 8.68655 5.96534 8.86211 5.97182C9.0375 5.97846 9.30096 5.93513 9.52907 6.54177C9.75707 7.14836 10.3028 8.63925 10.3726 8.79118C10.4424 8.94327 10.4855 9.11936 10.3781 9.31462C10.2703 9.51032 10.2151 9.63257 10.0587 9.80121C9.9015 9.96986 9.72798 10.1785 9.58773 10.3074C9.4313 10.4502 9.26791 10.6059 9.43237 10.9111C9.59673 11.2161 10.1638 12.2159 11.0277 13.0398C12.1379 14.099 13.0954 14.4503 13.3901 14.6104C13.6855 14.7713 13.8618 14.7534 14.045 14.5606C14.2274 14.3678 14.8293 13.7171 15.0412 13.4266C15.2531 13.1352 15.4517 13.1923 15.7239 13.3018C15.9959 13.4117 17.4466 14.1887 17.7421 14.3492C18.0372 14.5093 18.2345 14.5918 18.3051 14.7188C18.3756 14.8463 18.3534 15.4437 18.0763 16.1309Z" fill="#526470"/>
</svg>
